/* XPM */
static char *B01_xpm[]={
"32 32 293 2",
"      c #007600",
" 0    c #007500",
" 1    c #007800",
" 2    c #007A00",
" 3    c #007B00",
" 4    c #007900",
" 5    c #007700",
" 6    c #008100",
" 7    c #008400",
" 8    c #008500",
" 9    c #008700",
" a    c #008800",
" b    c #005D00",
" c    c #004500",
" d    c #003400",
" e    c #000A00",
" f    c #000300",
" g    c #000000",
" h    c #001C00",
" i    c #005E00",
" j    c #007C00",
" k    c #007E00",
" l    c #008900",
" m    c #004C00",
" n    c #002300",
" o    c #002000",
" p    c #001B00",
" q    c #000900",
" r    c #002B00",
" s    c #006100",
" t    c #009100",
" u    c #009200",
" v    c #000800",
" w    c #000C00",
" x    c #008F00",
" y    c #008C00",
" z    c #007D00",
" A    c #002600",
" B    c #000B00",
" C    c #000400",
" D    c #000100",
" E    c #002100",
" F    c #005700",
" G    c #00A100",
" H    c #00A91C",
" I    c #00AC2A",
" J    c #00AE2D",
" K    c #00AE2F",
" L    c #00AE2E",
" M    c #00AF2F",
" N    c #001B04",
" O    c #00AD2C",
" P    c #00AB24",
" Q    c #00A406",
" R    c #006800",
" S    c #000D00",
" T    c #003900",
" U    c #008B00",
" V    c #009800",
" W    c #009C00",
" X    c #009F00",
" Y    c #00AA00",
" Z    c #25C153",
" &    c #6ACE7A",
"0     c #84D58F",
"00    c #8FD998",
"01    c #95DA9C",
"02    c #96DB9D",
"03    c #162316",
"04    c #92DA9A",
"05    c #89D793",
"06    c #74D082",
"07    c #47C663",
"08    c #00B224",
"09    c #005800",
"0a    c #000500",
"0b    c #004F00",
"0c    c #008A00",
"0d    c #001F00",
"0e    c #004300",
"0f    c #00A200",
"0g    c #00A400",
"0h    c #00C047",
"0i    c #7FD68A",
"0j    c #AAE3AF",
"0k    c #C0E9C3",
"0l    c #CCEDCE",
"0m    c #CEEED1",
"0n    c #CFEED2",
"0o    c #CFEED1",
"0p    c #D0EFD2",
"0q    c #D0EED2",
"0r    c #212722",
"0s    c #CCEECF",
"0t    c #C5EBC7",
"0u    c #B5E6B8",
"0v    c #91DB99",
"0w    c #48C862",
"0x    c #00AB00",
"0y    c #008600",
"0z    c #003500",
"0A    c #008E00",
"0B    c #009A00",
"0C    c #001600",
"0D    c #00A900",
"0E    c #29C754",
"0F    c #8BDB95",
"0G    c #B7E7BA",
"0H    c #CCEECE",
"0I    c #D5F1D7",
"0J    c #D9F2DB",
"0K    c #DAF3DC",
"0L    c #DAF3DB",
"0M    c #222923",
"0N    c #D8F2D9",
"0O    c #D1EFD3",
"0P    c #C0EBC3",
"0Q    c #9EE1A5",
"0R    c #47A85A",
"0S    c #000200",
"0T    c #003100",
"0U    c #004D00",
"0V    c #006D00",
"0W    c #009B00",
"0X    c #006C00",
"0Y    c #00912C",
"0Z    c #71D680",
"0&    c #A0E2A6",
"1     c #B7E9BB",
"10    c #C0EBC2",
"11    c #C5ECC6",
"12    c #C6EDC7",
"13    c #C5EDC7",
"14    c #C6EEC8",
"15    c #82A084",
"16    c #2C392D",
"17    c #192519",
"18    c #010201",
"19    c #001104",
"1a    c #009700",
"1b    c #00A700",
"1c    c #00A300",
"1d    c #009300",
"1e    c #003A00",
"1f    c #00AC00",
"1g    c #053A12",
"1h    c #70D67E",
"1i    c #88DD92",
"1j    c #94E09C",
"1k    c #99E1A0",
"1l    c #9AE2A1",
"1m    c #70A475",
"1n    c #466949",
"1o    c #0E1B0F",
"1p    c #486E4A",
"1q    c #65A06B",
"1r    c #79D985",
"1s    c #4ACF65",
"1t    c #00BF27",
"1u    c #00AF00",
"1v    c #00AD00",
"1w    c #00A800",
"1x    c #001900",
"1y    c #009D00",
"1z    c #00A500",
"1A    c #00B100",
"1B    c #004904",
"1C    c #1A5A26",
"1D    c #031205",
"1E    c #0A2710",
"1F    c #153E1C",
"1G    c #40944C",
"1H    c #5CCF6D",
"1I    c #5DD470",
"1J    c #133819",
"1K    c #59D36D",
"1L    c #49D064",
"1M    c #29CB52",
"1N    c #00C22C",
"1O    c #00B000",
"1P    c #007F00",
"1Q    c #004B00",
"1R    c #00A600",
"1S    c #00B200",
"1T    c #00B400",
"1U    c #00AA2E",
"1V    c #00C83C",
"1W    c #00C93E",
"1X    c #00C93D",
"1Y    c #002004",
"1Z    c #00C73A",
"1&    c #00C630",
"2     c #00BF15",
"20    c #00B600",
"21    c #00B300",
"22    c #005500",
"23    c #00B500",
"24    c #00BE00",
"25    c #00C100",
"26    c #001E02",
"27    c #00BD00",
"28    c #00B800",
"29    c #00B700",
"2a    c #009E00",
"2b    c #006700",
"2c    c #002E00",
"2d    c #005A00",
"2e    c #00BC00",
"2f    c #00BF00",
"2g    c #00C000",
"2h    c #001D00",
"2i    c #00BB00",
"2j    c #00B900",
"2k    c #00A000",
"2l    c #002D00",
"2m    c #00BA00",
"2n    c #001E00",
"2o    c #008000",
"2p    c #008D00",
"2q    c #001400",
"2r    c #00C300",
"2s    c #00C400",
"2t    c #00C200",
"2u    c #001A00",
"2v    c #005B00",
"2w    c #00C600",
"2x    c #00C800",
"2y    c #00C700",
"2z    c #002A00",
"2A    c #00C500",
"2B    c #00AE00",
"2C    c #008200",
"2D    c #009400",
"2E    c #003600",
"2F    c #00C900",
"2G    c #00CA00",
"2H    c #00CB00",
"2I    c #008300",
"2J    c #009000",
"2K    c #000700",
"2L    c #005900",
"2M    c #00CC00",
"2N    c #00CE00",
"2O    c #003300",
"2P    c #00D300",
"2Q    c #00D100",
"2R    c #003F00",
"2S    c #009600",
"2T    c #00D400",
"2U    c #00D500",
"2V    c #00D600",
"2W    c #00D700",
"2X    c #005600",
"2Y    c #00CD00",
"2Z    c #006600",
"2&    c #006E00",
"3     c #003800",
"30    c #00D200",
"31    c #006200",
"32    c #00D800",
"33    c #00DA00",
"34    c #00D900",
"35    c #00DC00",
"36    c #00DD00",
"37    c #010600",
"38    c #003E00",
"39    c #009900",
"3a    c #009500",
"3b    c #00D000",
"3c    c #00DE00",
"3d    c #00E000",
"3e    c #00DF00",
"3f    c #00DB00",
"3g    c #00CF00",
"3h    c #005C00",
"3i    c #00E100",
"3j    c #00E200",
"3k    c #00E300",
"3l    c #003B00",
"3m    c #005100",
"3n    c #000600",
"3o    c #004E00",
"3p    c #001100",
"3q    c #004900",
"3r    c #001800",
"3s    c #005300",
"3t    c #006A00",
"3u    c #004400",
"3v    c #001A01",
"3w    c #004600",
"3x    c #006000",
"3y    c #010800",
"3z    c #010500",
"     0 0 0 1 2 3 3 2 2 3 3 3 3 2 3 3 3 2 3 3 3 3 3 4 1       0 0",
" 0   5 3 6 7 8 9 a a 9 9 6 b c d e f g h i 9 9 9 9 8 7 6 j     0",
"   5 k 7 l 7 0 m n o p f q r s 4 t u v   w g o 4 u x y l 7 z 5  ",
"   A B C D E c F   G H I J K L K M M N O P Q R S g T U u U 8 z  ",
" 0 g g   V W X Y Z &0 00010102020201030405060708 G090a g0b0c 6  ",
" 20d 0 g0e0f0g0h0i0j0k0l0m0n0o0p0p0q0r0s0t0u0v0w0x0g0f0y g g g 2",
" 30z0A0B0C f0D0E0F0G0H0I0J0K0L0K0K0K0M0N0O0P0Q0R i r0S p0T0b g 3",
" z0U0V0W0g0X g0Y0Z0&1 10111213141313 g1516171819 b1a1b1c0W1d0C z",
" j i1e W0g0D1f g1g1h1i1j1k1l1m1n1o g g1p1q1r1s1t1u1v1w0g W 8 T j",
" k j1x1y1z0D1v1A1B g1C1D g1E1F1G1H1I1J1K1L1M1N1A1O1v0D1z W1P1Q k",
" k0c0a1y1R0x1O1S1T R g1U1V1W1W1W1W1X1Y1Z1&2 20211S1u1f1R1y b22 k",
"1P y E X1w1f1A23231z 4242525252525252625272829201T1A1f1w2a d2b1P",
" k U2c G0D1v2129281w2d2e242f2f2g2f2g2h272i2i2j28291T1v0D2k2h 61P",
"1P y2l 9 Y1u232m2m2e0z2724252g252g252n24272e2e2m2m231u0x G0a y2o",
" 62p1Q0V1f1A282i272f2q25252r2r2s2r2s2n2t252f24272i291S1f0f2u0A 6",
" 60A k2v1u1T2m242g252u2s2w2w2w2x2y2w2z2A2A2s252g242j232B1z2c0A 6",
"2C x2D2E1A20272t2s2A2c2y2F2G2H2H1d1e g2F2y2y2A2s252e201O1z2c x2C",
"2I2J2a2K2128242r2w2F2L2M2N z h g0C X0W g0c2G2x2w2s24281S2J2O2J2C",
" 7 t X f1T2m252w2F28 g g g09232P2P2P2Q2Q g r2H2F2w252i1T 22R u 7",
" 8 u2k2n23272S o g o g2m2T2U2V2W2W2V2U2T2P2X g2Y2F2r2e232Z2& u 8",
" 82D G1e g C3 0A2N30312M32323333333334322V2T0x g 02w24292d0c1d 8",
"0y2D G t g252y2N2Q2T0b1v3335353636363533342W2T2Q370d2g2m38392D0y",
"0y3a0f2B2v2l2F3b2P2V2v2a363c3c3d3d3e3c363f342V2P3g3h g20 n1c2D0y",
" 93a0g2B2i e1P2Q2T321P 33e3d3i3j3j3d3d3e3633322T2Q2G2r g g1c3a 9",
" 92S1c1u2e2s g302U340g093e3i3k3k3k3k3j3e3635342U302y2O g3l1c2S 9",
"0y2S0f1u2j2t28 g2T2W1v3m3e3e3i3i3i3d3d3e35342W 83n0S  2m1u1c3a0y",
" 81d2k1f20252y2b A2P2y0b3335363c3c35353f343o g E2j2y2g201f2k2D 7",
" 6 t0W1b1A2i252x3p2C2Q3q2U2W2W3434321f3r g2Z2N2M2x252m1S1w W2J 6",
"2o U1a2k Y1S2m2f25 g233s2H2Y2Y2N3t g0C G2G2x2A25242m1S Y G2S U 6",
" 6 70A V G1w1u1T201v g3u25213v g3w2r2t252f2e2m201T1u1w G V0A 7 6",
"2o2C0y x2S1y0f1b0D1f3x g3y3z 0231T1T1T1S1A1u1f0D1R0f2a2S x0y2C2o",
"2o2C 70y l x2D V0W2a2k R V0g0g1z0g1z0g0f0f X1y0W V2D2J l0y 72C2o"};
