/* XPM */
static char *B02_xpm[]={
"32 32 265 2",
"      c #007300",
" 0    c #007200",
" 1    c #007600",
" 2    c #007800",
" 3    c #007700",
" 4    c #007500",
" 5    c #007C00",
" 6    c #007D00",
" 7    c #008000",
" 8    c #008100",
" 9    c #008300",
" a    c #008200",
" b    c #007400",
" c    c #004E00",
" d    c #003600",
" e    c #006400",
" f    c #008C00",
" g    c #008F00",
" h    c #009000",
" i    c #008D00",
" j    c #008E00",
" k    c #008B00",
" l    c #008800",
" m    c #008500",
" n    c #007B00",
" o    c #004500",
" p    c #001B00",
" q    c #002D00",
" r    c #003C00",
" s    c #005C00",
" t    c #009900",
" u    c #00A100",
" v    c #00A91C",
" w    c #00AC2B",
" x    c #00A92B",
" y    c #00A92D",
" z    c #00A92C",
" A    c #00AA2D",
" B    c #00A82A",
" C    c #00A623",
" D    c #00A106",
" E    c #009500",
" F    c #009100",
" G    c #007A00",
" H    c #003B00",
" I    c #009300",
" J    c #005900",
" K    c #004100",
" L    c #0B5721",
" M    c #306539",
" N    c #568E5E",
" O    c #85CB8E",
" P    c #91D499",
" Q    c #91D498",
" R    c #92D599",
" S    c #90D498",
" T    c #8DD496",
" U    c #86D190",
" V    c #72CB7F",
" W    c #45C060",
" X    c #00AE22",
" Y    c #009E00",
" Z    c #009B00",
" &    c #009700",
"0     c #009400",
"00    c #008600",
"01    c #003900",
"02    c #009C00",
"03    c #00A000",
"04    c #00A400",
"05    c #00C047",
"06    c #7FD68A",
"07    c #8BBA8F",
"08    c #3B493C",
"09    c #000000",
"0a    c #8FA58F",
"0b    c #CFEED1",
"0c    c #CAE8CC",
"0d    c #CAE7CC",
"0e    c #C6E7C9",
"0f    c #BFE6C3",
"0g    c #B1E0B4",
"0h    c #8CD595",
"0i    c #46C35F",
"0j    c #00A700",
"0k    c #008900",
"0l    c #008700",
"0m    c #006900",
"0n    c #003E00",
"0o    c #00A900",
"0p    c #25B24B",
"0q    c #5D9263",
"0r    c #435744",
"0s    c #596A5A",
"0t    c #A3B9A5",
"0u    c #D4ECD5",
"0v    c #D4ECD6",
"0w    c #D5EDD6",
"0x    c #D4EBD5",
"0y    c #D2EBD3",
"0z    c #CBE9CD",
"0A    c #BAE5BE",
"0B    c #99DB9F",
"0C    c #56C86C",
"0D    c #00AE00",
"0E    c #00A500",
"0F    c #009D00",
"0G    c #009600",
"0H    c #007900",
"0I    c #008400",
"0J    c #009200",
"0K    c #002E00",
"0L    c #00A600",
"0M    c #00440F",
"0N    c #102813",
"0O    c #9BDCA0",
"0P    c #B6E9BA",
"0Q    c #C1ECC3",
"0R    c #BEE6C1",
"0S    c #C0E7C2",
"0T    c #C1E7C3",
"0U    c #C0E6C2",
"0V    c #BBE6BF",
"0W    c #B6E4BA",
"0X    c #A6DFAA",
"0Y    c #83D58B",
"0Z    c #31C455",
"0&    c #00AB00",
"1     c #00A300",
"10    c #009F00",
"11    c #009800",
"12    c #005800",
"13    c #00A800",
"14    c #005F00",
"15    c #001401",
"16    c #053F15",
"17    c #3D7B45",
"18    c #89DD92",
"19    c #94DE9B",
"1a    c #95DB9C",
"1b    c #95DC9D",
"1c    c #96DC9D",
"1d    c #95DB9D",
"1e    c #96DB9C",
"1f    c #93DB9A",
"1g    c #89D892",
"1h    c #76D382",
"1i    c #47C962",
"1j    c #00BA24",
"1k    c #00AA00",
"1l    c #004300",
"1m    c #003E02",
"1n    c #00310B",
"1o    c #185925",
"1p    c #56D06A",
"1q    c #5BD26F",
"1r    c #5BCE6D",
"1s    c #5BCE6E",
"1t    c #5BCF6E",
"1u    c #5BCE6C",
"1v    c #57CD6A",
"1w    c #47CB62",
"1x    c #2BC650",
"1y    c #00BE2A",
"1z    c #00AC00",
"1A    c #004400",
"1B    c #00B300",
"1C    c #004200",
"1D    c #002C03",
"1E    c #004E0F",
"1F    c #00C43B",
"1G    c #00C93D",
"1H    c #00C53C",
"1I    c #00C43C",
"1J    c #00C33A",
"1K    c #00C238",
"1L    c #00C12E",
"1M    c #00BB15",
"1N    c #00B100",
"1O    c #00AF00",
"1P    c #000400",
"1Q    c #006E00",
"1R    c #00B400",
"1S    c #005100",
"1T    c #002B01",
"1U    c #003F00",
"1V    c #00AD00",
"1W    c #00C100",
"1X    c #00BC00",
"1Y    c #00BD01",
"1Z    c #00BB00",
"1&    c #00B900",
"2     c #009A00",
"20    c #000800",
"21    c #00B600",
"22    c #00B200",
"23    c #002B00",
"24    c #003700",
"25    c #00BF00",
"26    c #00BA00",
"27    c #00B500",
"28    c #00B700",
"29    c #00BD00",
"2a    c #003000",
"2b    c #00B800",
"2c    c #00B000",
"2d    c #00C200",
"2e    c #007E00",
"2f    c #002C00",
"2g    c #00C400",
"2h    c #008A00",
"2i    c #00BE00",
"2j    c #00C000",
"2k    c #00C600",
"2l    c #00CA00",
"2m    c #003300",
"2n    c #006700",
"2o    c #00C900",
"2p    c #007F00",
"2q    c #00C700",
"2r    c #00CF00",
"2s    c #003D00",
"2t    c #003400",
"2u    c #005D00",
"2v    c #00CC00",
"2w    c #00C300",
"2x    c #00A200",
"2y    c #00C500",
"2z    c #00C800",
"2A    c #00CB00",
"2B    c #00CE00",
"2C    c #00CD00",
"2D    c #00D300",
"2E    c #004F00",
"2F    c #002F00",
"2G    c #005500",
"2H    c #00D000",
"2I    c #00D100",
"2J    c #00D600",
"2K    c #003500",
"2L    c #004600",
"2M    c #00D200",
"2N    c #00D400",
"2O    c #00D700",
"2P    c #00D800",
"2Q    c #00D900",
"2R    c #006200",
"2S    c #004B00",
"2T    c #00D500",
"2U    c #00DA00",
"2V    c #00DB00",
"2W    c #00DC00",
"2X    c #006500",
"2Y    c #006B00",
"2Z    c #002700",
"2&    c #001900",
"3     c #00DD00",
"30    c #006A00",
"31    c #006800",
"32    c #005000",
"33    c #006C00",
"34    c #006100",
"35    c #005E00",
"36    c #006D00",
"37    c #000200",
"   0 0 0 0 1 1 2 3 2 2 2 2 2 2 2 3 3 3 3 2 2 2 2 3 1 1 0     0  ",
"   4 3 5 6 7 8 9 9 9 9 9 9 9 9 9 9 9 9 a 9 9 9 9 9 8 7 6 2 b 0  ",
" 1 c d e 7 f g h i i i i i i i i j i i i j i i i i k l m 7 n   0",
" 1 o p o q r s 7 t u v w x y z A y y y B C D E E E E F i l 8 G 0",
" 0 3 H F I 5 J K L M N O P Q R R R S Q T U V W X Y Z &0  i00 5  ",
" 1 m01 002030405060708090a0b0c0c0d0d0c0e0f0g0h0i0j03 Y t I0k 8 3",
" 20l0m0n03030o0p0q0r0s0t0u0v0v0w0v0w0x0y0z0A0B0C0D0E u0F0G i 9 3",
"0H0I0J0K0J0L0L0M0N0O0P0Q0R0S0T0T0T0U0T0V0W0X0Y0Z0&0j1 1011 g0I G",
" G m I12 s131415161718191a1b1c1b1b1d1e1f1g1h1i1j0&1304 u11 g m G",
" n0I h f H1k1l h1m1n1o1p1q1r1s1r1t1s1u1v1w1x1y1z0&130E0311 h m n",
" n00 F0F c 31A1B1z1C1D1E1F1G1H1I1I1F1J1K1L1M1N1O0D0&0L u t F m n",
" 50l F10 61P1Q1R1R1N1S1T1U1V1W1X1X1Y1Y1Z1&1B1N1N1O1z0j1 2 0J0l 5",
" n0l I0213200 21221&1Z1223240E25261Z261&27271R221N1O0o0E0F I0l n",
" 6 l0 0F0E1k1N1R272128290m2a240J1W1X26262b282127272c0&0E0F I l 6",
" 50k0G Y131V22212b1&1Z1X2d2e2f2a002g291X1X26262b21221z13 Y E0k 5",
" 52h0G030o2c1R261Z1X2i2j2j2k k d0K 62k1W252i1X2626272c1k030G2h 6",
"2e k &030&1N281X2i1W1W2d2g2g2l0j242m2n2o2d2d1W251X281N0&0311 k2e",
"2p f2 1 0D1R262i1W2g2g2q2q2o2o2r1B2s2t2u2v2o2w1W2i1&1R1V2x t f2p",
" 7 j2 041O211X1W2g2y2z2o2A2v2B2C2D2d2E2F2G2o2o2g1W29212c0E Z i2p",
" 8 j Z0E1N282i2g2k2z2A2C2B2r2H2I2I2J2r2E2K2L292v2g2i281N0E02 j 8",
" 8 g020j221&2j2k2o2C2B2H2M2D2N2N2N2N2O2O0m2K K1N2v2k290&1z03 g 8",
" a h Y0o271Z2d2z2v2B2I2D2N2J2O2O2O2O2J2P2Q b2K0n2R J2S K2t &0  a",
" a h Y1k271X2y2o2C2H2D2T2O2O2Q2U2U2Q2P2O2T2Q n e1 0D1X26 m2t a m",
" 9 F100o272i2g2A2B2M2N2O2Q2U2V2W2W2V2U2P2O2P1W2X2I1W j b2Y2Z2& l",
" 90J031k212i2k2v2r2D2J2P2U2W3 3 3 2W2W2U2P2U1X302M31320H2p l f 9",
" a F101k272i2g2l2B2I2N2O2Q2U2V2V2V2V2U2Q2O2P26332H33131&1O u F a",
" 8 g Z131N1Z2w2q2l2C2H2D2T2J2O2P2P2O2J2T2D2N27 c2v2Y2 2713 Z g 8",
" 6 i112x1V27292w2y2z2v2B2r2I2M2D2D2M2I2r2B2A2v34351Q E1N2x11 f 5",
" 50l0J020E1V211&1X1W2d2g2y2q2q2z2z2q2q2k2g2w2j1W36370J1k0F0J0l 5",
" 6 72h E0F1 1k1O1N272b1&1Z1X292929291X1Z2628271N27 n2 0F0 2h 7 6",
" 52e a k I2  Y2x04131k0&1V0D1O1O1O1O0D1V0&0o130E u2x t0J k a2e 5",
" 62e2p a m f h E11 t Z Y1010 u03 u0310100F Z2  & E F f m a 72e 6"};
