/* XPM */
static char *B03_xpm[]={
"32 32 264 2",
"      c #007500",
" 0    c #007600",
" 1    c #007800",
" 2    c #007A00",
" 3    c #007B00",
" 4    c #007700",
" 5    c #007C00",
" 6    c #008100",
" 7    c #008400",
" 8    c #008500",
" 9    c #008700",
" a    c #008800",
" b    c #007E00",
" c    c #008300",
" d    c #008900",
" e    c #008C00",
" f    c #008F00",
" g    c #009100",
" h    c #009200",
" i    c #006800",
" j    c #005F00",
" k    c #004F00",
" l    c #004700",
" m    c #004100",
" n    c #004500",
" o    c #005400",
" p    c #005E00",
" q    c #006700",
" r    c #007D00",
" s    c #008B00",
" t    c #009600",
" u    c #009A00",
" v    c #009900",
" w    c #004305",
" x    c #00480B",
" y    c #006D19",
" z    c #008F25",
" A    c #009B29",
" B    c #00A72B",
" C    c #00A52C",
" D    c #00A22B",
" E    c #009C28",
" F    c #008F21",
" G    c #006E13",
" H    c #004301",
" I    c #003C00",
" J    c #007200",
" K    c #008A00",
" L    c #009800",
" M    c #009C00",
" N    c #009F00",
" O    c #08471A",
" P    c #376F3F",
" Q    c #73BB7D",
" R    c #8FD998",
" S    c #95DA9C",
" T    c #96DB9D",
" U    c #95DA9D",
" V    c #92DA9A",
" W    c #89D794",
" X    c #75D083",
" Y    c #3CAC55",
" Z    c #005E0F",
" &    c #003F00",
"0     c #009B00",
"00    c #008D00",
"01    c #009D00",
"02    c #00A200",
"03    c #005500",
"04    c #004B17",
"05    c #75C47E",
"06    c #AAE3AF",
"07    c #C0EAC4",
"08    c #CCEECE",
"09    c #CEEED0",
"0a    c #D0EED2",
"0b    c #CFEED1",
"0c    c #D0EFD2",
"0d    c #CFEED2",
"0e    c #CBEDCE",
"0f    c #C5ECC8",
"0g    c #B4E5B8",
"0h    c #91DB99",
"0i    c #48C862",
"0j    c #009700",
"0k    c #003800",
"0l    c #006000",
"0m    c #00A100",
"0n    c #006500",
"0o    c #28C654",
"0p    c #8CDB96",
"0q    c #B6E7BA",
"0r    c #CCEECF",
"0s    c #D5F1D6",
"0t    c #D9F2DB",
"0u    c #DAF3DC",
"0v    c #DBF4DC",
"0w    c #D9F2DA",
"0x    c #D7F2D8",
"0y    c #D1F0D3",
"0z    c #C0EBC3",
"0A    c #9EE1A4",
"0B    c #58CE6E",
"0C    c #00B300",
"0D    c #00A900",
"0E    c #005300",
"0F    c #004B00",
"0G    c #009300",
"0H    c #004900",
"0I    c #00AB00",
"0J    c #00C23D",
"0K    c #71D67F",
"0L    c #9FE2A6",
"0M    c #B7E9BB",
"0N    c #C1ECC3",
"0O    c #C5EDC7",
"0P    c #C6EEC8",
"0Q    c #C6EDC7",
"0R    c #C2EDC5",
"0S    c #BCEABF",
"0T    c #AAE4AE",
"0U    c #86DA8F",
"0V    c #30CA58",
"0W    c #00B000",
"0X    c #00A700",
"0Y    c #005700",
"0Z    c #006100",
"0&    c #00AC00",
"1     c #00B800",
"10    c #27CA55",
"11    c #6FD67D",
"12    c #89DD92",
"13    c #94DF9B",
"14    c #99E1A0",
"15    c #9AE2A1",
"16    c #9BE2A1",
"17    c #9AE1A1",
"18    c #9BE1A0",
"19    c #97E09D",
"1a    c #8DDD95",
"1b    c #79D985",
"1c    c #4ACF65",
"1d    c #00BF26",
"1e    c #00AF00",
"1f    c #00A500",
"1g    c #003A00",
"1h    c #003200",
"1i    c #00AD00",
"1j    c #00BC14",
"1k    c #00C848",
"1l    c #44CF5F",
"1m    c #57D26B",
"1n    c #5BD46F",
"1o    c #5ED471",
"1p    c #5DD470",
"1q    c #5ED470",
"1r    c #5DD46F",
"1s    c #5AD36D",
"1t    c #4AD165",
"1u    c #2ACC53",
"1v    c #00C32C",
"1w    c #00B200",
"1x    c #00B100",
"1y    c #00A600",
"1z    c #00BC00",
"1A    c #00C329",
"1B    c #00C636",
"1C    c #00C83C",
"1D    c #00C93E",
"1E    c #00C93D",
"1F    c #00CA3E",
"1G    c #00C739",
"1H    c #00C630",
"1I    c #00BF15",
"1J    c #00B600",
"1K    c #00B400",
"1L    c #004300",
"1M    c #006A00",
"1N    c #007F00",
"1O    c #003900",
"1P    c #00BB00",
"1Q    c #00BE00",
"1R    c #00C100",
"1S    c #00C200",
"1T    c #00C000",
"1U    c #00BD00",
"1V    c #00B700",
"1W    c #009E00",
"1X    c #004400",
"1Y    c #007400",
"1Z    c #004A00",
"1&    c #00A000",
"2     c #00AE00",
"20    c #00B900",
"21    c #00BF00",
"22    c #003D00",
"23    c #008000",
"24    c #00AA00",
"25    c #00B500",
"26    c #00BA00",
"27    c #004C00",
"28    c #006200",
"29    c #00C300",
"2a    c #00C400",
"2b    c #005D00",
"2c    c #00A400",
"2d    c #00C500",
"2e    c #00C700",
"2f    c #00C800",
"2g    c #00C600",
"2h    c #004E00",
"2i    c #00C900",
"2j    c #00CA00",
"2k    c #00CB00",
"2l    c #00CC00",
"2m    c #008200",
"2n    c #009000",
"2o    c #00A800",
"2p    c #00CD00",
"2q    c #00CE00",
"2r    c #00CF00",
"2s    c #005C00",
"2t    c #00D100",
"2u    c #00D200",
"2v    c #00D300",
"2w    c #003500",
"2x    c #008E00",
"2y    c #00D400",
"2z    c #00D500",
"2A    c #00D600",
"2B    c #00D700",
"2C    c #006300",
"2D    c #00D800",
"2E    c #00D900",
"2F    c #00DA00",
"2G    c #008600",
"2H    c #009400",
"2I    c #00DC00",
"2J    c #00DD00",
"2K    c #009500",
"2L    c #00A300",
"2M    c #00DE00",
"2N    c #00DF00",
"2O    c #00E000",
"2P    c #00DB00",
"2Q    c #002400",
"2R    c #005900",
"2S    c #005800",
"2T    c #004800",
"2U    c #001100",
"2V    c #006F00",
"2W    c #00E200",
"2X    c #005600",
"2Y    c #010500",
"2Z    c #000000",
"2&    c #001C00",
"3     c #010400",
"30    c #001301",
"31    c #007100",
"32    c #00D000",
"33    c #002300",
"34    c #004200",
"35    c #001D00",
"36    c #003100",
"   0   0 0 1 2 3 2 2 3 3 3 2 3 2 3 2 3 3 3 3 3 3 2 2 1 0 0 0 0 0",
"     4 5 6 7 8 9 9 9 9 9 9 9 9 a 9 9 9 9 9 9 9 9 9 8 7 6 5 0   0",
" 0 0 b c d e f g g h g c i j k l m n o p q c g h g f e d 7 b 4 0",
" 0 r 8 s g t u v v   w x y z A B C D E F G H I J v v t g s 8 5  ",
" 0 6 K g L M N c O P Q R S S T T T U S V W X Y Z & 60  L g K 6 0",
" 2 800 t0102030405060708090a0b0c0b0b0d0e0f0g0h0i0j0k0l01 t00 8 2",
" 3 9 g u0m n0n0o0p0q0r0s0t0u0u0v0u0u0w0x0y0z0A0B0C0D0E0F u g 9 2",
" r a0G0 0H i0I0J0K0L0M0N0O0O0P0Q0P0P0O0R0S0T0U0V0W0I0X0Y030G a r",
" r d0G0Z030D0&1 1011121314151615171518191a1b1c1d1e0&0D1f1g 1 d r",
" b d a1h1f0D1i0W1j1k1l1m1n1o1p1p1p1q1r1s1t1u1v1w1x1i0D1f e0k d b",
" r K0E  1y0I0W1w0C1z1A1B1C1D1E1D1F1E1C1G1H1I1J1K1w1e0&1y011L1M b",
"1N s1O010X1i1w1K1J1J1P1Q1R1R1R1R1S1S1R1T1U1 1V1J1K1x0&0X1W  1X1N",
"1N1Y1Z1&0D2 0C1V1V201P1z1Q211T21211T1T1U1P1P201V1J0C1i0D1& g221N",
"23 i p02241e2520261P1z1Q1Q1R1T1T1R1R1T1Q1U1z1P1P20251e240m0j271N",
" 6280n020&1x1 1P1Q21211S1R1S292a29291S1R1R1T1Q1Q1z1V1x0&02 v o 3",
" 61M2b2c1e1K201Q1T1R292d2d2e2e2f2e2g2g2g2a2a1R211Q261K2 2c u1L 6",
" 6  2h1y1x1J1z1R292d2g2f2i2j2j2k2l2j2j2i2e2g2d291R1z1J1x1f d &2m",
"2m2n1g2o1w1 1Q292g2f2j2l2p2q2q2r2r2q2q2p2l2j2f2g291Q1 1w2o2s j c",
" 7 g o b1K1P1S2g2i2l2q2r2t2u2v2v2v2v2u2t2r2q2k2i2e1R1P250D2w e 7",
" 8 h2x1L251z2a2i2l2q2t2u2y2z2A2B2B2A2z2y2v2t2r2l2i2a1z25282C h 8",
" 80G1& M1J212d2k2q2u2y2A2D2E2F2F2F2F2E2D2A2y2u2q2k2d1Q h1g1&0G 8",
"2G2H021i201R2e2q2t2y2B2E2F2I2J2J2J2J2I2F2E2B2y2t2q2e0D221y022K2G",
"2G2H2L2 261S2i2r2v2A2E2F2J2M2N2O2O2N2J2I2P2E2A2v2r0j1g0D2 022H 8",
" 92K2L1e26292j2t2y2D2F2J2z200D1N2Q1R2O2N2J2F2B2f0Z2R1T1P2 2c2K a",
" a t2c1e1z2a2k2j k1L2S n2w i2T2U2V2W2W2N2J0W J2X t2k2a1z0W2c t a",
"2G2K021e261S2j2q2Y2Z2&0n s3 2Z30001T2K312R0n1y2y322j1S261e2L t2G",
" 80G N1i1J1T2f2l321f3334 22Z2Z0l2o1W011J2A2A2v322l2e1R1J0&1&0G 8",
" 62n0 0X1x261R2f2l2q2t b j2G2&352x2D2B2z2y2t2q2l2f1R1P1x0X M2n 6",
" 6 e t0m0I0C1P211R2d2f2i26 i35 j2q2p2p2k2i2e2d1R1Q261w0I1& t e 6",
" 6 72x v0m2o1e1K1J1P1z1Q1T1S0 361z291S1T1Q1z1P1V251e2o02 L2x 7 6",
"232m 8 f t012L0X241i1e1x0C0C25251K250C1w0W1e0&240X2L01 t f 82m23",
"232m 72G d f2H v0 1W1&02022c1f2c1f1f2L0202 N010  L2K f d2G 72m23"};
