/* XPM */
static char *B04_xpm[]={
"32 32 568 2",
"      c #1A6D0B",
" 0    c #1B6D0B",
" 1    c #1C700B",
" 2    c #1D710B",
" 3    c #1D720B",
" 4    c #1E720B",
" 5    c #1A6C0B",
" 6    c #1F760B",
" 7    c #1F790B",
" 8    c #1F7A0B",
" 9    c #207C0C",
" a    c #1A6D0C",
" b    c #1E740C",
" c    c #1F790C",
" d    c #207E0C",
" e    c #22810C",
" f    c #23830C",
" g    c #24850C",
" h    c #1C730C",
" i    c #1F7A0C",
" j    c #21800C",
" k    c #23850C",
" l    c #24890C",
" m    c #268D0C",
" n    c #36941E",
" o    c #449B2E",
" p    c #4B9E37",
" q    c #4FA038",
" r    c #4FA039",
" s    c #4D9F38",
" t    c #479C32",
" u    c #3B9725",
" v    c #1B6D0C",
" w    c #1E760C",
" x    c #207F0C",
" y    c #258B0C",
" z    c #268F0C",
" A    c #28920C",
" B    c #389B1F",
" C    c #68B154",
" D    c #83BD75",
" E    c #93C486",
" F    c #9BC88F",
" G    c #9EC992",
" H    c #9FCA93",
" I    c #9CC990",
" J    c #97C68B",
" K    c #8AC07C",
" L    c #73B561",
" M    c #4AA434",
" N    c #28940C",
" O    c #22850C",
" P    c #1B710C",
" Q    c #21820C",
" R    c #248A0C",
" S    c #2A970C",
" T    c #62B14C",
" U    c #91C582",
" V    c #ADD1A3",
" W    c #BDD8B5",
" X    c #C5DBBF",
" Y    c #C7DCC1",
" Z    c #C8DCC2",
" &    c #C5DBC0",
"0     c #C1D9B9",
"00    c #B4D4AB",
"01    c #9CCA8F",
"02    c #75B861",
"03    c #369D19",
"04    c #1C720C",
"05    c #1F7C0C",
"06    c #258E0C",
"07    c #28930C",
"08    c #2A980C",
"09    c #2B9B0D",
"0a    c #6BB656",
"0b    c #9ACA8D",
"0c    c #B6D6AD",
"0d    c #C6DCC0",
"0e    c #CDDFC7",
"0f    c #CFE0CB",
"0g    c #D0E1CC",
"0h    c #CEE0C9",
"0i    c #C9DDC3",
"0j    c #BDD9B4",
"0k    c #A6CF9A",
"0l    c #7DBE6B",
"0m    c #40A525",
"0n    c #1D740C",
"0o    c #207D0C",
"0p    c #23870C",
"0q    c #29960D",
"0r    c #2B9A0D",
"0s    c #2C9D0D",
"0t    c #5DB345",
"0u    c #8BC57A",
"0v    c #A7D09B",
"0w    c #B6D7AD",
"0x    c #BED9B4",
"0y    c #C1DAB8",
"0z    c #C1DBB9",
"0A    c #BFDAB6",
"0B    c #BAD8B1",
"0C    c #AED3A3",
"0D    c #97CA87",
"0E    c #6FBA5A",
"0F    c #32A214",
"0G    c #23870D",
"0H    c #278F0D",
"0I    c #29970D",
"0J    c #2D9E0D",
"0K    c #41A823",
"0L    c #6DBA57",
"0M    c #8AC578",
"0N    c #99CC8A",
"0O    c #A0CE92",
"0P    c #A3CF96",
"0Q    c #A4D097",
"0R    c #A4CF96",
"0S    c #A2CF94",
"0T    c #9BCD8D",
"0U    c #8FC87F",
"0V    c #78BF64",
"0W    c #52AF37",
"0X    c #2EA10D",
"0Y    c #1E750C",
"0Z    c #207E0D",
"0&    c #24880D",
"1     c #2A980D",
"10    c #2C9B0D",
"11    c #2E9F0E",
"12    c #2FA20E",
"13    c #4BAD2E",
"14    c #67B84E",
"15    c #76BF5F",
"16    c #7EC169",
"17    c #81C36C",
"18    c #84C770",
"19    c #89CF74",
"1a    c #84C76F",
"1b    c #80C26A",
"1c    c #79C164",
"1d    c #6EBB55",
"1e    c #56B33A",
"1f    c #31A30F",
"1g    c #1E750D",
"1h    c #217F0D",
"1i    c #24890D",
"1j    c #28900D",
"1k    c #2B990D",
"1l    c #2EA10E",
"1m    c #2FA10E",
"1n    c #31A40E",
"1o    c #32A50F",
"1p    c #47AD27",
"1q    c #59B73B",
"1r    c #64C146",
"1s    c #60B444",
"1t    c #51983A",
"1u    c #417A2E",
"1v    c #3D732C",
"1w    c #529B3A",
"1x    c #60B744",
"1y    c #5FC041",
"1z    c #50B430",
"1A    c #38A815",
"1B    c #2D9D0E",
"1C    c #1D750D",
"1D    c #1D760D",
"1E    c #21800D",
"1F    c #25890D",
"1G    c #29910E",
"1H    c #2B960E",
"1I    c #2A8F0D",
"1J    c #32AA0F",
"1K    c #33A60F",
"1L    c #34A70F",
"1M    c #39B510",
"1N    c #399819",
"1O    c #1F4D10",
"1P    c #193C0E",
"1Q    c #204B11",
"1R    c #2E6B19",
"1S    c #367C1D",
"1T    c #2D6718",
"1U    c #18390D",
"1V    c #205310",
"1W    c #339912",
"1X    c #38B110",
"1Y    c #32A60F",
"1Z    c #31A60F",
"1&    c #2C9D0E",
"2     c #1E760D",
"20    c #22800D",
"21    c #268B0E",
"22    c #2A990E",
"23    c #1F6A09",
"24    c #000000",
"25    c #267D0B",
"26    c #38B510",
"27    c #37B010",
"28    c #1A5208",
"29    c #103005",
"2a    c #29760F",
"2b    c #40AF19",
"2c    c #45BA1B",
"2d    c #46BA1B",
"2e    c #44B71B",
"2f    c #45BA1A",
"2g    c #3DAA17",
"2h    c #25710B",
"2i    c #1C5908",
"2j    c #37B110",
"2k    c #2F9B0E",
"2l    c #051002",
"2m    c #21700A",
"2n    c #1F770D",
"2o    c #22810E",
"2p    c #278B0E",
"2q    c #2C9A0E",
"2r    c #0F3205",
"2s    c #28840C",
"2t    c #103205",
"2u    c #26770B",
"2v    c #143E06",
"2w    c #1D5A09",
"2x    c #3CB411",
"2y    c #3EB813",
"2z    c #3CAF13",
"2A    c #3CB113",
"2B    c #3DB113",
"2C    c #3CB013",
"2D    c #3BAF12",
"2E    c #3BB111",
"2F    c #1B5208",
"2G    c #133A06",
"2H    c #2F960E",
"2I    c #0E2F04",
"2J    c #1E6409",
"2K    c #103805",
"2L    c #2D9D0F",
"2M    c #1F770E",
"2N    c #23820E",
"2O    c #29900E",
"2P    c #22740C",
"2Q    c #123C06",
"2R    c #36B011",
"2S    c #2F940E",
"2T    c #1B5308",
"2U    c #40BD13",
"2V    c #3CB012",
"2W    c #3DB213",
"2X    c #3EB213",
"2Y    c #3FB313",
"2Z    c #3FB413",
"2&    c #40B413",
"3     c #256F0B",
"30    c #277D0C",
"31    c #113905",
"32    c #23770C",
"33    c #24820E",
"34    c #2C9910",
"35    c #27800D",
"36    c #329C10",
"37    c #0F3005",
"38    c #2C850D",
"39    c #143C06",
"3a    c #2E870E",
"3b    c #42BB13",
"3c    c #41B513",
"3d    c #42B613",
"3e    c #43B613",
"3f    c #43B713",
"3g    c #38A311",
"3h    c #133906",
"3i    c #246C0B",
"3j    c #123705",
"3k    c #31980F",
"3l    c #2B9610",
"3m    c #20780E",
"3n    c #26860F",
"3o    c #257E0D",
"3p    c #113706",
"3q    c #319C10",
"3r    c #0E2B04",
"3s    c #33990F",
"3t    c #42C014",
"3u    c #3BA911",
"3v    c #010400",
"3w    c #359210",
"3x    c #46BF15",
"3y    c #45B914",
"3z    c #46BA14",
"3A    c #47BB14",
"3B    c #45BB15",
"3C    c #3FAC12",
"3D    c #040B01",
"3E    c #32900F",
"3F    c #31950F",
"3G    c #247B0D",
"3H    c #21790F",
"3I    c #288C10",
"3J    c #185109",
"3K    c #1B5609",
"3L    c #113505",
"3M    c #33950F",
"3N    c #379E11",
"3O    c #1D5309",
"3P    c #133305",
"3Q    c #286B0C",
"3R    c #44B314",
"3S    c #48BC15",
"3T    c #49BD15",
"3U    c #4ABE15",
"3V    c #4BBE16",
"3W    c #4BBF16",
"3X    c #45B614",
"3Y    c #25640B",
"3Z    c #143706",
"3&    c #205A09",
"4     c #39A511",
"40    c #349910",
"41    c #103105",
"42    c #1C5909",
"43    c #174B08",
"44    c #227A0F",
"45    c #27850F",
"46    c #0C2604",
"47    c #1E5A0A",
"48    c #194808",
"49    c #153906",
"4a    c #2E7C0D",
"4b    c #46B914",
"4c    c #4ECA17",
"4d    c #4BBE15",
"4e    c #4CBF16",
"4f    c #4EC116",
"4g    c #4FC117",
"4h    c #50C217",
"4i    c #51C217",
"4j    c #45B514",
"4k    c #2B750C",
"4l    c #133506",
"4m    c #1C4F09",
"4n    c #21640B",
"4o    c #0E2B05",
"4p    c #26820E",
"4q    c #248110",
"4r    c #195109",
"4s    c #081903",
"4t    c #1B5008",
"4u    c #348E0F",
"4v    c #47BE15",
"4w    c #4BC416",
"4x    c #49BC15",
"4y    c #4CBE16",
"4z    c #4FC116",
"4A    c #51C317",
"4B    c #53C418",
"4C    c #55C518",
"4D    c #55C618",
"4E    c #52C418",
"4F    c #45BB14",
"4G    c #30830E",
"4H    c #194908",
"4I    c #091C03",
"4J    c #134008",
"4K    c #258410",
"4L    c #257F0F",
"4M    c #1C590A",
"4N    c #164408",
"4O    c #359B11",
"4P    c #40B614",
"4Q    c #42B314",
"4R    c #4ABB15",
"4S    c #4DBE16",
"4T    c #51C116",
"4U    c #53C317",
"4V    c #56C718",
"4W    c #58C819",
"4X    c #59C919",
"4Y    c #44B614",
"4Z    c #3FB214",
"4&    c #319210",
"5     c #0D2905",
"50    c #103406",
"51    c #268410",
"52    c #257C10",
"53    c #2D8E11",
"54    c #35A012",
"55    c #389F12",
"56    c #3DAA13",
"57    c #43B113",
"58    c #48B714",
"59    c #4DBE15",
"5a    c #56C618",
"5b    c #5AC919",
"5c    c #5CCB1A",
"5d    c #5DCC1A",
"5e    c #39A312",
"5f    c #2E9012",
"5g    c #2B8811",
"5h    c #329512",
"5i    c #38A013",
"5j    c #3FAB13",
"5k    c #44B214",
"5l    c #4BB915",
"5m    c #4FBF16",
"5n    c #53C217",
"5o    c #56C518",
"5p    c #59C819",
"5q    c #5CCA19",
"5r    c #5ECD1A",
"5s    c #5FCD1A",
"5t    c #60CE1B",
"5u    c #52C217",
"5v    c #267D10",
"5w    c #2C8911",
"5x    c #349612",
"5y    c #39A013",
"5z    c #40AB13",
"5A    c #46B414",
"5B    c #4CBA15",
"5C    c #55C317",
"5D    c #58C718",
"5E    c #5BC919",
"5F    c #5ECC1A",
"5G    c #60CD1A",
"5H    c #62CE1B",
"5I    c #63CF1B",
"5J    c #63D01B",
"5K    c #277D10",
"5L    c #2D8A11",
"5M    c #3AA113",
"5N    c #42AC13",
"5O    c #48B414",
"5P    c #4EBB15",
"5Q    c #53C117",
"5R    c #57C418",
"5S    c #5BC819",
"5T    c #5ECB1A",
"5U    c #61CD1A",
"5V    c #63CE1B",
"5W    c #64D01B",
"5X    c #66D11C",
"5Y    c #67D11C",
"5Z    c #47B414",
"5&    c #277C10",
"6     c #2D8911",
"60    c #349512",
"61    c #3BA113",
"62    c #43AA13",
"63    c #48B314",
"64    c #4EBA16",
"65    c #54C017",
"66    c #58C318",
"67    c #5DC619",
"68    c #5FC91A",
"69    c #61CC1A",
"6a    c #64CD1B",
"6b    c #66CE1C",
"6c    c #66CF1C",
"6d    c #67CF1C",
"6e    c #5CC619",
"6f    c #267B10",
"6g    c #2D8711",
"6h    c #349212",
"6i    c #3A9E13",
"6j    c #41A813",
"6k    c #47B114",
"6l    c #4EB716",
"6m    c #53BC17",
"6n    c #57C018",
"6o    c #5AC219",
"6p    c #5EC51A",
"6q    c #60C81B",
"6r    c #62CA1B",
"6s    c #64CB1C",
"6t    c #65CC1C",
"6u    c #66CD1C",
"6v    c #5DC51A",
"6w    c #52BC17",
"6x    c #257710",
"6y    c #2B8411",
"6z    c #338F12",
"6A    c #3A9A13",
"6B    c #40A313",
"6C    c #46AB14",
"6D    c #4BB216",
"6E    c #51B817",
"6F    c #55BB18",
"6G    c #58BE19",
"6H    c #5DC11A",
"6I    c #5EC31B",
"6J    c #60C41B",
"6K    c #62C61C",
"6L    c #63C71C",
"6M    c #64C81C",
"6N    c #5CC11A",
"6O    c #45AB14",
"6P    c #399A13",
"6Q    c #2A8011",
"6R    c #308A12",
"6S    c #389313",
"6T    c #3D9C13",
"6U    c #43A414",
"6V    c #48AB16",
"6W    c #4DAF17",
"6X    c #51B218",
"6Y    c #55B519",
"6Z    c #58B71A",
"6&    c #5AB91A",
"7     c #5DBB1B",
"70    c #5EBD1C",
"71    c #5FBD1C",
"72    c #5FBE1C",
"73    c #287911",
"74    c #2D8212",
"75    c #348C13",
"76    c #389413",
"77    c #3F9B14",
"78    c #44A115",
"79    c #48A617",
"7a    c #4BA818",
"7b    c #4FAB19",
"7c    c #51AD1A",
"7d    c #53AF1A",
"7e    c #55B11B",
"7f    c #57B21B",
"7g    c #58B31C",
"7h    c #59B31C",
"7i    c #4EAB19",
"7j    c #3E9B14",
"7k    c #338C13",
"7l    c #257610",
"7m    c #277711",
"7n    c #2A7B12",
"7o    c #2F8313",
"7p    c #348A13",
"7q    c #399014",
"7r    c #3E9515",
"7s    c #429916",
"7t    c #459B17",
"7u    c #489E18",
"7v    c #4AA019",
"7w    c #4CA21A",
"7x    c #4EA41A",
"7y    c #50A51B",
"7z    c #50A61B",
"7A    c #51A61B",
"7B    c #247710",
"7C    c #267811",
"7D    c #297A12",
"7E    c #2B7C13",
"7F    c #2E7F13",
"7G    c #328414",
"7H    c #378915",
"7I    c #3A8D16",
"7J    c #3D9017",
"7K    c #409118",
"7L    c #429319",
"7M    c #449519",
"7N    c #44961A",
"7O    c #46971A",
"7P    c #46981A",
"7Q    c #47981B",
"7R    c #3F9118",
"7S    c #287A12",
"       0 0 1 2 3 3 3 3 3 3 3 4 4 4 4 3 3 3 3 3 3 3 2 1 0        ",
" 5 5 0 3 6 7 8 9 9 9 9 9 9 9 9 9 9 9 9 9 9 9 9 9 9 8 7 6 3 0 5 5",
" a a b c d e f g g g g g g g g g g g g g g g g g g f e d c b a a",
" a h i j k l m m m n o p q r r r r r r s t u m m m m l k j i h a",
" v w x k y z A B C D E F G G H H H G G I J K L M N A z y O x w v",
" P i Q R z N S T U V W X Y Z Z Z Z Z Z &0 00010203 S N z R Q i P",
"0405 k060708090a0b0c0d0e0f0g0g0g0g0g0f0h0i0j0k0l0m09080706 k0504",
"0n0o0p z0q0r0s0t0u0v0w0x0y0z0z0z0z0z0z0A0B0C0D0E0F0s0r0q z0p0o0n",
"0n d0G0H0I090J0K0L0M0N0O0P0Q0Q0Q0Q0Q0R0S0T0U0V0W0X0J090I0H0G d0n",
"0Y0Z0&0H1 101112131415161718191919191a1b1c1d1e1f1211101 0H0&0Z0Y",
"1g1h1i1j1k1l1m1n1o1p1q1r1s1t1u1v1v1u1w1x1y1z1A1o1n1m1B1k1j1i1h1C",
"1D1E1F1G1H1I1J1K1L1M1N1O1P1Q1R1S1S1T1Q1U1V1W1X1L1Y1Z121&1G1F1E1D",
"2 202122232425262728292a2b2c2d2e2e2d2f2g2h292i272j2k2l2m2221202 ",
"2n2o2p2q2r2s2t2u2v2w2x2y2z2A2B2B2B2B2C2D2y2E2F2G2H2I2J2K2L2p2o2n",
"2M2N2O2P2Q2R2S242T2U2V2W2X2Y2Z2&2&2Z2Y2X2W2V2U3 24302R31322O2N2M",
"2M33342Q35363738393a3b2&3c3d3e3f3f3e3d3c2&3b3g3h3i3j3k352Q3l332M",
"3m3n3o3p3q3r3s3t3u3v3w3x3y3z3z3A3A3z3z3y3B3C3D3E3t3F3r3q3p3G3n3m",
"3H3I3J3K3L3M3N3O3P3Q3R3S3T3U3V3W3W3V3U3T3S3X3Y3Z3&4 404142433I3H",
"444546464748494a4b4c4d4e4f4g4h4i4i4h4g4f4e4d4c4j4k4l4m4n4o464p44",
"4q4r244s4t4u4v4w4x4y4z4i4A4B4C4D4D4C4E4A4i4z4y4x4w4F4G4H4I244J4K",
"4L4M4N4O4P4Q4j4R4S4T4U4C4V4W4X4X4X4X4W4V4C4U4T4S4R4j4Y4Z4&5 5051",
"52535455565758594T4U5a4W5b5c5d5d5d5d5c5b4W5a4U4T595857565e545f52",
"525g5h5i5j5k5l5m5n5o5p5q5d5r5s5t5t5s5r5d5q5p5o5u5m5l5k5j5i5h5g52",
"5v5w5x5y5z5A5B4T5C5D5E5F5G5H5I5J5J5I5H5G5d5E5D5C4T5B5A5z5y5x5w5v",
"5K5L5x5M5N5O5P5Q5R5S5T5U5V5W5X5Y5Y5X5W5V5U5T5S5R5Q5P5Z5N5M5x5L5K",
"5&6 606162636465666768696a6b6c6d6d6c6b6a69686e666564636261606 5&",
"6f6g6h6i6j6k6l6m6n6o6p6q6r6s6t6u6u6t6s6r6q6v6o6n6w6l6k6j6i6h6g6f",
"6x6y6z6A6B6C6D6E6F6G6H6I6J6K6L6M6M6L6K6J6I6N6G6F6E6D6O6B6P6z6y6x",
"6x6Q6R6S6T6U6V6W6X6Y6Z6&7 7071727271707 6&6Z6Y6X6W6V6U6T6S6R6Q6x",
"6x737475767778797a7b7c7d7e7f7g7h7h7g7f7e7d7c7i7a79787j767k74736x",
"7l7m7n7o7p7q7r7s7t7u7v7w7x7y7z7A7A7z7y7x7w7v7u7t7s7r7q7p7o7n7m7l",
"7B7C7D7E7F7G7H7I7J7K7L7M7N7O7P7Q7Q7P7O7N7M7L7R7J7I7H7G7F7E7S7C7B"};
