/* XPM */
static char *B05_xpm[]={
"32 32 556 2",
"      c #1C750C",
" 0    c #1D750C",
" 1    c #1E780C",
" 2    c #1F790C",
" 3    c #1F7A0C",
" 4    c #207A0C",
" 5    c #1D760C",
" 6    c #1F7B0C",
" 7    c #21800C",
" 8    c #21830C",
" 9    c #22840C",
" a    c #23860D",
" b    c #1C750D",
" c    c #1C760D",
" d    c #207D0D",
" e    c #21830D",
" f    c #23880D",
" g    c #258B0D",
" h    c #268E0D",
" i    c #27900D",
" j    c #1E7C0D",
" k    c #22840D",
" l    c #248A0D",
" m    c #26900D",
" n    c #27940D",
" o    c #29980D",
" p    c #3AA020",
" q    c #4AA832",
" r    c #51AB3B",
" s    c #55AD3D",
" t    c #55AD3E",
" u    c #53AC3C",
" v    c #4DA936",
" w    c #40A328",
" x    c #21840D",
" y    c #1D750D",
" z    c #20800D",
" A    c #23890D",
" B    c #28960D",
" C    c #299A0D",
" D    c #2B9E0D",
" E    c #3DA822",
" F    c #70BF5B",
" G    c #8ECC7E",
" H    c #9FD491",
" I    c #A7D89A",
" J    c #ABD99E",
" K    c #ACDA9F",
" L    c #A9D99C",
" M    c #A3D696",
" N    c #95CF86",
" O    c #7CC469",
" P    c #50B138",
" Q    c #2BA00D",
" R    c #25900D",
" S    c #1D790D",
" T    c #248C0D",
" U    c #27950D",
" V    c #299B0D",
" W    c #2DA30D",
" X    c #6ABF52",
" Y    c #9DD58D",
" Z    c #BBE2B0",
" &    c #CCE9C4",
"0     c #D5EDCE",
"00    c #D7EED1",
"01    c #D8EED2",
"02    c #D5EDCF",
"03    c #D0EBC8",
"04    c #C3E5B9",
"05    c #A9DA9B",
"06    c #7EC769",
"07    c #3AAA1B",
"08    c #1E7A0D",
"09    c #22860D",
"0a    c #28990D",
"0b    c #2B9F0D",
"0c    c #2DA40D",
"0d    c #2FA80E",
"0e    c #74C55D",
"0f    c #A6DA98",
"0g    c #C5E7BB",
"0h    c #D6EECF",
"0i    c #DDF1D7",
"0j    c #E0F2DB",
"0k    c #E1F3DC",
"0l    c #DFF2D9",
"0m    c #D9EFD3",
"0n    c #CCEAC3",
"0o    c #B3E0A6",
"0p    c #87CD74",
"0q    c #45B228",
"0r    c #1F7C0D",
"0s    c #23870D",
"0t    c #26920D",
"0u    c #2CA20E",
"0v    c #2EA60E",
"0w    c #30AA0E",
"0x    c #65C14B",
"0y    c #96D584",
"0z    c #B4E1A7",
"0A    c #C5E8BB",
"0B    c #CDEBC3",
"0C    c #D0ECC7",
"0D    c #D1EDC8",
"0E    c #CEECC5",
"0F    c #C9E9BF",
"0G    c #BCE4B0",
"0H    c #A3DA92",
"0I    c #78C961",
"0J    c #36AF16",
"0K    c #26920E",
"0L    c #2A9B0E",
"0M    c #2CA30E",
"0N    c #2FA70E",
"0O    c #31AB0E",
"0P    c #46B626",
"0Q    c #76C95E",
"0R    c #95D582",
"0S    c #A5DC95",
"0T    c #ADDF9E",
"0U    c #B0E0A2",
"0V    c #B1E1A3",
"0W    c #B1E0A2",
"0X    c #AFE0A0",
"0Y    c #A8DD98",
"0Z    c #9BD889",
"0&    c #82CE6C",
"1     c #59BD3B",
"10    c #32AE0E",
"11    c #23880E",
"12    c #27930E",
"13    c #2DA40E",
"14    c #30A80E",
"15    c #32AC0F",
"16    c #33AF0F",
"17    c #51BB32",
"18    c #6FC754",
"19    c #80CE67",
"1a    c #88D171",
"1b    c #8BD375",
"1c    c #8CD376",
"1d    c #8CD375",
"1e    c #8AD273",
"1f    c #83D06C",
"1g    c #77CA5C",
"1h    c #5DC13F",
"1i    c #35B010",
"1j    c #207D0E",
"1k    c #24890E",
"1l    c #27940E",
"1m    c #2B9C0E",
"1n    c #2EA50E",
"1o    c #31AA0F",
"1p    c #33AE0F",
"1q    c #35B10F",
"1r    c #36B210",
"1s    c #4DBB2A",
"1t    c #5EC23E",
"1u    c #66C547",
"1v    c #6AC74B",
"1w    c #6BC84C",
"1x    c #68C649",
"1y    c #61C442",
"1z    c #55BE33",
"1A    c #3CB517",
"1B    c #1F7D0E",
"1C    c #1F7E0E",
"1D    c #248A0E",
"1E    c #28940E",
"1F    c #2C9D0F",
"1G    c #2FA60F",
"1H    c #32AB0F",
"1I    c #34B010",
"1J    c #37B310",
"1K    c #38B410",
"1L    c #39B510",
"1M    c #2B7313",
"1N    c #42A122",
"1O    c #51BF2C",
"1P    c #53C02D",
"1Q    c #50BF2A",
"1R    c #48B823",
"1S    c #246D0D",
"1T    c #34A50F",
"1U    c #36B310",
"1V    c #207E0E",
"1W    c #258A0E",
"1X    c #29960F",
"1Y    c #2C9F0F",
"1Z    c #31A80F",
"1&    c #33AC10",
"2     c #309A0E",
"20    c #1C5908",
"21    c #154206",
"22    c #143F06",
"23    c #256B0E",
"24    c #45BD1B",
"25    c #46BE1C",
"26    c #47BE1C",
"27    c #46BE1B",
"28    c #43BC19",
"29    c #34A110",
"2a    c #123705",
"2b    c #194F07",
"2c    c #174A07",
"2d    c #2A870C",
"2e    c #217F0E",
"2f    c #258B0F",
"2g    c #2A960F",
"2h    c #2EA00F",
"2i    c #31A910",
"2j    c #27820C",
"2k    c #164507",
"2l    c #226A0A",
"2m    c #30930E",
"2n    c #1D5708",
"2o    c #23680B",
"2p    c #41BD14",
"2q    c #41BF15",
"2r    c #42BF15",
"2s    c #41BE14",
"2t    c #40BD13",
"2u    c #37A411",
"2v    c #154006",
"2w    c #31960F",
"2x    c #277A0C",
"2y    c #133D06",
"2z    c #216B0A",
"2A    c #21800F",
"2B    c #268C0F",
"2C    c #278B0E",
"2D    c #134106",
"2E    c #000000",
"2F    c #030B01",
"2G    c #123A05",
"2H    c #1C5708",
"2I    c #1E5C09",
"2J    c #256C0B",
"2K    c #1D5508",
"2L    c #27720C",
"2M    c #43C014",
"2N    c #44C114",
"2O    c #44C214",
"2P    c #45C214",
"2Q    c #39A711",
"2R    c #174507",
"2S    c #27740C",
"2T    c #164607",
"2U    c #071702",
"2V    c #0C2904",
"2W    c #237B0C",
"2X    c #22800F",
"2Y    c #24810E",
"2Z    c #020801",
"2&    c #0C2704",
"3     c #194C08",
"30    c #23690B",
"31    c #2A7B0D",
"32    c #194607",
"33    c #091903",
"34    c #24640B",
"35    c #205809",
"36    c #205909",
"37    c #215B0A",
"38    c #153A06",
"39    c #0D2504",
"3a    c #256D0B",
"3b    c #1D5809",
"3c    c #103305",
"3d    c #061302",
"3e    c #164E08",
"3f    c #23810F",
"3g    c #288E10",
"3h    c #2A900F",
"3i    c #174D08",
"3j    c #050F02",
"3k    c #010400",
"3l    c #103005",
"3m    c #1B4E08",
"3n    c #1D5309",
"3o    c #1C4C08",
"3p    c #286D0C",
"3q    c #4BC816",
"3r    c #4CC916",
"3s    c #4DCA16",
"3t    c #3DA512",
"3u    c #173F07",
"3v    c #25690B",
"3w    c #1C5209",
"3x    c #143B06",
"3y    c #051002",
"3z    c #010300",
"3A    c #103405",
"3B    c #25800D",
"3C    c #248210",
"3D    c #298F10",
"3E    c #2F9C11",
"3F    c #34A611",
"3G    c #39B112",
"3H    c #2F8C0F",
"3I    c #1B4C08",
"3J    c #29710C",
"3K    c #3CA112",
"3L    c #25630B",
"3M    c #2B700D",
"3N    c #4FCC17",
"3O    c #50CD17",
"3P    c #51CD18",
"3Q    c #51CE18",
"3R    c #44B114",
"3S    c #1B4908",
"3T    c #3EA512",
"3U    c #2F820E",
"3V    c #1C4E08",
"3W    c #184407",
"3X    c #29790D",
"3Y    c #258310",
"3Z    c #2A9010",
"3&    c #319D11",
"4     c #36A812",
"40    c #3CB313",
"41    c #41B914",
"42    c #45C014",
"43    c #41B013",
"44    c #296B0C",
"45    c #1C4908",
"46    c #183D07",
"47    c #2F760E",
"48    c #54D018",
"49    c #55D119",
"4a    c #56D219",
"4b    c #57D219",
"4c    c #47B315",
"4d    c #173906",
"4e    c #205209",
"4f    c #205509",
"4g    c #3A9B11",
"4h    c #3BB313",
"4i    c #258410",
"4j    c #2C9111",
"4k    c #329E12",
"4l    c #38A912",
"4m    c #3EB413",
"4n    c #44BB14",
"4o    c #48C215",
"4p    c #4CC816",
"4q    c #4FCB17",
"4r    c #52CD18",
"4s    c #388910",
"4t    c #4CB716",
"4u    c #58D319",
"4v    c #5AD41A",
"4w    c #5CD51A",
"4x    c #5CD61A",
"4y    c #59D41A",
"4z    c #4EC417",
"4A    c #37A912",
"4B    c #268410",
"4C    c #2D9211",
"4D    c #349F12",
"4E    c #3AAB13",
"4F    c #40B614",
"4G    c #46BD15",
"4H    c #4BC416",
"4I    c #50CA17",
"4J    c #53CD18",
"4K    c #57D118",
"4L    c #5AD319",
"4M    c #5DD71A",
"4N    c #5FD81B",
"4O    c #60D91B",
"4P    c #339F12",
"4Q    c #288511",
"4R    c #2F9312",
"4S    c #35A012",
"4T    c #3CAC13",
"4U    c #42B814",
"4V    c #48BF15",
"4W    c #4EC616",
"4X    c #53CD17",
"4Y    c #57D018",
"4Z    c #5DD61A",
"4&    c #61D91B",
"5     c #63DB1C",
"50    c #64DC1C",
"51    c #36A113",
"52    c #3DAD14",
"53    c #44B915",
"54    c #4AC016",
"55    c #51C817",
"56    c #55CE18",
"57    c #5AD219",
"58    c #5DD51A",
"59    c #60D81B",
"5a    c #63DA1B",
"5b    c #66DD1C",
"5c    c #67DE1C",
"5d    c #68DF1D",
"5e    c #59D219",
"5f    c #298611",
"5g    c #309412",
"5h    c #38A213",
"5i    c #3EAD14",
"5j    c #45B915",
"5k    c #4CC216",
"5l    c #52C917",
"5m    c #58D018",
"5n    c #5CD319",
"5o    c #5FD71A",
"5p    c #62D91B",
"5q    c #66DC1C",
"5r    c #68DE1C",
"5s    c #6ADF1D",
"5t    c #6BE01D",
"5u    c #6BE11D",
"5v    c #65DC1C",
"5w    c #2A8611",
"5x    c #319512",
"5y    c #3FAE14",
"5z    c #47BA15",
"5A    c #4EC216",
"5B    c #54CA17",
"5C    c #5AD119",
"5D    c #5ED41A",
"5E    c #62D81B",
"5F    c #66DB1C",
"5G    c #69DD1C",
"5H    c #6BDF1D",
"5I    c #6CE11D",
"5J    c #6EE21E",
"5K    c #6FE21E",
"5L    c #4DC216",
"5M    c #2A8511",
"5N    c #319412",
"5O    c #38A113",
"5P    c #40AE14",
"5Q    c #48B815",
"5R    c #4EC116",
"5S    c #54C918",
"5T    c #5BCF19",
"5U    c #5FD31A",
"5V    c #64D61B",
"5W    c #67D91C",
"5X    c #69DC1C",
"5Y    c #6CDE1D",
"5Z    c #6EDF1E",
"5&    c #6EE01E",
"6     c #6FE01E",
"60    c #63D61B",
"61    c #298411",
"62    c #319212",
"63    c #389E13",
"64    c #3FAB14",
"65    c #46B515",
"66    c #4DBF16",
"67    c #54C618",
"68    c #5ACB19",
"69    c #5ECF1A",
"6a    c #61D21B",
"6b    c #66D51C",
"6c    c #68D81D",
"6d    c #6ADA1D",
"6e    c #6CDB1E",
"6f    c #6DDC1E",
"6g    c #6EDD1E",
"6h    c #65D51C",
"6i    c #59CB19",
"6j    c #288011",
"6k    c #2F8F12",
"6l    c #379A13",
"6m    c #3FA614",
"6n    c #45B015",
"6o    c #4CB916",
"6p    c #51C018",
"6q    c #58C719",
"6r    c #5CCA1A",
"6s    c #5FCD1B",
"6t    c #64D01C",
"6u    c #66D31D",
"6v    c #68D41D",
"6w    c #6AD61E",
"6x    c #6BD71E",
"6y    c #6CD81E",
"6z    c #63D01C",
"6A    c #57C719",
"6B    c #4BB916",
"6C    c #3EA614",
"6D    c #2D8A12",
"6E    c #349513",
"6F    c #3C9F14",
"6G    c #42A915",
"6H    c #48B116",
"6I    c #4EB918",
"6J    c #53BD19",
"6K    c #58C01A",
"6L    c #5CC41B",
"6M    c #5FC61C",
"6N    c #61C81C",
"6O    c #64CA1D",
"6P    c #66CC1E",
"6Q    c #67CC1E",
"6R    c #67CD1E",
"6S    c #57C01A",
"6T    c #2B8312",
"6U    c #318D13",
"6V    c #389714",
"6W    c #3DA015",
"6X    c #44A716",
"6Y    c #49AE17",
"6Z    c #4EB319",
"6&    c #51B51A",
"7     c #55B91B",
"70    c #58BB1C",
"71    c #5ABD1C",
"72    c #5CBF1D",
"73    c #5EC01D",
"74    c #5FC11E",
"75    c #60C11E",
"76    c #54B91B",
"77    c #43A716",
"78    c #379714",
"79    c #287F11",
"7a    c #2A8112",
"7b    c #2D8513",
"7c    c #338E14",
"7d    c #389515",
"7e    c #3E9C16",
"7f    c #43A117",
"7g    c #47A518",
"7h    c #4BA819",
"7i    c #4EAB1A",
"7j    c #50AD1B",
"7k    c #52AF1C",
"7l    c #54B11C",
"7m    c #56B21D",
"7n    c #56B31D",
"7o    c #57B31D",
"7p    c #277F11",
"7q    c #298112",
"7r    c #2C8313",
"7s    c #2F8514",
"7t    c #328815",
"7u    c #368E16",
"7v    c #3B9317",
"7w    c #3F9718",
"7x    c #429A19",
"7y    c #459C1A",
"7z    c #479E1B",
"7A    c #49A01B",
"7B    c #4AA11C",
"7C    c #4CA21C",
"7D    c #4CA31C",
"7E    c #4DA31D",
"7F    c #449C1A",
"7G    c #2B8313",
"       0 0 1 2 3 3 3 3 3 3 3 4 4 4 4 3 3 3 3 3 3 3 2 1 0        ",
"     5 6 7 8 9 a a a a a a a a a a a a a a a a a a 9 8 7 6 5    ",
" b c d e f g h i i i i i i i i i i i i i i i i i i h g f e d c b",
" b j k l m n o o o p q r s t t t t t t u v w o o o o n m l x j b",
" y z A m B C D E F G H I J J K K K J J L M N O P Q D C B R A z y",
" S k T U V Q W X Y Z &0 00010101010101020304050607 W Q V U T k S",
"0809 m0a0b0c0d0e0f0g0h0i0j0k0k0k0k0k0j0l0m0n0o0p0q0d0c0b0a m0908",
"0r0s0t C0u0v0w0x0y0z0A0B0C0D0D0D0D0D0D0E0F0G0H0I0J0w0v0u C0t0s0r",
"0r f0K0L0M0N0O0P0Q0R0S0T0U0V0V0V0V0V0W0X0Y0Z0&1 100O0N0M0L0K f0r",
" d11120L131415161718191a1b1c1c1c1c1c1d1e1f1g1h1i161514130L1211 d",
"1j1k1l1m1n1o1p1q1r1s1t1u1v1w1w1w1w1w1v1x1y1z1A1r1q1p1o1n1m1l1k1B",
"1C1D1E1F1G1H1I1J1K1L1M1N1O1P1P1P1P1P1P1Q1R1S1T1K1U1I1H1G1F1E1D1C",
"1V1W1X1Y1Z1&1r2 202122232425262626262728292a2b2c2d1r1&1Z1Y1X1W1V",
"2e2f2g2h2i2j2k222l2m2n2o2p2q2r2r2r2r2s2t2u2v2w2x2c2y2z2i2h2g2f2e",
"2A2B2C2D2E2F2G2H2I2J2K2L2M2N2O2P2P2O2N2M2Q2R2S2I2H2T2U2E2V2W2B2A",
"2X2Y2E2E2E2Z2&3 3031323334353536363535373839313a3b3c3d2E2E2E3e2X",
"3f3g3h3i3j3k3l3m3n343o3p3q3r3r3s3s3r3r3q3t3u3v3n3w3x3y3z3A3B3g3f",
"3C3D3E3F3G3H3I323J3K3L3M3N3O3P3Q3Q3P3O3N3R3S3T3U3V3W3X3G3F3E3D3C",
"3Y3Z3&4 404142434445464748494a4b4b4a49484c4d4e4f4g42414h4 3&3Z3Y",
"4i4j4k4l4m4n4o4p4q4r4s4t4u4v4w4x4x4w4y4u4b4s4z4q4p4o4n4m4A4k4j4i",
"4B4C4D4E4F4G4H4I4J4K4L4w4M4N4O4O4O4O4N4M4w4L4K4J4I4H4G4F4E4P4C4B",
"4Q4R4S4T4U4V4W4X4Y4L4Z4N4&5 505050505 4&4N4Z4L4Y4X4W4V4U4T4S4R4Q",
"4Q4R5152535455565758595a505b5c5d5d5c5b505a59585e5655545352514R4Q",
"5f5g5h5i5j5k5l5m5n5o5p5q5r5s5t5u5u5t5s5r5v5p5o5n5m5l5k5j5i5h5g5f",
"5w5x5h5y5z5A5B5C5D5E5F5G5H5I5J5K5K5J5I5H5G5F5E5D5C5B5L5z5y5h5x5w",
"5M5N5O5P5Q5R5S5T5U5V5W5X5Y5Z5&6 6 5&5Z5Y5X5W605U5T5S5R5Q5P5O5N5M",
"6162636465666768696a6b6c6d6e6f6g6g6f6e6d6c6h6a696i67666564636261",
"6j6k6l6m6n6o6p6q6r6s6t6u6v6w6x6y6y6x6w6v6u6z6s6r6A6p6B6n6C6l6k6j",
"6j6D6E6F6G6H6I6J6K6L6M6N6O6P6Q6R6R6Q6P6O6N6M6L6S6J6I6H6G6F6E6D6j",
"6j6T6U6V6W6X6Y6Z6&7 707172737475757473727170766&6Z6Y776W786U6T6j",
"797a7b7c7d7e7f7g7h7i7j7k7l7m7n7o7o7n7m7l7k7j7i7h7g7f7e7d7c7b7a79",
"7p7q7r7s7t7u7v7w7x7y7z7A7B7C7D7E7E7D7C7B7A7z7F7x7w7v7u7t7s7G7q7p"};
