/* XPM */
static char *B06_xpm[]={
"32 32 694 2",
"      c #1B730C",
" 0    c #1C730C",
" 1    c #1D760C",
" 2    c #1E770C",
" 3    c #1E780C",
" 4    c #207A0C",
" 5    c #1E720B",
" 6    c #1C6B0A",
" 7    c #1C740C",
" 8    c #1E790C",
" 9    c #207D0C",
" a    c #20800C",
" b    c #21810C",
" c    c #22830D",
" d    c #23860D",
" e    c #134807",
" f    c #1B730D",
" g    c #1B740D",
" h    c #1F7B0D",
" i    c #20800D",
" j    c #22850D",
" k    c #24880D",
" l    c #258B0D",
" m    c #268D0D",
" n    c #27900D",
" o    c #20740B",
" p    c #154F07",
" q    c #1D7A0D",
" r    c #21810D",
" s    c #23870D",
" t    c #258D0D",
" u    c #26910D",
" v    c #28950D",
" w    c #399D1F",
" x    c #49A531",
" y    c #4FA83A",
" z    c #53AA3C",
" A    c #53AA3D",
" B    c #55AD3E",
" C    c #458C32",
" D    c #2F5F22",
" E    c #51A93B",
" F    c #4BA635",
" G    c #3FA027",
" H    c #20810D",
" I    c #1C730D",
" J    c #1F7D0D",
" K    c #22860D",
" L    c #27930D",
" M    c #28970D",
" N    c #2A9B0D",
" O    c #3CA521",
" P    c #6EBB59",
" Q    c #8BC87C",
" R    c #9CD08E",
" S    c #A4D497",
" T    c #A8D59B",
" U    c #ACDA9F",
" V    c #8BB080",
" W    c #5E7857",
" X    c #ABD99E",
" Y    c #A6D599",
" Z    c #A0D293",
" &    c #92CB83",
"0     c #7AC067",
"00    c #4EAE37",
"01    c #2A9D0D",
"02    c #248D0D",
"03    c #1C770D",
"04    c #23890D",
"05    c #26920D",
"06    c #28980D",
"07    c #2CA00D",
"08    c #68BB50",
"09    c #9AD18A",
"0a    c #B7DEAD",
"0b    c #C8E4C0",
"0c    c #D1E8CA",
"0d    c #D3E9CD",
"0e    c #D4E9CE",
"0f    c #D8EED2",
"0g    c #AEC0AA",
"0h    c #778373",
"0i    c #D1E8CB",
"0j    c #CCE6C4",
"0k    c #BFE1B5",
"0l    c #A6D698",
"0m    c #7CC367",
"0n    c #39A71A",
"0o    c #1D780D",
"0p    c #21830D",
"0q    c #27960D",
"0r    c #2A9C0D",
"0s    c #2CA10D",
"0t    c #2EA50E",
"0u    c #72C15B",
"0v    c #A3D695",
"0w    c #C1E2B7",
"0x    c #D2E9CB",
"0y    c #DDF1D7",
"0z    c #E0F2DB",
"0A    c #E1F3DC",
"0B    c #BCCBB8",
"0C    c #7F897C",
"0D    c #DFF2D9",
"0E    c #D9EFD3",
"0F    c #CBE9C2",
"0G    c #AFDCA3",
"0H    c #84C972",
"0I    c #44AF27",
"0J    c #1E7A0D",
"0K    c #22840D",
"0L    c #299A0D",
"0M    c #2CA10E",
"0N    c #2DA30E",
"0O    c #2FA70E",
"0P    c #63BD4A",
"0Q    c #93D181",
"0R    c #B0DDA4",
"0S    c #C5E8BB",
"0T    c #A6BE9E",
"0U    c #899B83",
"0V    c #707F6B",
"0W    c #879981",
"0X    c #8DA087",
"0Y    c #6F7D6A",
"0Z    c #A4BA9D",
"0&    c #73826E",
"1     c #798B74",
"10    c #8FA588",
"11    c #B6DDAA",
"12    c #A2D991",
"13    c #76C55F",
"14    c #35AC16",
"15    c #2B9F0E",
"16    c #1C6909",
"17    c #2B9E0E",
"18    c #30A80E",
"19    c #45B225",
"1a    c #74C55C",
"1b    c #95D582",
"1c    c #7EA771",
"1d    c #40523A",
"1e    c #8AB07F",
"1f    c #9EC992",
"1g    c #8FB684",
"1h    c #181E16",
"1i    c #000000",
"1j    c #5F7958",
"1k    c #A1CC93",
"1l    c #96C089",
"1m    c #65855B",
"1n    c #405938",
"1o    c #82CE6C",
"1p    c #57B93A",
"1q    c #31AB0E",
"1r    c #2CA30E",
"1s    c #20780B",
"1t    c #23880D",
"1u    c #22850E",
"1v    c #26900E",
"1w    c #1B6309",
"1x    c #113C05",
"1y    c #237A0A",
"1z    c #32AC0F",
"1A    c #33AF0F",
"1B    c #51BA32",
"1C    c #63B24B",
"1D    c #2F4C26",
"1E    c #84CA6D",
"1F    c #8BD375",
"1G    c #8CD376",
"1H    c #527C45",
"1I    c #416237",
"1J    c #406036",
"1K    c #45673A",
"1L    c #75B062",
"1M    c #8AD273",
"1N    c #83D06C",
"1O    c #4A7E39",
"1P    c #356D24",
"1Q    c #35B010",
"1R    c #33AE0F",
"1S    c #2B960D",
"1T    c #175207",
"1U    c #113F06",
"1V    c #22800C",
"1W    c #23880E",
"1X    c #1F7B0E",
"1Y    c #23860E",
"1Z    c #26910E",
"1&    c #2B9C0E",
"2     c #2B9C0D",
"20    c #195708",
"21    c #154606",
"22    c #2B8F0C",
"23    c #36B210",
"24    c #38881E",
"25    c #448D2D",
"26    c #66C547",
"27    c #67C149",
"28    c #203C17",
"29    c #2E5520",
"2a    c #448031",
"2b    c #2C521F",
"2c    c #4E9137",
"2d    c #13240E",
"2e    c #4C9136",
"2f    c #61C442",
"2g    c #55BE33",
"2h    c #184909",
"2i    c #33AB0F",
"2j    c #1E6609",
"2k    c #227C0A",
"2l    c #27940E",
"2m    c #1E7B0E",
"2n    c #1E7C0E",
"2o    c #23870E",
"2p    c #27910E",
"2q    c #2B9A0F",
"2r    c #2FA50F",
"2s    c #32AB0F",
"2t    c #2D990E",
"2u    c #174A07",
"2v    c #206709",
"2w    c #216809",
"2x    c #2E7B14",
"2y    c #2E7118",
"2z    c #081304",
"2A    c #1D4410",
"2B    c #3A861F",
"2C    c #31711A",
"2D    c #204B11",
"2E    c #3E9022",
"2F    c #19400C",
"2G    c #2E8910",
"2H    c #194F07",
"2I    c #24740A",
"2J    c #144306",
"2K    c #21710A",
"2L    c #2FA60F",
"2M    c #1F7C0E",
"2N    c #24870E",
"2O    c #28930F",
"2P    c #2B9C0F",
"2Q    c #30A50F",
"2R    c #32A910",
"2S    c #38B510",
"2T    c #267B0B",
"2U    c #0B2103",
"2V    c #266E0E",
"2W    c #20570C",
"2X    c #46BE1C",
"2Y    c #47BE1C",
"2Z    c #3CA018",
"2&    c #296D10",
"3     c #46BE1B",
"30    c #389D15",
"31    c #194C07",
"32    c #20630A",
"33    c #0A1F03",
"34    c #38B410",
"35    c #207D0E",
"36    c #24880F",
"37    c #29930F",
"38    c #2D9D0F",
"39    c #30A610",
"3a    c #34AB10",
"3b    c #38B411",
"3c    c #2F950E",
"3d    c #184C07",
"3e    c #21660A",
"3f    c #246E0B",
"3g    c #020601",
"3h    c #2A7A0D",
"3i    c #41BF15",
"3j    c #42BF15",
"3k    c #359A11",
"3l    c #24690C",
"3m    c #41BE14",
"3n    c #3AAC11",
"3o    c #0C2404",
"3p    c #143E06",
"3q    c #21640A",
"3r    c #1E5D09",
"3s    c #1E5F09",
"3t    c #207D0F",
"3u    c #25890F",
"3v    c #2A950F",
"3w    c #2E9E10",
"3x    c #31A810",
"3y    c #35AD11",
"3z    c #39B211",
"3A    c #143F06",
"3B    c #3BB411",
"3C    c #32940F",
"3D    c #215F0A",
"3E    c #28730C",
"3F    c #2A780C",
"3G    c #1A4B08",
"3H    c #369B10",
"3I    c #3BA711",
"3J    c #29740C",
"3K    c #43BE14",
"3L    c #276F0B",
"3M    c #308B0F",
"3N    c #1C5108",
"3O    c #1E5709",
"3P    c #3EBC12",
"3Q    c #22690A",
"3R    c #277D0C",
"3S    c #36B011",
"3T    c #217D0F",
"3U    c #268A0F",
"3V    c #2B9610",
"3W    c #2FA010",
"3X    c #33AA11",
"3Y    c #39B312",
"3Z    c #2B870D",
"3&    c #23680A",
"4     c #40BE13",
"40    c #359A10",
"41    c #091A03",
"42    c #41B814",
"43    c #46C415",
"44    c #3FB013",
"45    c #24630B",
"46    c #1B4908",
"47    c #143706",
"48    c #215A0A",
"49    c #328C0F",
"4a    c #45C315",
"4b    c #24670B",
"4c    c #143A06",
"4d    c #38A911",
"4e    c #227E0F",
"4f    c #278B10",
"4g    c #2C9710",
"4h    c #31A111",
"4i    c #36AC12",
"4j    c #3BB512",
"4k    c #2B800D",
"4l    c #2A7B0D",
"4m    c #44C214",
"4n    c #399E11",
"4o    c #071302",
"4p    c #49C516",
"4q    c #4BC816",
"4r    c #4CC916",
"4s    c #3DA212",
"4t    c #0F2704",
"4u    c #2A6E0C",
"4v    c #4BC516",
"4w    c #49C616",
"4x    c #2B760D",
"4y    c #174107",
"4z    c #3EB513",
"4A    c #174607",
"4B    c #3AB112",
"4C    c #237F10",
"4D    c #288C10",
"4E    c #2E9911",
"4F    c #33A311",
"4G    c #38AE12",
"4H    c #3EB613",
"4I    c #3BA912",
"4J    c #194807",
"4K    c #48C515",
"4L    c #389711",
"4M    c #1A4508",
"4N    c #3D9F12",
"4O    c #46B414",
"4P    c #235A0A",
"4Q    c #29670C",
"4R    c #3E9D12",
"4S    c #327E0F",
"4T    c #3F9E13",
"4U    c #1C4808",
"4V    c #33840F",
"4W    c #4CC717",
"4X    c #1F5109",
"4Y    c #1A4608",
"4Z    c #318A0E",
"4&    c #256B0B",
"5     c #3EB713",
"50    c #248010",
"51    c #298D10",
"52    c #309A11",
"53    c #35A512",
"54    c #3BAF13",
"55    c #40B514",
"56    c #45C014",
"57    c #2A710C",
"58    c #3B9A11",
"59    c #388D10",
"5a    c #060F02",
"5b    c #24590A",
"5c    c #47AF15",
"5d    c #56D219",
"5e    c #47AC14",
"5f    c #30730E",
"5g    c #53CD19",
"5h    c #36850F",
"5i    c #0F2504",
"5j    c #1F5009",
"5k    c #317E0E",
"5l    c #399610",
"5m    c #40B112",
"5n    c #3AAF13",
"5o    c #248110",
"5p    c #2B8E11",
"5q    c #319B12",
"5r    c #37A612",
"5s    c #3DB013",
"5t    c #43B714",
"5u    c #47BE15",
"5v    c #4CC816",
"5w    c #317F0E",
"5x    c #0F2604",
"5y    c #265C0B",
"5z    c #3D9311",
"5A    c #5AD41A",
"5B    c #5CD51A",
"5C    c #4BAF15",
"5D    c #33750E",
"5E    c #59D41A",
"5F    c #58D319",
"5G    c #22520A",
"5H    c #0C2004",
"5I    c #4BC416",
"5J    c #48C215",
"5K    c #36A612",
"5L    c #258110",
"5M    c #2C8F11",
"5N    c #339C12",
"5O    c #39A813",
"5P    c #3FB214",
"5Q    c #46BD15",
"5R    c #398F10",
"5S    c #245A0B",
"5T    c #173606",
"5U    c #24550A",
"5V    c #2C660C",
"5W    c #0C1D03",
"5X    c #419413",
"5Y    c #55BF18",
"5Z    c #469D14",
"5&    c #316F0E",
"6     c #57C519",
"60    c #53BC18",
"61    c #1C4108",
"62    c #1D4408",
"63    c #2D6A0D",
"64    c #143005",
"65    c #1D4808",
"66    c #2C6F0D",
"67    c #43AF14",
"68    c #329C12",
"69    c #278211",
"6a    c #2E9012",
"6b    c #349D12",
"6c    c #3CAC13",
"6d    c #42B814",
"6e    c #3A9911",
"6f    c #205209",
"6g    c #2B690C",
"6h    c #57CF18",
"6i    c #439E13",
"6j    c #4BAD15",
"6k    c #5DD41A",
"6l    c #449713",
"6m    c #081202",
"6n    c #2B5E0C",
"6o    c #295B0C",
"6p    c #132A05",
"6q    c #397E10",
"6r    c #112505",
"6s    c #24500A",
"6t    c #52BA17",
"6u    c #5DD61A",
"6v    c #2C670C",
"6w    c #3F9C11",
"6x    c #1D4908",
"6y    c #2B730D",
"6z    c #36A013",
"6A    c #359711",
"6B    c #225D0B",
"6C    c #47AE14",
"6D    c #55CE18",
"6E    c #5AD219",
"6F    c #49A714",
"6G    c #2E670D",
"6H    c #63DA1B",
"6I    c #64DC1C",
"6J    c #59C018",
"6K    c #2C5F0C",
"6L    c #479914",
"6M    c #3E8611",
"6N    c #3F8811",
"6O    c #38790F",
"6P    c #4FB116",
"6Q    c #285B0B",
"6R    c #59D219",
"6S    c #51C817",
"6T    c #307C0E",
"6U    c #184107",
"6V    c #2A770E",
"6W    c #359E13",
"6X    c #288311",
"6Y    c #309312",
"6Z    c #329111",
"6&    c #1A4708",
"7     c #358F10",
"70    c #4CC216",
"71    c #52C917",
"72    c #56CC18",
"73    c #5ACF19",
"74    c #5FD71A",
"75    c #35750F",
"76    c #66DA1B",
"77    c #6ADF1D",
"78    c #61CC1A",
"79    c #0B1803",
"7a    c #3B7B10",
"7b    c #68DE1C",
"7c    c #55B918",
"7d    c #234D0A",
"7e    c #55C017",
"7f    c #5CD319",
"7g    c #50C517",
"7h    c #42B114",
"7i    c #20590A",
"7j    c #215F0B",
"7k    c #309412",
"7l    c #298311",
"7m    c #309212",
"7n    c #369D12",
"7o    c #3FAE14",
"7p    c #47BA15",
"7q    c #4CBE16",
"7r    c #52C617",
"7s    c #58CD19",
"7t    c #5CD019",
"7u    c #62D71B",
"7v    c #66DB1C",
"7w    c #38770F",
"7x    c #2A570B",
"7y    c #356E0E",
"7z    c #30630D",
"7A    c #31630D",
"7B    c #23480A",
"7C    c #37710F",
"7D    c #31660D",
"7E    c #31650D",
"7F    c #2A590B",
"7G    c #54B317",
"7H    c #62D81B",
"7I    c #4BBE16",
"7J    c #47B915",
"7K    c #369B12",
"7L    c #298211",
"7M    c #309112",
"7N    c #379E13",
"7O    c #3FAB14",
"7P    c #47B415",
"7Q    c #4CBD16",
"7R    c #52C518",
"7S    c #59CB19",
"7T    c #5DCF19",
"7U    c #62D21A",
"7V    c #65D51B",
"7W    c #69DC1C",
"7X    c #6ADA1C",
"7Y    c #62C71B",
"7Z    c #6EDF1E",
"7&    c #5FC01A",
"8     c #418412",
"80    c #6EE01E",
"81    c #64CD1B",
"82    c #67D91C",
"83    c #61D21A",
"84    c #288111",
"85    c #308F12",
"86    c #379B13",
"87    c #3EA814",
"88    c #45B115",
"89    c #4BBB16",
"8a    c #52C218",
"8b    c #58C719",
"8c    c #5CCB19",
"8d    c #5FCE1A",
"8e    c #64D11B",
"8f    c #66D41C",
"8g    c #68D61C",
"8h    c #6CDA1E",
"8i    c #6DDC1E",
"8j    c #59B318",
"8k    c #3C7910",
"8l    c #6AD91D",
"8m    c #63D11B",
"8n    c #57C719",
"8o    c #277D11",
"8p    c #2E8C12",
"8q    c #369713",
"8r    c #3EA314",
"8s    c #44AD15",
"8t    c #4BB516",
"8u    c #4FBC18",
"8v    c #56C319",
"8w    c #5AC619",
"8x    c #5DC91A",
"8y    c #62CC1B",
"8z    c #64CF1C",
"8A    c #66D01C",
"8B    c #68D21D",
"8C    c #6BD71E",
"8D    c #57AE18",
"8E    c #3B7710",
"8F    c #61CC1B",
"8G    c #55C319",
"8H    c #4AB516",
"8I    c #3DA314",
"8J    c #2C8712",
"8K    c #339213",
"8L    c #3B9C14",
"8M    c #41A615",
"8N    c #47AE16",
"8O    c #4CB518",
"8P    c #51B919",
"8Q    c #56BC19",
"8R    c #5AC01A",
"8S    c #5DC21B",
"8T    c #5FC41B",
"8U    c #62C61C",
"8V    c #64C81D",
"8W    c #67CC1E",
"8X    c #53A618",
"8Y    c #397110",
"8Z    c #55BC19",
"8&    c #2A8012",
"9     c #308A13",
"90    c #379414",
"91    c #3C9D15",
"92    c #43A416",
"93    c #48AB17",
"94    c #4CAF19",
"95    c #4FB119",
"96    c #53B51A",
"97    c #56B71B",
"98    c #58B91B",
"99    c #5ABB1C",
"9a    c #5CBC1C",
"9b    c #5FC11E",
"9c    c #4E9C18",
"9d    c #356A10",
"9e    c #52B51A",
"9f    c #42A416",
"9g    c #369414",
"9h    c #297E12",
"9i    c #2C8213",
"9j    c #328B14",
"9k    c #379215",
"9l    c #3D9916",
"9m    c #429E17",
"9n    c #46A218",
"9o    c #4AA519",
"9p    c #4CA819",
"9q    c #4EAA1A",
"9r    c #50AC1B",
"9s    c #52AE1B",
"9t    c #54AF1C",
"9u    c #56B31D",
"9v    c #468F17",
"9w    c #2E5F0F",
"9x    c #267D11",
"9y    c #287E12",
"9z    c #2B8013",
"9A    c #2E8214",
"9B    c #318515",
"9C    c #358B16",
"9D    c #3A9017",
"9E    c #3E9418",
"9F    c #419719",
"9G    c #449919",
"9H    c #469B1A",
"9I    c #489D1A",
"9J    c #499E1B",
"9K    c #4B9F1B",
"9L    c #4CA21C",
"9M    c #438E19",
"9N    c #356F14",
"9O    c #4CA31C",
"9P    c #439919",
"9Q    c #2A8013",
"       0 0 1 2 3 3 3 3 3 3 3 4 5 6 4 3 3 3 3 3 3 3 2 1 0        ",
"     7 8 9 a b c c c c c c c d 6 e d c c c c c c c b a 9 8 7    ",
" f g h i j k l m m m m m m m n o p n m m m m m m m l k j i h g f",
" f q r s t u v v v w x y z A B C D B A E F G v v v v u t s H q f",
" I J K t L M N O P Q R S T T U V W X T Y Z &0 0001 N M L02 K J I",
"03 r040506010708090a0b0c0d0e0f0g0h0f0e0i0j0k0l0m0n0701060504 r03",
"0o0p t0q0r0s0t0u0v0w0x0y0z0A0A0B0C0A0z0D0E0F0G0H0I0t0s0r0q t0p0o",
"0J0K u0L0M0N0O0P0Q0R0S0T0U0V0W0X0Y0Z0&1 10111213140O0N150L050K0J",
"0J s s16170O18191a1b1c1d1e1f1g1h1i1j1k1l1m1n1o1p1q180O1r1s 61t0J",
" h1u1v1w1x1y1z1A1B1C1D1E1F1G1H1I1J1K1L1M1N1O1P1Q1R1z1S1T1U1V1W h",
"1X1Y1Z1&2 202122232425262728292a2b2c2d2e2f2g2h232i2j1x2k1&2l1Y2m",
"2n2o2p2q2r2s2t2u2v2w2x2y2z2A2B2C2D2E2C2z2F2G2H2I2J2K2s2L2q2p2o2n",
"2M2N2O2P2Q2R232S2T1i2U2V2W2X2Y2Z2&2Y3 3031321i3334232R2Q2P2O2N2M",
"35363738393a3b3c3d3e3f3g3h3i3j3k3l3j3m3n3o3p3q3r3s3b3a3938373635",
"3t3u3v3w3x3y3z3A3B3C3D3E3F3G3H3I3J3K3L3G3M3N3O3P3Q3R3S3x3w3v3u3t",
"3T3U3V3W3X3Y3Z3&4 40414243444546474849434a4b4c4 4d3d3Y3X3W3V3U3T",
"4e4f4g4h4i4j4k4l4m4n4o4p4q4r4s4t1i4u4v4q4w4x4y4m4z4A4B4i4h4g4f4e",
"4C4D4E4F4G4H4I4J4K4L4M4N4O4P4Q4R4S4T4U4V4W4X4Y4K4Z4&5 4G4F4E4D4C",
"50515253545556574u58595a5b5c5d5e5f5d5g5h5i5j5k5l465m425n53525150",
"5o5p5q5r5s5t5u5v5w1i5x5y5z5A5B5C5D5B5E5F5G5b1i5H5I5J5t5s5K5q5p5o",
"5L5M5N5O5P5Q5I5R5S5T5U5V5W5X5Y5Z5&6 60616263646566675Q555O685M5L",
"696a6b6c6d6e6f6g6h6i6j6k6l6m6n6o6p6q6r6s6t6u6v6h6w6x6y446c6b6a69",
"696a6z6A6B6f6C6D6E6F6G6H6I6J6K6L6M6N6O6I6H6P6Q6R6D6S6T6U6V6W6a69",
"6X6Y6Z6&7 7071727374756O767778791i7a777b7c7d7e7f727g707h7i7j7k6X",
"7l7m7n7o7p7q7r7s7t7u7v7w7x7y7z7A7B7C7D7E7F7G7H7t7s7r7I7J7o7K7m7l",
"7L7M7N7O7P7Q7R7S7T7U7V7W7X7Y7Z7&8 807Y817W82837T7S7R7Q7P7O7N7M7L",
"8485868788898a8b8c8d8e8f8g8h8i8j8k8i8h8l8f8m8d8c8n8a898887868584",
"8o8p8q8r8s8t8u8v8w8x8y8z8A8B8C8D8E8C8B8A8z8F8x8w8G8u8H8s8I8q8p8o",
"8o8J8K8L8M8N8O8P8Q8R8S8T8U8V8W8X8Y8W8V8U8T8S8R8Z8P8O8N8M8L8K8J8o",
"8o8&9 909192939495969798999a9b9c9d9b9a9998979e9594939f919g9 8&8o",
"8o9h9i9j9k9l9m9n9o9p9q9r9s9t9u9v9w9u9t9s9r9q9p9o9n9m9l9k9j9i9h8o",
"9x9y9z9A9B9C9D9E9F9G9H9I9J9K9L9M9N9O9K9J9I9H9P9F9E9D9C9B9A9Q9y9x"};
