/* XPM */
static char *B07_xpm[]={
"32 32 285 2",
"      c #007200",
" 0    c #007300",
" 1    c #007500",
" 2    c #007700",
" 3    c #007800",
" 4    c #007600",
" 5    c #007400",
" 6    c #007900",
" 7    c #007E00",
" 8    c #008100",
" 9    c #008200",
" a    c #008400",
" b    c #008300",
" c    c #008700",
" d    c #007B00",
" e    c #008500",
" f    c #008900",
" g    c #008C00",
" h    c #008F00",
" i    c #008E00",
" j    c #009100",
" k    c #007100",
" l    c #003800",
" m    c #008800",
" n    c #008600",
" o    c #007A00",
" p    c #009300",
" q    c #009600",
" r    c #009500",
" s    c #009D00",
" t    c #00A51B",
" u    c #00A92A",
" v    c #00AB2D",
" w    c #00AB2E",
" x    c #00AA2E",
" y    c #00AA2C",
" z    c #00AA23",
" A    c #009D04",
" B    c #000100",
" C    c #001000",
" D    c #009900",
" E    c #009200",
" F    c #009700",
" G    c #009B00",
" H    c #00A500",
" I    c #20BC50",
" J    c #67C877",
" K    c #80D08B",
" L    c #8BD494",
" M    c #91D598",
" N    c #93D69A",
" O    c #96DB9D",
" P    c #92D699",
" Q    c #92D598",
" R    c #8ED596",
" S    c #89D794",
" T    c #112915",
" U    c #1A5929",
" V    c #005B0D",
" W    c #00A100",
" X    c #009C00",
" Y    c #007D00",
" Z    c #008A00",
" &    c #009800",
"0     c #009E00",
"00    c #00A000",
"01    c #00BC45",
"02    c #7CD188",
"03    c #A6DEAB",
"04    c #BBE4BE",
"05    c #C7E8C9",
"06    c #C9E8CC",
"07    c #CCE9CD",
"08    c #CFEED1",
"09    c #B9D5BC",
"0a    c #C7E4C9",
"0b    c #CFEED2",
"0c    c #CBE9CD",
"0d    c #CCEECF",
"0e    c #394639",
"0f    c #6A886C",
"0g    c #64986A",
"0h    c #256D32",
"0i    c #00AB00",
"0j    c #00A200",
"0k    c #00A600",
"0l    c #27C152",
"0m    c #89D692",
"0n    c #B2E3B6",
"0o    c #C8E9CA",
"0p    c #D1ECD2",
"0q    c #D4ECD5",
"0r    c #D6EED7",
"0s    c #D1EAD3",
"0t    c #111411",
"0u    c #202521",
"0v    c #819182",
"0w    c #DAF3DB",
"0x    c #7F8F80",
"0y    c #4B574C",
"0z    c #C0EAC2",
"0A    c #507655",
"0B    c #388647",
"0C    c #00B300",
"0D    c #009000",
"0E    c #00A400",
"0F    c #00A700",
"0G    c #00BD3C",
"0H    c #6ED17D",
"0I    c #9BDCA1",
"0J    c #B1E3B6",
"0K    c #BCE6BD",
"0L    c #C0E6C1",
"0M    c #C6EEC8",
"0N    c #475647",
"0O    c #758C76",
"0P    c #BDE3BE",
"0Q    c #4F6150",
"0R    c #050805",
"0S    c #000000",
"0T    c #BCE9BE",
"0U    c #AAE4AF",
"0V    c #385F3C",
"0W    c #219A42",
"0X    c #00B000",
"0Y    c #00A800",
"0Z    c #009F00",
"0&    c #00A900",
"1     c #00B400",
"10    c #26C553",
"11    c #6CD17B",
"12    c #85D88E",
"13    c #91DB98",
"14    c #99E1A0",
"15    c #6FA374",
"16    c #1E3221",
"17    c #9AE2A1",
"18    c #89C98F",
"19    c #040705",
"1a    c #314D34",
"1b    c #203722",
"1c    c #65B870",
"1d    c #1C5D29",
"1e    c #00A71F",
"1f    c #00AF00",
"1g    c #00AC00",
"1h    c #00B914",
"1i    c #00C346",
"1j    c #42CA5D",
"1k    c #54CD67",
"1l    c #5BD46F",
"1m    c #081F0B",
"1n    c #4CB05C",
"1o    c #5DD470",
"1p    c #5ACC6C",
"1q    c #041405",
"1r    c #4CB05B",
"1s    c #59D26C",
"1t    c #379B4A",
"1u    c #022C0B",
"1v    c #00B800",
"1w    c #00BE2A",
"1x    c #00C737",
"1y    c #005E17",
"1z    c #005615",
"1A    c #00C93E",
"1B    c #002705",
"1C    c #008324",
"1D    c #00C83C",
"1E    c #00C238",
"1F    c #00C630",
"1G    c #00C016",
"1H    c #000400",
"1I    c #001D00",
"1J    c #005900",
"1K    c #007C00",
"1L    c #00A300",
"1M    c #00AE00",
"1N    c #00B200",
"1O    c #00BB00",
"1P    c #001B02",
"1Q    c #00BC00",
"1R    c #00C200",
"1S    c #005300",
"1T    c #005C01",
"1U    c #00C100",
"1V    c #00BD01",
"1W    c #00B900",
"1X    c #004900",
"1Y    c #00B600",
"1Z    c #004F00",
"1&    c #006800",
"2     c #00AA00",
"20    c #00B500",
"21    c #00BA00",
"22    c #003A00",
"23    c #00BF00",
"24    c #003700",
"25    c #004D00",
"26    c #001600",
"27    c #006F00",
"28    c #008B00",
"29    c #00B100",
"2a    c #007F00",
"2b    c #002E00",
"2c    c #001B00",
"2d    c #00C000",
"2e    c #00BE00",
"2f    c #006000",
"2g    c #009400",
"2h    c #003500",
"2i    c #001F00",
"2j    c #00AD00",
"2k    c #00B700",
"2l    c #001100",
"2m    c #00C300",
"2n    c #00BD00",
"2o    c #005A00",
"2p    c #006100",
"2q    c #005400",
"2r    c #006500",
"2s    c #00C500",
"2t    c #00C600",
"2u    c #003000",
"2v    c #006200",
"2w    c #002000",
"2x    c #009A00",
"2y    c #002100",
"2z    c #00CA00",
"2A    c #001800",
"2B    c #006300",
"2C    c #008000",
"2D    c #008D00",
"2E    c #002600",
"2F    c #005B00",
"2G    c #00CD00",
"2H    c #00C900",
"2I    c #00CF00",
"2J    c #003300",
"2K    c #003F00",
"2L    c #00CC00",
"2M    c #005F00",
"2N    c #00D300",
"2O    c #006E00",
"2P    c #001A00",
"2Q    c #00D100",
"2R    c #006700",
"2S    c #003100",
"2T    c #00D500",
"2U    c #003900",
"2V    c #006600",
"2W    c #002A00",
"2X    c #006400",
"2Y    c #00C800",
"2Z    c #00CE00",
"2&    c #00C700",
"3     c #00C400",
"30    c #004B00",
"31    c #002300",
"32    c #00D400",
"33    c #00D600",
"34    c #004000",
"35    c #002700",
"36    c #002B00",
"37    c #00D700",
"38    c #006A00",
"39    c #00DD00",
"3a    c #00DC00",
"3b    c #00D200",
"3c    c #001300",
"3d    c #00DB00",
"3e    c #00E000",
"3f    c #00DA00",
"3g    c #00D900",
"3h    c #00D800",
"3i    c #007000",
"3j    c #000B00",
"3k    c #003B00",
"3l    c #00E100",
"3m    c #004A00",
"3n    c #001E00",
"3o    c #00DE00",
"3p    c #00D000",
"3q    c #001C00",
"3r    c #00CB00",
"   0     0 1 2 2 3 3 3 2 3 3 3 3 3 3 2 3 3 3 3 3 3 4 4     0   0",
" 0   5 6 7 8 9 a a a a a a a a a a a a b a a c c a 9 8 7 3 5 0  ",
" 0 0 d 8 e f g h i i i i i i i h h i i i i j k l j g m n 8 d 0  ",
" 0 o 9 m h p q r r s t u v w x x w w w y z A B C D r E i m 9 o  ",
"   7 m h p F G H I J K L M M N O P Q M R S T U V W X F p h c Y  ",
" 4 9 Z E &0 000102030405060708090a0b0c0d0e0f0g0h0i00 s & E Z 9 4",
" 3 a h q X0j0k0l0m0n0o0p0q0r0s0t0u0v0w0x0y0z0A0B0C H W s q i a 2",
" o e0D &000E0F0G0H0I0J0K0L0M0N0O0P0Q0R0S0T0U0V0W0X0Y0E0Z &0D e 6",
" 6 n0D & W0E0&1 10111213141516171718191a1b1c1d1e1f0& H W &0D e o",
" d n j & W0k0&1g1h1i1j1k1l1m1n1o1p1q1r1s1t1u0S q0X0& H W & j n d",
" d c E D0j0F0i1f1f1v1w1x1y1z1A1A1B1C1D1E1F1G1H1I1J1g0i0j D p c d",
"1K m E G1L0&1M0X1N1N1O0k1P1Q1R1S1T1U1V1Q1W X1X1Y1Z1I1&0F0Z E m d",
"1K f p X H2 1f1N0C202122 f231&24231O1O1W21 i1Z1v1Y H252627 &281K",
" Y f p0 0k1g291Y1Y1Q2a2b23 Z2c2d1Q1Q1Q212e d2f2120201f2g2h2i 22a",
" 7 Z r0Z0Y2j1 2k212126291g2l1N2m232e2n1Q1U k272n2k2k1N1g2o0S2p 8",
" 728 F W2 29201O232q2r2s1I F2t1R1R1U1U2s2k2u D232e2 2v2w252x i Y",
"2a g F0j2j1N1v1U D2y2t2h b2z2t2t2t2z2z d2A 82s1Q1S2w2B0Y H F g2a",
"2C2D2x0E1f1 212m2E1M2F1S2G2H2H2z2I1v2J2K2L2z2M1I2r211W1M1L2x2D2C",
" 8 i2x H0X1Y1R Y2o f2J2I2L2G2N2N2O2P G2Q2R1I2r2d2t1Q1Y29 H G i 8",
" 9 h G0k1N1v1O2S p1I2L2N2I2T0&2U2V2d 92W2X2Y2Z2&3 231W290F G0D 9",
" 90D X0&0C2e302F312d32332N2q34 W1&35 o2z332I2G2H2t1U210C0& X0D 9",
" b j0 0&1W E362J0Z3237 X2u382O36 Y393a2T2N3b2I2L2H1R2n200& s E b",
" b j0Z0i212b3c 12N2G1J363024 13d3e3f3g3h33322Q2Z2z3 1Q2k2 0  E b",
" a p001f3i0S2f2Q2g3j C3k 63d3l39393a3d3f3h2T2N2I2L2s232k0i0Z E a",
" b p1L1L0S3m2L3n0S2w0D323e393o3o3939393d3g37323p2G2t2e1v0i00 E a",
" b E0j3q0S2p0S0S Z373g3h3f3d3a3d3a3d3f3f3h323b2I3r2s2n200i0  p b",
" 9 p 30S0S0S3i2G3p2Z2Q3233373h3g3g3h3733322Q2Z3r2&1R1Q0C0Y X j 9",
" 70D0S0S1S211R2m2&2H2L2I3p3b2N32322N3b3p2I2L2H2t2m1Q2k2j0E F2D 7",
" 7 92R000i1f1Y1O1Q1U1R2s2t2Y2Y2H2H2Y2Y2t3 2m1U1Q1O1Y1M0F X p m 7",
" 7 8 i r s H0i291N2k1W211Q1Q2n2n2e2n2n1Q1O1v1Y1N290i0E s2g28 8 7",
" Y2a b g E D0Z0j0k0Y0i1g1M1f0X290X0X1f1f2j2 0Y0k0j0Z D E g b2a Y",
" Y2a 8 b n g j r & D G s0 0Z W W00000Z0 0  X D F2g j2D n b 82a Y"};
