/* XPM */
static char *B08_xpm[]={
"32 32 593 2",
"      c #1C750C",
" 0    c #1D750C",
" 1    c #1E780C",
" 2    c #1F790C",
" 3    c #1F7A0C",
" 4    c #207A0C",
" 5    c #1D760C",
" 6    c #1F7B0C",
" 7    c #21800C",
" 8    c #21830C",
" 9    c #22840C",
" a    c #23860D",
" b    c #1C750D",
" c    c #1C760D",
" d    c #207D0D",
" e    c #21830D",
" f    c #23880D",
" g    c #258B0D",
" h    c #268E0D",
" i    c #27900D",
" j    c #1E7C0D",
" k    c #22840D",
" l    c #248A0D",
" m    c #26900D",
" n    c #27940D",
" o    c #29980D",
" p    c #3AA020",
" q    c #4AA832",
" r    c #51AB3B",
" s    c #55AD3D",
" t    c #55AD3E",
" u    c #53AC3C",
" v    c #4DA936",
" w    c #40A328",
" x    c #21840D",
" y    c #1D750D",
" z    c #20800D",
" A    c #23890D",
" B    c #28960D",
" C    c #299A0D",
" D    c #2B9E0D",
" E    c #3DA822",
" F    c #70BF5B",
" G    c #8ECC7E",
" H    c #9FD491",
" I    c #A7D89A",
" J    c #ABD99E",
" K    c #ACDA9F",
" L    c #A9D99C",
" M    c #A3D696",
" N    c #95CF86",
" O    c #7CC469",
" P    c #50B138",
" Q    c #2BA00D",
" R    c #25900D",
" S    c #1D790D",
" T    c #248C0D",
" U    c #27950D",
" V    c #299B0D",
" W    c #2DA30D",
" X    c #6ABF52",
" Y    c #9DD58D",
" Z    c #BBE2B0",
" &    c #CCE9C4",
"0     c #D5EDCE",
"00    c #D7EED1",
"01    c #D8EED2",
"02    c #B4C7AF",
"03    c #C4D8BE",
"04    c #D5EDCF",
"05    c #D0EBC8",
"06    c #C3E5B9",
"07    c #A9DA9B",
"08    c #7EC769",
"09    c #3AAA1B",
"0a    c #1E7A0D",
"0b    c #22860D",
"0c    c #28990D",
"0d    c #2B9F0D",
"0e    c #2DA40D",
"0f    c #2FA80E",
"0g    c #74C55D",
"0h    c #A6DA98",
"0i    c #C5E7BB",
"0j    c #D6EECF",
"0k    c #DDF1D7",
"0l    c #E0F2DB",
"0m    c #E1F3DC",
"0n    c #DCEDD7",
"0o    c #252824",
"0p    c #545B52",
"0q    c #2F322E",
"0r    c #8C9888",
"0s    c #D9EFD3",
"0t    c #CCEAC3",
"0u    c #B3E0A6",
"0v    c #87CD74",
"0w    c #45B228",
"0x    c #1F7C0D",
"0y    c #23870D",
"0z    c #26920D",
"0A    c #2CA20E",
"0B    c #2EA60E",
"0C    c #30AA0E",
"0D    c #65C14B",
"0E    c #96D584",
"0F    c #B4E1A7",
"0G    c #C5E8BB",
"0H    c #CDEBC3",
"0I    c #D0ECC7",
"0J    c #D1EDC8",
"0K    c #222721",
"0L    c #92A58C",
"0M    c #2B3129",
"0N    c #C9E9BF",
"0O    c #BCE4B0",
"0P    c #A3DA92",
"0Q    c #78C961",
"0R    c #36AF16",
"0S    c #26920E",
"0T    c #2A9B0E",
"0U    c #2CA30E",
"0V    c #2FA70E",
"0W    c #31AB0E",
"0X    c #46B626",
"0Y    c #76C95E",
"0Z    c #95D582",
"0&    c #A5DC95",
"1     c #ADDF9E",
"10    c #B0E0A2",
"11    c #B1E1A3",
"12    c #252F22",
"13    c #637D5B",
"14    c #B1E0A2",
"15    c #597252",
"16    c #81AA75",
"17    c #9BD889",
"18    c #82CE6C",
"19    c #59BD3B",
"1a    c #32AE0E",
"1b    c #23880E",
"1c    c #27930E",
"1d    c #2DA40E",
"1e    c #30A80E",
"1f    c #32AC0F",
"1g    c #33AF0F",
"1h    c #51BB32",
"1i    c #6FC754",
"1j    c #7DC965",
"1k    c #558347",
"1l    c #416237",
"1m    c #0D140B",
"1n    c #000000",
"1o    c #24361E",
"1p    c #1A2716",
"1q    c #273B21",
"1r    c #3E5E34",
"1s    c #131E10",
"1t    c #3A5C30",
"1u    c #77CA5C",
"1v    c #5DC13F",
"1w    c #35B010",
"1x    c #207D0E",
"1y    c #24890E",
"1z    c #27940E",
"1A    c #2B9C0E",
"1B    c #2EA50E",
"1C    c #31AA0F",
"1D    c #33AE0F",
"1E    c #35B10F",
"1F    c #33AA0F",
"1G    c #1B410F",
"1H    c #0D1B09",
"1I    c #366926",
"1J    c #5BAB40",
"1K    c #14250E",
"1L    c #59A73F",
"1M    c #6BC84C",
"1N    c #417C2E",
"1O    c #1B3712",
"1P    c #0C1B07",
"1Q    c #27760F",
"1R    c #36B210",
"1S    c #1F7D0E",
"1T    c #1F7E0E",
"1U    c #248A0E",
"1V    c #28940E",
"1W    c #2C9D0F",
"1X    c #2FA60F",
"1Y    c #32AB0F",
"1Z    c #34B010",
"1&    c #1A5407",
"2     c #091E03",
"20    c #24720A",
"21    c #46BA1F",
"22    c #4DBD28",
"23    c #47A927",
"24    c #0F2308",
"25    c #53C02D",
"26    c #50BF2A",
"27    c #49BC24",
"28    c #349D12",
"29    c #174806",
"2a    c #0A2103",
"2b    c #27810C",
"2c    c #207E0E",
"2d    c #258A0E",
"2e    c #29960F",
"2f    c #2C9F0F",
"2g    c #31A80F",
"2h    c #32A810",
"2i    c #154306",
"2j    c #39B611",
"2k    c #3AB811",
"2l    c #3CB912",
"2m    c #41BB18",
"2n    c #25650E",
"2o    c #2C7712",
"2p    c #47BE1C",
"2q    c #46BE1B",
"2r    c #43BC19",
"2s    c #32A10F",
"2t    c #174B07",
"2u    c #33AC10",
"2v    c #217F0E",
"2w    c #258B0F",
"2x    c #2A960F",
"2y    c #2EA00F",
"2z    c #288A0D",
"2A    c #020801",
"2B    c #28820C",
"2C    c #3BB912",
"2D    c #3DBA12",
"2E    c #3EBB12",
"2F    c #3FBC13",
"2G    c #184607",
"2H    c #38A412",
"2I    c #42BF15",
"2J    c #41BE14",
"2K    c #40BD13",
"2L    c #195008",
"2M    c #0B2403",
"2N    c #31A910",
"2O    c #21800F",
"2P    c #268C0F",
"2Q    c #2B980F",
"2R    c #206D0B",
"2S    c #071802",
"2T    c #36B011",
"2U    c #3AB611",
"2V    c #3CBA12",
"2W    c #3EBC12",
"2X    c #41BE13",
"2Y    c #42C014",
"2Z    c #174307",
"2&    c #44C114",
"3     c #44C214",
"30    c #45C214",
"31    c #43C014",
"32    c #1F660A",
"33    c #0C2804",
"34    c #2FA110",
"35    c #22800F",
"36    c #278D0F",
"37    c #0A2304",
"38    c #154507",
"39    c #184B08",
"3a    c #154006",
"3b    c #1A4F08",
"3c    c #194B08",
"3d    c #1C5108",
"3e    c #205B09",
"3f    c #2D7F0E",
"3g    c #153B06",
"3h    c #47C515",
"3i    c #48C515",
"3j    c #48C615",
"3k    c #46C415",
"3l    c #45C315",
"3m    c #40BE13",
"3n    c #3FBD13",
"3o    c #3BB812",
"3p    c #39B312",
"3q    c #185108",
"3r    c #113906",
"3s    c #2C9910",
"3t    c #23810F",
"3u    c #278B10",
"3v    c #092003",
"3w    c #24760C",
"3x    c #329F10",
"3y    c #3AB112",
"3z    c #3DB713",
"3A    c #40BB14",
"3B    c #41B913",
"3C    c #3CA812",
"3D    c #2D7C0D",
"3E    c #143706",
"3F    c #020501",
"3G    c #1C4B08",
"3H    c #379110",
"3I    c #4DCA16",
"3J    c #4CC916",
"3K    c #4BC816",
"3L    c #49C616",
"3M    c #3EBB13",
"3N    c #3BB512",
"3O    c #37AF12",
"3P    c #0C2604",
"3Q    c #247A0D",
"3R    c #288E10",
"3S    c #248210",
"3T    c #298F10",
"3U    c #2F9C11",
"3V    c #34A611",
"3W    c #39B112",
"3X    c #3EB713",
"3Y    c #42BD14",
"3Z    c #4AC716",
"3&    c #4ECB17",
"4     c #4FCC17",
"40    c #3FA212",
"41    c #153406",
"42    c #0F2604",
"43    c #3A9511",
"44    c #51CD18",
"45    c #50CD17",
"46    c #2A870E",
"47    c #071602",
"48    c #258310",
"49    c #2A9010",
"4a    c #319D11",
"4b    c #36A812",
"4c    c #3CB313",
"4d    c #41B914",
"4e    c #45C014",
"4f    c #49C515",
"4g    c #4CC816",
"4h    c #4ECA17",
"4i    c #51CD17",
"4j    c #52CE18",
"4k    c #54D018",
"4l    c #55D119",
"4m    c #56D219",
"4n    c #4BB415",
"4o    c #1A3F08",
"4p    c #0E2304",
"4q    c #49B315",
"4r    c #3BB313",
"4s    c #0E2C05",
"4t    c #247C0E",
"4u    c #258410",
"4v    c #2C9111",
"4w    c #329E12",
"4x    c #38A912",
"4y    c #3EB413",
"4z    c #44BB14",
"4A    c #48C215",
"4B    c #4FCB17",
"4C    c #52CD18",
"4D    c #55D018",
"4E    c #57D219",
"4F    c #58D319",
"4G    c #5AD41A",
"4H    c #5CD51A",
"4I    c #5CD61A",
"4J    c #47A414",
"4K    c #122C05",
"4L    c #1F4A09",
"4M    c #37A912",
"4N    c #1E5F0B",
"4O    c #1A540A",
"4P    c #268410",
"4Q    c #2D9211",
"4R    c #349F12",
"4S    c #3AAB13",
"4T    c #40B614",
"4U    c #46BD15",
"4V    c #4BC416",
"4W    c #50CA17",
"4X    c #53CD18",
"4Y    c #57D118",
"4Z    c #5AD319",
"4&    c #5DD71A",
"5     c #5FD81B",
"50    c #60D91B",
"51    c #32730E",
"52    c #0B1903",
"53    c #388410",
"54    c #2A820F",
"55    c #154408",
"56    c #288511",
"57    c #2F9312",
"58    c #35A012",
"59    c #3CAC13",
"5a    c #42B814",
"5b    c #48BF15",
"5c    c #4EC616",
"5d    c #53CD17",
"5e    c #57D018",
"5f    c #5DD61A",
"5g    c #61D91B",
"5h    c #63DB1C",
"5i    c #64DC1C",
"5j    c #183707",
"5k    c #132C05",
"5l    c #4FBC16",
"5m    c #2E890F",
"5n    c #154108",
"5o    c #36A113",
"5p    c #3DAD14",
"5q    c #44B915",
"5r    c #4AC016",
"5s    c #51C817",
"5t    c #55CE18",
"5u    c #5AD219",
"5v    c #5DD51A",
"5w    c #60D81B",
"5x    c #63DA1B",
"5y    c #66DD1C",
"5z    c #67DE1C",
"5A    c #68DF1D",
"5B    c #0A1903",
"5C    c #204D09",
"5D    c #4FC316",
"5E    c #2A7C0F",
"5F    c #164508",
"5G    c #298611",
"5H    c #309412",
"5I    c #38A213",
"5J    c #3EAD14",
"5K    c #45B915",
"5L    c #4CC216",
"5M    c #52C917",
"5N    c #58D018",
"5O    c #5CD319",
"5P    c #5FD71A",
"5Q    c #62D91B",
"5R    c #66DC1C",
"5S    c #68DE1C",
"5T    c #6ADF1D",
"5U    c #6BE01D",
"5V    c #6BE11D",
"5W    c #65DC1C",
"5X    c #31740D",
"5Y    c #112A05",
"5Z    c #1C4808",
"5&    c #2F7D0E",
"6     c #30850F",
"60    c #071302",
"61    c #287C0F",
"62    c #2A8611",
"63    c #319512",
"64    c #3FAE14",
"65    c #47BA15",
"66    c #4EC216",
"67    c #54CA17",
"68    c #5AD119",
"69    c #5ED41A",
"6a    c #62D81B",
"6b    c #66DB1C",
"6c    c #69DD1C",
"6d    c #6BDF1D",
"6e    c #6CE11D",
"6f    c #6EE21E",
"6g    c #6FE21E",
"6h    c #388C10",
"6i    c #173D07",
"6j    c #123006",
"6k    c #27710D",
"6l    c #2A8511",
"6m    c #319412",
"6n    c #38A113",
"6o    c #40AE14",
"6p    c #48B815",
"6q    c #4EC116",
"6r    c #54C918",
"6s    c #5BCF19",
"6t    c #5FD31A",
"6u    c #64D61B",
"6v    c #67D91C",
"6w    c #69DC1C",
"6x    c #6CDE1D",
"6y    c #6EDF1E",
"6z    c #6EE01E",
"6A    c #6FE01E",
"6B    c #63D61B",
"6C    c #298411",
"6D    c #319212",
"6E    c #389E13",
"6F    c #3FAB14",
"6G    c #46B515",
"6H    c #4DBF16",
"6I    c #54C618",
"6J    c #5ACB19",
"6K    c #5ECF1A",
"6L    c #61D21B",
"6M    c #66D51C",
"6N    c #68D81D",
"6O    c #6ADA1D",
"6P    c #6CDB1E",
"6Q    c #6DDC1E",
"6R    c #6EDD1E",
"6S    c #65D51C",
"6T    c #59CB19",
"6U    c #288011",
"6V    c #2F8F12",
"6W    c #379A13",
"6X    c #3FA614",
"6Y    c #45B015",
"6Z    c #4CB916",
"6&    c #51C018",
"7     c #58C719",
"70    c #5CCA1A",
"71    c #5FCD1B",
"72    c #64D01C",
"73    c #66D31D",
"74    c #68D41D",
"75    c #6AD61E",
"76    c #6BD71E",
"77    c #6CD81E",
"78    c #63D01C",
"79    c #57C719",
"7a    c #4BB916",
"7b    c #3EA614",
"7c    c #2D8A12",
"7d    c #349513",
"7e    c #3C9F14",
"7f    c #42A915",
"7g    c #48B116",
"7h    c #4EB918",
"7i    c #53BD19",
"7j    c #58C01A",
"7k    c #5CC41B",
"7l    c #5FC61C",
"7m    c #61C81C",
"7n    c #64CA1D",
"7o    c #66CC1E",
"7p    c #67CC1E",
"7q    c #67CD1E",
"7r    c #57C01A",
"7s    c #2B8312",
"7t    c #318D13",
"7u    c #389714",
"7v    c #3DA015",
"7w    c #44A716",
"7x    c #49AE17",
"7y    c #4EB319",
"7z    c #51B51A",
"7A    c #55B91B",
"7B    c #58BB1C",
"7C    c #5ABD1C",
"7D    c #5CBF1D",
"7E    c #5EC01D",
"7F    c #5FC11E",
"7G    c #60C11E",
"7H    c #54B91B",
"7I    c #43A716",
"7J    c #379714",
"7K    c #287F11",
"7L    c #2A8112",
"7M    c #2D8513",
"7N    c #338E14",
"7O    c #389515",
"7P    c #3E9C16",
"7Q    c #43A117",
"7R    c #47A518",
"7S    c #4BA819",
"7T    c #4EAB1A",
"7U    c #50AD1B",
"7V    c #52AF1C",
"7W    c #54B11C",
"7X    c #56B21D",
"7Y    c #56B31D",
"7Z    c #57B31D",
"7&    c #277F11",
"8     c #298112",
"80    c #2C8313",
"81    c #2F8514",
"82    c #328815",
"83    c #368E16",
"84    c #3B9317",
"85    c #3F9718",
"86    c #429A19",
"87    c #459C1A",
"88    c #479E1B",
"89    c #49A01B",
"8a    c #4AA11C",
"8b    c #4CA21C",
"8c    c #4CA31C",
"8d    c #4DA31D",
"8e    c #449C1A",
"8f    c #2B8313",
"       0 0 1 2 3 3 3 3 3 3 3 4 4 4 4 3 3 3 3 3 3 3 2 1 0        ",
"     5 6 7 8 9 a a a a a a a a a a a a a a a a a a 9 8 7 6 5    ",
" b c d e f g h i i i i i i i i i i i i i i i i i i h g f e d c b",
" b j k l m n o o o p q r s t t t t t t u v w o o o o n m l x j b",
" y z A m B C D E F G H I J J K K K J J L M N O P Q D C B R A z y",
" S k T U V Q W X Y Z &0 00010101010203040506070809 W Q V U T k S",
"0a0b m0c0d0e0f0g0h0i0j0k0l0m0m0n0o0p0q0r0s0t0u0v0w0f0e0d0c m0b0a",
"0x0y0z C0A0B0C0D0E0F0G0H0I0J0J0K0L0J0J0M0N0O0P0Q0R0C0B0A C0z0y0x",
"0x f0S0T0U0V0W0X0Y0Z0&1 1011121311111415161718191a0W0V0U0T0S f0x",
" d1b1c0T1d1e1f1g1h1i1j1k1l1m1n1o1p1q1r1s1t1u1v1w1g1f1e1d0T1c1b d",
"1x1y1z1A1B1C1D1E1F1G1H1I1J1K1L1M1M1M1J1N1O1P1Q1R1E1D1C1B1A1z1y1S",
"1T1U1V1W1X1Y1Z1&2 20212223242525252525262728292a2b1Z1Y1X1W1V1U1T",
"2c2d2e2f2g2h2a2i2j2k2l2m2n2o2p2p2p2p2q2r2l2l2k2s2 2t2u2g2f2e2d2c",
"2v2w2x2y2z2A2B2k2C2D2E2F2G2H2I2I2I2I2J2K2F2E2D2C2k2L2M2N2y2x2w2v",
"2O2P2Q2R2S2T2U2V2W2K2X2Y2Z2&3 30303 2&312Y2X2K2W2V2j3233342Q2P2O",
"3536371n38393a3b3c3d3e3f3g3h3i3j3j3i3h3k3l3 2Y3m3n3o3p3q3r3s3635",
"3t3u3v3w3x3y3z3A3B3C3D3E3F3G3H3I3I3J3J3K3L3i3k3 2Y3M3N3O3P3Q3R3t",
"3S3T3U3V3W3X3Y303i3Z3J3&4 4041424344454 3&3J3Z3i303Y3X3W46473T3S",
"48494a4b4c4d4e4f4g4h4i4j4k4l4m4n4o4p4q4k4j4i4h4g4f4e4d4r4b4s4t48",
"4u4v4w4x4y4z4A4g4B4C4D4E4F4G4H4I4I4J4K4L4E4D4C4B4g4A4z4y4M4N4O4u",
"4P4Q4R4S4T4U4V4W4X4Y4Z4H4&5 505050505 5152534Y4X4W4V4U4T4S54554P",
"565758595a5b5c5d5e4Z5f5 5g5h5i5i5i5i5h5g5 5j5k5l5d5c5b5a595m5n56",
"56575o5p5q5r5s5t5u5v5w5x5i5y5z5A5A5z5y5i5x5w4J5B5C5D5r5q5p5E5F56",
"5G5H5I5J5K5L5M5N5O5P5Q5R5S5T5U5V5V5U5T5S5W5Q5P5O5X5Y5Z5&6 60615G",
"62635I6465666768696a6b6c6d6e6f6g6g6f6e6d6c6b6a6968676h6i6j6k6362",
"6l6m6n6o6p6q6r6s6t6u6v6w6x6y6z6A6A6z6y6x6w6v6B6t6s6r6q6p6o6n6m6l",
"6C6D6E6F6G6H6I6J6K6L6M6N6O6P6Q6R6R6Q6P6O6N6S6L6K6T6I6H6G6F6E6D6C",
"6U6V6W6X6Y6Z6&7 70717273747576777776757473787170796&7a6Y7b6W6V6U",
"6U7c7d7e7f7g7h7i7j7k7l7m7n7o7p7q7q7p7o7n7m7l7k7r7i7h7g7f7e7d7c6U",
"6U7s7t7u7v7w7x7y7z7A7B7C7D7E7F7G7G7F7E7D7C7B7H7z7y7x7I7v7J7t7s6U",
"7K7L7M7N7O7P7Q7R7S7T7U7V7W7X7Y7Z7Z7Y7X7W7V7U7T7S7R7Q7P7O7N7M7L7K",
"7&8 808182838485868788898a8b8c8d8d8c8b8a89888e8685848382818f8 7&"};
