/* XPM */
static char *B09_xpm[]={
"32 32 545 2",
"      c #1C750C",
" 0    c #1D750C",
" 1    c #1E780C",
" 2    c #1F790C",
" 3    c #1F7A0C",
" 4    c #207A0C",
" 5    c #1D760C",
" 6    c #1F7B0C",
" 7    c #21800C",
" 8    c #21830C",
" 9    c #22840C",
" a    c #23860D",
" b    c #1C750D",
" c    c #1C760D",
" d    c #207D0D",
" e    c #21830D",
" f    c #23880D",
" g    c #258B0D",
" h    c #268E0D",
" i    c #27900D",
" j    c #1E7C0D",
" k    c #22840D",
" l    c #248A0D",
" m    c #26900D",
" n    c #27940D",
" o    c #29980D",
" p    c #3AA020",
" q    c #4AA832",
" r    c #51AB3B",
" s    c #55AD3D",
" t    c #55AD3E",
" u    c #53AC3C",
" v    c #4DA936",
" w    c #40A328",
" x    c #21840D",
" y    c #1D750D",
" z    c #20800D",
" A    c #23890D",
" B    c #28960D",
" C    c #299A0D",
" D    c #2B9E0D",
" E    c #3DA822",
" F    c #70BF5B",
" G    c #8ECC7E",
" H    c #9FD491",
" I    c #A7D89A",
" J    c #ABD99E",
" K    c #ACDA9F",
" L    c #A9D99C",
" M    c #A3D696",
" N    c #95CF86",
" O    c #7CC469",
" P    c #50B138",
" Q    c #2BA00D",
" R    c #25900D",
" S    c #1D790D",
" T    c #248C0D",
" U    c #27950D",
" V    c #299B0D",
" W    c #2DA30D",
" X    c #6ABF52",
" Y    c #9DD58D",
" Z    c #BBE2B0",
" &    c #CCE9C4",
"0     c #D5EDCE",
"00    c #D7EED1",
"01    c #D8EED2",
"02    c #D5EDCF",
"03    c #D0EBC8",
"04    c #C3E5B9",
"05    c #A9DA9B",
"06    c #7EC769",
"07    c #3AAA1B",
"08    c #1E7A0D",
"09    c #22860D",
"0a    c #28990D",
"0b    c #2B9F0D",
"0c    c #2DA40D",
"0d    c #2FA80E",
"0e    c #74C55D",
"0f    c #A6DA98",
"0g    c #C5E7BB",
"0h    c #D6EECF",
"0i    c #DDF1D7",
"0j    c #E0F2DB",
"0k    c #E1F3DC",
"0l    c #DFF2D9",
"0m    c #D9EFD3",
"0n    c #CCEAC3",
"0o    c #B3E0A6",
"0p    c #87CD74",
"0q    c #45B228",
"0r    c #1F7C0D",
"0s    c #23870D",
"0t    c #26920D",
"0u    c #2CA20E",
"0v    c #2EA60E",
"0w    c #30AA0E",
"0x    c #65C14B",
"0y    c #96D584",
"0z    c #B4E1A7",
"0A    c #C5E8BB",
"0B    c #CDEBC3",
"0C    c #D0ECC7",
"0D    c #D1EDC8",
"0E    c #CEECC5",
"0F    c #C9E9BF",
"0G    c #BCE4B0",
"0H    c #A3DA92",
"0I    c #78C961",
"0J    c #36AF16",
"0K    c #26920E",
"0L    c #2A9B0E",
"0M    c #2CA30E",
"0N    c #2FA70E",
"0O    c #31AB0E",
"0P    c #46B626",
"0Q    c #76C95E",
"0R    c #95D582",
"0S    c #A5DC95",
"0T    c #ADDF9E",
"0U    c #B0E0A2",
"0V    c #B1E1A3",
"0W    c #B1E0A2",
"0X    c #AFE0A0",
"0Y    c #A8DD98",
"0Z    c #9BD889",
"0&    c #82CE6C",
"1     c #59BD3B",
"10    c #32AE0E",
"11    c #23880E",
"12    c #27930E",
"13    c #2DA40E",
"14    c #30A80E",
"15    c #32AC0F",
"16    c #2B940D",
"17    c #51BB32",
"18    c #6FC754",
"19    c #80CE67",
"1a    c #88D171",
"1b    c #8BD375",
"1c    c #8CD376",
"1d    c #8CD375",
"1e    c #8AD273",
"1f    c #83D06C",
"1g    c #77CA5C",
"1h    c #5DC13F",
"1i    c #35B010",
"1j    c #2E9C0D",
"1k    c #2FA30E",
"1l    c #207D0E",
"1m    c #24890E",
"1n    c #27940E",
"1o    c #2B9C0E",
"1p    c #2EA50E",
"1q    c #31AA0F",
"1r    c #0C2904",
"1s    c #000000",
"1t    c #36B210",
"1u    c #4DBB2A",
"1v    c #5EC23E",
"1w    c #66C547",
"1x    c #6AC74B",
"1y    c #6BC84C",
"1z    c #68C649",
"1A    c #61C442",
"1B    c #55BE33",
"1C    c #3CB517",
"1D    c #144106",
"1E    c #30A50F",
"1F    c #1F7D0E",
"1G    c #1F7E0E",
"1H    c #248A0E",
"1I    c #28940E",
"1J    c #2C9D0F",
"1K    c #2FA60F",
"1L    c #0F3204",
"1M    c #123C05",
"1N    c #174B07",
"1O    c #38B410",
"1P    c #39B510",
"1Q    c #46BA1F",
"1R    c #4DBD28",
"1S    c #51BF2C",
"1T    c #53C02D",
"1U    c #50BF2A",
"1V    c #49BC24",
"1W    c #3DB715",
"1X    c #1C5E08",
"1Y    c #154606",
"1Z    c #071702",
"1&    c #2D9E0E",
"2     c #207E0E",
"20    c #258A0E",
"21    c #29960F",
"22    c #2C9F0F",
"23    c #0E3104",
"24    c #154807",
"25    c #071802",
"26    c #184C07",
"27    c #1A5208",
"28    c #1B5308",
"29    c #1D540B",
"2a    c #1F540C",
"2b    c #1F550D",
"2c    c #20550D",
"2d    c #1F550C",
"2e    c #1E540B",
"2f    c #1D5B09",
"2g    c #040E01",
"2h    c #2C910D",
"2i    c #27840C",
"2j    c #040D01",
"2k    c #2A970E",
"2l    c #217F0E",
"2m    c #258B0F",
"2n    c #2A960F",
"2o    c #0C2A04",
"2p    c #154707",
"2q    c #35AE10",
"2r    c #38B411",
"2s    c #2F960E",
"2t    c #277A0C",
"2u    c #2A7F0C",
"2v    c #2A800C",
"2w    c #2B800D",
"2x    c #2C810E",
"2y    c #2C820E",
"2z    c #2D820E",
"2A    c #2C810D",
"2B    c #287E0C",
"2C    c #2B880D",
"2D    c #36AF11",
"2E    c #247D0C",
"2F    c #051102",
"2G    c #288E0E",
"2H    c #21800F",
"2I    c #268C0F",
"2J    c #0E3005",
"2K    c #134006",
"2L    c #32AB10",
"2M    c #36B011",
"2N    c #3AB611",
"2O    c #3CBA12",
"2P    c #3EBC12",
"2Q    c #40BD13",
"2R    c #41BE13",
"2S    c #42C014",
"2T    c #43C014",
"2U    c #44C114",
"2V    c #44C214",
"2W    c #45C214",
"2X    c #39B611",
"2Y    c #21720B",
"2Z    c #030C01",
"2&    c #24850E",
"3     c #22800F",
"30    c #0C2D05",
"31    c #0F3405",
"32    c #30A310",
"33    c #34AD11",
"34    c #39B312",
"35    c #3BB812",
"36    c #3FBD13",
"37    c #40BE13",
"38    c #45C315",
"39    c #46C415",
"3a    c #47C515",
"3b    c #48C515",
"3c    c #48C615",
"3d    c #20710C",
"3e    c #020701",
"3f    c #23810F",
"3g    c #18560A",
"3h    c #081C03",
"3i    c #32A411",
"3j    c #37AF12",
"3k    c #3BB512",
"3l    c #3EBB13",
"3m    c #49C616",
"3n    c #4BC816",
"3o    c #4CC916",
"3p    c #4DCA16",
"3q    c #134107",
"3r    c #0D2D05",
"3s    c #248210",
"3t    c #298F10",
"3u    c #1C5E0A",
"3v    c #071602",
"3w    c #39B112",
"3x    c #3EB713",
"3y    c #42BD14",
"3z    c #4AC716",
"3A    c #4ECB17",
"3B    c #4FCC17",
"3C    c #50CD17",
"3D    c #51CD18",
"3E    c #51CE18",
"3F    c #154207",
"3G    c #0E2D05",
"3H    c #258310",
"3I    c #2A9010",
"3J    c #319D11",
"3K    c #1F620A",
"3L    c #081803",
"3M    c #41B914",
"3N    c #45C014",
"3O    c #25630B",
"3P    c #205409",
"3Q    c #235A0A",
"3R    c #245C0A",
"3S    c #255C0B",
"3T    c #265D0B",
"3U    c #265E0B",
"3V    c #275E0B",
"3W    c #22590A",
"3X    c #1D4E08",
"3Y    c #3EAC12",
"3Z    c #194B08",
"3&    c #0E2C05",
"4     c #258410",
"40    c #2C9111",
"41    c #329E12",
"42    c #38A912",
"43    c #256D0B",
"44    c #0B1D03",
"45    c #46BD14",
"46    c #143506",
"47    c #44B014",
"48    c #45AD14",
"49    c #48AF14",
"4a    c #49B115",
"4b    c #4AB215",
"4c    c #4CB316",
"4d    c #4EB416",
"4e    c #4BB316",
"4f    c #49BB15",
"4g    c #184007",
"4h    c #379410",
"4i    c #1E5409",
"4j    c #123406",
"4k    c #37A912",
"4l    c #268410",
"4m    c #2D9211",
"4n    c #349F12",
"4o    c #3AAB13",
"4p    c #40B614",
"4q    c #2A720D",
"4r    c #081502",
"4s    c #173B07",
"4t    c #53CD18",
"4u    c #57D118",
"4v    c #5AD319",
"4w    c #5CD51A",
"4x    c #5DD71A",
"4y    c #5FD81B",
"4z    c #60D91B",
"4A    c #26600B",
"4B    c #040A01",
"4C    c #339F12",
"4D    c #288511",
"4E    c #2F9312",
"4F    c #35A012",
"4G    c #3CAC13",
"4H    c #42B814",
"4I    c #48BF15",
"4J    c #2B6D0C",
"4K    c #071002",
"4L    c #57D018",
"4M    c #5DD61A",
"4N    c #61D91B",
"4O    c #63DB1C",
"4P    c #64DC1C",
"4Q    c #255C0A",
"4R    c #0C1F03",
"4S    c #36A113",
"4T    c #3DAD14",
"4U    c #44B915",
"4V    c #4AC016",
"4W    c #51C817",
"4X    c #55CE18",
"4Y    c #5AD219",
"4Z    c #5DD51A",
"4&    c #60D81B",
"5     c #63DA1B",
"50    c #66DD1C",
"51    c #67DE1C",
"52    c #68DF1D",
"53    c #59D219",
"54    c #298611",
"55    c #309412",
"56    c #38A213",
"57    c #3EAD14",
"58    c #45B915",
"59    c #4CC216",
"5a    c #52C917",
"5b    c #58D018",
"5c    c #5CD319",
"5d    c #5FD71A",
"5e    c #62D91B",
"5f    c #66DC1C",
"5g    c #68DE1C",
"5h    c #6ADF1D",
"5i    c #6BE01D",
"5j    c #6BE11D",
"5k    c #65DC1C",
"5l    c #2A8611",
"5m    c #319512",
"5n    c #3FAE14",
"5o    c #47BA15",
"5p    c #4EC216",
"5q    c #54CA17",
"5r    c #5AD119",
"5s    c #5ED41A",
"5t    c #62D81B",
"5u    c #66DB1C",
"5v    c #69DD1C",
"5w    c #6BDF1D",
"5x    c #6CE11D",
"5y    c #6EE21E",
"5z    c #6FE21E",
"5A    c #4DC216",
"5B    c #2A8511",
"5C    c #319412",
"5D    c #38A113",
"5E    c #40AE14",
"5F    c #48B815",
"5G    c #4EC116",
"5H    c #54C918",
"5I    c #5BCF19",
"5J    c #5FD31A",
"5K    c #64D61B",
"5L    c #67D91C",
"5M    c #69DC1C",
"5N    c #6CDE1D",
"5O    c #6EDF1E",
"5P    c #6EE01E",
"5Q    c #6FE01E",
"5R    c #63D61B",
"5S    c #298411",
"5T    c #319212",
"5U    c #389E13",
"5V    c #3FAB14",
"5W    c #46B515",
"5X    c #4DBF16",
"5Y    c #54C618",
"5Z    c #5ACB19",
"5&    c #5ECF1A",
"6     c #61D21B",
"60    c #66D51C",
"61    c #68D81D",
"62    c #6ADA1D",
"63    c #6CDB1E",
"64    c #6DDC1E",
"65    c #6EDD1E",
"66    c #65D51C",
"67    c #59CB19",
"68    c #288011",
"69    c #2F8F12",
"6a    c #379A13",
"6b    c #3FA614",
"6c    c #45B015",
"6d    c #4CB916",
"6e    c #51C018",
"6f    c #58C719",
"6g    c #5CCA1A",
"6h    c #5FCD1B",
"6i    c #64D01C",
"6j    c #66D31D",
"6k    c #68D41D",
"6l    c #6AD61E",
"6m    c #6BD71E",
"6n    c #6CD81E",
"6o    c #63D01C",
"6p    c #57C719",
"6q    c #4BB916",
"6r    c #3EA614",
"6s    c #2D8A12",
"6t    c #349513",
"6u    c #3C9F14",
"6v    c #42A915",
"6w    c #48B116",
"6x    c #4EB918",
"6y    c #53BD19",
"6z    c #58C01A",
"6A    c #5CC41B",
"6B    c #5FC61C",
"6C    c #61C81C",
"6D    c #64CA1D",
"6E    c #66CC1E",
"6F    c #67CC1E",
"6G    c #67CD1E",
"6H    c #57C01A",
"6I    c #2B8312",
"6J    c #318D13",
"6K    c #389714",
"6L    c #3DA015",
"6M    c #44A716",
"6N    c #49AE17",
"6O    c #4EB319",
"6P    c #51B51A",
"6Q    c #55B91B",
"6R    c #58BB1C",
"6S    c #5ABD1C",
"6T    c #5CBF1D",
"6U    c #5EC01D",
"6V    c #5FC11E",
"6W    c #60C11E",
"6X    c #54B91B",
"6Y    c #43A716",
"6Z    c #379714",
"6&    c #287F11",
"7     c #2A8112",
"70    c #2D8513",
"71    c #338E14",
"72    c #389515",
"73    c #3E9C16",
"74    c #43A117",
"75    c #47A518",
"76    c #4BA819",
"77    c #4EAB1A",
"78    c #50AD1B",
"79    c #52AF1C",
"7a    c #54B11C",
"7b    c #56B21D",
"7c    c #56B31D",
"7d    c #57B31D",
"7e    c #277F11",
"7f    c #298112",
"7g    c #2C8313",
"7h    c #2F8514",
"7i    c #328815",
"7j    c #368E16",
"7k    c #3B9317",
"7l    c #3F9718",
"7m    c #429A19",
"7n    c #459C1A",
"7o    c #479E1B",
"7p    c #49A01B",
"7q    c #4AA11C",
"7r    c #4CA21C",
"7s    c #4CA31C",
"7t    c #4DA31D",
"7u    c #449C1A",
"7v    c #2B8313",
"       0 0 1 2 3 3 3 3 3 3 3 4 4 4 4 3 3 3 3 3 3 3 2 1 0        ",
"     5 6 7 8 9 a a a a a a a a a a a a a a a a a a 9 8 7 6 5    ",
" b c d e f g h i i i i i i i i i i i i i i i i i i h g f e d c b",
" b j k l m n o o o p q r s t t t t t t u v w o o o o n m l x j b",
" y z A m B C D E F G H I J J K K K J J L M N O P Q D C B R A z y",
" S k T U V Q W X Y Z &0 00010101010101020304050607 W Q V U T k S",
"0809 m0a0b0c0d0e0f0g0h0i0j0k0k0k0k0k0j0l0m0n0o0p0q0d0c0b0a m0908",
"0r0s0t C0u0v0w0x0y0z0A0B0C0D0D0D0D0D0D0E0F0G0H0I0J0w0v0u C0t0s0r",
"0r f0K0L0M0N0O0P0Q0R0S0T0U0V0V0V0V0V0W0X0Y0Z0&1 100O0N0M0L0K f0r",
" d11120L131415161718191a1b1c1c1c1c1c1d1e1f1g1h1i1j1k14130L1211 d",
"1l1m1n1o1p1q1r1s1t1u1v1w1x1y1y1y1y1y1x1z1A1B1C1t1D1s1E1p1o1n1m1F",
"1G1H1I1J1K1L1M1N1O1P1Q1R1S1T1T1T1T1T1T1U1V1W1P1O1X1Y1Z1&1J1I1H1G",
"2 20212223241t25262728292a2b2c2c2c2c2d2e2828272f2g2h2i2j2k21202 ",
"2l2m2n2o2p2q2r2s2t2u2v2w2x2y2z2z2z2z2y2A2w2v2u2B2C2D2q2E2F2G2m2l",
"2H2I2J2K2L2M2N2O2P2Q2R2S2T2U2V2W2W2V2U2T2S2R2Q2P2O2X2M2L2Y2Z2&2H",
"3 30313233343536372S2V38393a3b3c3c3b3a39382V2S3736353433323d3e3 ",
"3f3g3h3i3j3k3l2S2V393b3m3n3o3o3p3p3o3o3n3m3b392V2S3l3k3j3i3q3r3f",
"3s3t3u3v3w3x3y2W3b3z3o3A3B3C3D3E3E3D3C3B3A3o3z3b2W3y3x3w3F3G3t3s",
"3H3I3J3K3L3M3N3O3P3Q3R3S3T3T3U3V3V3U3T3T3S3R3Q3W3X3Y3M3Z3&3J3I3H",
"4 404142434445464748494a4b4c4d4d4d4d4e4b4a49484f4g4h4i4j4k41404 ",
"4l4m4n4o4p4q4r4s4t4u4v4w4x4y4z4z4z4z4y4x4w4v4u4t4A4B4g4p4o4C4m4l",
"4D4E4F4G4H4I4J4K4L4v4M4y4N4O4P4P4P4P4O4N4y4M4v4L4Q4R4I4H4G4F4E4D",
"4D4E4S4T4U4V4W4X4Y4Z4&5 4P5051525251504P5 4&4Z534X4W4V4U4T4S4E4D",
"5455565758595a5b5c5d5e5f5g5h5i5j5j5i5h5g5k5e5d5c5b5a595857565554",
"5l5m565n5o5p5q5r5s5t5u5v5w5x5y5z5z5y5x5w5v5u5t5s5r5q5A5o5n565m5l",
"5B5C5D5E5F5G5H5I5J5K5L5M5N5O5P5Q5Q5P5O5N5M5L5R5J5I5H5G5F5E5D5C5B",
"5S5T5U5V5W5X5Y5Z5&6 6061626364656564636261666 5&675Y5X5W5V5U5T5S",
"68696a6b6c6d6e6f6g6h6i6j6k6l6m6n6n6m6l6k6j6o6h6g6p6e6q6c6r6a6968",
"686s6t6u6v6w6x6y6z6A6B6C6D6E6F6G6G6F6E6D6C6B6A6H6y6x6w6v6u6t6s68",
"686I6J6K6L6M6N6O6P6Q6R6S6T6U6V6W6W6V6U6T6S6R6X6P6O6N6Y6L6Z6J6I68",
"6&7 707172737475767778797a7b7c7d7d7c7b7a797877767574737271707 6&",
"7e7f7g7h7i7j7k7l7m7n7o7p7q7r7s7t7t7s7r7q7p7o7u7m7l7k7j7i7h7v7f7e"};
