/* XPM */
static char *B10_xpm[]={
"32 32 732 2",
"      c #196C0B",
" 0    c #196B0B",
" 1    c #1A6B0B",
" 2    c #1B6E0B",
" 3    c #1C6F0B",
" 4    c #1C700B",
" 5    c #1D700B",
" 6    c #1D720B",
" 7    c #1D730B",
" 8    c #196A0B",
" 9    c #1E740B",
" a    c #1E770B",
" b    c #1F780B",
" c    c #207A0C",
" d    c #22810D",
" e    c #1D6E0B",
" f    c #155008",
" g    c #1F750B",
" h    c #217F0C",
" i    c #196B0C",
" j    c #1D720C",
" k    c #1E770C",
" l    c #207C0C",
" m    c #227E0C",
" n    c #23810C",
" o    c #23830C",
" p    c #268B0D",
" q    c #227E0B",
" r    c #24850C",
" s    c #25880C",
" t    c #175608",
" u    c #061502",
" v    c #0F3705",
" w    c #061802",
" x    c #1B710C",
" y    c #1F780C",
" z    c #217E0C",
" A    c #23870C",
" B    c #258A0C",
" C    c #35921D",
" D    c #469F2F",
" E    c #224819",
" F    c #193212",
" G    c #13260E",
" H    c #387129",
" I    c #52A73C",
" J    c #4FA039",
" K    c #448A32",
" L    c #0B1608",
" M    c #4C9C37",
" N    c #4DA936",
" O    c #235916",
" P    c #0D2F04",
" Q    c #28950D",
" R    c #1E780C",
" S    c #1A6B0C",
" T    c #1D740C",
" U    c #207D0C",
" V    c #24880C",
" W    c #258C0C",
" X    c #27900C",
" Y    c #37991F",
" Z    c #66AE53",
" &    c #86C177",
"0     c #63835A",
"00    c #303F2D",
"01    c #A5D198",
"02    c #89AE7E",
"03    c #192017",
"04    c #86AA7C",
"05    c #A9D69C",
"06    c #5D7656",
"07    c #A6D599",
"08    c #94C388",
"09    c #85B877",
"0a    c #2B4424",
"0b    c #49A133",
"0c    c #27920C",
"0d    c #22830C",
"0e    c #1A6F0C",
"0f    c #23880C",
"0g    c #258D0C",
"0h    c #29940C",
"0i    c #60AE4B",
"0j    c #8FC280",
"0k    c #B4DAAA",
"0l    c #3F483D",
"0m    c #9BAC95",
"0n    c #CBE1C6",
"0o    c #D0E6CB",
"0p    c #899785",
"0q    c #3F453D",
"0r    c #D8EED2",
"0s    c #565F54",
"0t    c #99A995",
"0u    c #C5DBC0",
"0v    c #BDD6B6",
"0w    c #B1D0A8",
"0x    c #40533B",
"0y    c #70B15D",
"0z    c #359B19",
"0A    c #28940C",
"0B    c #268F0C",
"0C    c #1B700C",
"0D    c #1F7A0C",
"0E    c #248B0C",
"0F    c #27910C",
"0G    c #29950C",
"0H    c #2B990D",
"0I    c #6AB355",
"0J    c #97C68A",
"0K    c #BEDFB4",
"0L    c #3B4139",
"0M    c #B1C1AC",
"0N    c #CFE0CB",
"0O    c #CDDDC8",
"0P    c #464B44",
"0Q    c #D9EAD4",
"0R    c #5A6158",
"0S    c #A3B09F",
"0T    c #CEE0C9",
"0U    c #C5D9C0",
"0V    c #B2CDAB",
"0W    c #3E4D39",
"0X    c #7BBB6A",
"0Y    c #40A525",
"0Z    c #217709",
"0&    c #24850B",
"1     c #258E0C",
"10    c #1C720C",
"11    c #207B0C",
"12    c #23850C",
"13    c #28930D",
"14    c #2A970D",
"15    c #2C9B0D",
"16    c #5CB044",
"17    c #88C278",
"18    c #AED9A1",
"19    c #3D483A",
"1a    c #99AF91",
"1b    c #C1DAB8",
"1c    c #BED8B6",
"1d    c #C6E0BD",
"1e    c #505A4C",
"1f    c #BAD3B2",
"1g    c #5F6C5B",
"1h    c #90A48A",
"1i    c #C3DFBA",
"1j    c #BEDCB5",
"1k    c #829D79",
"1l    c #32442D",
"1m    c #78C961",
"1n    c #2C8F12",
"1o    c #081C02",
"1p    c #144806",
"1q    c #0A2403",
"1r    c #217B0A",
"1s    c #23850D",
"1t    c #268D0D",
"1u    c #28940D",
"1v    c #2B980D",
"1w    c #2D9C0D",
"1x    c #40A623",
"1y    c #6BB756",
"1z    c #90CD7D",
"1A    c #516C49",
"1B    c #6B8A62",
"1C    c #A6D499",
"1D    c #A1CD94",
"1E    c #A7D59A",
"1F    c #4D6247",
"1G    c #97C08B",
"1H    c #607B59",
"1I    c #7A9B70",
"1J    c #A5D497",
"1K    c #A2D593",
"1L    c #4F6E46",
"1M    c #3B5E31",
"1N    c #59BD3B",
"1O    c #0D2C04",
"1P    c #1F6D09",
"1Q    c #2FA70E",
"1R    c #175607",
"1S    c #103B05",
"1T    c #258F0E",
"1U    c #1D730C",
"1V    c #207C0D",
"1W    c #23860D",
"1X    c #29950D",
"1Y    c #2C990D",
"1Z    c #2D9C0E",
"1&    c #2E9F0E",
"2     c #4AAA2D",
"20    c #69BC4F",
"21    c #568B45",
"22    c #2A4123",
"23    c #88CF73",
"24    c #7FC06B",
"25    c #84C770",
"26    c #406036",
"27    c #73AD61",
"28    c #4C7340",
"29    c #619251",
"2a    c #82C66D",
"2b    c #7EC968",
"2c    c #345828",
"2d    c #45902F",
"2e    c #27830C",
"2f    c #0C2904",
"2g    c #31A90F",
"2h    c #2EA20E",
"2i    c #195D08",
"2j    c #124106",
"2k    c #26900E",
"2l    c #1D730D",
"2m    c #217D0D",
"2n    c #23870D",
"2o    c #278E0D",
"2p    c #2A960D",
"2q    c #2D9B0E",
"2r    c #2E9E0E",
"2s    c #30A10E",
"2t    c #31A20F",
"2u    c #46AA26",
"2v    c #54AD37",
"2w    c #14270E",
"2x    c #5EB143",
"2y    c #61B645",
"2z    c #67C149",
"2A    c #346225",
"2B    c #56A03D",
"2C    c #3C712B",
"2D    c #437E30",
"2E    c #62BB45",
"2F    c #58B23C",
"2G    c #16300D",
"2H    c #38A815",
"2I    c #1C5B08",
"2J    c #206A09",
"2K    c #31A80E",
"2L    c #30A70F",
"2M    c #124206",
"2N    c #1B6109",
"2O    c #258C0D",
"2P    c #1C730D",
"2Q    c #1C740D",
"2R    c #217E0D",
"2S    c #24870D",
"2T    c #288F0E",
"2U    c #2B9A0E",
"2V    c #2FA20E",
"2W    c #31A60F",
"2X    c #32A30F",
"2Y    c #33A40F",
"2Z    c #34A50F",
"2&    c #44B31E",
"3     c #204F11",
"30    c #38841E",
"31    c #4DB22A",
"32    c #50B92B",
"33    c #275B15",
"34    c #3F9322",
"35    c #33771C",
"36    c #357A1D",
"37    c #4EBB29",
"38    c #368C1B",
"39    c #0E2B05",
"3a    c #39B510",
"3b    c #0C2804",
"3c    c #29890C",
"3d    c #2A8F0D",
"3e    c #071802",
"3f    c #29910E",
"3g    c #1D740D",
"3h    c #227E0D",
"3i    c #25880E",
"3j    c #2A960E",
"3k    c #298C0D",
"3l    c #22740B",
"3m    c #267E0B",
"3n    c #33A50F",
"3o    c #37B010",
"3p    c #35A70F",
"3q    c #3AB211",
"3r    c #23660D",
"3s    c #1C4C0B",
"3t    c #45BA1B",
"3u    c #44B71B",
"3v    c #235D0E",
"3w    c #308013",
"3x    c #2B7211",
"3y    c #2C7911",
"3z    c #43BC19",
"3A    c #246F0B",
"3B    c #21650A",
"3C    c #2D900D",
"3D    c #103205",
"3E    c #36AF0F",
"3F    c #35AF10",
"3G    c #133F06",
"3H    c #1A5808",
"3I    c #2A990E",
"3J    c #1E750D",
"3K    c #227E0E",
"3L    c #288E0E",
"3M    c #21720B",
"3N    c #091E03",
"3O    c #1B5908",
"3P    c #184E07",
"3Q    c #081B02",
"3R    c #27790C",
"3S    c #3CB612",
"3T    c #38AA10",
"3U    c #32960F",
"3V    c #143B06",
"3W    c #3DB514",
"3X    c #3EB514",
"3Y    c #28730D",
"3Z    c #123406",
"3&    c #113105",
"4     c #308E0F",
"40    c #40BD13",
"41    c #1A4F08",
"42    c #30920E",
"43    c #133A06",
"44    c #38B210",
"45    c #2F960E",
"46    c #0A1F03",
"47    c #2D9C0F",
"48    c #2A920E",
"49    c #26880E",
"4a    c #1E750E",
"4b    c #237F0E",
"4c    c #29930E",
"4d    c #0E2F05",
"4e    c #247C0C",
"4f    c #36B011",
"4g    c #39B211",
"4h    c #31980F",
"4i    c #0B2203",
"4j    c #246B0B",
"4k    c #40BA13",
"4l    c #3DB213",
"4m    c #163E07",
"4n    c #3AA511",
"4o    c #3EB112",
"4p    c #41B713",
"4q    c #184307",
"4r    c #205C09",
"4s    c #40B613",
"4t    c #41B913",
"4u    c #22620A",
"4v    c #0C2203",
"4w    c #3CB511",
"4x    c #3BB612",
"4y    c #164506",
"4z    c #1C5C09",
"4A    c #30A50F",
"4B    c #2B920F",
"4C    c #278A0E",
"4D    c #1F750E",
"4E    c #23800E",
"4F    c #2A940F",
"4G    c #0F3205",
"4H    c #29870D",
"4I    c #35A611",
"4J    c #36A710",
"4K    c #3CB312",
"4L    c #3BB012",
"4M    c #0B2003",
"4N    c #2D7F0D",
"4O    c #45C315",
"4P    c #184407",
"4Q    c #2C7A0D",
"4R    c #44BA14",
"4S    c #42B413",
"4T    c #45BF14",
"4U    c #45BE14",
"4V    c #41B313",
"4W    c #41B513",
"4X    c #39A011",
"4Y    c #1E5409",
"4Z    c #3BAB12",
"4&    c #123906",
"5     c #30960F",
"50    c #2F9D0F",
"51    c #2C940F",
"52    c #288B0F",
"53    c #20760E",
"54    c #24810F",
"55    c #1C5D0A",
"56    c #0F3005",
"57    c #3BB512",
"58    c #39AD12",
"59    c #3CAF12",
"5a    c #3FB413",
"5b    c #3CA812",
"5c    c #081602",
"5d    c #389711",
"5e    c #153706",
"5f    c #296E0C",
"5g    c #49C215",
"5h    c #46B814",
"5i    c #45B714",
"5j    c #44B614",
"5k    c #44B714",
"5l    c #47C115",
"5m    c #40B213",
"5n    c #37A011",
"5o    c #38AB11",
"5p    c #329F10",
"5q    c #2D950F",
"5r    c #298C0F",
"5s    c #21770F",
"5t    c #25820F",
"5u    c #2B8E0F",
"5v    c #32A010",
"5w    c #154107",
"5x    c #133906",
"5y    c #43BB13",
"5z    c #42B313",
"5A    c #46BC15",
"5B    c #3A9A11",
"5C    c #123005",
"5D    c #245D0A",
"5E    c #4ABE15",
"5F    c #4ABB16",
"5G    c #49BB15",
"5H    c #48BA15",
"5I    c #47B915",
"5J    c #43B514",
"5K    c #29740C",
"5L    c #174107",
"5M    c #3DB313",
"5N    c #34A110",
"5O    c #2F970F",
"5P    c #22780F",
"5Q    c #26830F",
"5R    c #2D8F0F",
"5S    c #319910",
"5T    c #3AAD12",
"5U    c #22610B",
"5V    c #091803",
"5W    c #286B0B",
"5X    c #49C115",
"5Y    c #47B815",
"5Z    c #4DC216",
"5&    c #4FC717",
"6     c #51C917",
"60    c #4DBE17",
"61    c #4EBF17",
"62    c #4FBF17",
"63    c #4CBD16",
"64    c #4BBB16",
"65    c #4ABB15",
"66    c #25640B",
"67    c #26690B",
"68    c #3FB213",
"69    c #36A311",
"6a    c #22790F",
"6b    c #28840F",
"6c    c #2D9010",
"6d    c #339A10",
"6e    c #38A411",
"6f    c #43B714",
"6g    c #40AD13",
"6h    c #112C05",
"6i    c #27640B",
"6j    c #50C918",
"6k    c #4DBD16",
"6l    c #50C017",
"6m    c #52C118",
"6n    c #54C218",
"6o    c #54C318",
"6p    c #51C118",
"6q    c #4CC416",
"6r    c #25620B",
"6s    c #32860E",
"6t    c #40B113",
"6u    c #329A10",
"6v    c #23790F",
"6w    c #29850F",
"6x    c #2F9110",
"6y    c #359C11",
"6z    c #3AA612",
"6A    c #40AC13",
"6B    c #45B514",
"6C    c #0F2504",
"6D    c #4AB315",
"6E    c #52C017",
"6F    c #55C418",
"6G    c #56C519",
"6H    c #57C519",
"6I    c #4FBE16",
"6J    c #50C617",
"6K    c #23580A",
"6L    c #399611",
"6M    c #41AF13",
"6N    c #2E9110",
"6O    c #247A0F",
"6P    c #2B8610",
"6Q    c #309210",
"6R    c #379C11",
"6S    c #3CA712",
"6T    c #42AE13",
"6U    c #47B414",
"6V    c #2B660C",
"6W    c #29600B",
"6X    c #5BD219",
"6Y    c #58C519",
"6Z    c #5AC719",
"6&    c #5BC819",
"7     c #55C318",
"70    c #52C517",
"71    c #1E4B08",
"72    c #43A913",
"73    c #319211",
"74    c #379D12",
"75    c #3EA813",
"76    c #43AF14",
"77    c #4AB615",
"78    c #4DBB16",
"79    c #4AAC14",
"7a    c #112605",
"7b    c #59C819",
"7c    c #5AC619",
"7d    c #5DC919",
"7e    c #5ECA19",
"7f    c #5FCB1A",
"7g    c #55C218",
"7h    c #4CB415",
"7i    c #112905",
"7j    c #4BB915",
"7k    c #257B0F",
"7l    c #2C8710",
"7m    c #339311",
"7n    c #389D12",
"7o    c #3FA813",
"7p    c #45B114",
"7q    c #4BB715",
"7r    c #50BD16",
"7s    c #5ACF19",
"7t    c #214A09",
"7u    c #35760F",
"7v    c #62D41B",
"7w    c #5FCA19",
"7x    c #60CB1A",
"7y    c #61CC1A",
"7z    c #61CD1A",
"7A    c #5CC819",
"7B    c #59C519",
"7C    c #5ACB19",
"7D    c #3C8A10",
"7E    c #214F09",
"7F    c #4FC216",
"7G    c #267B0F",
"7H    c #2D8810",
"7I    c #399E12",
"7J    c #41A913",
"7K    c #47B114",
"7L    c #4CB815",
"7M    c #52BE17",
"7N    c #57C418",
"7O    c #54B917",
"7P    c #0F2004",
"7Q    c #60C919",
"7R    c #61CB1A",
"7S    c #62CD1A",
"7T    c #64CE1B",
"7U    c #65CE1B",
"7V    c #5DC719",
"7W    c #60D41A",
"7X    c #27590B",
"7Y    c #38810F",
"7Z    c #4FBF16",
"7&    c #46B114",
"8     c #267A0F",
"80    c #2D8710",
"81    c #339211",
"82    c #3A9E12",
"83    c #42A713",
"84    c #47B014",
"85    c #4CB716",
"86    c #53BC17",
"87    c #56C018",
"88    c #62D21A",
"89    c #31670D",
"8a    c #1E4008",
"8b    c #6ADA1C",
"8c    c #64CB1B",
"8d    c #64CC1B",
"8e    c #65CC1B",
"8f    c #62CA1A",
"8g    c #60C819",
"8h    c #5FC91A",
"8i    c #5AC319",
"8j    c #0E1F04",
"8k    c #4EB115",
"8l    c #4EBA16",
"8m    c #25790F",
"8n    c #2D8510",
"8o    c #339011",
"8p    c #399C12",
"8q    c #40A513",
"8r    c #46AE14",
"8s    c #4CB416",
"8t    c #52B917",
"8u    c #56BC18",
"8v    c #58BF19",
"8w    c #64D11B",
"8x    c #1E3F08",
"8y    c #2E5F0D",
"8z    c #6CDB1E",
"8A    c #63C81B",
"8B    c #64C91B",
"8C    c #62C71B",
"8D    c #60C61A",
"8E    c #60C81B",
"8F    c #65D51C",
"8G    c #1C3D08",
"8H    c #306A0D",
"8I    c #57C719",
"8J    c #24750F",
"8K    c #2B8210",
"8L    c #328C11",
"8M    c #399712",
"8N    c #3FA013",
"8O    c #45A814",
"8P    c #4AAF16",
"8Q    c #50B517",
"8R    c #54B818",
"8S    c #56BB19",
"8T    c #5BBD19",
"8U    c #60C71B",
"8V    c #183207",
"8W    c #2C5A0D",
"8X    c #67CF1D",
"8Y    c #68D01D",
"8Z    c #64C81C",
"8&    c #63C71C",
"9     c #64CA1C",
"90    c #68D41D",
"91    c #59B919",
"92    c #193507",
"93    c #244E0A",
"94    c #59C319",
"95    c #4FB517",
"96    c #44A814",
"97    c #389712",
"98    c #297E10",
"99    c #2F8811",
"9a    c #379112",
"9b    c #3C9A13",
"9c    c #42A114",
"9d    c #47A816",
"9e    c #4CAC17",
"9f    c #50AF18",
"9g    c #54B219",
"9h    c #56B419",
"9i    c #5AB91A",
"9j    c #5FBF1B",
"9k    c #274E0B",
"9l    c #132505",
"9m    c #387010",
"9n    c #50A017",
"9o    c #52A318",
"9p    c #489115",
"9q    c #244A0B",
"9r    c #112405",
"9s    c #346C0F",
"9t    c #5AC01A",
"9u    c #4FAF18",
"9v    c #277710",
"9w    c #2D8011",
"9x    c #338912",
"9y    c #379213",
"9z    c #3E9814",
"9A    c #429E15",
"9B    c #47A317",
"9C    c #4AA518",
"9D    c #4DA819",
"9E    c #50AA19",
"9F    c #52AC19",
"9G    c #54AE1A",
"9H    c #5CBC1C",
"9I    c #499417",
"9J    c #2C580E",
"9K    c #2A540D",
"9L    c #29540D",
"9M    c #326810",
"9N    c #50A819",
"9O    c #55B41B",
"9P    c #4CA819",
"9Q    c #3D9814",
"9R    c #328912",
"9S    c #267510",
"9T    c #297911",
"9U    c #2E8112",
"9V    c #338813",
"9W    c #388E14",
"9X    c #3D9215",
"9Y    c #419616",
"9Z    c #449917",
"9&    c #479C18",
"a     c #499D19",
"a0    c #4B9F19",
"a1    c #4CA119",
"a2    c #4EA21A",
"a3    c #50A61B",
"a4    c #55AF1C",
"a5    c #54AD1C",
"a6    c #51A91B",
"a7    c #53AC1C",
"a8    c #51AB1B",
"a9    c #24760F",
"aa    c #257610",
"ab    c #287811",
"ac    c #2B7A12",
"ad    c #2D7D13",
"ae    c #318214",
"af    c #368715",
"ag    c #398A16",
"ah    c #3C8D17",
"ai    c #3F8F18",
"aj    c #419119",
"ak    c #429319",
"al    c #439319",
"am    c #459419",
"an    c #459519",
"ao    c #46951A",
"ap    c #3E8F18",
"aq    c #277811",
"   0 0 1 1 2 3 4 4 4 4 4 4 4 5 5 5 5 4 6 7 6 4 4 4 3 2 1 0 0 0  ",
" 0 8 1 4 9 a b c c c c c c c c c c c d e f g h c c b a 9 4 1 8 0",
" i i j k l m n o o o o p q r s o o p t u v w q r o n m l k j i i",
" i x y z o A B B B C D E F G H I J K L M N O P Q B B A o z R x i",
" S T U o V W X Y Z &0 00010203040506060708090a0b0c X W V0d U T S",
"0e y h0f0g0c0h0i0j0k0l0m0n0o0p0q0r0s0t0u0v0w0x0y0z0h0A0B0f h y0e",
"0C0D o0E0F0G0H0I0J0K0L0M0N0O0O0P0Q0R0S0T0U0V0W0X0Y0H0Z0&1  o0D0C",
"101112 W131415161718191a1b1c1d1e1f1g1h1i1j1k1l1m1n1o1p1q1r A1110",
"10 l1s1t1u1v1w1x1y1z1A1B1C1D1E1F1G1H1I1J1K1L1M1N1O1P1Q1R1S1T l10",
"1U1V1W1t1X1Y1Z1&2 202122232425262728292a2b2c2d2e2f2g2h2i2j2k1V1U",
"2l2m2n2o2p2q2r2s2t2u2v2w2x2y2z2A2B2C2D2E2F2G2H2I2J2K2L2M2N2O2m2P",
"2Q2R2S2T2U2V2W2X2Y2Z2&3 303132333435363738393a3b3c2W3d3e3f2S2R2Q",
"3g3h3i3j3k3l3m3n3o3p3q3r3s3t3u3v3w3x3y3z3A3B3C3D3E3F3G3H3I3i3h3g",
"3J3K3L3M3N3O3P3Q3R3S3T3U3V3W3X3Y3Z3&4 404142433R4445464748493K3J",
"4a4b4c4d4e4f4g4h4i4j4k4l4m4n4o4p4q4r4s4t4u4v3V4w4x4y4z4A4B4C4b4a",
"4D4E4F4G4H4I4J4K4L4M4N4O4P4Q4R4S4T4U4V4W4X4Y4Z4L4K4&5 5051524E4D",
"53544B55565758595a5b5c5d5e5f5g5h5h5i5i5j5k5l5m4o5n435o5p5q5r5453",
"5s5t5u5v5w5x4n5y5z5A5B5C5D5E5F5F5F5F5G5H5I5i5J4R5K5L5M5N5O5u5t5s",
"5P5Q5R5S5T5U5V5W5X5Y5Z5&6 6061626261606364655Y5X666768695S5R5Q5P",
"6a6b6c6d6e6f6g6h6i6j6k626l6m6n6o6o6n6p6l626k646q6r6s6t6e6u6c6b6a",
"6v6w6x6y6z6A6B656C6D6E6n6F6G6H6H6H6H6G6F6n6E6I6J6K6L6M6z6y6N6w6v",
"6O6P6Q6R6S6T6U6 6V6W6X6G6Y6Z6&6&6&6&6Z6Y6G7 6E7071726T6S6R6Q6P6O",
"6O6P737475767778797a7b7c6&7d7e7f7f7e7d6&7c6H7g7h7i7j767574736P6O",
"7k7l7m7n7o7p7q7r7s7t7u7v7w7x7y7z7z7y7x7w7A7B7C7D7E7F7p7o7n7m7l7k",
"7G7H7m7I7J7K7L7M7N7O7P7Q7R7S7T7U7U7T7S7R7Q7V7W7X7Y7Z7&7J7I7m7H7G",
"8 808182838485868788898a8b8c8d8e8e8d8c8f8g8h8i8j8k8l84838281808 ",
"8m8n8o8p8q8r8s8t8u8v8w8x8y8z8A8B8B8A8C8D8E8F8G8H8I8s8r8q8p8o8n8m",
"8J8K8L8M8N8O8P8Q8R8S8T8U8V8W8X8Y8Z8&9 9091929394958P968N978L8K8J",
"8J98999a9b9c9d9e9f9g9h9i9j9k9l9m9n9o9p9q9r9s9t9u9e9d9c9b9a99988J",
"8J9v9w9x9y9z9A9B9C9D9E9F9G9H9I9J9K9L9L9M9N9O9P9C9B9A9Q9y9R9w9v8J",
"8J9S9T9U9V9W9X9Y9Z9&a a0a1a2a3a4a5a6a7a8a0a 9&9Z9Y9X9W9V9U9T9S8J",
"a9aaabacadaeafagahaiajakalamanaoaoanamalakajapahagafaeadacaqaaa9"};
