/* XPM */
static char *B11_xpm[]={
"32 32 692 2",
"      c #1A6C0B",
" 0    c #1B6F0B",
" 1    c #1C700B",
" 2    c #1D700B",
" 3    c #1D710B",
" 4    c #1A6B0B",
" 5    c #1E750B",
" 6    c #1E780B",
" 7    c #1F790B",
" 8    c #207A0C",
" 9    c #217F0C",
" a    c #185B09",
" b    c #154F08",
" c    c #21800C",
" d    c #1A6C0C",
" e    c #1D720C",
" f    c #1E780C",
" g    c #207C0C",
" h    c #227F0C",
" i    c #23820C",
" j    c #24840C",
" k    c #268B0D",
" l    c #124406",
" m    c #0C2E04",
" n    c #1B710C",
" o    c #1F790C",
" p    c #217E0C",
" q    c #23840C",
" r    c #24870C",
" s    c #258B0C",
" t    c #35921D",
" u    c #449A2E",
" v    c #4A9C36",
" w    c #4E9E38",
" x    c #4E9E39",
" y    c #4E9F39",
" z    c #254C1B",
" A    c #214218",
" B    c #4B9836",
" C    c #4C9D37",
" D    c #469A31",
" E    c #3A9525",
" F    c #1E790C",
" G    c #1D750C",
" H    c #207D0C",
" I    c #25890C",
" J    c #258D0C",
" K    c #27900C",
" L    c #389A1F",
" M    c #66AF53",
" N    c #82BA73",
" O    c #91C284",
" P    c #99C58D",
" Q    c #9CC690",
" R    c #9EC892",
" S    c #92B987",
" T    c #4C6046",
" U    c #50654A",
" V    c #81A478",
" W    c #A0CB93",
" X    c #9AC68F",
" Y    c #95C489",
" Z    c #88BD7A",
" &    c #71B360",
"0     c #49A233",
"00    c #27920C",
"01    c #22840C",
"02    c #1A700C",
"03    c #24880C",
"04    c #258E0C",
"05    c #29950C",
"06    c #61AF4B",
"07    c #8FC381",
"08    c #ABCFA1",
"09    c #BAD5B3",
"0a    c #C3D9BC",
"0b    c #C4D9BF",
"0c    c #CCE1C6",
"0d    c #98A793",
"0e    c #6B7668",
"0f    c #808D7C",
"0g    c #778373",
"0h    c #D1E7CB",
"0i    c #C3D9BD",
"0j    c #BED7B7",
"0k    c #B2D1A9",
"0l    c #9AC78E",
"0m    c #73B660",
"0n    c #359B19",
"0o    c #1B700C",
"0p    c #1F7A0C",
"0q    c #258F0C",
"0r    c #27910C",
"0s    c #29960C",
"0t    c #2B9A0D",
"0u    c #6AB455",
"0v    c #98C78B",
"0w    c #B4D3AB",
"0x    c #C4D9BD",
"0y    c #CADCC4",
"0z    c #CDDDC8",
"0A    c #DCEDD7",
"0B    c #636B61",
"0C    c #6A7268",
"0D    c #889385",
"0E    c #383D37",
"0F    c #D9EAD4",
"0G    c #CCDDC6",
"0H    c #C6DAC1",
"0I    c #BAD6B2",
"0J    c #A4CD98",
"0K    c #7BBB6A",
"0L    c #3FA325",
"0M    c #23850C",
"0N    c #1C720C",
"0O    c #207B0C",
"0P    c #21800B",
"0Q    c #20760A",
"0R    c #29950D",
"0S    c #2C9F0D",
"0T    c #2D9F0D",
"0U    c #5CB045",
"0V    c #89C379",
"0W    c #A4CE99",
"0X    c #B4D4AB",
"0Y    c #BBD7B2",
"0Z    c #BED8B6",
"0&    c #CAE6C2",
"1     c #6A7865",
"10    c #050605",
"11    c #475144",
"12    c #C8E3BF",
"13    c #BCD8B4",
"14    c #B8D5AF",
"15    c #ACD0A1",
"16    c #95C785",
"17    c #6EB859",
"18    c #31A014",
"19    c #2A990D",
"1a    c #207A0B",
"1b    c #23850D",
"1c    c #0B2704",
"1d    c #0A2403",
"1e    c #1B6208",
"1f    c #26830B",
"1g    c #41A823",
"1h    c #72C35B",
"1i    c #89C478",
"1j    c #97C988",
"1k    c #9ECC90",
"1l    c #A1CD94",
"1m    c #ABDA9E",
"1n    c #52684B",
"1o    c #40513B",
"1p    c #4A5E44",
"1q    c #3E4F3A",
"1r    c #A7D499",
"1s    c #A0CD92",
"1t    c #9ACA8B",
"1u    c #8EC57D",
"1v    c #78BE64",
"1w    c #56B739",
"1x    c #2FA40D",
"1y    c #27890B",
"1z    c #1C6508",
"1A    c #0E3404",
"1B    c #071A02",
"1C    c #1D730C",
"1D    c #207C0D",
"1E    c #24890D",
"1F    c #24860C",
"1G    c #0D3104",
"1H    c #144506",
"1I    c #1B5E08",
"1J    c #144306",
"1K    c #295F19",
"1L    c #5FAB48",
"1M    c #7CC864",
"1N    c #7CBF67",
"1O    c #7FC16B",
"1P    c #81C26D",
"1Q    c #75B063",
"1R    c #619252",
"1S    c #5B894C",
"1T    c #78B565",
"1U    c #80C16B",
"1V    c #7EC069",
"1W    c #78BE63",
"1X    c #72C158",
"1Y    c #54AE39",
"1Z    c #1E6309",
"1&    c #154706",
"2     c #1A5908",
"20    c #174F07",
"21    c #0C2D04",
"22    c #23810C",
"23    c #258B0D",
"24    c #1D730D",
"25    c #217D0D",
"26    c #24870D",
"27    c #28920D",
"28    c #2A970D",
"29    c #0E3104",
"2a    c #1E6609",
"2b    c #32A70E",
"2c    c #081B02",
"2d    c #102709",
"2e    c #387325",
"2f    c #5FB842",
"2g    c #61B645",
"2h    c #62B745",
"2i    c #68C24A",
"2j    c #4C8F36",
"2k    c #448031",
"2l    c #68C34A",
"2m    c #5FB543",
"2n    c #5BB73E",
"2o    c #397F22",
"2p    c #103206",
"2q    c #040E01",
"2r    c #2E990D",
"2s    c #247A0B",
"2t    c #0C2904",
"2u    c #268A0C",
"2v    c #29930D",
"2w    c #1C730D",
"2x    c #1C740D",
"2y    c #217E0D",
"2z    c #25870D",
"2A    c #288F0E",
"2B    c #2C9B0E",
"2C    c #2E9E0E",
"2D    c #0D2B04",
"2E    c #0E2F04",
"2F    c #010200",
"2G    c #184B07",
"2H    c #379118",
"2I    c #4AB526",
"2J    c #4AAF28",
"2K    c #4CAF29",
"2L    c #4EB52B",
"2M    c #3A8720",
"2N    c #357B1D",
"2O    c #4FB82B",
"2P    c #49AF26",
"2Q    c #45B222",
"2R    c #339912",
"2S    c #1C5908",
"2T    c #030A01",
"2U    c #091D03",
"2V    c #2A910D",
"2W    c #2C9D0E",
"2X    c #1D740D",
"2Y    c #227E0D",
"2Z    c #25890E",
"2&    c #28910E",
"3     c #2D9A0E",
"30    c #30A10F",
"31    c #31A10E",
"32    c #123905",
"33    c #081802",
"34    c #206509",
"35    c #20630A",
"36    c #2E8311",
"37    c #41B31A",
"38    c #41B11A",
"39    c #43B41A",
"3a    c #328514",
"3b    c #2D7912",
"3c    c #44B61B",
"3d    c #41AF19",
"3e    c #40B418",
"3f    c #2D8C0E",
"3g    c #1F6009",
"3h    c #226D0A",
"3i    c #091E03",
"3j    c #0E2C04",
"3k    c #2C930D",
"3l    c #31A50F",
"3m    c #1E750D",
"3n    c #227F0E",
"3o    c #26890E",
"3p    c #2A920E",
"3q    c #2D9A0F",
"3r    c #309F0F",
"3s    c #34A610",
"3t    c #39B611",
"3u    c #2B880D",
"3v    c #2F8F0E",
"3w    c #39AB10",
"3x    c #22650A",
"3y    c #22640B",
"3z    c #36A012",
"3A    c #41BD15",
"3B    c #2E860F",
"3C    c #2A7A0D",
"3D    c #42BF15",
"3E    c #38A511",
"3F    c #256E0B",
"3G    c #1F5D09",
"3H    c #35A10F",
"3I    c #339B0F",
"3J    c #277A0C",
"3K    c #34A810",
"3L    c #1E760E",
"3M    c #23800E",
"3N    c #278B0E",
"3O    c #2B930F",
"3P    c #2E9C0F",
"3Q    c #31A110",
"3R    c #35A610",
"3S    c #37AA10",
"3T    c #3BB211",
"3U    c #3CB012",
"3V    c #3BAE11",
"3W    c #3FB813",
"3X    c #359810",
"3Y    c #215D0A",
"3Z    c #2B7C0D",
"3&    c #318A0E",
"4     c #2E820D",
"40    c #1F5909",
"41    c #318E0F",
"42    c #3EB513",
"43    c #3CAF12",
"44    c #3BAE12",
"45    c #1F760E",
"46    c #24810E",
"47    c #288C0F",
"48    c #2C950F",
"49    c #309E10",
"4a    c #34A410",
"4b    c #36A810",
"4c    c #3AAD11",
"4d    c #3AAE11",
"4e    c #3EB112",
"4f    c #3FB213",
"4g    c #41B714",
"4h    c #42B814",
"4i    c #338D0F",
"4j    c #143606",
"4k    c #0E2704",
"4l    c #30840E",
"4m    c #41B413",
"4n    c #42B914",
"4o    c #20770E",
"4p    c #25820F",
"4q    c #298D0F",
"4r    c #2E9610",
"4s    c #32A010",
"4t    c #36A510",
"4u    c #39AB11",
"4v    c #40B313",
"4w    c #42B413",
"4x    c #43B514",
"4y    c #47BD15",
"4z    c #44B314",
"4A    c #31820E",
"4B    c #194307",
"4C    c #153706",
"4D    c #2F7C0E",
"4E    c #41AD13",
"4F    c #48BF15",
"4G    c #21780F",
"4H    c #25830F",
"4I    c #2B8F10",
"4J    c #309810",
"4K    c #34A210",
"4L    c #39A711",
"4M    c #3CAD12",
"4N    c #3FB112",
"4O    c #44BA14",
"4P    c #44B714",
"4Q    c #46B914",
"4R    c #4AC016",
"4S    c #399411",
"4T    c #245C0A",
"4U    c #3C9712",
"4V    c #3C9812",
"4W    c #378D10",
"4X    c #41A513",
"4Y    c #255F0B",
"4Z    c #34860F",
"4&    c #48BB15",
"5     c #47BC15",
"50    c #45BD14",
"51    c #22790F",
"52    c #26840F",
"53    c #2D8F10",
"54    c #319A10",
"55    c #37A411",
"56    c #3BA912",
"57    c #47BF14",
"58    c #31810E",
"59    c #3A9711",
"5a    c #46B014",
"5b    c #29660C",
"5c    c #327B0E",
"5d    c #4BB816",
"5e    c #54CD18",
"5f    c #3D9312",
"5g    c #388610",
"5h    c #55D019",
"5i    c #4EBF17",
"5j    c #36850F",
"5k    c #27610B",
"5l    c #40A212",
"5m    c #3FA413",
"5n    c #2B700C",
"5o    c #46BD14",
"5p    c #41B513",
"5q    c #36A411",
"5r    c #227A0F",
"5s    c #288410",
"5t    c #2E9010",
"5u    c #339A10",
"5v    c #39A411",
"5w    c #41B313",
"5x    c #3CA212",
"5y    c #0E2604",
"5z    c #091603",
"5A    c #2B6D0D",
"5B    c #2F720D",
"5C    c #43A113",
"5D    c #54CA18",
"5E    c #53C318",
"5F    c #57C919",
"5G    c #419612",
"5H    c #3B8911",
"5I    c #58CC19",
"5J    c #51C218",
"5K    c #49AF15",
"5L    c #2F750E",
"5M    c #0D2104",
"5N    c #091803",
"5O    c #358F0F",
"5P    c #42B513",
"5Q    c #329A10",
"5R    c #237A0F",
"5S    c #298510",
"5T    c #309110",
"5U    c #359C11",
"5V    c #3CAC13",
"5W    c #3BA012",
"5X    c #0B1C03",
"5Y    c #21540A",
"5Z    c #22530A",
"5&    c #439E13",
"6     c #55C418",
"60    c #57C519",
"61    c #5BCD1A",
"62    c #439813",
"63    c #3D8B11",
"64    c #5CD01A",
"65    c #48AA14",
"66    c #28610B",
"67    c #030601",
"68    c #33890F",
"69    c #3EB013",
"6a    c #2F9110",
"6b    c #257B10",
"6c    c #2B8610",
"6d    c #309210",
"6e    c #39A312",
"6f    c #389C11",
"6g    c #112C05",
"6h    c #34850F",
"6i    c #48B214",
"6j    c #0D2004",
"6k    c #183707",
"6l    c #3D8D11",
"6m    c #59CA19",
"6n    c #59C619",
"6o    c #5AC81A",
"6p    c #61D51B",
"6q    c #479D14",
"6r    c #408D12",
"6s    c #63D91C",
"6t    c #439B13",
"6u    c #1D4308",
"6v    c #081202",
"6w    c #41A012",
"6x    c #3C9811",
"6y    c #102A05",
"6z    c #31880F",
"6A    c #3AA712",
"6B    c #329612",
"6C    c #328E10",
"6D    c #0F2905",
"6E    c #205209",
"6F    c #27600B",
"6G    c #23540A",
"6H    c #388410",
"6I    c #56C418",
"6J    c #5CCF1A",
"6K    c #5AC719",
"6L    c #5BC91A",
"6M    c #5FCE1A",
"6N    c #4FAB16",
"6O    c #469613",
"6P    c #439013",
"6Q    c #5DCA1A",
"6R    c #5BCC1A",
"6S    c #57C718",
"6T    c #3D8F11",
"6U    c #24580A",
"6V    c #255D0B",
"6W    c #0C2104",
"6X    c #2C7E0F",
"6Y    c #339812",
"6Z    c #2C8811",
"6&    c #339411",
"7     c #0F2A05",
"70    c #34840F",
"71    c #44A813",
"72    c #54C717",
"73    c #59CC18",
"74    c #58C618",
"75    c #5AC619",
"76    c #5DC91A",
"77    c #5FCB1A",
"78    c #67D81C",
"79    c #32690E",
"7a    c #204309",
"7b    c #264F0A",
"7c    c #234A0A",
"7d    c #65D51C",
"7e    c #5CC91A",
"7f    c #57C418",
"7g    c #58CA18",
"7h    c #55C917",
"7i    c #46AD14",
"7j    c #368A10",
"7k    c #1B4908",
"7l    c #091A03",
"7m    c #2E8510",
"7n    c #267B10",
"7o    c #2D8810",
"7p    c #329011",
"7q    c #359311",
"7r    c #44B214",
"7s    c #4BBA15",
"7t    c #4DBA15",
"7u    c #52BF17",
"7v    c #56C218",
"7w    c #5AC519",
"7x    c #5DC81A",
"7y    c #60CA1A",
"7z    c #62CC1A",
"7A    c #69DA1C",
"7B    c #36700F",
"7C    c #030501",
"7D    c #010300",
"7E    c #244A0A",
"7F    c #67D71C",
"7G    c #49B715",
"7H    c #45B414",
"7I    c #369511",
"7J    c #318C10",
"7K    c #2D8710",
"7L    c #339311",
"7M    c #42A813",
"7N    c #47B014",
"7O    c #4DB816",
"7P    c #53BD17",
"7Q    c #57C118",
"7R    c #5BC419",
"7S    c #5EC61A",
"7T    c #60C91A",
"7U    c #63CB1A",
"7V    c #6BD81D",
"7W    c #356C0E",
"7X    c #376F0F",
"7Y    c #478F13",
"7Z    c #214309",
"7&    c #5AC419",
"8     c #349412",
"80    c #257A10",
"81    c #2D8510",
"82    c #339011",
"83    c #3A9C12",
"84    c #40A513",
"85    c #46AF14",
"86    c #4DB516",
"87    c #52B917",
"88    c #56BD18",
"89    c #59C019",
"8a    c #5DC31A",
"8b    c #5FC51A",
"8c    c #61C71A",
"8d    c #66CF1C",
"8e    c #4E9D15",
"8f    c #34680E",
"8g    c #408112",
"8h    c #428512",
"8i    c #67D21D",
"8j    c #5CC31A",
"8k    c #51B917",
"8l    c #257610",
"8m    c #2B8310",
"8n    c #328D11",
"8o    c #3A9812",
"8p    c #3FA113",
"8q    c #45A914",
"8r    c #4AAF16",
"8s    c #50B617",
"8t    c #54B918",
"8u    c #57BB19",
"8v    c #5BBE1A",
"8w    c #5DC11A",
"8x    c #5FC21A",
"8y    c #61C41B",
"8z    c #5CB91A",
"8A    c #2F5F0D",
"8B    c #52A517",
"8C    c #63C81C",
"8D    c #5ABE1A",
"8E    c #4FB617",
"8F    c #399812",
"8G    c #297E10",
"8H    c #308811",
"8I    c #379112",
"8J    c #3C9A13",
"8K    c #42A214",
"8L    c #47A916",
"8M    c #4CAD17",
"8N    c #50AF18",
"8O    c #54B319",
"8P    c #57B51A",
"8Q    c #59B71A",
"8R    c #5BB91A",
"8S    c #5DBA1B",
"8T    c #60BE1C",
"8U    c #305F0E",
"8V    c #254A0B",
"8W    c #5CB61B",
"8X    c #4FAF18",
"8Y    c #277810",
"8Z    c #2D8111",
"8&    c #338A12",
"9     c #389213",
"90    c #3E9914",
"91    c #439F15",
"92    c #47A417",
"93    c #4AA518",
"94    c #4EA919",
"95    c #50AB1A",
"96    c #52AD1A",
"97    c #54AF1A",
"98    c #56AF1A",
"99    c #5CBB1D",
"9a    c #2D5B0E",
"9b    c #20400A",
"9c    c #4DA919",
"9d    c #3D9914",
"9e    c #328A12",
"9f    c #257510",
"9g    c #267610",
"9h    c #297A11",
"9i    c #2F8212",
"9j    c #338813",
"9k    c #398F14",
"9l    c #3D9315",
"9m    c #419716",
"9n    c #459A17",
"9o    c #479C18",
"9p    c #499E19",
"9q    c #4BA01A",
"9r    c #4DA21A",
"9s    c #4FA31A",
"9t    c #50A71B",
"9u    c #408415",
"9v    c #3A7813",
"9w    c #51A91B",
"9x    c #247610",
"9y    c #257710",
"9z    c #287911",
"9A    c #2B7B12",
"9B    c #2E7D13",
"9C    c #318314",
"9D    c #368715",
"9E    c #3A8B16",
"9F    c #3C8E17",
"9G    c #3F9018",
"9H    c #419119",
"9I    c #439319",
"9J    c #44941A",
"9K    c #45951A",
"9L    c #45961A",
"9M    c #48991B",
"9N    c #3E9018",
"9O    c #277911",
"           0 1 1 1 1 1 1 1 1 2 3 3 2 1 1 1 1 1 1 1 1 0          ",
"   4   1 5 6 7 8 8 8 8 8 8 8 9 a b c 8 8 8 8 8 8 8 7 6 5 1   4  ",
" d d e f g h i j j j j j j j k l m k j j j j j j j i h g f e d d",
" d n o p q r s s s t u v w x y z A B x C D E s s s s r q p F n d",
" d G H q I J K L M N O P Q R S T U V W X Y Z &0 00 K J I01 H G d",
"02 o c03040005060708090a0b0c0d0e0f0g0h0i0j0k0l0m0n05000403 c o02",
"0o0p q0q0r0s0t0u0v0w0x0y0z0A0B0C0D0E0F0G0H0I0J0K0L0t0s0r0q0M0p0o",
"0N0O0P0Q0R0S0T0U0V0W0X0Y0Z0&1 101011121314151617180T0S190Q1a g0N",
"0N g1b1c1d1e1f1g1h1i1j1k1l1m1n1o1p1q1r1s1t1u1v1w1x1y1z1A1B 8 H0N",
"1C1D1E1F1G1H1I1J1K1L1M1N1O1P1Q1R1S1T1U1V1W1X1Y1Z1&2 202122231D1C",
"2425262728292a2b2c2d2e2f2g2h2i2j2k2l2g2m2n2o2p2q2r2s2t2u2v26252w",
"2x2y2z2A2B2C2D2E2F2G2H2I2J2K2L2M2N2O2K2P2Q2R2S2T2E2U2V2W2A2z2y2x",
"2X2Y2Z2&3 303132333435363738393a3b3c3d3e3f3g3h3i3j3k3l3 2&2Z2Y2X",
"3m3n3o3p3q3r3s3t3u3v3w3x3y3z3A3B3C3D3E3F3G3H3I3J3t3K3r3q3p3o3n3m",
"3L3M3N3O3P3Q3R3S3T3U3V3W3X3Y3Z3&4 3&40414243443T3S3s3Q3P3O3N3M3L",
"45464748494a4b4c4d434e4f4g4h4i4j4k4l4m4n4f4e434d4c4b4a4948474645",
"4o4p4q4r4s4t4u434e4v4w4x4y4z4A4B4C4D4E4F4x4w4v4e434u4t4s4r4q4p4o",
"4G4H4I4J4K4L4M4N4O4P4Q4R4S4T4U4V4W4X4Y4Z4&5 4P504N4M4L4K4J4I4H4G",
"5152535455564v5758595a5b5c5d5e5f5g5h5i5j5k5l5m5n5o5p565q54535251",
"5r5s5t5u5v5w5x5y5z5A5B5C5D5E5F5G5H5I5J5D5K5B5L5M5N5O5P5v5Q5t5s5r",
"5R5S5T5U5V5W5X5Y2F5Z5&5F6 6061626364606 5F6566675Y5N68695U6a5S5R",
"6b6c6d6e6f6g6h6i6j6k6l6m6n6o6p6q6r6s6o6n6m6t6u6v6w6x6y6z6A6d6c6b",
"6b6c6B6C6D6E6F6G6H6I6J6K6L6M6N6O6P6N6Q6L6K6R6S6T6U6V4Y6W6X6Y6c6b",
"6b6Z6&7 4C707172737475767778797a7b7c7d777e757f7g7h7i7j7k7l7m6Z6b",
"7n7o7p7q7r7s7t7u7v7w7x7y7z7A7B7C7D7E7F7z7y7x7w7v7u7t7G7H7I7J7o7n",
"7n7K7L5W7M7N7O7P7Q7R7S7T7U7V7W7X7Y7Z7V7U7T7S7&7Q7P7O7N7M5W8 7K7n",
"808182838485868788898a8b8c8d8e8f8g8h8i8c8b8j89888k86858483828180",
"8l8m8n8o8p8q8r8s8t8u8v8w8x8y8z8A8A8B8C8x8w8D8u8t8E8r8q8p8F8n8m8l",
"8l8G8H8I8J8K8L8M8N8O8P8Q8R8S8T8U8V8W8S8R8Q8P8O8X8M8L8K8J8I8H8G8l",
"8l8Y8Z8&9 909192939495969798999a9b99989796959c9392919d9 9e8Z8Y8l",
"9f9g9h9i9j9k9l9m9n9o9p9q9r9s9t9u9v9w9s9r9q9p9o9n9m9l9k9j9i9h9g9f",
"9x9y9z9A9B9C9D9E9F9G9H9I9J9K9L9M9M9L9K9J9I9H9N9F9E9D9C9B9A9O9y9x"};
