/* XPM */
static char *B12_xpm[]={
"32 32 305 2",
"      c #007000",
" 0    c #006F00",
" 1    c #007200",
" 2    c #007400",
" 3    c #007500",
" 4    c #007100",
" 5    c #007A00",
" 6    c #007C00",
" 7    c #007D00",
" 8    c #008300",
" 9    c #008500",
" a    c #007F00",
" b    c #008000",
" c    c #007E00",
" d    c #007600",
" e    c #007800",
" f    c #008200",
" g    c #008E00",
" h    c #006200",
" i    c #006600",
" j    c #009100",
" k    c #008F00",
" l    c #006800",
" m    c #006300",
" n    c #008D00",
" o    c #008400",
" p    c #008A00",
" q    c #009200",
" r    c #002C00",
" s    c #006B00",
" t    c #004906",
" u    c #003908",
" v    c #00771C",
" w    c #00721C",
" x    c #005712",
" y    c #005010",
" z    c #005812",
" A    c #006B19",
" B    c #007219",
" C    c #003905",
" D    c #004400",
" E    c #006900",
" F    c #002F00",
" G    c #009300",
" H    c #009B00",
" I    c #005600",
" J    c #24C053",
" K    c #58AD66",
" L    c #3A6341",
" M    c #1D311E",
" N    c #040C05",
" O    c #70A475",
" P    c #7DB883",
" Q    c #82BD88",
" R    c #75AC7B",
" S    c #0E1A10",
" T    c #050C06",
" U    c #203A24",
" V    c #2C5331",
" W    c #329046",
" X    c #00B224",
" Y    c #009000",
" Z    c #003B00",
" &    c #009900",
"0     c #007300",
"00    c #008600",
"01    c #009400",
"02    c #00A100",
"03    c #005E00",
"04    c #007E2C",
"05    c #335B37",
"06    c #3F5942",
"07    c #89A68B",
"08    c #C8EACC",
"09    c #CEEED0",
"0a    c #8BA18D",
"0b    c #404B41",
"0c    c #B6D1B9",
"0d    c #B6D1B8",
"0e    c #444F45",
"0f    c #849986",
"0g    c #CCEECF",
"0h    c #C5EBC7",
"0i    c #95BE98",
"0j    c #456A48",
"0k    c #11411B",
"0l    c #005100",
"0m    c #009D00",
"0n    c #009800",
"0o    c #00A500",
"0p    c #004300",
"0q    c #010301",
"0r    c #649F6C",
"0s    c #B7E8BA",
"0t    c #CAECCD",
"0u    c #CBE6CC",
"0v    c #CFE7D0",
"0w    c #DAF3DC",
"0x    c #C3DAC5",
"0y    c #080A07",
"0z    c #040505",
"0A    c #C4DAC5",
"0B    c #D9F3DB",
"0C    c #CDE6CE",
"0D    c #C6E4C8",
"0E    c #BAE5BE",
"0F    c #9EE1A4",
"0G    c #4BB15F",
"0H    c #003300",
"0I    c #000500",
"0J    c #007700",
"0K    c #008100",
"0L    c #008C00",
"0M    c #00A300",
"0N    c #002400",
"0O    c #005D19",
"0P    c #72D680",
"0Q    c #97D79C",
"0R    c #ADDDB0",
"0S    c #B8E0B9",
"0T    c #BAE1BC",
"0U    c #C5EDC7",
"0V    c #6E856F",
"0W    c #4F6150",
"0X    c #4B5C4C",
"0Y    c #728B73",
"0Z    c #C6EEC8",
"0&    c #B7E1BA",
"1     c #B2DDB4",
"10    c #A2D9A6",
"11    c #80D088",
"12    c #30CA58",
"13    c #001700",
"14    c #004C00",
"15    c #009A00",
"16    c #003500",
"17    c #00AC00",
"18    c #004200",
"19    c #1EAA46",
"1a    c #6DD07A",
"1b    c #82D28A",
"1c    c #8DD594",
"1d    c #99E1A0",
"1e    c #4D724F",
"1f    c #3B5C3E",
"1g    c #9AE1A1",
"1h    c #9AE2A1",
"1i    c #3C5C3F",
"1j    c #4E7551",
"1k    c #97E19E",
"1l    c #85D38E",
"1m    c #72CE7E",
"1n    c #46C45F",
"1o    c #00BE26",
"1p    c #004600",
"1q    c #005A00",
"1r    c #004A00",
"1s    c #009C00",
"1t    c #002E00",
"1u    c #00AD00",
"1v    c #004F03",
"1w    c #00C949",
"1x    c #40C55B",
"1y    c #56D26A",
"1z    c #2E7339",
"1A    c #245A2C",
"1B    c #5ED471",
"1C    c #5ACA6B",
"1D    c #59C96A",
"1E    c #5DD370",
"1F    c #215529",
"1G    c #2E7338",
"1H    c #4AD165",
"1I    c #27C14D",
"1J    c #00C12B",
"1K    c #00A900",
"1L    c #003E00",
"1M    c #009500",
"1N    c #003700",
"1O    c #00AB00",
"1P    c #00A600",
"1Q    c #00B000",
"1R    c #004000",
"1S    c #00C329",
"1T    c #006E1B",
"1U    c #005013",
"1V    c #00CA3E",
"1W    c #00BF3A",
"1X    c #00C83C",
"1Y    c #004D11",
"1Z    c #006D16",
"1&    c #00C016",
"2     c #00B600",
"20    c #003C00",
"21    c #00AA00",
"22    c #002700",
"23    c #008B00",
"24    c #007900",
"25    c #008700",
"26    c #00A700",
"27    c #00B300",
"28    c #004900",
"29    c #008900",
"2a    c #004100",
"2b    c #00BE00",
"2c    c #00B701",
"2d    c #00B802",
"2e    c #005300",
"2f    c #00B500",
"2g    c #00A800",
"2h    c #005D00",
"2i    c #005700",
"2j    c #006E00",
"2k    c #00B800",
"2l    c #003F00",
"2m    c #000400",
"2n    c #00BA00",
"2o    c #00B100",
"2p    c #00A000",
"2q    c #002D00",
"2r    c #008800",
"2s    c #003200",
"2t    c #003800",
"2u    c #002500",
"2v    c #00B900",
"2w    c #00B700",
"2x    c #00BD00",
"2y    c #003D00",
"2z    c #000D00",
"2A    c #00A200",
"2B    c #009F00",
"2C    c #00AE00",
"2D    c #00BB00",
"2E    c #004F00",
"2F    c #003A00",
"2G    c #00C000",
"2H    c #00C100",
"2I    c #005C00",
"2J    c #00BC00",
"2K    c #00AF00",
"2L    c #005900",
"2M    c #00C300",
"2N    c #005400",
"2O    c #00C600",
"2P    c #00C500",
"2Q    c #006700",
"2R    c #006400",
"2S    c #005800",
"2T    c #00B200",
"2U    c #00C800",
"2V    c #00CA00",
"2W    c #00C400",
"2X    c #00A400",
"2Y    c #006500",
"2Z    c #006C00",
"2&    c #00BF00",
"3     c #00C700",
"30    c #00CF00",
"31    c #00C900",
"32    c #003600",
"33    c #006000",
"34    c #003400",
"35    c #00CB00",
"36    c #009600",
"37    c #00D300",
"38    c #00D100",
"39    c #00C200",
"3a    c #004E00",
"3b    c #006A00",
"3c    c #00D000",
"3d    c #000B00",
"3e    c #00D500",
"3f    c #005F00",
"3g    c #00CD00",
"3h    c #00D900",
"3i    c #00CE00",
"3j    c #004800",
"3k    c #004B00",
"3l    c #003100",
"3m    c #006100",
"3n    c #00CC00",
"3o    c #00DA00",
"3p    c #00DD00",
"3q    c #00D700",
"3r    c #00D600",
"3s    c #00DF00",
"3t    c #00B400",
"3u    c #00D400",
"3v    c #00DC00",
"3w    c #00DB00",
"3x    c #00E000",
"3y    c #001500",
"3z    c #00D800",
"3A    c #002300",
"3B    c #002100",
"3C    c #010400",
"3D    c #00D200",
"3E    c #009E00",
"3F    c #001900",
"3G    c #010600",
"3H    c #009700",
"3I    c #005B00",
"3J    c #005200",
"3K    c #005500",
"3L    c #007B00",
"   0 0   0 1 2 2 3 3 2 3 3 3 3 2 3 3 3 2 3 2 3 2 2 2 1 0     0 4",
"       3 5 6 7 8 9 9 8 a b b b a b b b a b 8 9 9 8 c 6 5 d     0",
"     e 6 f 9 g 7 h i 5 j k j j j j j j j j 7 l m d n 9 f 7 e   0",
"   d c o p q c r i s t u v w x y y z A B C D i E F i G p o c d 0",
" 0 5 8 p k H I 4 J K L M N N O P Q R S T U V W X Y Z & k p 8 5 0",
"0  700 k0102030405060708090a0b0c0d0e0f0g0h0i0j0k 50l0m01 g00 c 2",
" 3 a p G0n0o0p0q0r0s0t0u0v0w0x0y0z0A0B0C0D0E0F0G0H0I0o0n q p b 2",
"0J0K0L010M i0N0O0P0Q0R0S0T0U0V0W0X0Y0Z0&1 101112 d131402010L0K0J",
"0J f0L15 1161718191a1b1c1d1e1f1g1h1i1j1k1l1m1n1o1p021q1r1s0L f d",
" e f j0L1t H1u 31v1w1x1y1z1A1B1C1D1E1F1G1H1I1J0K0p1u1K1L i01 f e",
" e 81M1N0 1O1P1Q1R H1S1T1U1V1W1W1W1W1X1Y1Z1&2 20 k211P &2223 8 e",
"2425 d20260M1K27 o28292a2b2c2c2c2c2d2c2b1R00 72e2f2g0M2g2h2i2324",
" e231r2j2g0o1O1u2k2l2m2n2f2 2f2f2f2f2f2k2o160N171u1O0o2p0L2q2524",
" 52r2s G02261u1Q2o2t2u1u2v2w2 2 2 2 2f2f2x2y2z2k2o171P2A2B2a d 6",
" 6 e2l020M1K2C2D2E 6 &2F2G2v2n2v2n2v2v2H d2I b2E2J2K1K0M2p03 E 7",
" 7 32L2A0o1O2w b1p2H2M2j2N2O2J2x2x2x2P1s Z2v2H1r b2k1O0o0M2Q2R c",
" 7 22S0M261u2T1N172H2J2U2N d2V2H2H2P2f2q1O2W2H2C1N1Q1u262X2Q2Y b",
" a241r0o1K2k i2Z2O2&2G2O3 1p p30312H32022V2G2b2O 4332k1K1P m2Z a",
" 725342p171O182J2&2H2W2W353 2a363720 &382W2W392&2H181P1O213a0  a",
" c q Z002f 03b31392W2O2U313c3c183d0M3e2V2U2O2P3931 12Y2f1s1t2r c",
" c j s3f2w D0o2H2W3 31353g3h2&1R2u k3h3i35313 2W2H1Q3j2w 23k G c",
" c n &3l0n3m2P2P3 2V3n3i3o1s Z2f3p2L i3q3r3g312O2W3 3m2A1N p Y a",
" a n2p 316 d2U2W2U353h3e l0l3n3p3e3s 6 D3t3h352U2W310 2t1q2A g a",
" b n H2C2l222V3c3u3e k1R f3v3w3q3q3r3x1O D E2V373c351p3y2C H n b",
" b g H1P2w2t2L2p 22N03393x3q3q3q3q3q3q3v3z 53k s15 43A26211s g a",
" a n H1P3t2H3B3C23313o3q3u3e3r3r3r3r3e3u3D3o3u3E3F3G2o2k1P15 n a",
" c0L0n2X2C2D3  73j23353h3z383D37373D383z3h3c363k 03 2D1u0M3H0L c",
" 529 G2p1K2T2w312 3I14 0 H2G383r3r3D2P0M0 0l2e2g312w2o1K2B G29 5",
"24 o g0n2A212o3t2x2P2n252L3k3J2i2i3J2E3K b2T2P2J3t2o1K020n g o 5",
" 5 725 Y &2p261O1u2T2T2x2G2J2o1O1O2T2J2G2b2k2o2C1O1P2B & Y25 624",
"243L a29 g36 H2B020M1P261K211717171O211K261P0M022B1536 k2r a3L 5",
"3L3L 7 a f2r n j0136 & H H1s0m0m0m3E1s1s150n3601 j n29 f a 73L 5"};
