/* XPM */
static char *B13_xpm[]={
"32 32 286 2",
"      c #007600",
" 0    c #007500",
" 1    c #007900",
" 2    c #007A00",
" 3    c #007B00",
" 4    c #005000",
" 5    c #002600",
" 6    c #007C00",
" 7    c #008100",
" 8    c #008400",
" 9    c #008500",
" a    c #008800",
" b    c #008700",
" c    c #005600",
" d    c #000000",
" e    c #001100",
" f    c #007700",
" g    c #007E00",
" h    c #008900",
" i    c #008C00",
" j    c #008F00",
" k    c #009100",
" l    c #009200",
" m    c #005A00",
" n    c #000900",
" o    c #007D00",
" p    c #008B00",
" q    c #009500",
" r    c #009900",
" s    c #009A00",
" t    c #00A100",
" u    c #00A91C",
" v    c #00AC2A",
" w    c #006F19",
" x    c #009C28",
" y    c #00AE2F",
" z    c #00AE2E",
" A    c #001503",
" B    c #00AB23",
" C    c #00A405",
" D    c #008A00",
" E    c #009700",
" F    c #009B00",
" G    c #00A000",
" H    c #00AA00",
" I    c #24C052",
" J    c #69CD7A",
" K    c #83D58E",
" L    c #5A8C60",
" M    c #8ACB91",
" N    c #96DB9D",
" O    c #95DA9C",
" P    c #95D99C",
" Q    c #0E1C10",
" R    c #75D083",
" S    c #47C562",
" T    c #00B224",
" U    c #009F00",
" V    c #009800",
" W    c #008D00",
" X    c #009600",
" Y    c #009C00",
" Z    c #00A400",
" &    c #00C047",
"0     c #7FD68A",
"00    c #AAE3AF",
"01    c #90B193",
"02    c #CEEED1",
"03    c #CFEED1",
"04    c #D0EED2",
"05    c #D0EFD2",
"06    c #CFEED2",
"07    c #CBEDCF",
"08    c #030403",
"09    c #304031",
"0a    c #91DB99",
"0b    c #48C862",
"0c    c #00AB00",
"0d    c #00A200",
"0e    c #00A500",
"0f    c #00A900",
"0g    c #28C754",
"0h    c #8CDB96",
"0i    c #9DC8A1",
"0j    c #070806",
"0k    c #373F37",
"0l    c #B1C5B2",
"0m    c #DAF3DC",
"0n    c #DAF3DB",
"0o    c #D2E9D3",
"0p    c #3B433B",
"0q    c #414C41",
"0r    c #38533A",
"0s    c #58CE6E",
"0t    c #00B400",
"0u    c #009400",
"0v    c #00A300",
"0w    c #00A700",
"0x    c #00C23D",
"0y    c #71D680",
"0z    c #95D69C",
"0A    c #719274",
"0B    c #7F9D80",
"0C    c #2D382E",
"0D    c #455445",
"0E    c #C6EEC8",
"0F    c #C6EDC7",
"0G    c #C5EDC7",
"0H    c #87A388",
"0I    c #7F9F81",
"0J    c #6D9570",
"0K    c #71B878",
"0L    c #30CA58",
"0M    c #00B000",
"0N    c #00AC00",
"0O    c #00A800",
"0P    c #009300",
"0Q    c #00B700",
"0R    c #27CA54",
"0S    c #6FD67E",
"0T    c #88DD92",
"0U    c #95E09C",
"0V    c #72A977",
"0W    c #3C5C3F",
"0X    c #9AE2A1",
"0Y    c #9AE1A1",
"0Z    c #68996C",
"0&    c #162416",
"1     c #8EDE96",
"10    c #79D985",
"11    c #4ACF65",
"12    c #00BE26",
"13    c #00AF00",
"14    c #00AD00",
"15    c #009D00",
"16    c #00BC14",
"17    c #00C848",
"18    c #44CF5F",
"19    c #56D26A",
"1a    c #3B9049",
"1b    c #22562A",
"1c    c #5ED471",
"1d    c #5ED470",
"1e    c #5DD470",
"1f    c #3D9049",
"1g    c #031706",
"1h    c #4AD165",
"1i    c #2ACC53",
"1j    c #00C22B",
"1k    c #00B200",
"1l    c #008000",
"1m    c #005100",
"1n    c #00BD00",
"1o    c #00C42A",
"1p    c #00C637",
"1q    c #008826",
"1r    c #005113",
"1s    c #00C93D",
"1t    c #00C93E",
"1u    c #001603",
"1v    c #00C530",
"1w    c #00C016",
"1x    c #00B300",
"1y    c #002000",
"1z    c #007F00",
"1A    c #006800",
"1B    c #001A00",
"1C    c #006000",
"1D    c #00B600",
"1E    c #00BB00",
"1F    c #00BE00",
"1G    c #009000",
"1H    c #004D00",
"1I    c #00C200",
"1J    c #00C100",
"1K    c #008301",
"1L    c #001D02",
"1M    c #00B800",
"1N    c #00B500",
"1O    c #003600",
"1P    c #001400",
"1Q    c #006600",
"1R    c #004800",
"1S    c #000100",
"1T    c #006F00",
"1U    c #005F00",
"1V    c #006B00",
"1W    c #002800",
"1X    c #004A00",
"1Y    c #00BF00",
"1Z    c #00C000",
"1&    c #008600",
"2     c #007300",
"20    c #005E00",
"21    c #004F00",
"22    c #001200",
"23    c #005D00",
"24    c #009E00",
"25    c #005500",
"26    c #005700",
"27    c #005400",
"28    c #00BC00",
"29    c #006200",
"2a    c #000B00",
"2b    c #005900",
"2c    c #00B100",
"2d    c #00C400",
"2e    c #00C300",
"2f    c #001000",
"2g    c #00AE00",
"2h    c #00BA00",
"2i    c #00C500",
"2j    c #00C700",
"2k    c #00C600",
"2l    c #00B900",
"2m    c #001700",
"2n    c #004700",
"2o    c #00C800",
"2p    c #00CA00",
"2q    c #00CB00",
"2r    c #00C900",
"2s    c #001300",
"2t    c #000300",
"2u    c #008300",
"2v    c #003800",
"2w    c #00CC00",
"2x    c #00CD00",
"2y    c #00CE00",
"2z    c #00CF00",
"2A    c #001600",
"2B    c #003B00",
"2C    c #007400",
"2D    c #007800",
"2E    c #00D300",
"2F    c #00D200",
"2G    c #007200",
"2H    c #001800",
"2I    c #004400",
"2J    c #004B00",
"2K    c #003700",
"2L    c #002700",
"2M    c #003200",
"2N    c #005200",
"2O    c #00D600",
"2P    c #00D700",
"2Q    c #003C00",
"2R    c #002900",
"2S    c #001500",
"2T    c #000800",
"2U    c #004500",
"2V    c #003D00",
"2W    c #00D400",
"2X    c #00DA00",
"2Y    c #001F00",
"2Z    c #006300",
"2&    c #00D100",
"3     c #00D900",
"30    c #00DD00",
"31    c #001900",
"32    c #00D800",
"33    c #00DB00",
"34    c #005B00",
"35    c #00DF00",
"36    c #00E100",
"37    c #00E200",
"38    c #001E00",
"39    c #00D500",
"3a    c #006700",
"3b    c #004E00",
"3c    c #00E300",
"3d    c #00D000",
"3e    c #002F00",
"3f    c #002C00",
"3g    c #00E000",
"3h    c #002300",
"3i    c #005300",
"3j    c #00DC00",
"3k    c #00DE00",
"3l    c #010300",
"3m    c #002100",
"3n    c #008E00",
"3o    c #004900",
"3p    c #001D00",
"3q    c #008200",
"3r    c #010B01",
"3s    c #010500",
"       0   1 2 3 3 3 3 3 3 3 3 4 5 2 3 3 2 3 3 3 3 1 1   0      ",
" 0 0   6 7 8 9 a b b b b b b c d d e b b b b a b b 9 8 7 6 f    ",
"   f g 8 h i j k k k l k k m d b l d n k k k l k k j i h 8 o    ",
" 0 6 9 p k q r s r t u v w d x y y z d A B C r r s r q k p 9 o 0",
"   7 D l E F G H I J K L d M N N N O P d Q R S T t U F V k D 7 0",
" 2 9 W X Y t Z &0 0001 d020304050604040708090a0b0c Z0d Y X W 8 2",
" 3 b k s t0e0f0g0h0i d0j0k0l0m0n0n0m0o0p0q d0r0s0t H0e G s k a 3",
" o a0u Y0v0w0c0x0y0z0A0B0C0D0E0F0G0G0H d0I0J0K0L0M0N0O0v F0P a o",
" o h0P Y Z0O0N0Q0R0S0T0U0V0W0X0X0Y0X0Z0&1 10111213140O0e150u h 6",
" g h q Y0e0f h s161718191a1b1c1d1e1d1f1g1h1i1j1k0M 1 H0e Y0u h g",
" g D q150w1l d1m0t1n1o1p1q1r1s1t1s1t1q1u1v1w0Q1x1x d1y0w15 q D o",
"1z p q U1A d1B1C1D1D1E1F1G1H1I1J1J1I1K1L1n1M1D1N0t1O d1P U q p1z",
" g p E1Q d141R1S1T1U1U1V1W1X1Y1Z1Z1Y1& d2 1U202021 e14 d22 E p1z",
"1z i23 d F13241m25 c c26270O1Z1Z1Z1Z282926 c252527 a130c d2a i1l",
" 72b d l142c0Q1E1n1F1Y1J1J1I2d2d2e2e2e1I1J1Z1F1F280Q1k0N0d d2f 7",
" c d l Z2g0t2h1F1Z1J2d2d2i2j2k2j2j2k2k2i2d2e1J1Y1Y2l0t2g0e s d2m",
"2n d Y0e0M0Q1n1I2e2k2k2o2p2q2q2q2q2p2p2r2j2j2i2e1I280Q2c0e F2s2t",
"2u2v d0w1k2l1Y2e2k2o2p2w2x2y2y2z2z2y2y2x2w2p2r2k2e1F1M1k0O2A d2u",
" 8 k2B d0t1E1D2C1T2C  2 2D2j2E2E2E2E2F D2G 0 02 2G0d2h1N2H d k 8",
" 9 l U2I d1n2J d2K2L1W2M d2N2O2P2P2O15 d2Q2R2L1W2S2T281B d U l 9",
" 90P t0N2U d2V 02y2F2W2O H2b2X2X2X2X j 52O2W2F2y2q1R2Y d0N G0P 9",
"1&0u0d142l2Z d202&2W2P3 0u m30303030 X313 2P2W2&2y d d2l140d0u1&",
"1&0u0d2g2h1J2 0c2E2O3233 X3435353535 E31333 2O2E2z1C1J1E130d q1&",
" b q0v131E2e2p2&2E322X30153436363736 r38302X322W2&2p2e2h2g0v q b",
" b X0v131E2d2q2F39392i1I3a3b373c3c37 s d2q2i2&392F2w2e280M0v E b",
"1& q0v0M2h1I2q3d2W2c d3e3f0e36363g363d3h3i d1X2W3d2p2e2h0M0v q1&",
" 90u G0N1D1Z2j2x3d2E3a d333j303k3k3033333e3l2E3d2x2o1Z0Q0N G0P 8",
" 71G F0w2c2h1I2o2w2y2&2N d2P323 3 322P3m d2&2y2q2o1J2h2c0O F1G 7",
"1l p X G0c1k2h1F1J2i2j2r2N d2x2z2z2x1y d2r2j2i1J1F2h1x0c G X p 7",
" 7 83n V t0f0M1N1D1E281F1J3o d1I1I3p d1J1F281E1D0t0M0O0d V3n 8 7",
"1l3q1& j X150d0w0f142g2c1k1x1R d3r d0t1x0M130N H0w0d24 X j1&3q1z",
"1l3q 81& h j0u r F15 G t0d Z Z1R3s Z0v0v0d U15 F r0u j h1&2u3q1l"};
