/* XPM */
static char *B14_xpm[]={
"32 32 630 2",
"      c #1B710B",
" 0    c #1B700B",
" 1    c #1C700B",
" 2    c #1D730B",
" 3    c #1E740B",
" 4    c #1E750B",
" 5    c #1F750B",
" 6    c #1C710B",
" 7    c #1E760B",
" 8    c #207A0B",
" 9    c #207D0B",
" a    c #217E0B",
" b    c #21800C",
" c    c #1B700C",
" d    c #1B710C",
" e    c #1F780C",
" f    c #207D0C",
" g    c #21820C",
" h    c #23850C",
" i    c #24880C",
" j    c #258A0C",
" k    c #1D770C",
" l    c #217E0C",
" m    c #22840C",
" n    c #248A0C",
" o    c #258E0C",
" p    c #27910C",
" q    c #37991F",
" r    c #47A130",
" s    c #4EA438",
" t    c #51A63A",
" u    c #51A63B",
" v    c #4FA539",
" w    c #4AA234",
" x    c #3D9C26",
" y    c #207E0C",
" z    c #1C700C",
" A    c #1F7A0C",
" B    c #21830C",
" C    c #26900C",
" D    c #27930C",
" E    c #29970C",
" F    c #3AA121",
" G    c #6BB757",
" H    c #88C379",
" I    c #98CB8B",
" J    c #A0CF93",
" K    c #A4D097",
" L    c #A5D198",
" M    c #A2D095",
" N    c #9CCD90",
" O    c #8FC680",
" P    c #77BC64",
" Q    c #4DA936",
" R    c #29990C",
" S    c #238A0C",
" T    c #1C740C",
" U    c #22860C",
" V    c #258F0C",
" W    c #27940C",
" X    c #2B9C0C",
" Y    c #65B74E",
" Z    c #96CC87",
" &    c #B3D8A8",
"0     c #C3DFBC",
"00    c #D1E8CA",
"01    c #D7EED1",
"02    c #D8EED2",
"03    c #D4E9CE",
"04    c #CFE4C9",
"05    c #D5EDCF",
"06    c #CCE6C4",
"07    c #BBDBB1",
"08    c #A2D194",
"09    c #79BE64",
"0a    c #37A31A",
"0b    c #1D750C",
"0c    c #26920C",
"0d    c #29980C",
"0e    c #2B9D0C",
"0f    c #2DA10D",
"0g    c #6FBD59",
"0h    c #9FD191",
"0i    c #C5E7BB",
"0j    c #D6EECF",
"0k    c #B3C4AF",
"0l    c #798377",
"0m    c #555B53",
"0n    c #474C45",
"0o    c #040504",
"0p    c #2F332E",
"0q    c #676F65",
"0r    c #4B5149",
"0s    c #6B7468",
"0t    c #A3B39E",
"0u    c #C8E5BF",
"0v    c #B3E0A6",
"0w    c #81C46F",
"0x    c #42AA26",
"0y    c #1E770C",
"0z    c #21810C",
"0A    c #248C0C",
"0B    c #2A9B0D",
"0C    c #2C9F0D",
"0D    c #2EA30D",
"0E    c #63BD4A",
"0F    c #96D584",
"0G    c #7C9A73",
"0H    c #394336",
"0I    c #4D5849",
"0J    c #71806C",
"0K    c #B7CFAF",
"0L    c #4A5447",
"0M    c #758570",
"0N    c #4F594B",
"0O    c #C4DEBB",
"0P    c #AFC6A7",
"0Q    c #7C8F77",
"0R    c #54614F",
"0S    c #374233",
"0T    c #5B7A52",
"0U    c #78C961",
"0V    c #36AF16",
"0W    c #248C0D",
"0X    c #28940D",
"0Y    c #2A9C0D",
"0Z    c #2DA00D",
"0&    c #31AB0E",
"1     c #40A723",
"10    c #2C4C23",
"11    c #2F4329",
"12    c #83AE76",
"13    c #ADDF9E",
"14    c #B0E0A2",
"15    c #AEDDA0",
"16    c #43553D",
"17    c #B1E1A3",
"18    c #51674B",
"19    c #90B784",
"1a    c #B1E0A2",
"1b    c #AFE0A0",
"1c    c #A8DD98",
"1d    c #88BD78",
"1e    c #36562D",
"1f    c #183310",
"1g    c #25820A",
"1h    c #21820D",
"1i    c #258D0D",
"1j    c #2B9D0D",
"1k    c #30A80E",
"1l    c #2A900D",
"1m    c #0B2403",
"1n    c #33751F",
"1o    c #6FC754",
"1p    c #7DCA65",
"1q    c #82C86C",
"1r    c #88CF73",
"1s    c #75B063",
"1t    c #406136",
"1u    c #8CD376",
"1v    c #466A3B",
"1w    c #57844A",
"1x    c #8CD375",
"1y    c #84C96E",
"1z    c #7DC767",
"1A    c #75C65A",
"1B    c #5DC13F",
"1C    c #2B8F0D",
"1D    c #0C2803",
"1E    c #1C6008",
"1F    c #1F780D",
"1G    c #22830D",
"1H    c #258E0D",
"1I    c #29950D",
"1J    c #2EA50E",
"1K    c #298E0D",
"1L    c #2B900C",
"1M    c #36B210",
"1N    c #4AB328",
"1O    c #5ABA3B",
"1P    c #62BD44",
"1Q    c #6AC74B",
"1R    c #458131",
"1S    c #366426",
"1T    c #6BC84C",
"1U    c #386828",
"1V    c #64BD46",
"1W    c #5DBC3F",
"1X    c #51B631",
"1Y    c #39AD16",
"1Z    c #35B10F",
"1&    c #103705",
"2     c #195508",
"20    c #1E780D",
"21    c #1E790D",
"22    c #22840D",
"23    c #268E0D",
"24    c #2A960E",
"25    c #2C9C0E",
"26    c #0A2403",
"27    c #2A8F0D",
"28    c #37B310",
"29    c #36AC0F",
"2a    c #37AD0F",
"2b    c #43B21E",
"2c    c #4AB526",
"2d    c #51BF2C",
"2e    c #2A6017",
"2f    c #367C1D",
"2g    c #53C02D",
"2h    c #409423",
"2i    c #245414",
"2j    c #4DB728",
"2k    c #46B422",
"2l    c #3AAF14",
"2m    c #35AF10",
"2n    c #34B010",
"2o    c #103605",
"2p    c #1C6409",
"2q    c #2C9D0F",
"2r    c #1F790D",
"2s    c #23840D",
"2t    c #27900E",
"2u    c #2C9F0F",
"2v    c #113B05",
"2w    c #206B0A",
"2x    c #36AD0F",
"2y    c #37AE10",
"2z    c #37B010",
"2A    c #39B111",
"2B    c #3EB317",
"2C    c #45BD1B",
"2D    c #1D4F0C",
"2E    c #379316",
"2F    c #47BE1C",
"2G    c #3DA218",
"2H    c #1C4B0B",
"2I    c #46BE1B",
"2J    c #40B418",
"2K    c #31A50F",
"2L    c #0A2303",
"2M    c #26880D",
"2N    c #28930F",
"2O    c #207A0D",
"2P    c #23850E",
"2Q    c #29930F",
"2R    c #247C0C",
"2S    c #0F3505",
"2T    c #35AE10",
"2U    c #36AC10",
"2V    c #38B111",
"2W    c #3AB211",
"2X    c #3BB311",
"2Y    c #3CB412",
"2Z    c #41BD14",
"2&    c #184808",
"3     c #3AA712",
"30    c #41BB15",
"31    c #3BAB13",
"32    c #194808",
"33    c #41BE14",
"34    c #3DB512",
"35    c #247B0C",
"36    c #0D2E04",
"37    c #2A960F",
"38    c #207A0E",
"39    c #24860E",
"3a    c #2B980F",
"3b    c #25800C",
"3c    c #36B011",
"3d    c #39B211",
"3e    c #3BB411",
"3f    c #3EB612",
"3g    c #3FB813",
"3h    c #42BC14",
"3i    c #1C5008",
"3j    c #3EB212",
"3k    c #42BA13",
"3l    c #3FB212",
"3m    c #1C5108",
"3n    c #43BD14",
"3o    c #40B813",
"3p    c #34A810",
"3q    c #32AB10",
"3r    c #123D06",
"3s    c #20720B",
"3t    c #25890F",
"3u    c #217A0E",
"3v    c #25870E",
"3w    c #26830E",
"3x    c #0F3305",
"3y    c #34AD11",
"3z    c #37AB11",
"3A    c #38B011",
"3B    c #3CB512",
"3C    c #3DB612",
"3D    c #41BA13",
"3E    c #42BB14",
"3F    c #42B814",
"3G    c #225E0A",
"3H    c #45BD14",
"3I    c #43BA14",
"3J    c #205709",
"3K    c #43B914",
"3L    c #43BC14",
"3M    c #23770C",
"3N    c #103606",
"3O    c #278D0F",
"3P    c #217B0E",
"3Q    c #288E10",
"3R    c #1E670B",
"3S    c #1D600A",
"3T    c #37AF12",
"3U    c #38AD11",
"3V    c #3BB312",
"3W    c #46BD15",
"3X    c #45B814",
"3Y    c #26650B",
"3Z    c #4CC916",
"3&    c #4AC115",
"4     c #24600B",
"40    c #47BC15",
"41    c #48BF15",
"42    c #35A711",
"43    c #31A111",
"44    c #0D2D05",
"45    c #247F0E",
"46    c #227C0F",
"47    c #298F10",
"48    c #154507",
"49    c #25760C",
"4a    c #39B112",
"4b    c #3BAF12",
"4c    c #3FB513",
"4d    c #47C115",
"4e    c #49C316",
"4f    c #4BC516",
"4g    c #4ECB17",
"4h    c #4CC316",
"4i    c #2B6F0C",
"4j    c #51CD18",
"4k    c #51CE18",
"4l    c #2A6B0D",
"4m    c #4EC917",
"4n    c #4FCC17",
"4o    c #37A911",
"4p    c #34A611",
"4q    c #195109",
"4r    c #206E0C",
"4s    c #237F10",
"4t    c #237D0F",
"4u    c #2A9010",
"4v    c #123B06",
"4w    c #329A11",
"4x    c #3CB313",
"4y    c #41B914",
"4z    c #41B413",
"4A    c #40AC12",
"4B    c #3EA212",
"4C    c #3C9C12",
"4D    c #3F9E12",
"4E    c #3D9A12",
"4F    c #317A0E",
"4G    c #173907",
"4H    c #388810",
"4I    c #357F0F",
"4J    c #122C05",
"4K    c #398B11",
"4L    c #3A8F10",
"4M    c #3C9612",
"4N    c #3BB313",
"4O    c #36A812",
"4P    c #20660B",
"4Q    c #195409",
"4R    c #258310",
"4S    c #237E0F",
"4T    c #2C9111",
"4U    c #0E2B05",
"4V    c #1F5F0A",
"4W    c #1B4F08",
"4X    c #173E07",
"4Y    c #184107",
"4Z    c #1D4B08",
"4&    c #28660C",
"5     c #30780E",
"50    c #35820F",
"51    c #2E6E0D",
"52    c #173507",
"53    c #419712",
"54    c #3F9312",
"55    c #3D8E11",
"56    c #3A8911",
"57    c #398910",
"58    c #368310",
"59    c #26610B",
"5a    c #27780D",
"5b    c #226C0C",
"5c    c #164909",
"5d    c #258410",
"5e    c #268410",
"5f    c #174909",
"5g    c #0D2805",
"5h    c #1E590A",
"5i    c #2D810E",
"5j    c #3DA512",
"5k    c #48BC15",
"5l    c #50CA17",
"5m    c #53CD18",
"5n    c #57D118",
"5o    c #5AD319",
"5p    c #5CD51A",
"5q    c #4BAF15",
"5r    c #33750F",
"5s    c #60D91B",
"5t    c #5FD81B",
"5u    c #5DD71A",
"5v    c #3CA212",
"5w    c #2B790D",
"5x    c #0B2104",
"5y    c #0D2A05",
"5z    c #288511",
"5A    c #0C2505",
"5B    c #1B5009",
"5C    c #38A112",
"5D    c #4EC616",
"5E    c #53CD17",
"5F    c #57D018",
"5G    c #5BD219",
"5H    c #4BA815",
"5I    c #34720F",
"5J    c #64DC1C",
"5K    c #60D31B",
"5L    c #5FD21B",
"5M    c #5DD01A",
"5N    c #5DD41A",
"5O    c #41B414",
"5P    c #349611",
"5Q    c #0F2E05",
"5R    c #164609",
"5S    c #267F10",
"5T    c #2D8D11",
"5U    c #1C540A",
"5V    c #1B4C09",
"5W    c #1A4608",
"5X    c #1C4808",
"5Y    c #255C0B",
"5Z    c #30740D",
"5&    c #3C8C11",
"6     c #46A013",
"60    c #4EAF16",
"61    c #57BF18",
"62    c #479C14",
"63    c #2F650D",
"64    c #65DA1B",
"65    c #5FCD1B",
"66    c #5CC619",
"67    c #5ECB1A",
"68    c #57C018",
"69    c #53B617",
"6a    c #4CAB15",
"6b    c #449B13",
"6c    c #3A8810",
"6d    c #24580A",
"6e    c #1A4408",
"6f    c #1B4908",
"6g    c #23680C",
"6h    c #2F9312",
"6i    c #278010",
"6j    c #2E8E11",
"6k    c #38A213",
"6l    c #3EAD14",
"6m    c #41AD14",
"6n    c #3E9D12",
"6o    c #337A0E",
"6p    c #306E0D",
"6q    c #306C0D",
"6r    c #316D0E",
"6s    c #35730F",
"6t    c #326A0D",
"6u    c #2C5D0C",
"6v    c #38750F",
"6w    c #3A7A10",
"6x    c #397910",
"6y    c #36740F",
"6z    c #32720E",
"6A    c #37820F",
"6B    c #3C9311",
"6C    c #41A613",
"6D    c #42B114",
"6E    c #288010",
"6F    c #2F8F11",
"6G    c #369B12",
"6H    c #3CA613",
"6I    c #44B214",
"6J    c #4CBE16",
"6K    c #54CA17",
"6L    c #5AD119",
"6M    c #5ED41A",
"6N    c #62D81B",
"6O    c #66DB1C",
"6P    c #69DD1C",
"6Q    c #6BDF1D",
"6R    c #6CE11D",
"6S    c #6CDE1D",
"6T    c #6FE21E",
"6U    c #6EE21E",
"6V    c #6ADD1C",
"6W    c #4BBE16",
"6X    c #287F10",
"6Y    c #2F8E11",
"6Z    c #369A12",
"6&    c #3DA613",
"7     c #45B014",
"70    c #4BB915",
"71    c #50C017",
"72    c #57C618",
"73    c #5BCA19",
"74    c #60CD1A",
"75    c #63D01B",
"76    c #64D31B",
"77    c #67D41C",
"78    c #69D51D",
"79    c #69D61D",
"7a    c #6AD61D",
"7b    c #5FCD1A",
"7c    c #277E10",
"7d    c #2F8C11",
"7e    c #369712",
"7f    c #3CA413",
"7g    c #43AD14",
"7h    c #4AB715",
"7i    c #50BD17",
"7j    c #56C218",
"7k    c #5AC619",
"7l    c #5DC91A",
"7m    c #62CC1B",
"7n    c #64CF1C",
"7o    c #65D11C",
"7p    c #67D21D",
"7q    c #68D31D",
"7r    c #69D31D",
"7s    c #61CC1B",
"7t    c #55C218",
"7u    c #267A10",
"7v    c #2D8911",
"7w    c #359312",
"7x    c #3C9F13",
"7y    c #42A814",
"7z    c #49B115",
"7A    c #4EB817",
"7B    c #54BE18",
"7C    c #58C119",
"7D    c #5BC41A",
"7E    c #60C71B",
"7F    c #62CA1C",
"7G    c #64CB1C",
"7H    c #65CD1D",
"7I    c #66CE1D",
"7J    c #67CF1D",
"7K    c #5FC71B",
"7L    c #53BE18",
"7M    c #48B115",
"7N    c #3B9F13",
"7O    c #2B8411",
"7P    c #328F12",
"7Q    c #399813",
"7R    c #3FA214",
"7S    c #45A915",
"7T    c #4BB117",
"7U    c #4FB518",
"7V    c #54B819",
"7W    c #58BC1A",
"7X    c #5BBD1B",
"7Y    c #5DBF1B",
"7Z    c #60C11C",
"7&    c #62C31D",
"8     c #63C31D",
"80    c #63C41D",
"81    c #53B819",
"82    c #297D11",
"83    c #2F8712",
"84    c #369013",
"85    c #3A9914",
"86    c #41A015",
"87    c #46A616",
"88    c #4BAB18",
"89    c #4EAD19",
"8a    c #51B11A",
"8b    c #54B31B",
"8c    c #56B51B",
"8d    c #58B71C",
"8e    c #5AB81C",
"8f    c #5BB91D",
"8g    c #5CB91D",
"8h    c #50B11A",
"8i    c #40A015",
"8j    c #359013",
"8k    c #287B11",
"8l    c #2B7F12",
"8m    c #318813",
"8n    c #368F14",
"8o    c #3B9515",
"8p    c #409A16",
"8q    c #449E17",
"8r    c #48A118",
"8s    c #4BA419",
"8t    c #4DA61A",
"8u    c #4EA71B",
"8v    c #50A91B",
"8w    c #52AA1C",
"8x    c #52AB1C",
"8y    c #53AB1C",
"8z    c #257B10",
"8A    c #277B11",
"8B    c #2A7D12",
"8C    c #2D7F13",
"8D    c #308214",
"8E    c #348815",
"8F    c #388D16",
"8G    c #3C9017",
"8H    c #3F9318",
"8I    c #429519",
"8J    c #44971A",
"8K    c #46991A",
"8L    c #479A1B",
"8M    c #499B1B",
"8N    c #499C1B",
"8O    c #4A9C1C",
"8P    c #419519",
"8Q    c #297D12",
"   0 0 1 1 2 3 4 4 4 4 4 4 4 5 5 5 5 4 4 4 4 4 4 4 3 2 1 0 0 0  ",
" 0 0 6 7 8 9 a b b b b b b b b b b b b b b b b b b a 9 8 7 6 0 0",
" c d e f g h i j j j j j j j j j j j j j j j j j j i h g f e d c",
" c k l m n o p p p q r s t u u u u u u v w x p p p p o n m y k c",
" z A B n C D E F G H I J K K L L L K K M N O P Q R E D C S B A z",
" T l U V W R X Y Z &0 000102020303040205060708090a X R W V U l T",
"0b b n0c0d0e0f0g0h0i0j0k0l0m0n0o0p0q0r0s0t0u0v0w0x0f0e0d0c n b0b",
"0y0z0A D0B0C0D0E0F0G0H0I0J0K0L0M0N0O0P0Q0R0S0T0U0V0D0C0B D0A0z0y",
"0y g0W0X0Y0Z0&1 101112131415161718191a1b1c1d1e1f1g0&0Z0Y0X0W g0y",
" e1h1i0X1j1k1l1m1n1o1p1q1r1s1t1u1v1w1x1y1z1A1B1C1D1E1k1j0X1i1h e",
"1F1G1H1I1J1K1m1L1M1N1O1P1Q1R1S1T1R1U1Q1V1W1X1Y1M1Z1&2 1J1I1H1G20",
"2122232425262728292a2b2c2d2e2f2g2h2i2g2j2k2l2a292m2n2o2p2q232221",
"2r2s2t2u2v2w1M2x2y2z2A2B2C2D2E2F2G2H2I2J2A2A2z2y2x2m2K2L2M2N2s2r",
"2O2P2Q2R2S2T2U2z2V2W2X2Y2Z2&3 30313233342Y2X2W2V2z2U2T3536372P2O",
"38393a2o3b3c2y3d3e343f3g3h3i3j3k3l3m3n3o3g3f343e3d2y3p3q3r3s3t38",
"3u3v3w3x3y3z3A3B3C3g3D3E3F3G3H3H3I3J3K3L3E3D3g3C3B3A3z3y3M3N3O3u",
"3P3Q3R3S3T3U3V3g3D3L3H3W3X3Y3Z3&3&4 40413W3H3L3D3g3V3U424344453P",
"464748494a4b4c3k4d4e4f4g4h4i4j4k4k4l4m4n4g4f4e4d3k4c4b4o4p4q4r4s",
"4t4u4v4w4x4y4z4A4B4C4D4E4F4G4H4I4I4J4K4L4M4D4C4B4A4z4y4N4O4P4Q4R",
"4S4T4U4V4W4X4Y4Z4&5 504H515253545455565758505 594Z4Y4X4W5a5b5c5d",
"5e5f5g5h5i5j5k5l5m5n5o5p5q5r5s5s5s5s5t5u5p5o5n5m5l5k5v5w5h5x5y5e",
"5z5A5B5C3F415D5E5F5o5G5t5H5I5J5K5K5K5L5M5N5G5o5F5E5D415O5P5Q5R5z",
"5S5T5U5V5W5X5Y5Z5&6 60616263646565666768696a6b6c5Z6d6e6f5V6g6h5S",
"6i6j6k6l6m6n4L6o6p6q6r6s6t6u6v6w6v6v6x6y6s6r6q6z6A6B6C6D6l6k6j6i",
"6E6F6G6H6I6J6K6L6M6N6O6P6Q6R6S6T6T6U6V6Q6P6O6N6M6L6K6W6I6H6G6F6E",
"6X6Y6Z6&7 707172737475767778797a7a79787776757b737271707 6&6Z6Y6X",
"7c7d7e7f7g7h7i7j7k7l7m7n7o7p7q7r7r7q7p7o7n7s7l7k7t7i7h7g7f7e7d7c",
"7u7v7w7x7y7z7A7B7C7D7E7F7G7H7I7J7J7I7H7G7F7K7D7C7L7A7M7y7N7w7v7u",
"7u7O7P7Q7R7S7T7U7V7W7X7Y7Z7&8 80808 7&7Z7Y7X7W817U7T7S7R7Q7P7O7u",
"7u82838485868788898a8b8c8d8e8f8g8g8f8e8d8c8b8h8988878i858j83827u",
"7u8k8l8m8n8o8p8q8r8s8t8u8v8w8x8y8y8x8w8v8u8t8s8r8q8p8o8n8m8l8k7u",
"8z8A8B8C8D8E8F8G8H8I8J8K8L8M8N8O8O8N8M8L8K8J8P8H8G8F8E8D8C8Q8A8z"};
