/* XPM */
static char *B15_xpm[]={
"32 32 719 2",
"      c #1A6F0B",
" 0    c #1A6E0B",
" 1    c #1B6E0B",
" 2    c #1C710B",
" 3    c #1D720B",
" 4    c #1D730B",
" 5    c #1E730B",
" 6    c #1B6F0B",
" 7    c #1F780B",
" 8    c #1F7B0B",
" 9    c #22840C",
" a    c #23860D",
" b    c #22840D",
" c    c #217E0C",
" d    c #21830C",
" e    c #1A6E0C",
" f    c #1A6F0C",
" g    c #1E750C",
" h    c #1F7B0C",
" i    c #22830C",
" j    c #23820C",
" k    c #103D06",
" l    c #071C02",
" m    c #0B2804",
" n    c #1B6209",
" o    c #27900D",
" p    c #25870C",
" q    c #258A0C",
" r    c #165307",
" s    c #081E03",
" t    c #092103",
" u    c #134707",
" v    c #23880D",
" w    c #207E0C",
" x    c #1C740C",
" y    c #207C0C",
" z    c #23850C",
" A    c #23840C",
" B    c #020601",
" C    c #0F3705",
" D    c #20750A",
" E    c #195E08",
" F    c #050D03",
" G    c #0E200A",
" H    c #50A83A",
" I    c #52A63B",
" J    c #50A23A",
" K    c #4EA138",
" L    c #4CA635",
" M    c #388F23",
" N    c #030A01",
" O    c #092003",
" P    c #1C6809",
" Q    c #1F720A",
" R    c #081F03",
" S    c #248A0D",
" T    c #1F7C0C",
" U    c #1B6E0C",
" V    c #1E780C",
" W    c #21800C",
" X    c #26900D",
" Y    c #061602",
" Z    c #134806",
" &    c #2B9E0D",
"0     c #3BA121",
"00    c #70BF5B",
"01    c #8ECC7E",
"02    c #33442F",
"03    c #121811",
"04    c #ABD99E",
"05    c #A0CB94",
"06    c #A1CC95",
"07    c #A2D096",
"08    c #96C48A",
"09    c #000000",
"0a    c #436938",
"0b    c #50B138",
"0c    c #2A9D0D",
"0d    c #2A9C0D",
"0e    c #299A0D",
"0f    c #081D02",
"0g    c #0D3505",
"0h    c #23890D",
"0i    c #1B720C",
"0j    c #238A0D",
"0k    c #1A6309",
"0l    c #020701",
"0m    c #2BA00D",
"0n    c #2A990C",
"0o    c #63B34D",
"0p    c #93C884",
"0q    c #AFD4A5",
"0r    c #CCE9C4",
"0s    c #363C35",
"0t    c #3B4139",
"0u    c #D8EED2",
"0v    c #CADFC5",
"0w    c #D5EDCF",
"0x    c #111310",
"0y    c #697B63",
"0z    c #A9DA9B",
"0A    c #76BB62",
"0B    c #369F19",
"0C    c #299A0C",
"0D    c #268E0C",
"0E    c #010300",
"0F    c #207D0C",
"0G    c #1C730C",
"0H    c #0A2703",
"0I    c #1A5F08",
"0J    c #2DA40D",
"0K    c #2C9D0D",
"0L    c #6DB957",
"0M    c #9CCC8E",
"0N    c #B9D9AF",
"0O    c #C9DFC2",
"0P    c #DAEDD4",
"0Q    c #A9B6A5",
"0R    c #D8E9D3",
"0S    c #D3E4CE",
"0T    c #E0F2DB",
"0U    c #6D776A",
"0V    c #20241F",
"0W    c #CCEAC3",
"0X    c #A8D29C",
"0Y    c #7FC06D",
"0Z    c #41A725",
"0&    c #2A9A0C",
"1     c #2B9F0D",
"10    c #0E3404",
"11    c #134907",
"12    c #22860D",
"13    c #1D750C",
"14    c #217F0C",
"15    c #258C0C",
"16    c #2B9C0D",
"17    c #2D9F0D",
"18    c #5FB546",
"19    c #8DC87C",
"1a    c #A9D39D",
"1b    c #CDEBC3",
"1c    c #81927B",
"1d    c #1F231E",
"1e    c #D1EDC8",
"1f    c #C4DEBB",
"1g    c #C9E4C0",
"1h    c #040504",
"1i    c #ACC7A3",
"1j    c #B5DBA9",
"1k    c #99CC89",
"1l    c #70BC5B",
"1m    c #33A415",
"1n    c #1D6C09",
"1o    c #0A2804",
"1p    c #23870D",
"1q    c #0C2B04",
"1r    c #2BA00E",
"1s    c #2EA00D",
"1t    c #42AB24",
"1u    c #6FBC58",
"1v    c #8CC87A",
"1w    c #9BCE8C",
"1x    c #A2D194",
"1y    c #ADDC9F",
"1z    c #171D15",
"1A    c #9BC58F",
"1B    c #A6D399",
"1C    c #AEDDA0",
"1D    c #6E8B64",
"1E    c #252F22",
"1F    c #A8DD98",
"1G    c #91CA80",
"1H    c #7AC165",
"1I    c #53B137",
"1J    c #2FA30D",
"1K    c #29990D",
"1L    c #23810C",
"1M    c #041002",
"1N    c #1E760C",
"1O    c #22830D",
"1P    c #1F740B",
"1Q    c #0D2E04",
"1R    c #2DA40E",
"1S    c #2D9D0D",
"1T    c #2FA10E",
"1U    c #30A40E",
"1V    c #4CAF2F",
"1W    c #68BB4F",
"1X    c #78C161",
"1Y    c #7FC46A",
"1Z    c #8BD375",
"1&    c #24361E",
"2     c #45673A",
"20    c #8CD376",
"21    c #83C66F",
"22    c #304828",
"23    c #4D7540",
"24    c #83D06C",
"25    c #70BD56",
"26    c #57B53B",
"27    c #32A50F",
"28    c #2A9A0D",
"29    c #268B0D",
"2a    c #071902",
"2b    c #217F0D",
"2c    c #1E760D",
"2d    c #23840D",
"2e    c #1F750B",
"2f    c #2EA50E",
"2g    c #2E9F0E",
"2h    c #30A30E",
"2i    c #32A60E",
"2j    c #33A70F",
"2k    c #48AF27",
"2l    c #58B63A",
"2m    c #60B943",
"2n    c #68C44A",
"2o    c #3C6F2A",
"2p    c #1B3313",
"2q    c #6BC84C",
"2r    c #64BB47",
"2s    c #101E0B",
"2t    c #529D3A",
"2u    c #5DBC3F",
"2v    c #50B230",
"2w    c #38AA16",
"2x    c #2B9B0D",
"2y    c #278F0D",
"2z    c #22800D",
"2A    c #1D760D",
"2B    c #1D770D",
"2C    c #22810D",
"2D    c #24840D",
"2E    c #2D9F0E",
"2F    c #2FA00E",
"2G    c #31A50F",
"2H    c #34A80F",
"2I    c #34A90F",
"2J    c #35AA0F",
"2K    c #42AE1D",
"2L    c #48B125",
"2M    c #4EB82A",
"2N    c #3E9022",
"2O    c #17350C",
"2P    c #53C02D",
"2Q    c #4EB42A",
"2R    c #50B82B",
"2S    c #091505",
"2T    c #46A725",
"2U    c #44B022",
"2V    c #39AC14",
"2W    c #33A80F",
"2X    c #247F0C",
"2Y    c #051302",
"2Z    c #23880E",
"2&    c #1E770D",
"3     c #23810D",
"30    c #27900E",
"31    c #040D01",
"32    c #2B930D",
"33    c #30A10F",
"34    c #34AA0F",
"35    c #35AB10",
"36    c #36AC10",
"37    c #38AD11",
"38    c #3DAF16",
"39    c #42B61A",
"3a    c #369216",
"3b    c #173D09",
"3c    c #47BE1C",
"3d    c #43B21A",
"3e    c #41AE1A",
"3f    c #102D06",
"3g    c #3FB017",
"3h    c #30A50F",
"3i    c #1E6C0A",
"3j    c #0B2904",
"3k    c #258A0E",
"3l    c #1F780D",
"3m    c #23820E",
"3n    c #2A960F",
"3o    c #0D2C04",
"3p    c #1E690A",
"3q    c #34AB10",
"3r    c #34A910",
"3s    c #37AD11",
"3t    c #39AE11",
"3u    c #3AAF11",
"3v    c #3BB012",
"3w    c #3EB613",
"3x    c #329310",
"3y    c #153D07",
"3z    c #42BF15",
"3A    c #3EB314",
"3B    c #3DAF13",
"3C    c #123405",
"3D    c #3CB112",
"3E    c #32A30F",
"3F    c #31A910",
"3G    c #103705",
"3H    c #154C08",
"3I    c #258B0F",
"3J    c #1F790E",
"3K    c #24830E",
"3L    c #1C610A",
"3M    c #040E01",
"3N    c #36B011",
"3O    c #36AB10",
"3P    c #38AE11",
"3Q    c #3AB011",
"3R    c #3DB212",
"3S    c #3EB413",
"3T    c #40B813",
"3U    c #34940F",
"3V    c #163E06",
"3W    c #45C214",
"3X    c #41B613",
"3Y    c #40B613",
"3Z    c #0D2504",
"3&    c #3DB012",
"4     c #33A510",
"40    c #30A40F",
"41    c #051202",
"42    c #25820D",
"43    c #20790E",
"44    c #25840E",
"45    c #298F0F",
"46    c #2FA010",
"47    c #030B01",
"48    c #2E910F",
"49    c #39B111",
"4a    c #3BB112",
"4b    c #3CB212",
"4c    c #41B714",
"4d    c #43BC14",
"4e    c #359410",
"4f    c #153B06",
"4g    c #48C615",
"4h    c #43BA14",
"4i    c #45BD14",
"4j    c #091903",
"4k    c #3DAB12",
"4l    c #37AC11",
"4m    c #39B312",
"4n    c #1D6009",
"4o    c #071802",
"4p    c #2C9910",
"4q    c #217A0E",
"4r    c #25850F",
"4s    c #2A900F",
"4t    c #32A411",
"4u    c #184B08",
"4v    c #123605",
"4w    c #3EBB13",
"4x    c #42B814",
"4y    c #43B914",
"4z    c #44BA15",
"4A    c #4AC516",
"4B    c #34890F",
"4C    c #153706",
"4D    c #4DCA16",
"4E    c #48BD15",
"4F    c #4BC616",
"4G    c #0B1E03",
"4H    c #3EA612",
"4I    c #46BE15",
"4J    c #3AAF12",
"4K    c #3BB512",
"4L    c #061302",
"4M    c #24770C",
"4N    c #2C9810",
"4O    c #227B0F",
"4P    c #26860F",
"4Q    c #2C9210",
"4R    c #319C10",
"4S    c #34A211",
"4T    c #010400",
"4U    c #3BA912",
"4V    c #45BB15",
"4W    c #47BC15",
"4X    c #49BE16",
"4Y    c #4EC917",
"4Z    c #2E760D",
"4&    c #183D07",
"5     c #51CE18",
"50    c #4CC116",
"51    c #51CD18",
"52    c #112B05",
"53    c #3FA212",
"54    c #4BC316",
"55    c #41BA14",
"56    c #2A7D0D",
"57    c #34A611",
"58    c #237C0F",
"59    c #27870F",
"5a    c #2E9310",
"5b    c #339D11",
"5c    c #3CB313",
"5d    c #133706",
"5e    c #184207",
"5f    c #49C515",
"5g    c #47BB15",
"5h    c #49BD16",
"5i    c #4CC016",
"5j    c #4DC116",
"5k    c #54D018",
"5l    c #24590B",
"5m    c #1D4809",
"5n    c #57D219",
"5o    c #52C517",
"5p    c #56D219",
"5q    c #122C05",
"5r    c #43A513",
"5s    c #4FC617",
"5t    c #44B914",
"5u    c #45C014",
"5v    c #0A1C03",
"5w    c #256F0C",
"5x    c #35A512",
"5y    c #237D0F",
"5z    c #298810",
"5A    c #2F9411",
"5B    c #349E11",
"5C    c #3AA912",
"5D    c #3EAC12",
"5E    c #46B814",
"5F    c #4ABE16",
"5G    c #4DC016",
"5H    c #50C316",
"5I    c #57D019",
"5J    c #367F10",
"5K    c #193A07",
"5L    c #5CD61A",
"5M    c #56C918",
"5N    c #5CD51A",
"5O    c #132D06",
"5P    c #46A714",
"5Q    c #54CA18",
"5R    c #49C015",
"5S    c #348D0F",
"5T    c #060F02",
"5U    c #247D0F",
"5V    c #2A8910",
"5W    c #319511",
"5X    c #36A012",
"5Y    c #3CAB13",
"5Z    c #46BD15",
"5&    c #153606",
"6     c #29670C",
"60    c #53CD18",
"61    c #52C416",
"62    c #54C617",
"63    c #56C818",
"64    c #5CD41A",
"65    c #419312",
"66    c #1A3C07",
"67    c #60D91B",
"68    c #5ACB19",
"69    c #5ED61B",
"6a    c #0E2004",
"6b    c #4BAF15",
"6c    c #58CD19",
"6d    c #4EC016",
"6e    c #50CA17",
"6f    c #122E05",
"6g    c #1F5409",
"6h    c #40B614",
"6i    c #309511",
"6j    c #257E10",
"6k    c #2C8A11",
"6l    c #329611",
"6m    c #38A112",
"6n    c #3EAC13",
"6o    c #378B0F",
"6p    c #122B05",
"6q    c #57D018",
"6r    c #57C918",
"6s    c #59CA19",
"6t    c #5BCB19",
"6u    c #55BB18",
"6v    c #183407",
"6w    c #62D91C",
"6x    c #5ECE1A",
"6y    c #59C519",
"6z    c #132A05",
"6A    c #52C316",
"6B    c #4CBC15",
"6C    c #061002",
"6D    c #42AF13",
"6E    c #339712",
"6F    c #39A213",
"6G    c #40AD14",
"6H    c #45B415",
"6I    c #4CBB16",
"6J    c #0D1F04",
"6K    c #53C117",
"6L    c #57C818",
"6M    c #5ACA19",
"6N    c #5DCC19",
"6O    c #64DA1C",
"6P    c #0B1803",
"6Q    c #59BF19",
"6R    c #66DC1D",
"6S    c #469713",
"6T    c #162F06",
"6U    c #64DC1C",
"6V    c #56CA18",
"6W    c #409A12",
"6X    c #0C1E03",
"6Y    c #4AC016",
"6Z    c #267F10",
"6&    c #2D8B11",
"7     c #349812",
"70    c #3AA213",
"71    c #41AD14",
"72    c #47B615",
"73    c #52C917",
"74    c #47A213",
"75    c #5BCF19",
"76    c #5CCB19",
"77    c #60CE1A",
"78    c #61D01A",
"79    c #6ADF1D",
"7a    c #204309",
"7b    c #428B12",
"7c    c #6BE11D",
"7d    c #1B3907",
"7e    c #2B5A0C",
"7f    c #68DE1C",
"7g    c #5FCE1A",
"7h    c #59CA18",
"7i    c #5CD319",
"7j    c #33780E",
"7k    c #215109",
"7l    c #4CC216",
"7m    c #277F10",
"7n    c #2E8C11",
"7o    c #3BA313",
"7p    c #43AE14",
"7q    c #49B615",
"7r    c #54CA17",
"7s    c #214C09",
"7t    c #409112",
"7u    c #5ED01A",
"7v    c #60CD1A",
"7w    c #62CF1A",
"7x    c #64D11B",
"7y    c #6CE11D",
"7z    c #3D7E11",
"7A    c #24490A",
"7B    c #6FE21E",
"7C    c #1C3A08",
"7D    c #58B718",
"7E    c #67D61C",
"7F    c #5CCA19",
"7G    c #5ED41A",
"7H    c #24540A",
"7I    c #29630B",
"7J    c #4DC216",
"7K    c #277E10",
"7L    c #2E8B11",
"7M    c #349712",
"7N    c #3CA313",
"7O    c #43AC14",
"7P    c #49B515",
"7Q    c #54C918",
"7R    c #295D0B",
"7S    c #377A0F",
"7T    c #64D61B",
"7U    c #61CB1A",
"7V    c #62CE1A",
"7W    c #65D01B",
"7X    c #6CDC1E",
"7Y    c #4B9914",
"7Z    c #214309",
"7&    c #6FE01E",
"8     c #2A560C",
"80    c #62C71B",
"81    c #5DC919",
"82    c #5FD31A",
"83    c #1B3E07",
"84    c #347D0F",
"85    c #4DBE16",
"86    c #267D10",
"87    c #2E8911",
"88    c #349412",
"89    c #3BA013",
"8a    c #42AA14",
"8b    c #48B315",
"8c    c #53C318",
"8d    c #34750E",
"8e    c #0E1F04",
"8f    c #61D21B",
"8g    c #60C81A",
"8h    c #61CA1B",
"8i    c #63CC1B",
"8j    c #6CDB1E",
"8k    c #468D13",
"8l    c #1E3D08",
"8m    c #6EDD1E",
"8n    c #204209",
"8o    c #5EC01A",
"8p    c #5FC81A",
"8q    c #5BC519",
"8r    c #5DCC1A",
"8s    c #071102",
"8t    c #46A514",
"8u    c #257910",
"8v    c #2C8611",
"8w    c #349012",
"8x    c #3B9C13",
"8y    c #41A514",
"8z    c #47AD15",
"8A    c #4CB416",
"8B    c #57C419",
"8C    c #020401",
"8D    c #4BA215",
"8E    c #64D01C",
"8F    c #60C61B",
"8G    c #61C71B",
"8H    c #6AD61E",
"8I    c #122505",
"8J    c #418212",
"8K    c #6CD81E",
"8L    c #1D3B08",
"8M    c #68D41D",
"8N    c #5DC31A",
"8O    c #5FCD1B",
"8P    c #2F670D",
"8Q    c #071002",
"8R    c #51C018",
"8S    c #46AD15",
"8T    c #3A9C13",
"8U    c #2A8111",
"8V    c #318C12",
"8W    c #389513",
"8X    c #3E9E14",
"8Y    c #43A615",
"8Z    c #49AD16",
"8&    c #53BD19",
"9     c #3A7F11",
"90    c #459014",
"91    c #61C81C",
"92    c #62C71D",
"93    c #254A0B",
"94    c #081102",
"95    c #67CD1E",
"96    c #63C51D",
"97    c #61BF1C",
"98    c #3C7911",
"99    c #5EC31C",
"9a    c #357110",
"9b    c #459D15",
"9c    c #4BB217",
"9d    c #287B11",
"9e    c #2E8412",
"9f    c #348E13",
"9g    c #399614",
"9h    c #409D15",
"9i    c #44A316",
"9j    c #49A817",
"9k    c #51B51A",
"9l    c #3A7E12",
"9m    c #070F02",
"9n    c #193408",
"9o    c #122506",
"9p    c #142906",
"9q    c #59B51C",
"9r    c #5CB91D",
"9s    c #5AB51C",
"9t    c #5EBE1E",
"9u    c #50A419",
"9v    c #0A1503",
"9w    c #173007",
"9x    c #112405",
"9y    c #0D1C04",
"9z    c #459B16",
"9A    c #4DB019",
"9B    c #3F9D15",
"9C    c #257710",
"9D    c #277911",
"9E    c #2A7D12",
"9F    c #308513",
"9G    c #348C14",
"9H    c #3A9215",
"9I    c #3F9716",
"9J    c #439B16",
"9K    c #469D17",
"9L    c #4DA81A",
"9M    c #50AD1B",
"9N    c #489918",
"9O    c #4B9E19",
"9P    c #56B21D",
"9Q    c #53AC1C",
"9R    c #52A81B",
"9S    c #51A81B",
"9T    c #53AB1C",
"9U    c #54B11C",
"9V    c #489B18",
"9W    c #4EAB1A",
"9X    c #48A118",
"9Y    c #257810",
"9Z    c #267A11",
"9&    c #297C12",
"a     c #2C7E13",
"a0    c #2F8014",
"a1    c #338615",
"a2    c #378B16",
"a3    c #3B8F16",
"a4    c #3E9117",
"a5    c #419318",
"a6    c #439519",
"a7    c #449719",
"a8    c #45981A",
"a9    c #47991A",
"aa    c #479A1A",
"ab    c #489A1B",
"ac    c #409318",
"ad    c #287C12",
"   0 0 1 1 2 3 4 4 4 4 4 4 4 5 5 5 5 4 4 4 4 4 4 4 3 2 1 0 0 0  ",
" 0 0 6 4 7 8 9 a a b c c c c c c c c c c c c c a a 9 d 7 4 6 0 0",
" e f g h i j k l m n o p p p p p p p p p p q o r s t u v w g f e",
" e x y z A B C D E F G H I J J J J J J K L M N O P Q R l S T x e",
" U V W X Y Z &0 00010203040506060605050708090a0b0c0d0e0f0g0h V U",
"0i y0j0k0l0m0n0o0p0q0r0s0t0u0v0v0v0v0v0w0x0y0z0A0B0n0C0D0E0F y0i",
"0G w X0H0I0J0K0L0M0N0O0P090Q0R0S0S0S0T0U0V0W0X0Y0Z0K0&1 1011120G",
"131415 N0D161718191a0N1b1c1d1e1f1f1f1g1h1i1j1k1l1m17160d1n1o1p13",
"1314 W1q1r0K1s1t1u1v1w1x1y1z1A1B1B1C1D1E1F1G1H1I1J1s0K1K1L1M1213",
"1N1O1P1Q1R1S1T1U1V1W1X1Y1Z1&2 2021202223242526271U1T1S28292a2b1N",
"2c2d2e1Q2f2g2h2i2j2k2l2m2n2o2p2q2r2q2s2t2u2v2w2j2i2h2g2x2y Y2z2A",
"2B2C2D m2E2F2G2H2I2J2K2L2M2N2O2P2Q2R2S2T2U2V2J2I2W2G2F2E2X2Y2Z2B",
"2&3 303132332j3435363738393a3b3c3d3e3f3g37373635342j333h3i3j3k2&",
"3l3m3n3o3p3q3r363s3t3u3v3w3x3y3z3A3B3C3D3v3u3t3s363r3E3F3G3H3I3l",
"3J3K3n3L3M3N3O3P3Q3D3R3S3T3U3V3W3X3Y3Z3&3S3R3D3Q3P354 4041423K3J",
"434445464748494a4b3S3Y4c4d4e4f4g4h4i4j4k4c3Y3S4b4a4l4m4n4o4p4443",
"4q4r4s4t4u4v4w3S3Y4x4y4z4A4B4C4D4E4F4G4H4I4y4x3Y3S4J4K4L4M4N4r4q",
"4O4P4Q4R4S4T4U3X4y4V4W4X4Y4Z4&5 50515253544W4V4y3X55564L574Q4P4O",
"58595a5b5c5d5e5f5g5h5i5j5k5l5m5n5o5p5q5r5s5i5h5g5t5u5v5w5x5a5958",
"5y5z5A5B5C5D4T5E5F5G5H5o5I5J5K5L5M5N5O5P5Q5H5G5F5R5S5T3S5B5A5z5y",
"5U5V5W5X5Y5Z5&6 606162636465666768696a6b6c62616d6e6f6g6h5X6i5V5U",
"6j6k6l6m6n4W6o6p6q626r6s6t6u6v6w6x6y6z6t6s6r626A6B6C6D6n6m6l6k6j",
"6j6k6E6F6G6H6I6J6K6L6M6N6x6O6P6Q6R6S6T6U6N6M6L6V6W6X6Y6G6F6E6k6j",
"6Z6&7 707172736J7475767778797a7b7c7d7e7f7g767h7i7j7k7l71707 6&6Z",
"7m7n7 7o7p7q7r7s7t7u7v7w7x7y7z7A7B7C7D7E7w7v7F7G7H7I7J7p7o7 7n7m",
"7K7L7M7N7O7P7Q7R7S7T7U7V7W7X7Y7Z7&8 807W7V7U81828384857O7N7M7L7K",
"868788898a8b8c8d8e8f8g8h8i8j8k8l8m8n8o8i8h8p8q8r8s8t8b8a89888786",
"8u8v8w8x8y8z8A8B8C8D8E8F8G8H8I8J8K8L7A8M8F8N8O8P8Q8R8S8y8T8w8v8u",
"8u8U8V8W8X8Y8Z8&9 099091929394959697099891999a099b9c8Y8X8W8V8U8u",
"8u9d9e9f9g9h9i9j9k9l9m9n9o9p9q9r9s9t9u9v9w9x9y9z9A9i9B9g9f9e9d8u",
"9C9D9E9F9G9H9I9J9K9L9M9N9O9P9Q9R9R9S9T9U9N9V9W9X9J9I9H9G9F9E9D9C",
"9Y9Z9&a a0a1a2a3a4a5a6a7a8a9aaababaaa9a8a7a6aca4a3a2a1a0a ad9Z9Y"};
