/* XPM */
static char *B16_xpm[]={
"32 32 589 2",
"      c #1C740C",
" 0    c #1D740C",
" 1    c #1E770C",
" 2    c #1F780C",
" 3    c #1F790C",
" 4    c #20790C",
" 5    c #1D750C",
" 6    c #1F7A0C",
" 7    c #217E0C",
" 8    c #21810C",
" 9    c #22820C",
" a    c #23840D",
" b    c #1C740D",
" c    c #1C750D",
" d    c #207C0D",
" e    c #21810D",
" f    c #23860D",
" g    c #25890D",
" h    c #268C0D",
" i    c #278E0D",
" j    c #1E7B0D",
" k    c #22820D",
" l    c #24880D",
" m    c #268E0D",
" n    c #27920D",
" o    c #29960D",
" p    c #399E20",
" q    c #49A631",
" r    c #50A93A",
" s    c #54AB3C",
" t    c #54AB3D",
" u    c #52AA3B",
" v    c #4CA735",
" w    c #3FA128",
" x    c #21820D",
" y    c #1D740D",
" z    c #207E0D",
" A    c #23870D",
" B    c #28940D",
" C    c #29980D",
" D    c #2A9C0D",
" E    c #3CA622",
" F    c #6FBD5A",
" G    c #8CCA7D",
" H    c #9DD28F",
" I    c #A5D598",
" J    c #A9D69C",
" K    c #AAD79D",
" L    c #A7D69A",
" M    c #A1D394",
" N    c #93CD84",
" O    c #7BC268",
" P    c #4FAF37",
" Q    c #2A9E0D",
" R    c #258E0D",
" S    c #1D780D",
" T    c #248A0D",
" U    c #27930D",
" V    c #29990D",
" W    c #2CA10D",
" X    c #69BD51",
" Y    c #9BD28B",
" Z    c #B9DFAE",
" &    c #CAE6C2",
"0     c #D2EACC",
"00    c #D4EBCF",
"01    c #D5EBD0",
"02    c #D2EACD",
"03    c #CEE8C6",
"04    c #C1E2B7",
"05    c #A7D799",
"06    c #7DC568",
"07    c #39A81B",
"08    c #1E790D",
"09    c #22840D",
"0a    c #28970D",
"0b    c #2A9D0D",
"0c    c #2CA20D",
"0d    c #2EA60E",
"0e    c #73C35C",
"0f    c #A4D796",
"0g    c #C3E4B9",
"0h    c #D3EBCD",
"0i    c #DAEED4",
"0j    c #DDEFD8",
"0k    c #DEF0D9",
"0l    c #DCEFD6",
"0m    c #D6ECD1",
"0n    c #CAE7C1",
"0o    c #B1DDA4",
"0p    c #85CB73",
"0q    c #44B028",
"0r    c #1F7B0D",
"0s    c #23850D",
"0t    c #26900D",
"0u    c #2BA00E",
"0v    c #2DA40E",
"0w    c #2FA80E",
"0x    c #64BF4A",
"0y    c #94D282",
"0z    c #B2DEA5",
"0A    c #C3E5B9",
"0B    c #CBE8C1",
"0C    c #CEE9C5",
"0D    c #CFEAC6",
"0E    c #D1EDC8",
"0F    c #CCE9C3",
"0G    c #C7E6BD",
"0H    c #BAE1AE",
"0I    c #A1D790",
"0J    c #77C760",
"0K    c #35AD16",
"0L    c #26900E",
"0M    c #2A990E",
"0N    c #2BA10E",
"0O    c #2EA50E",
"0P    c #30A90E",
"0Q    c #45B426",
"0R    c #75C75D",
"0S    c #93D280",
"0T    c #A3D993",
"0U    c #ADDF9E",
"0V    c #B0E0A2",
"0W    c #B1E1A3",
"0X    c #97C08B",
"0Y    c #86AA7B",
"0Z    c #82A678",
"0&    c #90B885",
"1     c #AFDDA0",
"10    c #AFE0A0",
"11    c #A8DD98",
"12    c #9BD889",
"13    c #80CC6B",
"14    c #58BB3A",
"15    c #31AC0E",
"16    c #23860E",
"17    c #27910E",
"18    c #2CA20E",
"19    c #2FA60E",
"1a    c #31AA0F",
"1b    c #32AD0F",
"1c    c #50B931",
"1d    c #6FC754",
"1e    c #7ECC66",
"1f    c #5D8F4D",
"1g    c #3A5931",
"1h    c #000000",
"1i    c #3D5C33",
"1j    c #4A703E",
"1k    c #131C10",
"1l    c #1F301A",
"1m    c #598E4A",
"1n    c #6EBB55",
"1o    c #5DC13F",
"1p    c #35B010",
"1q    c #207C0E",
"1r    c #24870E",
"1s    c #27920E",
"1t    c #2A9A0E",
"1u    c #2DA30E",
"1v    c #30A80F",
"1w    c #32AC0F",
"1x    c #35B10F",
"1y    c #36B210",
"1z    c #2F721A",
"1A    c #14280D",
"1B    c #305D22",
"1C    c #060B04",
"1D    c #417A2E",
"1E    c #6BC84C",
"1F    c #549E3C",
"1G    c #040803",
"1H    c #1D3B14",
"1I    c #18360F",
"1J    c #1C530B",
"1K    c #33A90F",
"1L    c #1F7C0E",
"1M    c #1F7D0E",
"1N    c #24880E",
"1O    c #28920E",
"1P    c #2B9B0F",
"1Q    c #2EA40F",
"1R    c #31A90F",
"1S    c #34B010",
"1T    c #31A00E",
"1U    c #0E2C04",
"1V    c #194F07",
"1W    c #44B31E",
"1X    c #1E4B10",
"1Y    c #37821E",
"1Z    c #53C02D",
"1&    c #52BE2C",
"2     c #4AB127",
"20    c #16390B",
"21    c #3AAE14",
"22    c #236E0A",
"23    c #0D2904",
"24    c #216D0A",
"25    c #32AB0F",
"26    c #207D0E",
"27    c #25880E",
"28    c #29940F",
"29    c #2B9D0F",
"2a    c #31A80F",
"2b    c #33AC10",
"2c    c #23720A",
"2d    c #29830C",
"2e    c #3AB811",
"2f    c #31970F",
"2g    c #194709",
"2h    c #45BD1B",
"2i    c #45BC1C",
"2j    c #46BC1C",
"2k    c #45BC1B",
"2l    c #43BC19",
"2m    c #236C0B",
"2n    c #21660A",
"2o    c #36AD10",
"2p    c #144106",
"2q    c #123D05",
"2r    c #2F9F0F",
"2s    c #217E0E",
"2t    c #25890F",
"2u    c #2A960F",
"2v    c #2EA00F",
"2w    c #2D9C0F",
"2x    c #144206",
"2y    c #123A05",
"2z    c #37AF10",
"2A    c #3BB912",
"2B    c #3DBA12",
"2C    c #27750B",
"2D    c #29790C",
"2E    c #41BD14",
"2F    c #40BD15",
"2G    c #41BD15",
"2H    c #40BC14",
"2I    c #40BD13",
"2J    c #36A110",
"2K    c #123605",
"2L    c #24740B",
"2M    c #0C2804",
"2N    c #1D6309",
"2O    c #217E0F",
"2P    c #268C0F",
"2Q    c #26880D",
"2R    c #185308",
"2S    c #0C2A04",
"2T    c #226E0B",
"2U    c #3AB611",
"2V    c #3CBA12",
"2W    c #256C0B",
"2X    c #2E870E",
"2Y    c #43C014",
"2Z    c #43BF14",
"2&    c #44C014",
"3     c #42BE14",
"30    c #3DB213",
"31    c #113305",
"32    c #3BB812",
"33    c #39B611",
"34    c #34AA10",
"35    c #134106",
"36    c #0E3105",
"37    c #1D680A",
"38    c #22800F",
"39    c #23800E",
"3a    c #1F690A",
"3b    c #34AD11",
"3c    c #39B312",
"3d    c #3AB612",
"3e    c #3EBB13",
"3f    c #3FBC13",
"3g    c #42C014",
"3h    c #2A790C",
"3i    c #2A770D",
"3j    c #46C415",
"3k    c #46C315",
"3l    c #47C315",
"3m    c #47C415",
"3n    c #389F11",
"3o    c #153B06",
"3p    c #2FA110",
"3q    c #081A03",
"3r    c #1B600A",
"3s    c #237F0F",
"3t    c #288C10",
"3u    c #1A5809",
"3v    c #0C2904",
"3w    c #1D5D0A",
"3x    c #3BB512",
"3y    c #41BE14",
"3z    c #3EA812",
"3A    c #194408",
"3B    c #4BC816",
"3C    c #4BC716",
"3D    c #4CC816",
"3E    c #27690C",
"3F    c #2C780D",
"3G    c #3DB913",
"3H    c #2D8F0F",
"3I    c #0F3205",
"3J    c #113B06",
"3K    c #24810F",
"3L    c #23810F",
"3M    c #248010",
"3N    c #298D10",
"3O    c #2F9C11",
"3P    c #319E10",
"3Q    c #1E5E0A",
"3R    c #0E2A04",
"3S    c #318B0F",
"3T    c #45C214",
"3U    c #49C516",
"3V    c #4CC916",
"3W    c #1F5009",
"3X    c #2A6C0C",
"3Y    c #50CD17",
"3Z    c #50CB18",
"3&    c #50CC18",
"4     c #3FA212",
"40    c #122E05",
"41    c #42BD14",
"42    c #1A4D08",
"43    c #113505",
"44    c #277E0D",
"45    c #298F10",
"46    c #258110",
"47    c #2A8E10",
"48    c #309B11",
"49    c #36A812",
"4a    c #3CB313",
"4b    c #39A111",
"4c    c #143706",
"4d    c #205609",
"4e    c #4ECA17",
"4f    c #50CB17",
"4g    c #52CE18",
"4h    c #1B4308",
"4i    c #255B0B",
"4j    c #52C718",
"4k    c #57D219",
"4l    c #56D219",
"4m    c #358210",
"4n    c #102705",
"4o    c #44AB14",
"4p    c #51CD17",
"4q    c #379510",
"4r    c #102C05",
"4s    c #24660B",
"4t    c #3BB313",
"4u    c #258210",
"4v    c #2B8F11",
"4w    c #319C12",
"4x    c #37A712",
"4y    c #44BB14",
"4z    c #48C215",
"4A    c #25620B",
"4B    c #143206",
"4C    c #409F13",
"4D    c #55D018",
"4E    c #58D319",
"4F    c #32750E",
"4G    c #1F4909",
"4H    c #285D0B",
"4I    c #214D09",
"4J    c #25590B",
"4K    c #50C017",
"4L    c #4CBE16",
"4M    c #21550A",
"4N    c #163906",
"4O    c #3CA111",
"4P    c #36A712",
"4Q    c #268210",
"4R    c #2C9011",
"4S    c #339D12",
"4T    c #39A913",
"4U    c #3FB414",
"4V    c #45BB15",
"4W    c #4AC216",
"4X    c #50CA17",
"4Y    c #44A714",
"4Z    c #173806",
"4&    c #24540A",
"5     c #46A114",
"50    c #5DD71A",
"51    c #5FD81B",
"52    c #60D91B",
"53    c #59C919",
"54    c #57C519",
"55    c #50B917",
"56    c #2E6C0D",
"57    c #2F750E",
"58    c #4BC416",
"59    c #329D12",
"5a    c #288311",
"5b    c #2E9112",
"5c    c #349E12",
"5d    c #3BAA13",
"5e    c #41B614",
"5f    c #47BD15",
"5g    c #4DC416",
"5h    c #52CB17",
"5i    c #57D018",
"5j    c #5AD319",
"5k    c #46A214",
"5l    c #1D4108",
"5m    c #1D4208",
"5n    c #37790F",
"5o    c #469A14",
"5p    c #50AF16",
"5q    c #53B717",
"5r    c #4AA215",
"5s    c #3C8511",
"5t    c #25530A",
"5u    c #163106",
"5v    c #398210",
"5w    c #59D119",
"5x    c #359F13",
"5y    c #3CAB14",
"5z    c #43B715",
"5A    c #49BE16",
"5B    c #50C617",
"5C    c #54CC18",
"5D    c #59D019",
"5E    c #5CD21A",
"5F    c #60D81B",
"5G    c #63DA1B",
"5H    c #59C519",
"5I    c #469713",
"5J    c #3C8210",
"5K    c #336D0E",
"5L    c #316A0E",
"5M    c #397B0F",
"5N    c #408A11",
"5O    c #58D019",
"5P    c #298411",
"5Q    c #2F9212",
"5R    c #37A013",
"5S    c #3DAB14",
"5T    c #44B715",
"5U    c #4BC016",
"5V    c #51C717",
"5W    c #57CE18",
"5X    c #5BD119",
"5Y    c #5ED41A",
"5Z    c #61D61B",
"5&    c #65D91C",
"6     c #68DE1C",
"60    c #6ADF1D",
"61    c #6BE01D",
"62    c #6BE11D",
"63    c #64D91C",
"64    c #2A8411",
"65    c #309312",
"66    c #3EAC14",
"67    c #46B815",
"68    c #4DC016",
"69    c #53C817",
"6a    c #59CF19",
"6b    c #5DD21A",
"6c    c #61D51B",
"6d    c #65D81C",
"6e    c #68DA1C",
"6f    c #6ADC1D",
"6g    c #6BDE1D",
"6h    c #6DDF1E",
"6i    c #6EDF1E",
"6j    c #4CC016",
"6k    c #2A8311",
"6l    c #309212",
"6m    c #379F13",
"6n    c #3FAC14",
"6o    c #47B615",
"6p    c #4DBF16",
"6q    c #53C718",
"6r    c #5ACD19",
"6s    c #5ED11A",
"6t    c #63D31B",
"6u    c #66D61C",
"6v    c #68D91C",
"6w    c #6BDB1D",
"6x    c #6DDC1E",
"6y    c #6DDD1E",
"6z    c #6EDD1E",
"6A    c #62D31B",
"6B    c #298211",
"6C    c #309012",
"6D    c #379C13",
"6E    c #3EA914",
"6F    c #45B315",
"6G    c #4CBD16",
"6H    c #53C418",
"6I    c #5DCD1A",
"6J    c #60D01B",
"6K    c #65D21C",
"6L    c #67D51D",
"6M    c #69D71D",
"6N    c #6BD81E",
"6O    c #6CD91E",
"6P    c #6DDA1E",
"6Q    c #64D21C",
"6R    c #58C919",
"6S    c #287E11",
"6T    c #2E8D12",
"6U    c #369813",
"6V    c #3EA414",
"6W    c #44AE15",
"6X    c #4BB716",
"6Y    c #50BE18",
"6Z    c #5BC81A",
"6&    c #5ECB1B",
"7     c #63CE1C",
"70    c #65D11D",
"71    c #67D21D",
"72    c #69D31E",
"73    c #6AD41E",
"74    c #6BD51E",
"75    c #62CE1C",
"76    c #56C519",
"77    c #4AB716",
"78    c #3DA414",
"79    c #2C8812",
"7a    c #339313",
"7b    c #3B9D14",
"7c    c #41A715",
"7d    c #47AF16",
"7e    c #4DB718",
"7f    c #52BB19",
"7g    c #57BE1A",
"7h    c #5BC21B",
"7i    c #5EC41C",
"7j    c #60C61C",
"7k    c #63C81D",
"7l    c #65CA1E",
"7m    c #66CA1E",
"7n    c #66CB1E",
"7o    c #56BE1A",
"7p    c #2A8112",
"7q    c #308B13",
"7r    c #379514",
"7s    c #3C9E15",
"7t    c #43A516",
"7u    c #48AC17",
"7v    c #4DB119",
"7w    c #50B31A",
"7x    c #54B71B",
"7y    c #57B91C",
"7z    c #59BB1C",
"7A    c #5BBD1D",
"7B    c #5DBE1D",
"7C    c #5EBF1E",
"7D    c #5FBF1E",
"7E    c #53B71B",
"7F    c #42A516",
"7G    c #369514",
"7H    c #2A7F12",
"7I    c #2C8313",
"7J    c #328C14",
"7K    c #379315",
"7L    c #3D9A16",
"7M    c #429F17",
"7N    c #46A318",
"7O    c #4AA619",
"7P    c #4DA91A",
"7Q    c #4FAB1B",
"7R    c #51AD1C",
"7S    c #53AF1C",
"7T    c #55B01D",
"7U    c #55B11D",
"7V    c #56B11D",
"7W    c #277E11",
"7X    c #297F12",
"7Y    c #2B8113",
"7Z    c #2E8314",
"7&    c #318615",
"8     c #358C16",
"80    c #3A9117",
"81    c #3E9518",
"82    c #419819",
"83    c #449A1A",
"84    c #469C1B",
"85    c #489E1B",
"86    c #499F1C",
"87    c #4BA01C",
"88    c #4BA11C",
"89    c #4CA11D",
"8a    c #439A1A",
"8b    c #2A8113",
"       0 0 1 2 3 3 3 3 3 3 3 4 4 4 4 3 3 3 3 3 3 3 2 1 0        ",
"     5 6 7 8 9 a a a a a a a a a a a a a a a a a a 9 8 7 6 5    ",
" b c d e f g h i i i i i i i i i i i i i i i i i i h g f e d c b",
" b j k l m n o o o p q r s t t t t t t u v w o o o o n m l x j b",
" y z A m B C D E F G H I J J K K K J J L M N O P Q D C B R A z y",
" S k T U V Q W X Y Z &0 00010101010101020304050607 W Q V U T k S",
"0809 m0a0b0c0d0e0f0g0h0i0j0k0k0k0k0k0j0l0m0n0o0p0q0d0c0b0a m0908",
"0r0s0t C0u0v0w0x0y0z0A0B0C0D0E0E0E0E0D0F0G0H0I0J0K0w0v0u C0t0s0r",
"0r f0L0M0N0O0P0Q0R0S0T0U0V0W0X0Y0Z0&1 1011121314150P0O0N0M0L f0r",
" d16170M18191a1b1c1d1e1f1g1h1h1i1j1k1h1l1m1n1o1p1b1a19180M1716 d",
"1q1r1s1t1u1v1w1x1y1z1A1B1C1D1E1E1E1E1F1G1H1I1J1K1x1w1v1u1t1s1r1L",
"1M1N1O1P1Q1R1S1T1U1V1W1X1Y1Z1&1&1&1&1Z2 20212223241S251Q1P1O1N1M",
"262728292a2b2c232d2e2f2g2h2i2j2j2j2j2k2l2m2n2e2o2p2q2r2a29282726",
"2s2t2u2v2w2x2y2z2A2B2C2D2E2F2G2G2G2G2H2I2J2K2B2A2e2L2M2N2v2u2t2s",
"2O2P2Q2R2S2T2U2V2B2I2W2X2Y2Z2Y2&2&2Y2Z3 30312I2B3233343536372P2O",
"38391h3a3b3c3d3e3f3g3h3i3j3k3l3m3m3l3k3j3n3o3g3f3e3d3c3b3p3q3r38",
"3s3t3u3v3w3x3e3y2Y3j3z3A3B3C3C3D3D3C3C3B3E3F3j2Y3y3G3x3H3I3J3K3L",
"3M3N3O3P3Q3R3S3T3l3U3V3W3X3Y3Z3&3&3Z3Y4 403C3U3l3T414243443O453M",
"464748494a4b4c4d3D4e4f4g4h4i4j4k4k4l4m4n4o4p4e3D4q4r4s4t49484746",
"4u4v4w4x304y4z4A4B4C4D4k4E4F4G4H4H4I4J4K4k4D4L4M4N4O4y304P4w4v4u",
"4Q4R4S4T4U4V4W4X4Y4Z4&5 505152535452515055564Z574X584V4U4T594R4Q",
"5a5b5c5d5e5f5g5h5i5j5k5l5m5n5o5p5q5r5s5t5u5v5w5i5h5g5f5e5d5c5b5a",
"5a5b5x5y5z5A5B5C5D5E5F5G5H5I5J5K5L5M5N5q5G5F5E5O5C5B5A5z5y5x5b5a",
"5P5Q5R5S5T5U5V5W5X5Y5Z5&6 6061626261606 635Z5Y5X5W5V5U5T5S5R5Q5P",
"64655R666768696a6b6c6d6e6f6g6h6i6i6h6g6f6e6d6c6b6a696j67665R6564",
"6k6l6m6n6o6p6q6r6s6t6u6v6w6x6y6z6z6y6x6w6v6u6A6s6r6q6p6o6n6m6l6k",
"6B6C6D6E6F6G6H536I6J6K6L6M6N6O6P6P6O6N6M6L6Q6J6I6R6H6G6F6E6D6C6B",
"6S6T6U6V6W6X6Y546Z6&7 70717273747473727170756&6Z766Y776W786U6T6S",
"6S797a7b7c7d7e7f7g7h7i7j7k7l7m7n7n7m7l7k7j7i7h7o7f7e7d7c7b7a796S",
"6S7p7q7r7s7t7u7v7w7x7y7z7A7B7C7D7D7C7B7A7z7y7E7w7v7u7F7s7G7q7p6S",
"6S7H7I7J7K7L7M7N7O7P7Q7R7S7T7U7V7V7U7T7S7R7Q7P7O7N7M7L7K7J7I7H6S",
"7W7X7Y7Z7&8 808182838485868788898988878685848a8281808 7&7Z8b7X7W"};
