/* XPM */
static char *B17_xpm[]={
"32 32 643 2",
"      c #1A680B",
" 0    c #1A690B",
" 1    c #1A6B0B",
" 2    c #1C6D0C",
" 3    c #1C6F0C",
" 4    c #1C700C",
" 5    c #1A6A0B",
" 6    c #1C700B",
" 7    c #1D730C",
" 8    c #1E780C",
" 9    c #1F7A0C",
" a    c #207C0C",
" b    c #217C0C",
" c    c #1E7909",
" d    c #033F03",
" e    c #045C04",
" f    c #19680B",
" g    c #1C710C",
" h    c #1E770C",
" i    c #217E0C",
" j    c #21820C",
" k    c #22850C",
" l    c #24870C",
" m    c #25880C",
" n    c #045A04",
" o    c #042D04",
" p    c #042604",
" q    c #020202",
" r    c #030303",
" s    c #031703",
" t    c #1B700B",
" u    c #217F0C",
" v    c #22860C",
" w    c #258C0C",
" x    c #278F0C",
" y    c #27910C",
" z    c #228C07",
" A    c #329318",
" B    c #022702",
" C    c #033E03",
" D    c #045803",
" E    c #116504",
" F    c #51A63C",
" G    c #022B02",
" H    c #237A0E",
" I    c #4BA334",
" J    c #3E9D25",
" K    c #1C740C",
" L    c #207F0C",
" M    c #22870C",
" N    c #258E0C",
" O    c #27930C",
" P    c #29970C",
" Q    c #3CA120",
" R    c #56A343",
" S    c #000000",
" T    c #010501",
" U    c #1D4C11",
" V    c #67935B",
" W    c #A6D29A",
" X    c #A3D098",
" Y    c #87B47C",
" Z    c #85B27A",
" &    c #6F9C64",
"0     c #18450C",
"00    c #A3D198",
"01    c #9ECF91",
"02    c #8FCA81",
"03    c #78BD65",
"04    c #4DAA36",
"05    c #29990C",
"06    c #1A6C0B",
"07    c #1D780C",
"08    c #248C0C",
"09    c #2B9F0D",
"0a    c #67BA50",
"0b    c #99D08A",
"0c    c #A3CA9A",
"0d    c #9AB692",
"0e    c #283F21",
"0f    c #AAC0A3",
"0g    c #D4E9CD",
"0h    c #869C7F",
"0i    c #22381B",
"0j    c #586E51",
"0k    c #3B5034",
"0l    c #43593D",
"0m    c #D1E8CA",
"0n    c #CBE5C4",
"0o    c #BEE0B5",
"0p    c #A4D599",
"0q    c #7BC266",
"0r    c #39A41B",
"0s    c #1A6E0C",
"0t    c #1F7B0C",
"0u    c #21860C",
"0v    c #27910D",
"0w    c #2A990D",
"0x    c #2BA00D",
"0y    c #2EA30D",
"0z    c #72C15B",
"0A    c #A3D796",
"0B    c #C1E3B9",
"0C    c #4D6545",
"0D    c #BDD0B7",
"0E    c #DEEFD8",
"0F    c #AABBA5",
"0G    c #6D7E69",
"0H    c #DDEED8",
"0I    c #DEEFD9",
"0J    c #DAEBD4",
"0K    c #DCEED6",
"0L    c #D6ECCF",
"0M    c #C9E7C0",
"0N    c #B1DDA4",
"0O    c #85CB72",
"0P    c #45AF26",
"0Q    c #1B700C",
"0R    c #207C0D",
"0S    c #23880D",
"0T    c #28930D",
"0U    c #2A9C0D",
"0V    c #2DA20D",
"0W    c #044A04",
"0X    c #4CA732",
"0Y    c #96D484",
"0Z    c #6C985F",
"0&    c #507448",
"1     c #CBE8C2",
"10    c #B1CEA9",
"11    c #425E3A",
"12    c #CCE7C4",
"13    c #CFEAC7",
"14    c #CDE9C4",
"15    c #C7E8BF",
"16    c #BAE2AF",
"17    c #A1D992",
"18    c #79C761",
"19    c #37AC15",
"1a    c #2EA70E",
"1b    c #1B710C",
"1c    c #207E0D",
"1d    c #24890D",
"1e    c #28940D",
"1f    c #2A9D0D",
"1g    c #2EA40E",
"1h    c #032B03",
"1i    c #76C85E",
"1j    c #044502",
"1k    c #8BC37D",
"1l    c #ACDE9D",
"1m    c #3B6B2C",
"1n    c #6F9C5F",
"1o    c #B1DFA1",
"1p    c #B0DFA0",
"1q    c #9ECF8F",
"1r    c #7CB16D",
"1s    c #9BD788",
"1t    c #81CD6C",
"1u    c #58BD3D",
"1v    c #32AC0F",
"1w    c #30A90F",
"1x    c #217E0D",
"1y    c #258A0D",
"1z    c #29950D",
"1A    c #2C9F0E",
"1B    c #2FA50E",
"1C    c #030B03",
"1D    c #030503",
"1E    c #117A06",
"1F    c #035A03",
"1G    c #80CE68",
"1H    c #6DB756",
"1I    c #034703",
"1J    c #8CD375",
"1K    c #8DD475",
"1L    c #8CD374",
"1M    c #5CA445",
"1N    c #010101",
"1O    c #489C2E",
"1P    c #5DC13F",
"1Q    c #34AF10",
"1R    c #32AE0F",
"1S    c #31AB0F",
"1T    c #28950D",
"1U    c #207F0D",
"1V    c #268B0E",
"1W    c #29960E",
"1X    c #2CA00E",
"1Y    c #31A70E",
"1Z    c #053205",
"1&    c #042304",
"2     c #40AE1D",
"20    c #5DC23E",
"21    c #044B04",
"22    c #238006",
"23    c #6BC84C",
"24    c #6CC84C",
"25    c #6AC84C",
"26    c #349215",
"27    c #044704",
"28    c #065B06",
"29    c #087808",
"2a    c #36B110",
"2b    c #33B00F",
"2c    c #1C720C",
"2d    c #22800E",
"2e    c #268C0E",
"2f    c #2A970E",
"2g    c #2DA10E",
"2h    c #31A80E",
"2i    c #053105",
"2j    c #065506",
"2k    c #39B511",
"2l    c #43B71C",
"2m    c #053405",
"2n    c #3FAE1A",
"2o    c #53C12D",
"2p    c #54C12D",
"2q    c #198808",
"2r    c #054505",
"2s    c #3DB715",
"2t    c #064406",
"2u    c #087508",
"2v    c #34B210",
"2w    c #33AE10",
"2x    c #1E730E",
"2y    c #22810E",
"2z    c #268D0E",
"2A    c #2B980E",
"2B    c #2FA20E",
"2C    c #32A90F",
"2D    c #041304",
"2E    c #075C07",
"2F    c #097509",
"2G    c #2FAC0B",
"2H    c #052A05",
"2I    c #46BD1C",
"2J    c #47BD1D",
"2K    c #0D860A",
"2L    c #064006",
"2M    c #3CB912",
"2N    c #3AB711",
"2O    c #064606",
"2P    c #087608",
"2Q    c #34B010",
"2R    c #1F740E",
"2S    c #278E0E",
"2T    c #2C980E",
"2U    c #2FA40F",
"2V    c #2FA60C",
"2W    c #075A07",
"2X    c #052905",
"2Y    c #219D0B",
"2Z    c #063A06",
"2&    c #096B09",
"3     c #062906",
"30    c #063006",
"31    c #095B09",
"32    c #095C09",
"33    c #096009",
"34    c #062E06",
"35    c #074107",
"36    c #3EBB13",
"37    c #3DBB13",
"38    c #3CB812",
"39    c #074A07",
"3a    c #087008",
"3b    c #33AA0F",
"3c    c #1F750E",
"3d    c #23820E",
"3e    c #288F0E",
"3f    c #2D9B0F",
"3g    c #30A40F",
"3h    c #35AD10",
"3i    c #3AB512",
"3j    c #3CBA13",
"3k    c #24A10C",
"3l    c #43C014",
"3m    c #3BB80E",
"3n    c #0B770B",
"3o    c #0A750A",
"3p    c #0B760B",
"3q    c #0B750B",
"3r    c #0A710A",
"3s    c #2BA80E",
"3t    c #41BE13",
"3u    c #40BD13",
"3v    c #074907",
"3w    c #086A08",
"3x    c #20760D",
"3y    c #24830E",
"3z    c #298F0F",
"3A    c #2D9C0F",
"3B    c #33A710",
"3C    c #38AF11",
"3D    c #3BB713",
"3E    c #3EBC13",
"3F    c #32B00E",
"3G    c #062A06",
"3H    c #45C315",
"3I    c #46C415",
"3J    c #47C516",
"3K    c #48C516",
"3L    c #48C616",
"3M    c #44C214",
"3N    c #42C014",
"3O    c #074C07",
"3P    c #086708",
"3Q    c #21770D",
"3R    c #25840F",
"3S    c #2A910F",
"3T    c #309E10",
"3U    c #35A911",
"3V    c #3BB112",
"3W    c #3EBA13",
"3X    c #41BF14",
"3Y    c #44C114",
"3Z    c #084308",
"3&    c #1E9B0E",
"4     c #49C616",
"40    c #4CC817",
"41    c #4CC917",
"42    c #4DC917",
"43    c #4DCA17",
"44    c #0A7F0A",
"45    c #22770E",
"46    c #26850F",
"47    c #2B9210",
"48    c #33A011",
"49    c #38AB12",
"4a    c #37AE0D",
"4b    c #0C840C",
"4c    c #44C115",
"4d    c #128D0D",
"4e    c #4FCB18",
"4f    c #4FCC18",
"4g    c #51CD18",
"4h    c #51CE18",
"4i    c #4AC716",
"4j    c #49C416",
"4k    c #128C0C",
"4l    c #073F07",
"4m    c #32A50C",
"4n    c #22780E",
"4o    c #288610",
"4p    c #2D9411",
"4q    c #34A212",
"4r    c #3AAD12",
"4s    c #3FB613",
"4t    c #040604",
"4u    c #040804",
"4v    c #3CB712",
"4w    c #209D0F",
"4x    c #050B05",
"4y    c #093D09",
"4z    c #093B09",
"4A    c #093C09",
"4B    c #093E09",
"4C    c #072207",
"4D    c #0D730D",
"4E    c #50CD18",
"4F    c #4FCA18",
"4G    c #4DC717",
"4H    c #18930E",
"4I    c #094809",
"4J    c #3AB00E",
"4K    c #39AD12",
"4L    c #298610",
"4M    c #2E9511",
"4N    c #35A312",
"4O    c #3BAD12",
"4P    c #42B813",
"4Q    c #094309",
"4R    c #0B630B",
"4S    c #094509",
"4T    c #52CD18",
"4U    c #41BD13",
"4V    c #094109",
"4W    c #59D31A",
"4X    c #5AD41A",
"4Y    c #5BD51A",
"4Z    c #5CD61A",
"4&    c #59D41A",
"5     c #229C11",
"50    c #0B590B",
"51    c #54D019",
"52    c #1B960F",
"53    c #0A510A",
"54    c #44BC12",
"55    c #237A0F",
"56    c #298710",
"57    c #329712",
"58    c #37A412",
"59    c #3FAF13",
"5a    c #44BA14",
"5b    c #094909",
"5c    c #050A05",
"5d    c #094409",
"5e    c #57D119",
"5f    c #48C114",
"5g    c #0A430A",
"5h    c #5DD71A",
"5i    c #5FD81B",
"5j    c #60D91B",
"5k    c #26A012",
"5l    c #0C5C0C",
"5m    c #5AD31A",
"5n    c #209A10",
"5o    c #0B570B",
"5p    c #4AC413",
"5q    c #4AC115",
"5r    c #319712",
"5s    c #2A8810",
"5t    c #339712",
"5u    c #38A512",
"5v    c #40B113",
"5w    c #47BC15",
"5x    c #050D05",
"5y    c #072907",
"5z    c #0A480A",
"5A    c #44BD14",
"5B    c #5DD61A",
"5C    c #0D660D",
"5D    c #28A013",
"5E    c #63DB1C",
"5F    c #64DC1C",
"5G    c #65DC1C",
"5H    c #29A213",
"5I    c #34AD13",
"5J    c #0C5E0C",
"5K    c #51CA15",
"5L    c #51CC18",
"5M    c #4CC316",
"5N    c #298810",
"5O    c #247A0F",
"5P    c #339812",
"5Q    c #3BA613",
"5R    c #42B214",
"5S    c #48BC15",
"5T    c #072A07",
"5U    c #0E820E",
"5V    c #209710",
"5W    c #0D680D",
"5X    c #60D81B",
"5Y    c #3DB515",
"5Z    c #0B500B",
"5&    c #66DD1D",
"6     c #67DE1D",
"60    c #68DF1D",
"61    c #36AD14",
"62    c #072707",
"63    c #0F750F",
"64    c #59D117",
"65    c #59D119",
"66    c #54CD18",
"67    c #4FC517",
"68    c #257A0F",
"69    c #2C8A11",
"6a    c #349912",
"6b    c #3CA613",
"6c    c #43B314",
"6d    c #4BBE16",
"6e    c #279D10",
"6f    c #4DC414",
"6g    c #5BD21A",
"6h    c #0A460A",
"6i    c #4CC116",
"6j    c #67DB1C",
"6k    c #0E680E",
"6l    c #39AD15",
"6m    c #6BE01E",
"6n    c #6ADE1D",
"6o    c #42B716",
"6p    c #0B4E0B",
"6q    c #63D81B",
"6r    c #60D61A",
"6s    c #57CE19",
"6t    c #51C617",
"6u    c #267B10",
"6v    c #2D8911",
"6w    c #349812",
"6x    c #3DA613",
"6y    c #44B315",
"6z    c #53C617",
"6A    c #59CE18",
"6B    c #5DD21A",
"6C    c #1B9011",
"6D    c #68DB1D",
"6E    c #4CC017",
"6F    c #0C540C",
"6G    c #6DE01E",
"6H    c #6BDF1E",
"6I    c #6ADD1D",
"6J    c #65D91C",
"6K    c #61D61B",
"6L    c #267A10",
"6M    c #349612",
"6N    c #3CA413",
"6O    c #45B115",
"6P    c #4ABC16",
"6Q    c #53C417",
"6R    c #59CB18",
"6S    c #5DD019",
"6T    c #63D31A",
"6U    c #1F9012",
"6V    c #1C8E12",
"6W    c #69DC1D",
"6X    c #1F9113",
"6Y    c #0F6D0F",
"6Z    c #6DDE1D",
"6&    c #6BDD1D",
"7     c #69DA1C",
"70    c #66D61B",
"71    c #62D31A",
"72    c #257710",
"73    c #2C8511",
"74    c #349411",
"75    c #3CA113",
"76    c #42AC15",
"77    c #4AB716",
"78    c #51C017",
"79    c #57C718",
"7a    c #44B414",
"7b    c #0A3B0A",
"7c    c #0A3E0A",
"7d    c #071F07",
"7e    c #49B617",
"7f    c #6AD61D",
"7g    c #107610",
"7h    c #0C4F0C",
"7i    c #0C560C",
"7j    c #0C490C",
"7k    c #178411",
"7l    c #69D51D",
"7m    c #67D41C",
"7n    c #63D21B",
"7o    c #5FD01A",
"7p    c #5CCB19",
"7q    c #56C718",
"7r    c #2B8511",
"7s    c #257410",
"7t    c #2B8111",
"7u    c #338F11",
"7v    c #3A9B12",
"7w    c #40A615",
"7x    c #48AF16",
"7y    c #4EB817",
"7z    c #55BF18",
"7A    c #58C218",
"7B    c #1A8411",
"7C    c #082108",
"7D    c #082908",
"7E    c #1C8512",
"7F    c #339B14",
"7G    c #62CA1A",
"7H    c #50B918",
"7I    c #54BD19",
"7J    c #38A016",
"7K    c #0B440B",
"7L    c #65CE1D",
"7M    c #63CC1C",
"7N    c #60CA1B",
"7O    c #5DC71A",
"7P    c #59C319",
"7Q    c #54BF18",
"7R    c #47AF16",
"7S    c #399B12",
"7T    c #247410",
"7U    c #247310",
"7V    c #297B11",
"7W    c #2F8711",
"7X    c #359312",
"7Y    c #3D9E14",
"7Z    c #44A715",
"7&    c #4BAF17",
"8     c #4EB418",
"80    c #54B819",
"81    c #58BC1A",
"82    c #56BB18",
"83    c #4AAD17",
"84    c #106310",
"85    c #0E530E",
"86    c #0A340A",
"87    c #106610",
"88    c #1D7F13",
"89    c #177912",
"8a    c #060A06",
"8b    c #298D14",
"8c    c #5DC01C",
"8d    c #5ABF1B",
"8e    c #53B819",
"8f    c #267711",
"8g    c #2C8011",
"8h    c #328A12",
"8i    c #399414",
"8j    c #3E9B15",
"8k    c #44A316",
"8l    c #49A817",
"8m    c #4CAA18",
"8n    c #51AE19",
"8o    c #54B01A",
"8p    c #57B21B",
"8q    c #57B41B",
"8r    c #58B41B",
"8s    c #58B319",
"8t    c #1B7713",
"8u    c #105A10",
"8v    c #116211",
"8w    c #0E4A0E",
"8x    c #0E4F0E",
"8y    c #23730F",
"8z    c #267411",
"8A    c #287711",
"8B    c #2E8012",
"8C    c #338713",
"8D    c #398F15",
"8E    c #3D9516",
"8F    c #419917",
"8G    c #459C18",
"8H    c #489D18",
"8I    c #4AA019",
"8J    c #4CA21A",
"8K    c #4EA41B",
"8L    c #4FA51B",
"8M    c #50A61C",
"8N    c #23720F",
"8O    c #267310",
"8P    c #277511",
"8Q    c #2A7712",
"8R    c #2E7A13",
"8S    c #308014",
"8T    c #358615",
"8U    c #388916",
"8V    c #3B8C16",
"8W    c #3F8E17",
"8X    c #408F18",
"8Y    c #429118",
"8Z    c #449219",
"8&    c #45941A",
"9     c #46941A",
"90    c #3E8E17",
"91    c #267511",
"         0 1 2 3 4 4 4 4 4 4 4 4 4 4 4 4 4 4 4 4 3 2 1 0        ",
"     5 6 7 8 9 a b b b b b b b b b c d e b b b a a 9 8 7 6 5   f",
"   5 g h i j k l m m m m n o p q q r q s m m m m l k j i h g 5  ",
" f t h u v w x y z A n B C D E F F F G H I J y y y x w v u h t f",
" 5 K L M N O P Q R S T U V W X Y Z &0 000102030405 P O N M L K 5",
"0607 j08 O05090a0b0c0d0e0f0g0h0i0j0k0l0m0n0o0p0q0r0905 O08 j0706",
"0s0t0u0v0w0x0y0z0A0B0C0D0E0F0G0H0I0H0J0K0L0M0N0O0P0y0x0w0v0u0t0s",
"0Q0R0S0T0U0V0W0X0Y0Z0&1 101112131313131415161718191a0V0U0T0S0R0Q",
"1b1c1d1e1f1g q1h1i1j1k1l1m1n1o1o1o1o1p1q1r1s1t1u1v1w1g1f1e1d1c1b",
" g1x1y1z1A1B1C1D1E1F1G1H1I1J1K1K1K1K1L1M1N1O1P1Q1R1S1B1A1T1y1x g",
" g1U1V1W1X1Y1Z1& q2 202122232424242425262728292a2b1v1Y1X1W1V1U g",
"2c2d2e2f2g2h2i2j S2k2l2m2n2o2p2p2p2p2o2q2r2s2t2u2v2w2h2g2f2e2d2c",
"2x2y2z2A2B2C2D2E r2F2G2H2I2J2J2J2J2J2I2K2L2M2N2O2P2Q2C2B2A2z2y2x",
"2R2y2S2T2U2V2W2X2Y2Z2& r3 3031323232333435363738393a3b2U2T2S2y2R",
"3c3d3e3f3g3h3i3j363k303l3l3m3n3o3p3p3q3r3s3t3u363j3v3w3g3f3e3d3c",
"3x3y3z3A3B3C3D3E3u3F3G3H3I3J3K3L3L3K3J3I3H3M3N3u3E3D3O3P3A3z3y3x",
"3Q3R3S3T3U3V3W3X3Y3Z3&4 40414243434241404 3K3I3Y3X3W44343T3S3R3Q",
"45464748494a4b4c4d3Z424e4f4g4g4h4h4g4g4f4e424i4j4c4k4l4m48474645",
"4n4o4p4q4r4s4t4u r4v4w4x4y4z4A4A4A4A4B4C4D4E4F4G4H4I4J4K4q4p4o4n",
"4n4L4M4N4O4P4Q4R4S4T4U4V4W4X4Y4Z4Z4Y4&5 50514T5253544P4O4N4M4L4n",
"55565758595a5b5c5d5e5f5g5h5i5j5j5j5j5i5k5l5m5n5o5p5q5a59585r5655",
"555s5t5u5v5w5x5y5z5A5B5C5D5E5F5G5G5F5E5H5C5I5J5K5L5M5w5v5u5t5N55",
"5O5s5P5Q5R5S5T5U5V5W5X5Y5Z5&6 60606 5&616263646566675S5R5Q5P5s5O",
"68696a6b6c6d6e6f6g6h6i6j6k6l6m6m6m6m6n6o6p6q6r6g6s6t6d6c5Q6a695O",
"6u6v6w6x6y6d6z6A6B6C6k6D6E6F6G6G6G6G6H6I6D6J6K6B6A6z6d6y6x6w6v6u",
"6L6v6M6N6O6P6Q6R6S6T6U6V6W6X6Y6Z6Z6Z6&6W7 70716S6R6Q6P6O6N6M6v6L",
"72737475767778797a7b7c7d7e7f7g7h7i7j7k7l7m7n7o7p7q78777675747r72",
"7s7t7u7v7w7x7y7z7A7B7C7D7E7F7G7H7I7J7K7L7M7N7O7P7Q7y7R7w7S7u7t7T",
"7U7V7W7X7Y7Z7&8 808182838485868788898a8b8c8d818e8 7&7Z7Y7X7W7V7U",
"7U8f8g8h8i8j8k8l8m8n8o8p8q8r8s8t8u8v8w8x8p8o8n8m8l8k8j8i8h8g8f7U",
"8y8z8A8B8C8D8E8F8G8H8I8J8K8L8M8M8M8M8L8K8J8I8H8G8F8E8D8C8B8A8z8y",
"8N8O8P8Q8R8S8T8U8V8W8X8Y8Z8&8&9 9 8&8&8Z8Y8X908V8U8T8S8R8Q918O8N"};
