/* XPM */
static char *B18_xpm[]={
"32 32 593 2",
"      c #1B690C",
" 0    c #1A680B",
" 1    c #1A690B",
" 2    c #1A6B0B",
" 3    c #1C6D0C",
" 4    c #1C6F0C",
" 5    c #1C700C",
" 6    c #1A6A0B",
" 7    c #1C700B",
" 8    c #1D730C",
" 9    c #1E780C",
" a    c #1F7A0C",
" b    c #207C0C",
" c    c #217C0C",
" d    c #19680B",
" e    c #1C710C",
" f    c #1E770C",
" g    c #217E0C",
" h    c #21820C",
" i    c #22850C",
" j    c #24870C",
" k    c #25880C",
" l    c #046604",
" m    c #096C04",
" n    c #1A690C",
" o    c #1B700B",
" p    c #217F0C",
" q    c #22860C",
" r    c #258C0C",
" s    c #278F0C",
" t    c #27910C",
" u    c #37991D",
" v    c #47A130",
" w    c #4DA538",
" x    c #51A63B",
" y    c #51A63C",
" z    c #000000",
" A    c #010101",
" B    c #4FA63A",
" C    c #4BA334",
" D    c #3E9D25",
" E    c #1B6B0C",
" F    c #1C740C",
" G    c #207F0C",
" H    c #22870C",
" I    c #258E0C",
" J    c #27930C",
" K    c #29970C",
" L    c #3CA120",
" M    c #6BB958",
" N    c #89C77B",
" O    c #99CE8C",
" P    c #A2D196",
" Q    c #A6D29A",
" R    c #75A36B",
" S    c #012001",
" T    c #A3D198",
" U    c #9ECF91",
" V    c #8FCA81",
" W    c #78BD65",
" X    c #4DAA36",
" Y    c #29990C",
" Z    c #1B6D0C",
" &    c #1D780C",
"0     c #248C0C",
"00    c #2B9F0D",
"01    c #67BA50",
"02    c #99D08A",
"03    c #B7DDAD",
"04    c #C8E4C0",
"05    c #D0E7C9",
"06    c #D3E8CC",
"07    c #D4E9CD",
"08    c #7A9073",
"09    c #62775B",
"0a    c #2E4327",
"0b    c #8FA488",
"0c    c #D1E8CA",
"0d    c #CBE5C4",
"0e    c #BEE0B5",
"0f    c #A4D599",
"0g    c #7BC266",
"0h    c #39A41B",
"0i    c #1A6C0B",
"0j    c #1B6E0C",
"0k    c #1F7B0C",
"0l    c #21860C",
"0m    c #27910D",
"0n    c #2A990D",
"0o    c #2BA00D",
"0p    c #2EA30D",
"0q    c #72C15B",
"0r    c #A3D796",
"0s    c #C1E3B9",
"0t    c #D3EBCB",
"0u    c #DAEED4",
"0v    c #DEEFD8",
"0w    c #91A28C",
"0x    c #9FB09A",
"0y    c #7E8F79",
"0z    c #657560",
"0A    c #C1D2BC",
"0B    c #DCEED6",
"0C    c #D6ECCF",
"0D    c #C9E7C0",
"0E    c #B1DDA4",
"0F    c #85CB72",
"0G    c #45AF26",
"0H    c #1A6E0C",
"0I    c #1B700C",
"0J    c #207C0D",
"0K    c #23880D",
"0L    c #28930D",
"0M    c #2A9C0D",
"0N    c #2DA20D",
"0O    c #2EA70E",
"0P    c #64BE4A",
"0Q    c #96D484",
"0R    c #B4DFA7",
"0S    c #C3E6BB",
"0T    c #CBE8C2",
"0U    c #CEEAC6",
"0V    c #3D5935",
"0W    c #BAD5B2",
"0X    c #688460",
"0Y    c #A3BF9B",
"0Z    c #89A581",
"0&    c #54704C",
"1     c #CDE9C4",
"10    c #C7E8BF",
"11    c #BAE2AF",
"12    c #A1D992",
"13    c #79C761",
"14    c #37AC15",
"15    c #1B710C",
"16    c #207E0D",
"17    c #24890D",
"18    c #28940D",
"19    c #2A9D0D",
"1a    c #2EA40E",
"1b    c #30A90F",
"1c    c #46B325",
"1d    c #76C85E",
"1e    c #94D581",
"1f    c #A3DB94",
"1g    c #ACDE9D",
"1h    c #6A995B",
"1i    c #517F41",
"1j    c #B1DFA1",
"1k    c #578447",
"1l    c #7FAD70",
"1m    c #437233",
"1n    c #91C282",
"1o    c #A7DD98",
"1p    c #9BD788",
"1q    c #81CD6C",
"1r    c #58BD3D",
"1s    c #32AC0F",
"1t    c #217E0D",
"1u    c #258A0D",
"1v    c #29950D",
"1w    c #2C9F0E",
"1x    c #2FA50E",
"1y    c #31AB0F",
"1z    c #32AE0F",
"1A    c #52BA32",
"1B    c #6EC753",
"1C    c #80CE68",
"1D    c #88D271",
"1E    c #021A02",
"1F    c #022502",
"1G    c #125903",
"1H    c #010B01",
"1I    c #196003",
"1J    c #010A01",
"1K    c #034003",
"1L    c #83D06C",
"1M    c #76CA5C",
"1N    c #5DC13F",
"1O    c #34AF10",
"1P    c #28950D",
"1Q    c #207F0D",
"1R    c #268B0E",
"1S    c #29960E",
"1T    c #2CA00E",
"1U    c #31A70E",
"1V    c #33B00F",
"1W    c #36B110",
"1X    c #4DBB2A",
"1Y    c #5DC23E",
"1Z    c #65C547",
"1&    c #318E13",
"2     c #177405",
"20    c #0B6705",
"21    c #020502",
"22    c #031A03",
"23    c #0F6D05",
"24    c #3C9A1D",
"25    c #60C342",
"26    c #54BD32",
"27    c #3CB516",
"28    c #1B720C",
"29    c #22800E",
"2a    c #268C0E",
"2b    c #2A970E",
"2c    c #2DA10E",
"2d    c #31A80E",
"2e    c #33AE10",
"2f    c #35B210",
"2g    c #37B310",
"2h    c #39B511",
"2i    c #46BA1F",
"2j    c #4DBD28",
"2k    c #51C02C",
"2l    c #53C12D",
"2m    c #54C12D",
"2n    c #076607",
"2o    c #148108",
"2p    c #50BF2A",
"2q    c #49BC24",
"2r    c #3DB715",
"2s    c #34B210",
"2t    c #1C720C",
"2u    c #1D740E",
"2v    c #22810E",
"2w    c #268D0E",
"2x    c #2B980E",
"2y    c #2FA20E",
"2z    c #32A90F",
"2A    c #34B010",
"2B    c #37B411",
"2C    c #3BB812",
"2D    c #3CB912",
"2E    c #41BB17",
"2F    c #46BD1C",
"2G    c #47BD1D",
"2H    c #064206",
"2I    c #075C07",
"2J    c #44BD1A",
"2K    c #3DB912",
"2L    c #1D720D",
"2M    c #1E740E",
"2N    c #278E0E",
"2O    c #2C980E",
"2P    c #2FA40F",
"2Q    c #33AA0F",
"2R    c #37B211",
"2S    c #3AB712",
"2T    c #3CB812",
"2U    c #3DBB13",
"2V    c #3EBB13",
"2W    c #3EBC13",
"2X    c #41BD14",
"2Y    c #42BF15",
"2Z    c #43BF15",
"2&    c #074407",
"3     c #095E09",
"30    c #41BE14",
"31    c #40BD13",
"32    c #1E730D",
"33    c #23820E",
"34    c #288F0E",
"35    c #2D9B0F",
"36    c #30A40F",
"37    c #35AD10",
"38    c #3AB512",
"39    c #3CBA13",
"3a    c #41BE13",
"3b    c #43C014",
"3c    c #44C114",
"3d    c #44C214",
"3e    c #084708",
"3f    c #096109",
"3g    c #39B512",
"3h    c #1E740D",
"3i    c #24830E",
"3j    c #298F0F",
"3k    c #2D9C0F",
"3l    c #33A710",
"3m    c #38AF11",
"3n    c #3BB713",
"3o    c #42C014",
"3p    c #45C315",
"3q    c #46C415",
"3r    c #47C516",
"3s    c #48C516",
"3t    c #094B09",
"3u    c #0B650B",
"3v    c #1F750D",
"3w    c #268410",
"3x    c #2A910F",
"3y    c #309E10",
"3z    c #35A911",
"3A    c #3BB112",
"3B    c #3EBA13",
"3C    c #41BF14",
"3D    c #49C616",
"3E    c #4CC817",
"3F    c #4CC917",
"3G    c #4DC917",
"3H    c #094F09",
"3I    c #0B690B",
"3J    c #25840F",
"3K    c #20760D",
"3L    c #21760E",
"3M    c #278510",
"3N    c #2B9210",
"3O    c #33A011",
"3P    c #38AB12",
"3Q    c #3DB412",
"3R    c #41BC14",
"3S    c #44C115",
"3T    c #49C416",
"3U    c #4AC716",
"3V    c #4FCB18",
"3W    c #4FCC18",
"3X    c #51CD18",
"3Y    c #0A530A",
"3Z    c #0C6D0C",
"3&    c #26850F",
"4     c #21770E",
"40    c #298610",
"41    c #2D9411",
"42    c #34A212",
"43    c #3AAD12",
"44    c #3FB613",
"45    c #44BD15",
"46    c #48C416",
"47    c #4DC717",
"48    c #4FCA18",
"49    c #50CD18",
"4a    c #52CE18",
"4b    c #54D019",
"4c    c #55D119",
"4d    c #56D219",
"4e    c #0B570B",
"4f    c #0D710D",
"4g    c #39AD12",
"4h    c #288610",
"4i    c #22770E",
"4j    c #2A8610",
"4k    c #2E9511",
"4l    c #35A312",
"4m    c #3BAD12",
"4n    c #42B813",
"4o    c #48BF15",
"4p    c #4CC717",
"4q    c #52CD18",
"4r    c #57D219",
"4s    c #59D31A",
"4t    c #5AD41A",
"4u    c #5BD51A",
"4v    c #0C5B0C",
"4w    c #0E750E",
"4x    c #59D41A",
"4y    c #23780F",
"4z    c #2A8711",
"4A    c #329712",
"4B    c #37A412",
"4C    c #3FAF13",
"4D    c #44BA14",
"4E    c #4AC115",
"4F    c #4FC918",
"4G    c #54CC18",
"4H    c #57D119",
"4I    c #5AD31A",
"4J    c #5CD51A",
"4K    c #5DD71A",
"4L    c #5FD81B",
"4M    c #60D91B",
"4N    c #0C5E0C",
"4O    c #0F780F",
"4P    c #53CC18",
"4Q    c #319712",
"4R    c #298710",
"4S    c #23790F",
"4T    c #2B8811",
"4U    c #339712",
"4V    c #38A512",
"4W    c #40B113",
"4X    c #47BC15",
"4Y    c #4CC316",
"4Z    c #51CC18",
"4&    c #56CF19",
"5     c #5DD61A",
"50    c #60D81B",
"51    c #61D91B",
"52    c #63DB1C",
"53    c #64DC1C",
"54    c #0D610D",
"55    c #0F7B0F",
"56    c #298810",
"57    c #24790F",
"58    c #339812",
"59    c #3BA613",
"5a    c #42B214",
"5b    c #48BC15",
"5c    c #4FC517",
"5d    c #54CD18",
"5e    c #5AD119",
"5f    c #5DD51A",
"5g    c #62DA1B",
"5h    c #65DC1C",
"5i    c #66DD1D",
"5j    c #67DE1D",
"5k    c #118411",
"5l    c #289F13",
"5m    c #59D119",
"5n    c #2A8810",
"5o    c #25790F",
"5p    c #2C8A11",
"5q    c #349912",
"5r    c #3CA613",
"5s    c #43B314",
"5t    c #4BBE16",
"5u    c #51C617",
"5v    c #57CE19",
"5w    c #5BD21A",
"5x    c #60D61A",
"5y    c #63D81B",
"5z    c #35A914",
"5A    c #107D10",
"5B    c #0F710F",
"5C    c #0F730F",
"5D    c #061E06",
"5E    c #093309",
"5F    c #117F11",
"5G    c #0F700F",
"5H    c #2EA314",
"5I    c #277A10",
"5J    c #2D8911",
"5K    c #349812",
"5L    c #3DA613",
"5M    c #44B315",
"5N    c #53C617",
"5O    c #59CE18",
"5P    c #5DD21A",
"5Q    c #0D630D",
"5R    c #093609",
"5S    c #0B4C0B",
"5T    c #0D590D",
"5U    c #1A8D12",
"5V    c #093809",
"5W    c #0C4F0C",
"5X    c #2DA114",
"5Y    c #0F6C0F",
"5Z    c #0B460B",
"5&    c #0A3C0A",
"6     c #0F7C0F",
"60    c #267A10",
"61    c #267910",
"62    c #349612",
"63    c #3CA413",
"64    c #45B115",
"65    c #4ABC16",
"66    c #53C417",
"67    c #3DAF12",
"68    c #082908",
"69    c #061606",
"6a    c #0D5D0D",
"6b    c #3DAF15",
"6c    c #69DC1D",
"6d    c #6BDD1D",
"6e    c #5FCF19",
"6f    c #0D540D",
"6g    c #0F6B0F",
"6h    c #59C919",
"6i    c #4CBD16",
"6j    c #0E690E",
"6k    c #030303",
"6l    c #051005",
"6m    c #4ABC13",
"6n    c #257610",
"6o    c #2C8511",
"6p    c #349411",
"6q    c #3CA113",
"6r    c #42AC15",
"6s    c #4AB716",
"6t    c #51C017",
"6u    c #072707",
"6v    c #040404",
"6w    c #0F7D0F",
"6x    c #0D660D",
"6y    c #0C510C",
"6z    c #0C520C",
"6A    c #0C530C",
"6B    c #050F05",
"6C    c #0D600D",
"6D    c #1A8B10",
"6E    c #0A560A",
"6F    c #2B8511",
"6G    c #257310",
"6H    c #2B8111",
"6I    c #338F11",
"6J    c #3A9B12",
"6K    c #40A615",
"6L    c #48AF16",
"6M    c #4EB817",
"6N    c #0C610C",
"6O    c #0A410A",
"6P    c #5DC71A",
"6Q    c #60CA1B",
"6R    c #63CC1C",
"6S    c #65CE1D",
"6T    c #67CE1D",
"6U    c #68CF1D",
"6V    c #106C10",
"6W    c #1C8512",
"6X    c #41AB14",
"6Y    c #1E890F",
"6Z    c #47AF16",
"6&    c #399B12",
"7     c #247310",
"70    c #247210",
"71    c #297C11",
"72    c #2F8711",
"73    c #359312",
"74    c #3D9E14",
"75    c #44A715",
"76    c #4BAF17",
"77    c #4EB418",
"78    c #0D5C0D",
"79    c #071A07",
"7a    c #092709",
"7b    c #0E570E",
"7c    c #2F9215",
"7d    c #369915",
"7e    c #389A16",
"7f    c #0C3E0C",
"7g    c #0E550E",
"7h    c #319315",
"7i    c #147812",
"7j    c #0B3A0B",
"7k    c #071807",
"7l    c #082408",
"7m    c #298E12",
"7n    c #297B11",
"7o    c #277811",
"7p    c #2C8011",
"7q    c #328A12",
"7r    c #399414",
"7s    c #3E9B15",
"7t    c #44A316",
"7u    c #49A817",
"7v    c #4CAA18",
"7w    c #369214",
"7x    c #0D430D",
"7y    c #0B2E0B",
"7z    c #0C400C",
"7A    c #0C3C0C",
"7B    c #0D420D",
"7C    c #060606",
"7D    c #091B09",
"7E    c #0C360C",
"7F    c #0B300B",
"7G    c #0B330B",
"7H    c #106110",
"7I    c #51AE19",
"7J    c #267711",
"7K    c #23720F",
"7L    c #267411",
"7M    c #287711",
"7N    c #2E8012",
"7O    c #338713",
"7P    c #398F15",
"7Q    c #3D9516",
"7R    c #419917",
"7S    c #459C18",
"7T    c #489D18",
"7U    c #4AA019",
"7V    c #4CA21A",
"7W    c #4EA41B",
"7X    c #4FA51B",
"7Y    c #50A61C",
"7Z    c #439817",
"7&    c #23710F",
"8     c #267310",
"80    c #277611",
"81    c #2A7812",
"82    c #2E7B13",
"83    c #308014",
"84    c #358616",
"85    c #388916",
"86    c #3B8C17",
"87    c #3F8E17",
"88    c #408F18",
"89    c #429118",
"8a    c #449219",
"8b    c #45931A",
"8c    c #46941A",
"8d    c #3E8E17",
"8e    c #267410",
"8f    c #24720F",
"     0 0 1 2 3 4 5 5 5 5 5 5 5 5 5 5 5 5 5 5 5 5 4 3 2 1 0 0 0 0",
"   0 6 7 8 9 a b c c c c c c c c c c c c c c c b b a 9 8 7 6 0 d",
"   6 e f g h i j k k k k k k k l m k k k k k k k j i h g f e 6 0",
" n o f p q r s t t u v w x y y z A y y B C D t t t s r q p f o d",
" E F G H I J K L M N O P Q Q R z S Q Q T U V W X Y K J I H G F 6",
" Z & h0  J Y000102030405060708090a0b070c0d0e0f0g0h00 Y J0  h &0i",
"0j0k0l0m0n0o0p0q0r0s0t0u0v0w0w0x0y0z0A0B0C0D0E0F0G0p0o0n0m0l0k0H",
"0I0J0K0L0M0N0O0P0Q0R0S0T0U0V0W0X0Y0Z0&1 10111213140O0N0M0L0K0J0I",
"15161718191a1b1c1d1e1f1g1h1i1j1k1l1j1m1n1o1p1q1r1s1b1a1918171615",
"151t1u1v1w1x1y1z1A1B1C1D1E1F1G A1H1I1J1K1L1M1N1O1z1y1x1w1P1u1t e",
"151Q1R1S1T1U1s1V1W1X1Y1Z1&2 2021222023242526271W1V1s1U1T1S1R1Q e",
"28292a2b2c2d2e2f2g2h2i2j2k2l2m2n2o2m2l2p2q2r2h2g2s2e2d2c2b2a292t",
"2u2v2w2x2y2z2A2B2h2C2D2E2F2G2G2H2I2G2F2J2K2D2C2h2B2A2z2y2x2w2v2L",
"2M2v2N2O2P2Q2R2S2T2U2V2W2X2Y2Z2&3 2Z30312W2V2U2T2S2R2Q2P2O2N2v32",
"2M333435363738392V313a3b3b3c3d3e3f3d3c3b3b3a312V393g37363534333h",
"3h3i3j3k3l3m3n2W313o3d3p3q3r3s3t3u3s3r3q3p3d3o312W3n3m3l3k3j3i3v",
"3v3w3x3y3z3A3B3C3c3q3s3D3E3F3G3H3I3G3F3E3D3s3q3c3C3B3A3z3y3x3J3K",
"3L3M3N3O3P3Q3R3S3T3U3G3V3W3X3X3Y3Z3X3X3W3V3G3U3T3S3R3Q3P3O3N3&3L",
"4 404142434445464748494a4b4c4d4e4f4d4c4b4a4948474645444g42414h4 ",
"4i4j4k4l4m4n4o4p484q4b4r4s4t4u4v4w4u4x4s4r4b4q484p4o4n4m4l4k404i",
"4y4z4A4B4C4D4E4F4G4H4I4J4K4L4M4N4O4M4L4K4J4I4H4P4F4E4D4C4B4Q4R4S",
"4S4T4U4V4W4X4Y4Z4&4I5 50515253545553524M505 4I4&4Z4Y4X4W4V4U564S",
"574T58595a5b5c5d5e5f505g5h5i5j5k5l5j5i5h5g505f5m5d5c5b5a59585n57",
"5o5p5q5r5s5t5u5v5w5x5y5z5A5B5C5D5E5F5B5G5H5y5x5w5v5u5t5s595q5p57",
"5I5J5K5L5M5t5N5O5P5Q5R5E5S5T5U5V5W5X5Y5Z5E5&6 5P5O5N5t5M5L5K5J60",
"615J62636465666768696a6b6c6d6e6f6g6h6d6c6i6j6k6l6m66656463625J61",
"6n6o6p6q6r6s6t6u6v6w6x5W6y6z6A6k6B6A6z6y5W6C6D6k6E6t6s6r6q6p6F6n",
"6G6H6I6J6K6L6M6N6O6P6Q6R6S6T6U6V6W6U6T6S6R6Q6X5S6Y6M6Z6K6&6I6H7 ",
"707172737475767778797a7b7c7d7e7f7g7e7h7i7j7k7l7m7776757473727n70",
"707o7p7q7r7s7t7u7v7w7x7y7z7A7B7C7D7B7E7F7G7H7I7v7u7t7s7r7q7p7J70",
"7K7L7M7N7O7P7Q7R7S7T7U7V7W7X7Y7Z7Y7Y7X7W7V7U7T7S7R7Q7P7O7N7M7L7K",
"7&8 808182838485868788898a8b8b8c8c8b8b8a89888d868584838281808e8f"};
