/* XPM */
static char *B19_xpm[]={
"32 32 585 2",
"      c #1A680B",
" 0    c #1A690B",
" 1    c #1A6B0B",
" 2    c #1C6D0C",
" 3    c #1C6F0C",
" 4    c #1C700C",
" 5    c #1A6A0B",
" 6    c #1C700B",
" 7    c #1D730C",
" 8    c #1E780C",
" 9    c #1F7A0C",
" a    c #207C0C",
" b    c #217C0C",
" c    c #19680B",
" d    c #1C710C",
" e    c #1E770C",
" f    c #217E0C",
" g    c #21820C",
" h    c #22850C",
" i    c #24870C",
" j    c #25880C",
" k    c #157805",
" l    c #043404",
" m    c #030803",
" n    c #031303",
" o    c #030503",
" p    c #030E03",
" q    c #030703",
" r    c #043704",
" s    c #157905",
" t    c #1B700B",
" u    c #217F0C",
" v    c #22860C",
" w    c #258C0C",
" x    c #278F0C",
" y    c #27910C",
" z    c #167805",
" A    c #021202",
" B    c #035103",
" C    c #136704",
" D    c #021E02",
" E    c #010101",
" F    c #020502",
" G    c #156904",
" H    c #035003",
" I    c #021702",
" J    c #30861B",
" K    c #4BA334",
" L    c #3E9D25",
" M    c #1C740C",
" N    c #207F0C",
" O    c #22870C",
" P    c #258E0C",
" Q    c #27930C",
" R    c #29970C",
" S    c #3CA120",
" T    c #67B554",
" U    c #1B590D",
" V    c #5F9351",
" W    c #47763B",
" X    c #245018",
" Y    c #618D55",
" Z    c #68955D",
" &    c #649159",
"0     c #224F17",
"00    c #4D7A42",
"01    c #69955D",
"02    c #38672D",
"03    c #9BCD8E",
"04    c #8FCA81",
"05    c #78BD65",
"06    c #4DAA36",
"07    c #29990C",
"08    c #1A6C0B",
"09    c #1D780C",
"0a    c #248C0C",
"0b    c #2B9F0D",
"0c    c #67BA50",
"0d    c #84BB74",
"0e    c #2E5424",
"0f    c #9FBB97",
"0g    c #506849",
"0h    c #D3E8CC",
"0i    c #D4E9CD",
"0j    c #51674A",
"0k    c #ADC3A6",
"0l    c #445C3E",
"0m    c #B9D4B2",
"0n    c #BEE0B5",
"0o    c #A4D599",
"0p    c #7BC266",
"0q    c #39A41B",
"0r    c #1A6E0C",
"0s    c #1F7B0C",
"0t    c #21860C",
"0u    c #27910D",
"0v    c #2A990D",
"0w    c #2BA00D",
"0x    c #2EA30D",
"0y    c #72C15B",
"0z    c #8EC180",
"0A    c #36582D",
"0B    c #ABC2A3",
"0C    c #60735A",
"0D    c #DEEFD8",
"0E    c #DEEFD9",
"0F    c #60705B",
"0G    c #B9C9B3",
"0H    c #4E6048",
"0I    c #C4DABD",
"0J    c #C9E7C0",
"0K    c #B1DDA4",
"0L    c #85CB72",
"0M    c #45AF26",
"0N    c #1B700C",
"0O    c #207C0D",
"0P    c #23880D",
"0Q    c #28930D",
"0R    c #2A9C0D",
"0S    c #2DA20D",
"0T    c #2EA70E",
"0U    c #64BE4A",
"0V    c #91CF7F",
"0W    c #467239",
"0X    c #608458",
"0Y    c #516F48",
"0Z    c #94B18C",
"0&    c #93AF8B",
"1     c #95B18D",
"10    c #55714D",
"11    c #6C8864",
"12    c #617E58",
"13    c #C3E4BB",
"14    c #BAE2AF",
"15    c #A1D992",
"16    c #79C761",
"17    c #37AC15",
"18    c #1B710C",
"19    c #207E0D",
"1a    c #24890D",
"1b    c #28940D",
"1c    c #2A9D0D",
"1d    c #2EA40E",
"1e    c #30A90F",
"1f    c #46B325",
"1g    c #76C85E",
"1h    c #6BAB58",
"1i    c #316922",
"1j    c #5D8E4E",
"1k    c #2E5E1F",
"1l    c #487638",
"1m    c #396729",
"1n    c #2F5D1F",
"1o    c #649154",
"1p    c #3C6B2C",
"1q    c #86B778",
"1r    c #A7DD98",
"1s    c #9BD788",
"1t    c #81CD6C",
"1u    c #58BD3D",
"1v    c #32AC0F",
"1w    c #217E0D",
"1x    c #258A0D",
"1y    c #29950D",
"1z    c #2C9F0E",
"1A    c #2FA50E",
"1B    c #31AB0F",
"1C    c #32AE0F",
"1D    c #52BA32",
"1E    c #6EC753",
"1F    c #56A43E",
"1G    c #034503",
"1H    c #165D03",
"1I    c #4A9133",
"1J    c #8DD475",
"1K    c #4A9132",
"1L    c #034703",
"1M    c #65AC4D",
"1N    c #8AD273",
"1O    c #83D06C",
"1P    c #76CA5C",
"1Q    c #5DC13F",
"1R    c #34AF10",
"1S    c #28950D",
"1T    c #207F0D",
"1U    c #268B0E",
"1V    c #29960E",
"1W    c #2CA00E",
"1X    c #31A70E",
"1Y    c #33B00F",
"1Z    c #36B110",
"1&    c #4DBB2A",
"2     c #5DC23E",
"20    c #65C547",
"21    c #55B237",
"22    c #020B02",
"23    c #59B539",
"24    c #5AB63A",
"25    c #6CC84C",
"26    c #6AC84C",
"27    c #68C649",
"28    c #60C342",
"29    c #54BD32",
"2a    c #3CB516",
"2b    c #1C720C",
"2c    c #22800E",
"2d    c #268C0E",
"2e    c #2A970E",
"2f    c #2DA10E",
"2g    c #31A80E",
"2h    c #33AE10",
"2i    c #35B210",
"2j    c #37B310",
"2k    c #39B511",
"2l    c #46BA1F",
"2m    c #4DBD28",
"2n    c #51C02C",
"2o    c #053005",
"2p    c #39A612",
"2q    c #053105",
"2r    c #54C12D",
"2s    c #53C12D",
"2t    c #50BF2A",
"2u    c #49BC24",
"2v    c #3DB715",
"2w    c #34B210",
"2x    c #1D720D",
"2y    c #22810E",
"2z    c #268D0E",
"2A    c #2B980E",
"2B    c #2FA20E",
"2C    c #32A90F",
"2D    c #34B010",
"2E    c #37B411",
"2F    c #3BB812",
"2G    c #3CB912",
"2H    c #41BB17",
"2I    c #46BD1C",
"2J    c #052705",
"2K    c #2DA30B",
"2L    c #052805",
"2M    c #47BD1D",
"2N    c #44BD1A",
"2O    c #3DB912",
"2P    c #1E730D",
"2Q    c #278E0E",
"2R    c #2C980E",
"2S    c #2FA40F",
"2T    c #33AA0F",
"2U    c #37B211",
"2V    c #3AB712",
"2W    c #3CB812",
"2X    c #3DBB13",
"2Y    c #3EBB13",
"2Z    c #3EBC13",
"2&    c #41BD14",
"3     c #062906",
"30    c #29A50D",
"31    c #062A06",
"32    c #43BF15",
"33    c #41BE14",
"34    c #40BD13",
"35    c #1E740D",
"36    c #23820E",
"37    c #288F0E",
"38    c #2D9B0F",
"39    c #30A40F",
"3a    c #35AD10",
"3b    c #3AB512",
"3c    c #3CBA13",
"3d    c #41BE13",
"3e    c #43C014",
"3f    c #062B06",
"3g    c #2AA80D",
"3h    c #062D06",
"3i    c #45C214",
"3j    c #44C214",
"3k    c #44C114",
"3l    c #39B512",
"3m    c #1F750D",
"3n    c #24830E",
"3o    c #298F0F",
"3p    c #2D9C0F",
"3q    c #33A710",
"3r    c #38AF11",
"3s    c #3BB713",
"3t    c #42C014",
"3u    c #45C315",
"3v    c #46C415",
"3w    c #072F07",
"3x    c #2EAB0F",
"3y    c #073107",
"3z    c #48C616",
"3A    c #48C516",
"3B    c #47C516",
"3C    c #20760D",
"3D    c #25840F",
"3E    c #2A910F",
"3F    c #309E10",
"3G    c #35A911",
"3H    c #3BB112",
"3I    c #3EBA13",
"3J    c #41BF14",
"3K    c #49C616",
"3L    c #4CC817",
"3M    c #073307",
"3N    c #33AF10",
"3O    c #073507",
"3P    c #4DCA17",
"3Q    c #4DC917",
"3R    c #4CC917",
"3S    c #21760E",
"3T    c #26850F",
"3U    c #2B9210",
"3V    c #33A011",
"3W    c #38AB12",
"3X    c #3DB412",
"3Y    c #41BC14",
"3Z    c #44C115",
"3&    c #49C416",
"4     c #4AC716",
"40    c #4FCB18",
"41    c #4FCC18",
"42    c #083708",
"43    c #37B312",
"44    c #083908",
"45    c #51CE18",
"46    c #51CD18",
"47    c #21770E",
"48    c #288610",
"49    c #2D9411",
"4a    c #34A212",
"4b    c #3AAD12",
"4c    c #3FB613",
"4d    c #44BD15",
"4e    c #48C416",
"4f    c #4DC717",
"4g    c #4FCA18",
"4h    c #50CD18",
"4i    c #52CE18",
"4j    c #54D019",
"4k    c #093B09",
"4l    c #3CB813",
"4m    c #093D09",
"4n    c #56D219",
"4o    c #55D119",
"4p    c #39AD12",
"4q    c #22770E",
"4r    c #298610",
"4s    c #2E9511",
"4t    c #35A312",
"4u    c #3BAD12",
"4v    c #42B813",
"4w    c #48BF15",
"4x    c #4CC717",
"4y    c #52CD18",
"4z    c #57D219",
"4A    c #59D31A",
"4B    c #093E09",
"4C    c #41BB15",
"4D    c #0A410A",
"4E    c #5CD61A",
"4F    c #5BD51A",
"4G    c #59D41A",
"4H    c #23790F",
"4I    c #298710",
"4J    c #329712",
"4K    c #37A412",
"4L    c #3FAF13",
"4M    c #44BA14",
"4N    c #4AC115",
"4O    c #4FC918",
"4P    c #54CC18",
"4Q    c #57D119",
"4R    c #5AD31A",
"4S    c #5CD51A",
"4T    c #5DD71A",
"4U    c #0A420A",
"4V    c #46BF16",
"4W    c #0A440A",
"4X    c #60D91B",
"4Y    c #5FD81B",
"4Z    c #53CC18",
"4&    c #319712",
"5     c #2A8810",
"50    c #339712",
"51    c #38A512",
"52    c #40B113",
"53    c #47BC15",
"54    c #4CC316",
"55    c #51CC18",
"56    c #56CF19",
"57    c #5DD61A",
"58    c #60D81B",
"59    c #61D91B",
"5a    c #0A450A",
"5b    c #49C116",
"5c    c #0A470A",
"5d    c #65DC1C",
"5e    c #64DC1C",
"5f    c #63DB1C",
"5g    c #298810",
"5h    c #24790F",
"5i    c #339812",
"5j    c #3BA613",
"5k    c #42B214",
"5l    c #48BC15",
"5m    c #4FC517",
"5n    c #54CD18",
"5o    c #5AD119",
"5p    c #5DD51A",
"5q    c #62DA1B",
"5r    c #0B470B",
"5s    c #57CE18",
"5t    c #082D08",
"5u    c #0B4C0B",
"5v    c #0A3F0A",
"5w    c #4DC417",
"5x    c #59D119",
"5y    c #25790F",
"5z    c #2C8A11",
"5A    c #349912",
"5B    c #3CA613",
"5C    c #43B314",
"5D    c #4BBE16",
"5E    c #51C617",
"5F    c #57CE19",
"5G    c #5BD21A",
"5H    c #60D61A",
"5I    c #63D81B",
"5J    c #67DB1C",
"5K    c #68DD1D",
"5L    c #0B480B",
"5M    c #61D61A",
"5N    c #6BE01E",
"5O    c #63D81A",
"5P    c #0C560C",
"5Q    c #33A714",
"5R    c #66DB1C",
"5S    c #267A10",
"5T    c #2D8911",
"5U    c #349812",
"5V    c #3DA613",
"5W    c #44B315",
"5X    c #53C617",
"5Y    c #59CE18",
"5Z    c #5DD21A",
"5&    c #61D61B",
"6     c #65D91C",
"60    c #68DB1D",
"61    c #6ADD1D",
"62    c #0B490B",
"63    c #62D51A",
"64    c #35A915",
"65    c #2DA114",
"66    c #3CB116",
"67    c #267910",
"68    c #349612",
"69    c #3CA413",
"6a    c #45B115",
"6b    c #4ABC16",
"6c    c #53C417",
"6d    c #59CB18",
"6e    c #5DD019",
"6f    c #63D31A",
"6g    c #66D61B",
"6h    c #69DA1C",
"6i    c #69DC1D",
"6j    c #040804",
"6k    c #000000",
"6l    c #62D31A",
"6m    c #257610",
"6n    c #2C8511",
"6o    c #349411",
"6p    c #3CA113",
"6q    c #42AC15",
"6r    c #4AB716",
"6s    c #51C017",
"6t    c #57C718",
"6u    c #5CCB19",
"6v    c #5FD01A",
"6w    c #64D21B",
"6x    c #67D41C",
"6y    c #69D51D",
"6z    c #0B420B",
"6A    c #61CD1A",
"6B    c #6DD81D",
"6C    c #0D5D0D",
"6D    c #37A314",
"6E    c #63D21B",
"6F    c #56C718",
"6G    c #2B8511",
"6H    c #257310",
"6I    c #2B8111",
"6J    c #338F11",
"6K    c #3A9B12",
"6L    c #40A615",
"6M    c #48AF16",
"6N    c #4EB817",
"6O    c #55BF18",
"6P    c #59C319",
"6Q    c #5DC71A",
"6R    c #60CA1B",
"6S    c #63CC1C",
"6T    c #65CE1D",
"6U    c #0A3C0A",
"6V    c #5EC61A",
"6W    c #349D15",
"6X    c #218A13",
"6Y    c #082808",
"6Z    c #359D15",
"6&    c #54BF18",
"7     c #47AF16",
"70    c #399B12",
"71    c #247310",
"72    c #247210",
"73    c #297B11",
"74    c #2F8711",
"75    c #359312",
"76    c #3D9E14",
"77    c #44A715",
"78    c #4BAF17",
"79    c #4EB418",
"7a    c #54B819",
"7b    c #58BC1A",
"7c    c #5ABF1B",
"7d    c #5DC01C",
"7e    c #5FC21D",
"7f    c #0A350A",
"7g    c #5EC01A",
"7h    c #071307",
"7i    c #0F5F0F",
"7j    c #106410",
"7k    c #55B819",
"7l    c #53B819",
"7m    c #267711",
"7n    c #2C8011",
"7o    c #328A12",
"7p    c #399414",
"7q    c #3E9B15",
"7r    c #44A316",
"7s    c #49A817",
"7t    c #4CAA18",
"7u    c #51AE19",
"7v    c #54B01A",
"7w    c #57B21B",
"7x    c #57B41B",
"7y    c #081308",
"7z    c #0C3B0C",
"7A    c #091A09",
"7B    c #5AB61C",
"7C    c #59B51C",
"7D    c #23720F",
"7E    c #267411",
"7F    c #287711",
"7G    c #2E8012",
"7H    c #338713",
"7I    c #398F15",
"7J    c #3D9516",
"7K    c #419917",
"7L    c #459C18",
"7M    c #489D18",
"7N    c #4AA019",
"7O    c #4CA21A",
"7P    c #4EA41B",
"7Q    c #2B8214",
"7R    c #136912",
"7S    c #2E8315",
"7T    c #50A61C",
"7U    c #4FA51B",
"7V    c #267410",
"7W    c #277611",
"7X    c #2A7812",
"7Y    c #2E7B13",
"7Z    c #308014",
"7&    c #358616",
"8     c #388916",
"80    c #3B8C17",
"81    c #3F8D17",
"82    c #408F18",
"83    c #429018",
"84    c #449119",
"85    c #45931A",
"86    c #46931A",
"87    c #3E8D17",
"         0 1 2 3 4 4 4 4 4 4 4 4 4 4 4 4 4 4 4 4 3 2 1 0        ",
"     5 6 7 8 9 a b b b b b b b b b b b b b b b a a 9 8 7 6 5   c",
"   5 d e f g h i j j k l m n o p q r s j j j j j i h g f e d 5  ",
" c t e u v w x y y z A B C D E F G H I J K L y y y x w v u e t c",
" 5 M N O P Q R S T U V W X Y Z &0 0001020304050607 R Q P O N M 5",
"0809 g0a Q070b0c0d0e0f0g0h0i0i0i0i0j0k0l0m0n0o0p0q0b07 Q0a g0908",
"0r0s0t0u0v0w0x0y0z0A0B0C0D0E0E0E0E0F0G0H0I0J0K0L0M0x0w0v0u0t0s0r",
"0N0O0P0Q0R0S0T0U0V0W0X0Y0Z0&0&0&1 10111213141516170T0S0R0Q0P0O0N",
"18191a1b1c1d1e1f1g1h1i1j1k1l1m1l1n1o1p1q1r1s1t1u1v1e1d1c1b1a1918",
" d1w1x1y1z1A1B1C1D1E1F1G1H1I1J1K1H1L1M1N1O1P1Q1R1C1B1A1z1S1x1w d",
" d1T1U1V1W1X1v1Y1Z1&2 20212223222425262728292a1Z1Y1v1X1W1V1U1T d",
"2b2c2d2e2f2g2h2i2j2k2l2m2n2o2p2q2r2r2s2t2u2v2k2j2w2h2g2f2e2d2c2b",
"2x2y2z2A2B2C2D2E2k2F2G2H2I2J2K2L2M2M2I2N2O2G2F2k2E2D2C2B2A2z2y2x",
"2P2y2Q2R2S2T2U2V2W2X2Y2Z2&3 3031323233342Z2Y2X2W2V2U2T2S2R2Q2y2P",
"35363738393a3b3c2Y343d3e3e3f3g3h3i3j3k3e3e3d342Y3c3l3a3938373635",
"3m3n3o3p3q3r3s2Z343t3j3u3v3w3x3y3z3A3B3v3u3j3t342Z3s3r3q3p3o3n3m",
"3C3D3E3F3G3H3I3J3k3v3A3K3L3M3N3O3P3Q3R3L3K3A3v3k3J3I3H3G3F3E3D3C",
"3S3T3U3V3W3X3Y3Z3&4 3Q404142434445464641403Q4 3&3Z3Y3X3W3V3U3T3S",
"4748494a4b4c4d4e4f4g4h4i4j4k4l4m4n4n4o4j4i4h4g4f4e4d4c4p4a494847",
"4q4r4s4t4u4v4w4x4g4y4j4z4A4B4C4D4E4F4G4A4z4j4y4g4x4w4v4u4t4s4r4q",
"4H4I4J4K4L4M4N4O4P4Q4R4S4T4U4V4W4X4X4Y4T4S4R4Q4Z4O4N4M4L4K4&4I4H",
"4H5 505152535455564R5758595a5b5c5d5e5f4X58574R565554535251505g4H",
"5h5 5i5j5k5l5m5n5o5p585q5d5r5s5t5u5v5w5d5q585p5x5n5m5l5k5j5i5 5h",
"5y5z5A5B5C5D5E5F5G5H5I5J5K5L5M5N5O5P5Q5K5R5I5H5G5F5E5D5C5j5A5z5h",
"5S5T5U5V5W5D5X5Y5Z5&6 6061626364654U6661606 5&5Z5Y5X5D5W5V5U5T5S",
"675T68696a6b6c6d6e6f6g6h6i626f6j E6k6b6i6h6g6l6e6d6c6b6a69685T67",
"6m6n6o6p6q6r6s6t6u6v6w6x6y6z6A6B6B6C6D6y6x6E6v6u6F6s6r6q6p6o6G6m",
"6H6I6J6K6L6M6N6O6P6Q6R6S6T6U6V6W6X6Y6Z6T6S6R6Q6P6&6N7 6L706J6I71",
"72737475767778797a7b7c7d7e7f7g7h7i7j7k7e7d7c7b7l7978777675747372",
"727m7n7o7p7q7r7s7t7u7v7w7x7y7z7A7B7B7C7x7w7v7u7t7s7r7q7p7o7n7m72",
"7D7E7F7G7H7I7J7K7L7M7N7O7P7Q7R7S7T7T7U7P7O7N7M7L7K7J7I7H7G7F7E7D",
"7D7V7W7X7Y7Z7&8 808182838485858686858584838287808 7&7Z7Y7X7W7V7D"};
