/* XPM */
static char *B20_xpm[]={
"32 32 548 2",
"      c #1A680B",
" 0    c #1A690B",
" 1    c #1A6B0B",
" 2    c #1C6D0C",
" 3    c #1C6F0C",
" 4    c #1C700C",
" 5    c #1A6A0B",
" 6    c #1C700B",
" 7    c #1D730C",
" 8    c #1E780C",
" 9    c #1F7A0C",
" a    c #207C0C",
" b    c #217C0C",
" c    c #19680B",
" d    c #1C710C",
" e    c #1E770C",
" f    c #217E0C",
" g    c #21820C",
" h    c #22850C",
" i    c #24870C",
" j    c #25880C",
" k    c #043504",
" l    c #0A6D04",
" m    c #1B700B",
" n    c #217F0C",
" o    c #22860C",
" p    c #258C0C",
" q    c #278F0C",
" r    c #27910C",
" s    c #37991D",
" t    c #47A130",
" u    c #4DA538",
" v    c #51A63B",
" w    c #51A63C",
" x    c #033503",
" y    c #000000",
" z    c #021602",
" A    c #4FA63A",
" B    c #4BA334",
" C    c #3E9D25",
" D    c #1C740C",
" E    c #207F0C",
" F    c #22870C",
" G    c #258E0C",
" H    c #27930C",
" I    c #29970C",
" J    c #3CA120",
" K    c #6BB958",
" L    c #89C77B",
" M    c #99CE8C",
" N    c #A2D196",
" O    c #A6D29A",
" P    c #90BE86",
" Q    c #92C088",
" R    c #83AF77",
" S    c #A3D198",
" T    c #9ECF91",
" U    c #8FCA81",
" V    c #78BD65",
" W    c #4DAA36",
" X    c #29990C",
" Y    c #1A6C0B",
" Z    c #1D780C",
" &    c #248C0C",
"0     c #2B9F0D",
"00    c #67BA50",
"01    c #99D08A",
"02    c #B7DDAD",
"03    c #C8E4C0",
"04    c #D0E7C9",
"05    c #D3E8CC",
"06    c #D4E9CD",
"07    c #3A4F33",
"08    c #4F6548",
"09    c #546A4D",
"0a    c #4A6043",
"0b    c #D1E8CA",
"0c    c #CBE5C4",
"0d    c #BEE0B5",
"0e    c #A4D599",
"0f    c #7BC266",
"0g    c #39A41B",
"0h    c #1A6E0C",
"0i    c #1F7B0C",
"0j    c #21860C",
"0k    c #27910D",
"0l    c #2A990D",
"0m    c #2BA00D",
"0n    c #2EA30D",
"0o    c #72C15B",
"0p    c #A3D796",
"0q    c #C1E3B9",
"0r    c #D3EBCB",
"0s    c #DAEED4",
"0t    c #DEEFD8",
"0u    c #BFD0BB",
"0v    c #22331D",
"0w    c #D3E4CE",
"0x    c #DEEFD9",
"0y    c #011200",
"0z    c #CFE1C9",
"0A    c #D6ECCF",
"0B    c #C9E7C0",
"0C    c #B1DDA4",
"0D    c #85CB72",
"0E    c #45AF26",
"0F    c #1B700C",
"0G    c #207C0D",
"0H    c #23880D",
"0I    c #28930D",
"0J    c #2A9C0D",
"0K    c #2DA20D",
"0L    c #2EA70E",
"0M    c #64BE4A",
"0N    c #96D484",
"0O    c #B4DFA7",
"0P    c #C3E6BB",
"0Q    c #CBE8C2",
"0R    c #CEEAC6",
"0S    c #35512D",
"0T    c #496541",
"0U    c #526E4A",
"0V    c #405C38",
"0W    c #001A00",
"0X    c #15310C",
"0Y    c #C7E8BF",
"0Z    c #BAE2AF",
"0&    c #A1D992",
"1     c #79C761",
"10    c #37AC15",
"11    c #1B710C",
"12    c #207E0D",
"13    c #24890D",
"14    c #28940D",
"15    c #2A9D0D",
"16    c #2EA40E",
"17    c #30A90F",
"18    c #46B325",
"19    c #76C85E",
"1a    c #94D581",
"1b    c #A3DB94",
"1c    c #ACDE9D",
"1d    c #AFDFA0",
"1e    c #467436",
"1f    c #336123",
"1g    c #0D3B01",
"1h    c #245214",
"1i    c #2A591A",
"1j    c #76A667",
"1k    c #A7DD98",
"1l    c #9BD788",
"1m    c #81CD6C",
"1n    c #58BD3D",
"1o    c #32AC0F",
"1p    c #217E0D",
"1q    c #258A0D",
"1r    c #29950D",
"1s    c #2C9F0E",
"1t    c #2FA50E",
"1u    c #31AB0F",
"1v    c #32AE0F",
"1w    c #52BA32",
"1x    c #6EC753",
"1y    c #80CE68",
"1z    c #88D271",
"1A    c #8CD374",
"1B    c #8CD375",
"1C    c #8DD475",
"1D    c #7EC566",
"1E    c #010101",
"1F    c #8AD273",
"1G    c #83D06C",
"1H    c #76CA5C",
"1I    c #5DC13F",
"1J    c #34AF10",
"1K    c #28950D",
"1L    c #207F0D",
"1M    c #268B0E",
"1N    c #29960E",
"1O    c #2CA00E",
"1P    c #31A70E",
"1Q    c #33B00F",
"1R    c #36B110",
"1S    c #4DBB2A",
"1T    c #5DC23E",
"1U    c #65C547",
"1V    c #69C64B",
"1W    c #6BC84C",
"1X    c #6CC84C",
"1Y    c #49A529",
"1Z    c #6AC84C",
"1&    c #68C649",
"2     c #60C342",
"20    c #54BD32",
"21    c #3CB516",
"22    c #1C720C",
"23    c #22800E",
"24    c #268C0E",
"25    c #2A970E",
"26    c #2DA10E",
"27    c #31A80E",
"28    c #33AE10",
"29    c #35B210",
"2a    c #37B310",
"2b    c #39B511",
"2c    c #46BA1F",
"2d    c #4DBD28",
"2e    c #51C02C",
"2f    c #53C12D",
"2g    c #54C12D",
"2h    c #319E0A",
"2i    c #50BF2A",
"2j    c #49BC24",
"2k    c #3DB715",
"2l    c #34B210",
"2m    c #1D720D",
"2n    c #22810E",
"2o    c #268D0E",
"2p    c #2B980E",
"2q    c #2FA20E",
"2r    c #32A90F",
"2s    c #34B010",
"2t    c #37B411",
"2u    c #3BB812",
"2v    c #3CB912",
"2w    c #41BB17",
"2x    c #46BD1C",
"2y    c #47BD1D",
"2z    c #249A0A",
"2A    c #44BD1A",
"2B    c #3DB912",
"2C    c #1E730D",
"2D    c #278E0E",
"2E    c #2C980E",
"2F    c #2FA40F",
"2G    c #33AA0F",
"2H    c #37B211",
"2I    c #3AB712",
"2J    c #3CB812",
"2K    c #3DBB13",
"2L    c #3EBB13",
"2M    c #3EBC13",
"2N    c #41BD14",
"2O    c #42BF15",
"2P    c #43BF15",
"2Q    c #209C0C",
"2R    c #020202",
"2S    c #41BE14",
"2T    c #40BD13",
"2U    c #1E740D",
"2V    c #23820E",
"2W    c #288F0E",
"2X    c #2D9B0F",
"2Y    c #30A40F",
"2Z    c #35AD10",
"2&    c #3AB512",
"3     c #3CBA13",
"30    c #41BE13",
"31    c #43C014",
"32    c #44C114",
"33    c #44C214",
"34    c #229F0D",
"35    c #39B512",
"36    c #1F750D",
"37    c #24830E",
"38    c #298F0F",
"39    c #2D9C0F",
"3a    c #33A710",
"3b    c #38AF11",
"3c    c #3BB713",
"3d    c #42C014",
"3e    c #45C315",
"3f    c #46C415",
"3g    c #47C516",
"3h    c #48C516",
"3i    c #25A30F",
"3j    c #20760D",
"3k    c #25840F",
"3l    c #2A910F",
"3m    c #309E10",
"3n    c #35A911",
"3o    c #3BB112",
"3p    c #3EBA13",
"3q    c #41BF14",
"3r    c #49C616",
"3s    c #4CC817",
"3t    c #4CC917",
"3u    c #4DC917",
"3v    c #2AA710",
"3w    c #21760E",
"3x    c #26850F",
"3y    c #2B9210",
"3z    c #33A011",
"3A    c #38AB12",
"3B    c #3DB412",
"3C    c #41BC14",
"3D    c #44C115",
"3E    c #49C416",
"3F    c #4AC716",
"3G    c #4FCB18",
"3H    c #4FCC18",
"3I    c #51CD18",
"3J    c #2EAB11",
"3K    c #21770E",
"3L    c #288610",
"3M    c #2D9411",
"3N    c #34A212",
"3O    c #3AAD12",
"3P    c #3FB613",
"3Q    c #44BD15",
"3R    c #48C416",
"3S    c #4DC717",
"3T    c #4FCA18",
"3U    c #50CD18",
"3V    c #52CE18",
"3W    c #54D019",
"3X    c #55D119",
"3Y    c #56D219",
"3Z    c #33AF12",
"3&    c #39AD12",
"4     c #22770E",
"40    c #298610",
"41    c #2E9511",
"42    c #35A312",
"43    c #3BAD12",
"44    c #42B813",
"45    c #48BF15",
"46    c #4CC717",
"47    c #52CD18",
"48    c #57D219",
"49    c #59D31A",
"4a    c #5AD41A",
"4b    c #5BD51A",
"4c    c #39B314",
"4d    c #030303",
"4e    c #59D41A",
"4f    c #23790F",
"4g    c #298710",
"4h    c #329712",
"4i    c #37A412",
"4j    c #3FAF13",
"4k    c #44BA14",
"4l    c #4AC115",
"4m    c #4FC918",
"4n    c #54CC18",
"4o    c #57D119",
"4p    c #5AD31A",
"4q    c #5CD51A",
"4r    c #5DD71A",
"4s    c #5FD81B",
"4t    c #60D91B",
"4u    c #3DB615",
"4v    c #53CC18",
"4w    c #319712",
"4x    c #2A8810",
"4y    c #339712",
"4z    c #38A512",
"4A    c #40B113",
"4B    c #47BC15",
"4C    c #4CC316",
"4D    c #51CC18",
"4E    c #56CF19",
"4F    c #5DD61A",
"4G    c #60D81B",
"4H    c #61D91B",
"4I    c #63DB1C",
"4J    c #64DC1C",
"4K    c #4DC417",
"4L    c #298810",
"4M    c #24790F",
"4N    c #339812",
"4O    c #3BA613",
"4P    c #42B214",
"4Q    c #48BC15",
"4R    c #4FC517",
"4S    c #54CD18",
"4T    c #5AD119",
"4U    c #5DD51A",
"4V    c #62DA1B",
"4W    c #65DC1C",
"4X    c #66DD1D",
"4Y    c #60D719",
"4Z    c #072207",
"4&    c #35AC15",
"5     c #59D119",
"50    c #25790F",
"51    c #2C8A11",
"52    c #349912",
"53    c #3CA613",
"54    c #43B314",
"55    c #4BBE16",
"56    c #51C617",
"57    c #57CE19",
"58    c #5BD21A",
"59    c #60D61A",
"5a    c #63D81B",
"5b    c #67DB1C",
"5c    c #68DD1D",
"5d    c #62D619",
"5e    c #072507",
"5f    c #117F11",
"5g    c #5FD41A",
"5h    c #4BC018",
"5i    c #2A9F14",
"5j    c #66DB1C",
"5k    c #267A10",
"5l    c #2D8911",
"5m    c #349812",
"5n    c #3DA613",
"5o    c #44B315",
"5p    c #53C617",
"5q    c #59CE18",
"5r    c #5DD21A",
"5s    c #61D61B",
"5t    c #65D91C",
"5u    c #68DB1D",
"5v    c #6ADD1D",
"5w    c #082D08",
"5x    c #188B12",
"5y    c #6DE01E",
"5z    c #178B12",
"5A    c #061B06",
"5B    c #63D619",
"5C    c #267910",
"5D    c #349612",
"5E    c #3CA413",
"5F    c #45B115",
"5G    c #4ABC16",
"5H    c #53C417",
"5I    c #59CB18",
"5J    c #5DD019",
"5K    c #63D31A",
"5L    c #66D61B",
"5M    c #69DA1C",
"5N    c #69DC1D",
"5O    c #6DDE1D",
"5P    c #4CBD17",
"5Q    c #072007",
"5R    c #2FA114",
"5S    c #62D31A",
"5T    c #257610",
"5U    c #2C8511",
"5V    c #349411",
"5W    c #3CA113",
"5X    c #42AC15",
"5Y    c #4AB716",
"5Z    c #51C017",
"5&    c #57C718",
"6     c #5CCB19",
"60    c #5FD01A",
"61    c #64D21B",
"62    c #67D41C",
"63    c #69D51D",
"64    c #0C4F0C",
"65    c #0D580D",
"66    c #6DD81D",
"67    c #6CD71D",
"68    c #0F6D0F",
"69    c #071F07",
"6a    c #63D21B",
"6b    c #56C718",
"6c    c #2B8511",
"6d    c #257310",
"6e    c #2B8111",
"6f    c #338F11",
"6g    c #3A9B12",
"6h    c #40A615",
"6i    c #48AF16",
"6j    c #4EB817",
"6k    c #55BF18",
"6l    c #59C319",
"6m    c #5DC71A",
"6n    c #60CA1B",
"6o    c #63CC1C",
"6p    c #65CE1D",
"6q    c #44AC16",
"6r    c #147D12",
"6s    c #117411",
"6t    c #071B07",
"6u    c #4DB617",
"6v    c #54BF18",
"6w    c #47AF16",
"6x    c #399B12",
"6y    c #247310",
"6z    c #247210",
"6A    c #297B11",
"6B    c #2F8711",
"6C    c #359312",
"6D    c #3D9E14",
"6E    c #44A715",
"6F    c #4BAF17",
"6G    c #4EB418",
"6H    c #54B819",
"6I    c #58BC1A",
"6J    c #5ABF1B",
"6K    c #5DC01C",
"6L    c #5FC21D",
"6M    c #61C31D",
"6N    c #238514",
"6O    c #060A06",
"6P    c #54B719",
"6Q    c #53B819",
"6R    c #267711",
"6S    c #2C8011",
"6T    c #328A12",
"6U    c #399414",
"6V    c #3E9B15",
"6W    c #44A316",
"6X    c #49A817",
"6Y    c #4CAA18",
"6Z    c #51AE19",
"6&    c #54B01A",
"7     c #57B21B",
"70    c #57B41B",
"71    c #59B51C",
"72    c #5AB61C",
"73    c #23720F",
"74    c #267411",
"75    c #287711",
"76    c #2E8012",
"77    c #338713",
"78    c #398F15",
"79    c #3D9516",
"7a    c #419917",
"7b    c #459C18",
"7c    c #489D18",
"7d    c #4AA019",
"7e    c #4CA21A",
"7f    c #4EA41B",
"7g    c #4FA51B",
"7h    c #50A61C",
"7i    c #23710F",
"7j    c #277411",
"7k    c #287611",
"7l    c #2A7812",
"7m    c #2E7B13",
"7n    c #308014",
"7o    c #358616",
"7p    c #388916",
"7q    c #3B8C17",
"7r    c #3F8E17",
"7s    c #408F18",
"7t    c #429118",
"7u    c #449219",
"7v    c #45941A",
"7w    c #46941A",
"7x    c #3E8E17",
"7y    c #277611",
"         0 1 2 3 4 4 4 4 4 4 4 4 4 4 4 4 4 4 4 4 3 2 1 0        ",
"     5 6 7 8 9 a b b b b b b b b b b b b b b b a a 9 8 7 6 5   c",
"   5 d e f g h i j j j j j j j j k l j j j j j j i h g f e d 5  ",
" c m e n o p q r r s t u v w w x y z w A B C r r r q p o n e m c",
" 5 D E F G H I J K L M N O O P y Q y R S T U V W X I H G F E D 5",
" Y Z g & H X0 00010203040506070806090a0b0c0d0e0f0g0  X H & g Z Y",
"0h0i0j0k0l0m0n0o0p0q0r0s0t0u0v0w0x0x0y0z0A0B0C0D0E0n0m0l0k0j0i0h",
"0F0G0H0I0J0K0L0M0N0O0P0Q0R0S y0T0U0V0W0X0Y0Z0&1 100L0K0J0I0H0G0F",
"1112131415161718191a1b1c1d1e1f1g y1h1i1j1k1l1m1n1o17161514131211",
" d1p1q1r1s1t1u1v1w1x1y1z1A1B1C1D1E1C1A1F1G1H1I1J1v1u1t1s1K1q1p d",
" d1L1M1N1O1P1o1Q1R1S1T1U1V1W1X1Y1E1X1Z1&2 20211R1Q1o1P1O1N1M1L d",
"22232425262728292a2b2c2d2e2f2g2h1E2g2f2i2j2k2b2a2l28272625242322",
"2m2n2o2p2q2r2s2t2b2u2v2w2x2y2y2z1E2y2x2A2B2v2u2b2t2s2r2q2p2o2n2m",
"2C2n2D2E2F2G2H2I2J2K2L2M2N2O2P2Q2R2P2S2T2M2L2K2J2I2H2G2F2E2D2n2C",
"2U2V2W2X2Y2Z2&3 2L2T3031313233342R33323131302T2L3 352Z2Y2X2W2V2U",
"363738393a3b3c2M2T3d333e3f3g3h3i2R3h3g3f3e333d2T2M3c3b3a39383736",
"3j3k3l3m3n3o3p3q323f3h3r3s3t3u3v2R3u3t3s3r3h3f323q3p3o3n3m3l3k3j",
"3w3x3y3z3A3B3C3D3E3F3u3G3H3I3I3J2R3I3I3H3G3u3F3E3D3C3B3A3z3y3x3w",
"3K3L3M3N3O3P3Q3R3S3T3U3V3W3X3Y3Z2R3Y3X3W3V3U3T3S3R3Q3P3&3N3M3L3K",
"4 404142434445463T473W48494a4b4c4d4b4e49483W473T464544434241404 ",
"4f4g4h4i4j4k4l4m4n4o4p4q4r4s4t4u4d4t4s4r4q4p4o4v4m4l4k4j4i4w4g4f",
"4f4x4y4z4A4B4C4D4E4p4F4G4H4I4J4K4d4J4I4t4G4F4p4E4D4C4B4A4z4y4L4f",
"4M4x4N4O4P4Q4R4S4T4U4G4V4W4X4Y4Z y2R4&4W4V4G4U5 4S4R4Q4P4O4N4x4M",
"505152535455565758595a5b5c5d5e5f5g5h4Z5i5j5a5958575655544O52514M",
"5k5l5m5n5o555p5q5r5s5t5u5v5w5x5y5y5y5z5A5B5t5s5r5q5p555o5n5m5l5k",
"5C5l5D5E5F5G5H5I5J5K5L5M5N y5O5O5O5O5P5Q5R5L5S5J5I5H5G5F5E5D5l5C",
"5T5U5V5W5X5Y5Z5&6 6061626364656666676869626a606 6b5Z5Y5X5W5V6c5T",
"6d6e6f6g6h6i6j6k6l6m6n6o6p6q4d6r6r6s6t6u6o6n6m6l6v6j6w6h6x6f6e6y",
"6z6A6B6C6D6E6F6G6H6I6J6K6L6M6N6O6O6O6P6L6K6J6I6Q6G6F6E6D6C6B6A6z",
"6z6R6S6T6U6V6W6X6Y6Z6&7 70717272727271707 6&6Z6Y6X6W6V6U6T6S6R6z",
"737475767778797a7b7c7d7e7f7g7h7h7h7h7g7f7e7d7c7b7a79787776757473",
"7i7j7k7l7m7n7o7p7q7r7s7t7u7v7v7w7w7v7v7u7t7s7x7q7p7o7n7m7l7y7j7i"};
