/* XPM */
static char *B21_xpm[]={
"32 32 529 2",
"      c #1A680B",
" 0    c #1A690B",
" 1    c #1A6B0B",
" 2    c #1C6D0C",
" 3    c #1C6F0C",
" 4    c #1C700C",
" 5    c #1A6A0B",
" 6    c #1C700B",
" 7    c #1D730C",
" 8    c #1E780C",
" 9    c #1F7A0C",
" a    c #207C0C",
" b    c #217C0C",
" c    c #19680B",
" d    c #1C710C",
" e    c #1E770C",
" f    c #217E0C",
" g    c #21820C",
" h    c #22850C",
" i    c #24870C",
" j    c #25880C",
" k    c #1B700B",
" l    c #217F0C",
" m    c #22860C",
" n    c #258C0C",
" o    c #278F0C",
" p    c #27910C",
" q    c #37991D",
" r    c #47A130",
" s    c #4DA538",
" t    c #51A63B",
" u    c #358A20",
" v    c #010101",
" w    c #20750B",
" x    c #51A63C",
" y    c #4FA63A",
" z    c #4BA334",
" A    c #3E9D25",
" B    c #1C740C",
" C    c #207F0C",
" D    c #22870C",
" E    c #258E0C",
" F    c #27930C",
" G    c #29970C",
" H    c #3CA120",
" I    c #6BB958",
" J    c #89C77B",
" K    c #99CE8C",
" L    c #A2D196",
" M    c #96C38B",
" N    c #012401",
" O    c #6A975F",
" P    c #65925A",
" Q    c #6F9D65",
" R    c #012901",
" S    c #7EAB72",
" T    c #A3D198",
" U    c #9ECF91",
" V    c #8FCA81",
" W    c #78BD65",
" X    c #4DAA36",
" Y    c #29990C",
" Z    c #1A6C0B",
" &    c #1D780C",
"0     c #248C0C",
"00    c #2B9F0D",
"01    c #67BA50",
"02    c #99D08A",
"03    c #B7DDAD",
"04    c #C8E4C0",
"05    c #D0E7C9",
"06    c #0D2307",
"07    c #B4CAAD",
"08    c #D4E9CD",
"09    c #C9DEC2",
"0a    c #BCD4B5",
"0b    c #CBE5C4",
"0c    c #BEE0B5",
"0d    c #A4D599",
"0e    c #7BC266",
"0f    c #39A41B",
"0g    c #1A6E0C",
"0h    c #1F7B0C",
"0i    c #21860C",
"0j    c #27910D",
"0k    c #2A990D",
"0l    c #2BA00D",
"0m    c #2EA30D",
"0n    c #72C15B",
"0o    c #A3D796",
"0p    c #C1E3B9",
"0q    c #D3EBCB",
"0r    c #DAEED4",
"0s    c #0D1D07",
"0t    c #D2E3CD",
"0u    c #DEEFD9",
"0v    c #10200A",
"0w    c #C5D7BF",
"0x    c #D6ECCF",
"0y    c #C9E7C0",
"0z    c #B1DDA4",
"0A    c #85CB72",
"0B    c #45AF26",
"0C    c #1B700C",
"0D    c #207C0D",
"0E    c #23880D",
"0F    c #28930D",
"0G    c #2A9C0D",
"0H    c #2DA20D",
"0I    c #2EA70E",
"0J    c #64BE4A",
"0K    c #96D484",
"0L    c #B4DFA7",
"0M    c #C3E6BB",
"0N    c #CBE8C2",
"0O    c #46633E",
"0P    c #5E7A56",
"0Q    c #CFEAC7",
"0R    c #738F6B",
"0S    c #385430",
"0T    c #C4E0BB",
"0U    c #C7E8BF",
"0V    c #BAE2AF",
"0W    c #A1D992",
"0X    c #79C761",
"0Y    c #37AC15",
"0Z    c #1B710C",
"0&    c #207E0D",
"1     c #24890D",
"10    c #28940D",
"11    c #2A9D0D",
"12    c #2EA40E",
"13    c #30A90F",
"14    c #46B325",
"15    c #76C85E",
"16    c #94D581",
"17    c #A3DB94",
"18    c #ACDE9D",
"19    c #A9D99A",
"1a    c #2D5B1D",
"1b    c #043201",
"1c    c #124002",
"1d    c #0F3D01",
"1e    c #1E4C0E",
"1f    c #9ECD8E",
"1g    c #AEDF9F",
"1h    c #A7DD98",
"1i    c #9BD788",
"1j    c #81CD6C",
"1k    c #58BD3D",
"1l    c #32AC0F",
"1m    c #217E0D",
"1n    c #258A0D",
"1o    c #29950D",
"1p    c #2C9F0E",
"1q    c #2FA50E",
"1r    c #31AB0F",
"1s    c #32AE0F",
"1t    c #52BA32",
"1u    c #6EC753",
"1v    c #80CE68",
"1w    c #88D271",
"1x    c #8CD374",
"1y    c #7FC668",
"1z    c #468D2E",
"1A    c #022802",
"1B    c #022202",
"1C    c #85CC6D",
"1D    c #8AD273",
"1E    c #83D06C",
"1F    c #76CA5C",
"1G    c #5DC13F",
"1H    c #34AF10",
"1I    c #28950D",
"1J    c #207F0D",
"1K    c #268B0E",
"1L    c #29960E",
"1M    c #2CA00E",
"1N    c #31A70E",
"1O    c #33B00F",
"1P    c #36B110",
"1Q    c #4DBB2A",
"1R    c #5DC23E",
"1S    c #65C547",
"1T    c #69C64B",
"1U    c #6BC84C",
"1V    c #6CC84C",
"1W    c #044404",
"1X    c #6AC84C",
"1Y    c #68C649",
"1Z    c #60C342",
"1&    c #54BD32",
"2     c #3CB516",
"20    c #1C720C",
"21    c #22800E",
"22    c #268C0E",
"23    c #2A970E",
"24    c #2DA10E",
"25    c #31A80E",
"26    c #33AE10",
"27    c #35B210",
"28    c #37B310",
"29    c #39B511",
"2a    c #46BA1F",
"2b    c #4DBD28",
"2c    c #51C02C",
"2d    c #53C12D",
"2e    c #54C12D",
"2f    c #053D05",
"2g    c #50BF2A",
"2h    c #49BC24",
"2i    c #3DB715",
"2j    c #34B210",
"2k    c #1D720D",
"2l    c #22810E",
"2m    c #268D0E",
"2n    c #2B980E",
"2o    c #2FA20E",
"2p    c #32A90F",
"2q    c #34B010",
"2r    c #37B411",
"2s    c #3BB812",
"2t    c #3CB912",
"2u    c #41BB17",
"2v    c #46BD1C",
"2w    c #47BD1D",
"2x    c #063906",
"2y    c #44BD1A",
"2z    c #3DB912",
"2A    c #1E730D",
"2B    c #278E0E",
"2C    c #2C980E",
"2D    c #2FA40F",
"2E    c #33AA0F",
"2F    c #37B211",
"2G    c #3AB712",
"2H    c #3CB812",
"2I    c #3DBB13",
"2J    c #3EBB13",
"2K    c #3EBC13",
"2L    c #41BD14",
"2M    c #42BF15",
"2N    c #43BF15",
"2O    c #073B07",
"2P    c #41BE14",
"2Q    c #40BD13",
"2R    c #1E740D",
"2S    c #23820E",
"2T    c #288F0E",
"2U    c #2D9B0F",
"2V    c #30A40F",
"2W    c #35AD10",
"2X    c #3AB512",
"2Y    c #3CBA13",
"2Z    c #41BE13",
"2&    c #43C014",
"3     c #44C114",
"30    c #44C214",
"31    c #073E07",
"32    c #39B512",
"33    c #1F750D",
"34    c #24830E",
"35    c #298F0F",
"36    c #2D9C0F",
"37    c #33A710",
"38    c #38AF11",
"39    c #3BB713",
"3a    c #42C014",
"3b    c #45C315",
"3c    c #46C415",
"3d    c #47C516",
"3e    c #48C516",
"3f    c #084208",
"3g    c #20760D",
"3h    c #25840F",
"3i    c #2A910F",
"3j    c #309E10",
"3k    c #35A911",
"3l    c #3BB112",
"3m    c #3EBA13",
"3n    c #41BF14",
"3o    c #49C616",
"3p    c #4CC817",
"3q    c #4CC917",
"3r    c #4DC917",
"3s    c #094609",
"3t    c #21760E",
"3u    c #26850F",
"3v    c #2B9210",
"3w    c #33A011",
"3x    c #38AB12",
"3y    c #3DB412",
"3z    c #41BC14",
"3A    c #44C115",
"3B    c #49C416",
"3C    c #4AC716",
"3D    c #4FCB18",
"3E    c #4FCC18",
"3F    c #51CD18",
"3G    c #0A4A0A",
"3H    c #21770E",
"3I    c #288610",
"3J    c #2D9411",
"3K    c #34A212",
"3L    c #3AAD12",
"3M    c #3FB613",
"3N    c #44BD15",
"3O    c #48C416",
"3P    c #4DC717",
"3Q    c #4FCA18",
"3R    c #50CD18",
"3S    c #52CE18",
"3T    c #54D019",
"3U    c #55D119",
"3V    c #56D219",
"3W    c #0A4E0A",
"3X    c #39AD12",
"3Y    c #22770E",
"3Z    c #298610",
"3&    c #2E9511",
"4     c #35A312",
"40    c #3BAD12",
"41    c #42B813",
"42    c #48BF15",
"43    c #4CC717",
"44    c #52CD18",
"45    c #57D219",
"46    c #59D31A",
"47    c #5AD41A",
"48    c #5BD51A",
"49    c #0B520B",
"4a    c #59D41A",
"4b    c #23790F",
"4c    c #298710",
"4d    c #329712",
"4e    c #37A412",
"4f    c #3FAF13",
"4g    c #44BA14",
"4h    c #4AC115",
"4i    c #4FC918",
"4j    c #54CC18",
"4k    c #57D119",
"4l    c #5AD31A",
"4m    c #5CD51A",
"4n    c #5DD71A",
"4o    c #5FD81B",
"4p    c #60D91B",
"4q    c #0C550C",
"4r    c #53CC18",
"4s    c #319712",
"4t    c #2A8810",
"4u    c #339712",
"4v    c #38A512",
"4w    c #40B113",
"4x    c #47BC15",
"4y    c #4CC316",
"4z    c #51CC18",
"4A    c #56CF19",
"4B    c #5DD61A",
"4C    c #60D81B",
"4D    c #61D91B",
"4E    c #63DB1C",
"4F    c #64DC1C",
"4G    c #0C580C",
"4H    c #298810",
"4I    c #24790F",
"4J    c #339812",
"4K    c #3BA613",
"4L    c #42B214",
"4M    c #48BC15",
"4N    c #4FC517",
"4O    c #54CD18",
"4P    c #5AD119",
"4Q    c #5DD51A",
"4R    c #62DA1B",
"4S    c #65DC1C",
"4T    c #66DD1D",
"4U    c #67DE1D",
"4V    c #0D5B0D",
"4W    c #59D119",
"4X    c #25790F",
"4Y    c #2C8A11",
"4Z    c #349912",
"4&    c #3CA613",
"5     c #43B314",
"50    c #4BBE16",
"51    c #51C617",
"52    c #57CE19",
"53    c #5BD21A",
"54    c #60D61A",
"55    c #63D81B",
"56    c #67DB1C",
"57    c #68DD1D",
"58    c #6ADE1D",
"59    c #6BE01E",
"5a    c #0D5D0D",
"5b    c #66DB1C",
"5c    c #267A10",
"5d    c #2D8911",
"5e    c #349812",
"5f    c #3DA613",
"5g    c #44B315",
"5h    c #53C617",
"5i    c #59CE18",
"5j    c #5DD21A",
"5k    c #61D61B",
"5l    c #65D91C",
"5m    c #68DB1D",
"5n    c #6ADD1D",
"5o    c #6BDF1E",
"5p    c #6DE01E",
"5q    c #267910",
"5r    c #349612",
"5s    c #3CA413",
"5t    c #45B115",
"5u    c #4ABC16",
"5v    c #53C417",
"5w    c #59CB18",
"5x    c #5DD019",
"5y    c #63D31A",
"5z    c #66D61B",
"5A    c #69DA1C",
"5B    c #69DC1D",
"5C    c #6BDD1D",
"5D    c #6DDE1D",
"5E    c #0E5C0E",
"5F    c #62D31A",
"5G    c #257610",
"5H    c #2C8511",
"5I    c #349411",
"5J    c #3CA113",
"5K    c #42AC15",
"5L    c #4AB716",
"5M    c #51C017",
"5N    c #57C718",
"5O    c #5CCB19",
"5P    c #5FD01A",
"5Q    c #64D21B",
"5R    c #67D41C",
"5S    c #69D51D",
"5T    c #6AD61D",
"5U    c #6CD71D",
"5V    c #0D570D",
"5W    c #63D21B",
"5X    c #56C718",
"5Y    c #2B8511",
"5Z    c #257310",
"5&    c #2B8111",
"6     c #338F11",
"60    c #3A9B12",
"61    c #40A615",
"62    c #48AF16",
"63    c #4EB817",
"64    c #55BF18",
"65    c #59C319",
"66    c #5DC71A",
"67    c #60CA1B",
"68    c #63CC1C",
"69    c #65CE1D",
"6a    c #67CE1D",
"6b    c #68CF1D",
"6c    c #0D500D",
"6d    c #54BF18",
"6e    c #47AF16",
"6f    c #399B12",
"6g    c #247310",
"6h    c #247210",
"6i    c #297B11",
"6j    c #2F8711",
"6k    c #359312",
"6l    c #3D9E14",
"6m    c #44A715",
"6n    c #4BAF17",
"6o    c #4EB418",
"6p    c #54B819",
"6q    c #58BC1A",
"6r    c #5ABF1B",
"6s    c #5DC01C",
"6t    c #5FC21D",
"6u    c #61C31D",
"6v    c #63C41D",
"6w    c #127212",
"6x    c #53B819",
"6y    c #267711",
"6z    c #2C8011",
"6A    c #328A12",
"6B    c #399414",
"6C    c #3E9B15",
"6D    c #44A316",
"6E    c #49A817",
"6F    c #4CAA18",
"6G    c #51AE19",
"6H    c #54B01A",
"6I    c #57B21B",
"6J    c #57B41B",
"6K    c #59B51C",
"6L    c #5AB61C",
"6M    c #23720F",
"6N    c #267411",
"6O    c #287711",
"6P    c #2E8012",
"6Q    c #338713",
"6R    c #398F15",
"6S    c #3D9516",
"6T    c #419917",
"6U    c #459C18",
"6V    c #489D18",
"6W    c #4AA019",
"6X    c #4CA21A",
"6Y    c #4EA41B",
"6Z    c #4FA51B",
"6&    c #50A61C",
"7     c #23710F",
"70    c #267310",
"71    c #277511",
"72    c #2A7712",
"73    c #2E7A13",
"74    c #308014",
"75    c #358615",
"76    c #388916",
"77    c #3B8C16",
"78    c #3F8E17",
"79    c #408F18",
"7a    c #429118",
"7b    c #449219",
"7c    c #45941A",
"7d    c #46941A",
"7e    c #3E8E17",
"7f    c #267511",
"         0 1 2 3 4 4 4 4 4 4 4 4 4 4 4 4 4 4 4 4 3 2 1 0        ",
"     5 6 7 8 9 a b b b b b b b b b b b b b b b a a 9 8 7 6 5   c",
"   5 d e f g h i j j j j j j j j j j j j j j j j i h g f e d 5  ",
" c k e l m n o p p q r s t u v v v w x y z A p p p o n m l e k c",
" 5 B C D E F G H I J K L M N O P Q R S T U V W X Y G F E D C B 5",
" Z & g0  F Y000102030405060708080809060a0b0c0d0e0f00 Y F0  g & Z",
"0g0h0i0j0k0l0m0n0o0p0q0r0s0t0u0u0u0u0v0w0x0y0z0A0B0m0l0k0j0i0h0g",
"0C0D0E0F0G0H0I0J0K0L0M0N0O0P0Q0Q0Q0R0S0T0U0V0W0X0Y0I0H0G0F0E0D0C",
"0Z0&1 101112131415161718191a1b1c1d1e1f1g1h1i1j1k1l131211101 0&0Z",
" d1m1n1o1p1q1r1s1t1u1v1w1x1y1z1A1B1C1x1D1E1F1G1H1s1r1q1p1I1n1m d",
" d1J1K1L1M1N1l1O1P1Q1R1S1T1U1V1W1W1V1X1Y1Z1&2 1P1O1l1N1M1L1K1J d",
"202122232425262728292a2b2c2d2e2f2f2e2d2g2h2i29282j26252423222120",
"2k2l2m2n2o2p2q2r292s2t2u2v2w2w2x2x2w2v2y2z2t2s292r2q2p2o2n2m2l2k",
"2A2l2B2C2D2E2F2G2H2I2J2K2L2M2N2O2O2N2P2Q2K2J2I2H2G2F2E2D2C2B2l2A",
"2R2S2T2U2V2W2X2Y2J2Q2Z2&2&3 303131303 2&2&2Z2Q2J2Y322W2V2U2T2S2R",
"333435363738392K2Q3a303b3c3d3e3f3f3e3d3c3b303a2Q2K39383736353433",
"3g3h3i3j3k3l3m3n3 3c3e3o3p3q3r3s3s3r3q3p3o3e3c3 3n3m3l3k3j3i3h3g",
"3t3u3v3w3x3y3z3A3B3C3r3D3E3F3F3G3G3F3F3E3D3r3C3B3A3z3y3x3w3v3u3t",
"3H3I3J3K3L3M3N3O3P3Q3R3S3T3U3V3W3W3V3U3T3S3R3Q3P3O3N3M3X3K3J3I3H",
"3Y3Z3&4 404142433Q443T454647484949484a46453T443Q434241404 3&3Z3Y",
"4b4c4d4e4f4g4h4i4j4k4l4m4n4o4p4q4q4p4o4n4m4l4k4r4i4h4g4f4e4s4c4b",
"4b4t4u4v4w4x4y4z4A4l4B4C4D4E4F4G4G4F4E4p4C4B4l4A4z4y4x4w4v4u4H4b",
"4I4t4J4K4L4M4N4O4P4Q4C4R4S4T4U4V4V4U4T4S4R4C4Q4W4O4N4M4L4K4J4t4I",
"4X4Y4Z4&5 505152535455565758595a5a5958575b5554535251505 4K4Z4Y4I",
"5c5d5e5f5g505h5i5j5k5l5m5n5o5p5a5a5p5o5n5m5l5k5j5i5h505g5f5e5d5c",
"5q5d5r5s5t5u5v5w5x5y5z5A5B5C5D5E5E5D5C5B5A5z5F5x5w5v5u5t5s5r5d5q",
"5G5H5I5J5K5L5M5N5O5P5Q5R5S5T5U5V5V5U5T5S5R5W5P5O5X5M5L5K5J5I5Y5G",
"5Z5&6 606162636465666768696a6b6c6c6b6a69686766656d636e616f6 5&6g",
"6h6i6j6k6l6m6n6o6p6q6r6s6t6u6v6w6w6v6u6t6s6r6q6x6o6n6m6l6k6j6i6h",
"6h6y6z6A6B6C6D6E6F6G6H6I6J6K6L6L6L6L6K6J6I6H6G6F6E6D6C6B6A6z6y6h",
"6M6N6O6P6Q6R6S6T6U6V6W6X6Y6Z6&6&6&6&6Z6Y6X6W6V6U6T6S6R6Q6P6O6N6M",
"7 707172737475767778797a7b7c7c7d7d7c7c7b7a797e7776757473727f707 "};
