/* XPM */
static char *B22_xpm[]={
"32 32 520 2",
"      c #1A680B",
" 0    c #1A690B",
" 1    c #1A6B0B",
" 2    c #1C6D0C",
" 3    c #1C6F0C",
" 4    c #1C700C",
" 5    c #1A6A0B",
" 6    c #1C700B",
" 7    c #1D730C",
" 8    c #1E780C",
" 9    c #1F7A0C",
" a    c #207C0C",
" b    c #217C0C",
" c    c #19680B",
" d    c #1C710C",
" e    c #1E770C",
" f    c #217E0C",
" g    c #21820C",
" h    c #22850C",
" i    c #24870C",
" j    c #25880C",
" k    c #0F7204",
" l    c #0D7004",
" m    c #1B700B",
" n    c #217F0C",
" o    c #22860C",
" p    c #258C0C",
" q    c #278F0C",
" r    c #27910C",
" s    c #37991D",
" t    c #47A130",
" u    c #4DA538",
" v    c #51A63B",
" w    c #1D7107",
" x    c #020F02",
" y    c #51A63C",
" z    c #4FA63A",
" A    c #4BA334",
" B    c #3E9D25",
" C    c #1C740C",
" D    c #207F0C",
" E    c #22870C",
" F    c #258E0C",
" G    c #27930C",
" H    c #29970C",
" I    c #3CA120",
" J    c #6BB958",
" K    c #89C77B",
" L    c #73A866",
" M    c #6D9D62",
" N    c #A6D29A",
" O    c #010801",
" P    c #90BE86",
" Q    c #010701",
" R    c #A3D198",
" S    c #6A9B5D",
" T    c #6AA45B",
" U    c #78BD65",
" V    c #4DAA36",
" W    c #29990C",
" X    c #1A6C0B",
" Y    c #1D780C",
" Z    c #248C0C",
" &    c #2B9F0D",
"0     c #67BA50",
"00    c #99D08A",
"01    c #B7DDAD",
"02    c #A3C09C",
"03    c #001100",
"04    c #8BA184",
"05    c #D4E9CD",
"06    c #0E2408",
"07    c #82987B",
"08    c #89A182",
"09    c #000F00",
"0a    c #9ABC91",
"0b    c #A4D599",
"0c    c #7BC266",
"0d    c #39A41B",
"0e    c #1A6E0C",
"0f    c #1F7B0C",
"0g    c #21860C",
"0h    c #27910D",
"0i    c #2A990D",
"0j    c #2BA00D",
"0k    c #2EA30D",
"0l    c #72C15B",
"0m    c #A3D796",
"0n    c #C1E3B9",
"0o    c #D3EBCB",
"0p    c #A8BCA2",
"0q    c #0B1B05",
"0r    c #879882",
"0s    c #657560",
"0t    c #3D4E38",
"0u    c #879881",
"0v    c #091A03",
"0w    c #A4BA9D",
"0x    c #C9E7C0",
"0y    c #B1DDA4",
"0z    c #85CB72",
"0A    c #45AF26",
"0B    c #1B700C",
"0C    c #207C0D",
"0D    c #23880D",
"0E    c #28930D",
"0F    c #2A9C0D",
"0G    c #2DA20D",
"0H    c #2EA70E",
"0I    c #64BE4A",
"0J    c #83C171",
"0K    c #739F66",
"0L    c #9EC296",
"0M    c #CBE8C2",
"0N    c #90AD88",
"0O    c #5D7955",
"0P    c #1D3815",
"0Q    c #56724E",
"0R    c #8FAC86",
"0S    c #C7E8BF",
"0T    c #95BE8A",
"0U    c #609951",
"0V    c #66B44E",
"0W    c #37AC15",
"0X    c #1B710C",
"0Y    c #207E0D",
"0Z    c #24890D",
"0&    c #28940D",
"1     c #2A9D0D",
"10    c #2EA40E",
"11    c #30A90F",
"12    c #46B325",
"13    c #58AA40",
"14    c #012B01",
"15    c #000000",
"16    c #011001",
"17    c #255516",
"18    c #012E01",
"19    c #699659",
"1a    c #A6D496",
"1b    c #245515",
"1c    c #010F01",
"1d    c #022302",
"1e    c #3B9F1F",
"1f    c #32AC0F",
"1g    c #217E0D",
"1h    c #258A0D",
"1i    c #29950D",
"1j    c #2C9F0E",
"1k    c #2FA50E",
"1l    c #31AB0F",
"1m    c #32AE0F",
"1n    c #52BA32",
"1o    c #6EC753",
"1p    c #76C45E",
"1q    c #2C7615",
"1r    c #034203",
"1s    c #010301",
"1t    c #8AD172",
"1u    c #8DD475",
"1v    c #034103",
"1w    c #277410",
"1x    c #6CC052",
"1y    c #5DC13F",
"1z    c #34AF10",
"1A    c #28950D",
"1B    c #207F0D",
"1C    c #268B0E",
"1D    c #29960E",
"1E    c #2CA00E",
"1F    c #31A70E",
"1G    c #33B00F",
"1H    c #36B110",
"1I    c #4DBB2A",
"1J    c #46AB27",
"1K    c #055B05",
"1L    c #031803",
"1M    c #043904",
"1N    c #55B135",
"1O    c #6CC84C",
"1P    c #055905",
"1Q    c #3DA61B",
"1R    c #3CB516",
"1S    c #1C720C",
"1T    c #22800E",
"1U    c #268C0E",
"1V    c #2A970E",
"1W    c #2DA10E",
"1X    c #31A80E",
"1Y    c #33AE10",
"1Z    c #35B210",
"1&    c #34B00D",
"2     c #052D05",
"20    c #030703",
"21    c #054705",
"22    c #030303",
"23    c #076507",
"24    c #4AB723",
"25    c #054605",
"26    c #030603",
"27    c #34B210",
"28    c #1D720D",
"29    c #22810E",
"2a    c #268D0E",
"2b    c #2B980E",
"2c    c #2FA20E",
"2d    c #32A90F",
"2e    c #34B010",
"2f    c #37B411",
"2g    c #39B511",
"2h    c #2CA90B",
"2i    c #35B20C",
"2j    c #41BB17",
"2k    c #097709",
"2l    c #063B06",
"2m    c #052305",
"2n    c #040F04",
"2o    c #3DB912",
"2p    c #1E730D",
"2q    c #278E0E",
"2r    c #2C980E",
"2s    c #2FA40F",
"2t    c #33AA0F",
"2u    c #37B211",
"2v    c #3AB712",
"2w    c #3CB812",
"2x    c #3DBB13",
"2y    c #3EBB13",
"2z    c #0A780A",
"2A    c #020202",
"2B    c #0B840B",
"2C    c #096709",
"2D    c #0B830B",
"2E    c #1E740D",
"2F    c #23820E",
"2G    c #288F0E",
"2H    c #2D9B0F",
"2I    c #30A40F",
"2J    c #35AD10",
"2K    c #3AB512",
"2L    c #3CBA13",
"2M    c #40BD13",
"2N    c #0A7A0A",
"2O    c #1F9C0D",
"2P    c #44C114",
"2Q    c #062906",
"2R    c #39B512",
"2S    c #1F750D",
"2T    c #24830E",
"2U    c #298F0F",
"2V    c #2D9C0F",
"2W    c #33A710",
"2X    c #38AF11",
"2Y    c #3BB713",
"2Z    c #3EBC13",
"2&    c #42C014",
"3     c #0E8C0C",
"30    c #27A50E",
"31    c #46C415",
"32    c #0A5F0A",
"33    c #20760D",
"34    c #25840F",
"35    c #2A910F",
"36    c #309E10",
"37    c #35A911",
"38    c #3BB112",
"39    c #3EBA13",
"3a    c #41BF14",
"3b    c #48C516",
"3c    c #49C616",
"3d    c #4CC817",
"3e    c #0E8B0E",
"3f    c #094709",
"3g    c #0D860D",
"3h    c #21760E",
"3i    c #26850F",
"3j    c #2B9210",
"3k    c #33A011",
"3l    c #38AB12",
"3m    c #3DB412",
"3n    c #41BC14",
"3o    c #44C115",
"3p    c #49C416",
"3q    c #4AC716",
"3r    c #4DC917",
"3s    c #4FCB18",
"3t    c #4FCC18",
"3u    c #4AC613",
"3v    c #51CD18",
"3w    c #0E7D0E",
"3x    c #21770E",
"3y    c #288610",
"3z    c #2D9411",
"3A    c #34A212",
"3B    c #3AAD12",
"3C    c #3FB613",
"3D    c #44BD15",
"3E    c #48C416",
"3F    c #4DC717",
"3G    c #4FCA18",
"3H    c #50CD18",
"3I    c #52CE18",
"3J    c #54D019",
"3K    c #55D119",
"3L    c #56D219",
"3M    c #0E7F0E",
"3N    c #39AD12",
"3O    c #22770E",
"3P    c #298610",
"3Q    c #2E9511",
"3R    c #35A312",
"3S    c #3BAD12",
"3T    c #42B813",
"3U    c #48BF15",
"3V    c #4CC717",
"3W    c #52CD18",
"3X    c #57D219",
"3Y    c #59D31A",
"3Z    c #5AD41A",
"3&    c #5BD51A",
"4     c #108310",
"40    c #59D41A",
"41    c #23790F",
"42    c #298710",
"43    c #329712",
"44    c #37A412",
"45    c #3FAF13",
"46    c #44BA14",
"47    c #4AC115",
"48    c #4FC918",
"49    c #54CC18",
"4a    c #57D119",
"4b    c #5AD31A",
"4c    c #5CD51A",
"4d    c #5DD71A",
"4e    c #5FD81B",
"4f    c #60D91B",
"4g    c #108610",
"4h    c #53CC18",
"4i    c #319712",
"4j    c #2A8810",
"4k    c #339712",
"4l    c #38A512",
"4m    c #40B113",
"4n    c #47BC15",
"4o    c #4CC316",
"4p    c #51CC18",
"4q    c #56CF19",
"4r    c #5DD61A",
"4s    c #60D81B",
"4t    c #61D91B",
"4u    c #63DB1C",
"4v    c #64DC1C",
"4w    c #128911",
"4x    c #298810",
"4y    c #24790F",
"4z    c #339812",
"4A    c #3BA613",
"4B    c #42B214",
"4C    c #48BC15",
"4D    c #4FC517",
"4E    c #54CD18",
"4F    c #5AD119",
"4G    c #5DD51A",
"4H    c #62DA1B",
"4I    c #65DC1C",
"4J    c #66DD1D",
"4K    c #67DE1D",
"4L    c #158C12",
"4M    c #59D119",
"4N    c #25790F",
"4O    c #2C8A11",
"4P    c #349912",
"4Q    c #3CA613",
"4R    c #43B314",
"4S    c #4BBE16",
"4T    c #51C617",
"4U    c #57CE19",
"4V    c #5BD21A",
"4W    c #60D61A",
"4X    c #63D81B",
"4Y    c #67DB1C",
"4Z    c #68DD1D",
"4&    c #6ADE1D",
"5     c #6BE01E",
"50    c #188D12",
"51    c #66DB1C",
"52    c #267A10",
"53    c #2D8911",
"54    c #349812",
"55    c #3DA613",
"56    c #44B315",
"57    c #53C617",
"58    c #59CE18",
"59    c #5DD21A",
"5a    c #61D61B",
"5b    c #65D91C",
"5c    c #68DB1D",
"5d    c #6ADD1D",
"5e    c #6BDF1E",
"5f    c #6DE01E",
"5g    c #1B8E12",
"5h    c #267910",
"5i    c #349612",
"5j    c #3CA413",
"5k    c #45B115",
"5l    c #4ABC16",
"5m    c #53C417",
"5n    c #59CB18",
"5o    c #5DD019",
"5p    c #63D31A",
"5q    c #66D61B",
"5r    c #69DA1C",
"5s    c #69DC1D",
"5t    c #6BDD1D",
"5u    c #6DDE1D",
"5v    c #1B8C13",
"5w    c #62D31A",
"5x    c #257610",
"5y    c #2C8511",
"5z    c #349411",
"5A    c #3CA113",
"5B    c #42AC15",
"5C    c #4AB716",
"5D    c #51C017",
"5E    c #57C718",
"5F    c #5CCB19",
"5G    c #5FD01A",
"5H    c #64D21B",
"5I    c #67D41C",
"5J    c #69D51D",
"5K    c #6AD61D",
"5L    c #6CD71D",
"5M    c #1B8712",
"5N    c #63D21B",
"5O    c #56C718",
"5P    c #2B8511",
"5Q    c #257310",
"5R    c #2B8111",
"5S    c #338F11",
"5T    c #3A9B12",
"5U    c #40A615",
"5V    c #48AF16",
"5W    c #4EB817",
"5X    c #55BF18",
"5Y    c #59C319",
"5Z    c #5DC71A",
"5&    c #60CA1B",
"6     c #63CC1C",
"60    c #65CE1D",
"61    c #67CE1D",
"62    c #68CF1D",
"63    c #178012",
"64    c #54BF18",
"65    c #47AF16",
"66    c #399B12",
"67    c #247310",
"68    c #247210",
"69    c #297B11",
"6a    c #2F8711",
"6b    c #359312",
"6c    c #3D9E14",
"6d    c #44A715",
"6e    c #4BAF17",
"6f    c #4EB418",
"6g    c #54B819",
"6h    c #58BC1A",
"6i    c #5ABF1B",
"6j    c #5DC01C",
"6k    c #5FC21D",
"6l    c #61C31D",
"6m    c #63C41D",
"6n    c #137512",
"6o    c #53B819",
"6p    c #267711",
"6q    c #2C8011",
"6r    c #328A12",
"6s    c #399414",
"6t    c #3E9B15",
"6u    c #44A316",
"6v    c #49A817",
"6w    c #4CAA18",
"6x    c #51AE19",
"6y    c #54B01A",
"6z    c #57B21B",
"6A    c #57B41B",
"6B    c #59B51C",
"6C    c #5AB61C",
"6D    c #116811",
"6E    c #23720F",
"6F    c #267411",
"6G    c #287711",
"6H    c #2E8012",
"6I    c #338713",
"6J    c #398F15",
"6K    c #3D9516",
"6L    c #419917",
"6M    c #459C18",
"6N    c #489D18",
"6O    c #4AA019",
"6P    c #4CA21A",
"6Q    c #4EA41B",
"6R    c #4FA51B",
"6S    c #50A61C",
"6T    c #105910",
"6U    c #267410",
"6V    c #277611",
"6W    c #2A7812",
"6X    c #2E7A13",
"6Y    c #308014",
"6Z    c #358516",
"6&    c #388816",
"7     c #3B8B17",
"70    c #408E18",
"71    c #419019",
"72    c #429119",
"73    c #44921A",
"74    c #45941A",
"75    c #144D11",
"76    c #3F8E18",
"         0 1 2 3 4 4 4 4 4 4 4 4 4 4 4 4 4 4 4 4 3 2 1 0        ",
"     5 6 7 8 9 a b b b b b b b b b b b b b b b a a 9 8 7 6 5   c",
"   5 d e f g h i j j j j j k l j j l k j j j j j i h g f e d 5  ",
" c m e n o p q r r s t u v w x y y x w z A B r r r q p o n e m c",
" 5 C D E F G H I J K L M N N O P P Q N R S T U V W H G F E D C 5",
" X Y g Z G W &0 000102030405060707060508090a0b0c0d & W G Z g Y X",
"0e0f0g0h0i0j0k0l0m0n0o0p0q0r0s0t0t0s0u0v0w0x0y0z0A0k0j0i0h0g0f0e",
"0B0C0D0E0F0G0H0I0J0K0L0M0N0O0P0Q0Q0P0O0R0S0T0U0V0W0H0G0F0E0D0C0B",
"0X0Y0Z0&1 101112131415161718191a1a19181b1c151d1e1f11101 0&0Z0Y0X",
" d1g1h1i1j1k1l1m1n1o1p1q1r1s1t1u1u1t1s1v1w1x1y1z1m1l1k1j1A1h1g d",
" d1B1C1D1E1F1f1G1H1I1J1K1L1M1N1O1O1N1M1L1P1Q1R1H1G1f1F1E1D1C1B d",
"1S1T1U1V1W1X1Y1Z1&2 1520212223242423222526152 1&271Y1X1W1V1U1T1S",
"28292a2b2c2d2e2f2g2h2i2j2k2l2m2n2n2m2l2k2o2i2h2g2f2e2d2c2b2a2928",
"2p292q2r2s2t2u2v2w2x2y2z2A2B2C15152C2D2A2z2y2x2w2v2u2t2s2r2q292p",
"2E2F2G2H2I2J2K2L2y2M2N2A2O2P222Q2Q222P2O2A2N2M2y2L2R2J2I2H2G2F2E",
"2S2T2U2V2W2X2Y2Z2M2&3 3031312A32322A3131303 2&2M2Z2Y2X2W2V2U2T2S",
"333435363738393a2P313b3c3d3e3f3g3g3f3e3d3c3b312P3a39383736353433",
"3h3i3j3k3l3m3n3o3p3q3r3s3t3u3v3w3w3v3u3t3s3r3q3p3o3n3m3l3k3j3i3h",
"3x3y3z3A3B3C3D3E3F3G3H3I3J3K3L3M3M3L3K3J3I3H3G3F3E3D3C3N3A3z3y3x",
"3O3P3Q3R3S3T3U3V3G3W3J3X3Y3Z3&4 4 3&403Y3X3J3W3G3V3U3T3S3R3Q3P3O",
"4142434445464748494a4b4c4d4e4f4g4g4f4e4d4c4b4a4h48474645444i4241",
"414j4k4l4m4n4o4p4q4b4r4s4t4u4v4w4w4v4u4f4s4r4b4q4p4o4n4m4l4k4x41",
"4y4j4z4A4B4C4D4E4F4G4s4H4I4J4K4L4L4K4J4I4H4s4G4M4E4D4C4B4A4z4j4y",
"4N4O4P4Q4R4S4T4U4V4W4X4Y4Z4&5 50505 4&4Z514X4W4V4U4T4S4R4A4P4O4y",
"52535455564S5758595a5b5c5d5e5f5g5g5f5e5d5c5b5a5958574S5655545352",
"5h535i5j5k5l5m5n5o5p5q5r5s5t5u5v5v5u5t5s5r5q5w5o5n5m5l5k5j5i535h",
"5x5y5z5A5B5C5D5E5F5G5H5I5J5K5L5M5M5L5K5J5I5N5G5F5O5D5C5B5A5z5P5x",
"5Q5R5S5T5U5V5W5X5Y5Z5&6 60616263636261606 5&5Z5Y645W655U665S5R67",
"68696a6b6c6d6e6f6g6h6i6j6k6l6m6n6n6m6l6k6j6i6h6o6f6e6d6c6b6a6968",
"686p6q6r6s6t6u6v6w6x6y6z6A6B6C6D6D6C6B6A6z6y6x6w6v6u6t6s6r6q6p68",
"6E6F6G6H6I6J6K6L6M6N6O6P6Q6R6S6T6T6S6R6Q6P6O6N6M6L6K6J6I6H6G6F6E",
"6E6U6V6W6X6Y6Z6&7 70717273747475757474737271767 6&6Z6Y6X6W6V6U6E"};
