/* XPM */
static char *B23_xpm[]={
"32 32 483 2",
"      c #1A680B",
" 0    c #1A690B",
" 1    c #1A6B0B",
" 2    c #1C6D0C",
" 3    c #1C6F0C",
" 4    c #1C700C",
" 5    c #1A6A0B",
" 6    c #1C700B",
" 7    c #1D730C",
" 8    c #1E780C",
" 9    c #1F7A0C",
" a    c #207C0C",
" b    c #217C0C",
" c    c #19680B",
" d    c #1C710C",
" e    c #1E770C",
" f    c #217E0C",
" g    c #21820C",
" h    c #22850C",
" i    c #24870C",
" j    c #25880C",
" k    c #1B700B",
" l    c #217F0C",
" m    c #22860C",
" n    c #258C0C",
" o    c #278F0C",
" p    c #27910C",
" q    c #37991D",
" r    c #47A130",
" s    c #4DA538",
" t    c #4CA136",
" u    c #31851C",
" v    c #277B12",
" w    c #4BA135",
" x    c #4BA334",
" y    c #3E9D25",
" z    c #1C740C",
" A    c #207F0C",
" B    c #22870C",
" C    c #258E0C",
" D    c #27930C",
" E    c #29970C",
" F    c #3CA120",
" G    c #6BB958",
" H    c #89C77B",
" I    c #99CE8C",
" J    c #A2D196",
" K    c #214D15",
" L    c #000000",
" M    c #1E4C13",
" N    c #9ECF91",
" O    c #8FCA81",
" P    c #78BD65",
" Q    c #4DAA36",
" R    c #29990C",
" S    c #1A6C0B",
" T    c #1D780C",
" U    c #248C0C",
" V    c #2B9F0D",
" W    c #67BA50",
" X    c #99D08A",
" Y    c #B7DDAD",
" Z    c #C8E4C0",
" &    c #D0E7C9",
"0     c #304529",
"00    c #40563A",
"01    c #D4E9CD",
"02    c #2E4527",
"03    c #CBE5C4",
"04    c #BEE0B5",
"05    c #A4D599",
"06    c #7BC266",
"07    c #39A41B",
"08    c #1A6E0C",
"09    c #1F7B0C",
"0a    c #21860C",
"0b    c #27910D",
"0c    c #2A990D",
"0d    c #2BA00D",
"0e    c #2EA30D",
"0f    c #72C15B",
"0g    c #A3D796",
"0h    c #C1E3B9",
"0i    c #D3EBCB",
"0j    c #DAEED4",
"0k    c #3D4E37",
"0l    c #3D4E38",
"0m    c #DEEFD9",
"0n    c #3B4D35",
"0o    c #D6ECCF",
"0p    c #C9E7C0",
"0q    c #B1DDA4",
"0r    c #85CB72",
"0s    c #45AF26",
"0t    c #1B700C",
"0u    c #207C0D",
"0v    c #23880D",
"0w    c #28930D",
"0x    c #2A9C0D",
"0y    c #2DA20D",
"0z    c #2EA70E",
"0A    c #64BE4A",
"0B    c #96D484",
"0C    c #B4DFA7",
"0D    c #C3E6BB",
"0E    c #CBE8C2",
"0F    c #2B4824",
"0G    c #2C4825",
"0H    c #CFEAC7",
"0I    c #2A4722",
"0J    c #C7E8BF",
"0K    c #BAE2AF",
"0L    c #A1D992",
"0M    c #79C761",
"0N    c #37AC15",
"0O    c #1B710C",
"0P    c #207E0D",
"0Q    c #24890D",
"0R    c #28940D",
"0S    c #2A9D0D",
"0T    c #2EA40E",
"0U    c #30A90F",
"0V    c #46B325",
"0W    c #76C85E",
"0X    c #94D581",
"0Y    c #A3DB94",
"0Z    c #ACDE9D",
"0&    c #0D3D01",
"1     c #0F3D01",
"10    c #B1DFA1",
"11    c #0E3D01",
"12    c #0C3D01",
"13    c #A7DD98",
"14    c #9BD788",
"15    c #81CD6C",
"16    c #58BD3D",
"17    c #32AC0F",
"18    c #217E0D",
"19    c #258A0D",
"1a    c #29950D",
"1b    c #2C9F0E",
"1c    c #2FA50E",
"1d    c #31AB0F",
"1e    c #32AE0F",
"1f    c #52BA32",
"1g    c #6EC753",
"1h    c #80CE68",
"1i    c #88D271",
"1j    c #023002",
"1k    c #8DD475",
"1l    c #022F02",
"1m    c #83D06C",
"1n    c #76CA5C",
"1o    c #5DC13F",
"1p    c #34AF10",
"1q    c #28950D",
"1r    c #207F0D",
"1s    c #268B0E",
"1t    c #29960E",
"1u    c #2CA00E",
"1v    c #31A70E",
"1w    c #33B00F",
"1x    c #36B110",
"1y    c #4DBB2A",
"1z    c #5DC23E",
"1A    c #65C547",
"1B    c #032303",
"1C    c #032503",
"1D    c #6CC84C",
"1E    c #60C342",
"1F    c #54BD32",
"1G    c #3CB516",
"1H    c #1C720C",
"1I    c #22800E",
"1J    c #268C0E",
"1K    c #2A970E",
"1L    c #2DA10E",
"1M    c #31A80E",
"1N    c #33AE10",
"1O    c #35B210",
"1P    c #37B310",
"1Q    c #39B511",
"1R    c #46BA1F",
"1S    c #4DBD28",
"1T    c #042D04",
"1U    c #041C04",
"1V    c #54C12D",
"1W    c #042C04",
"1X    c #49BC24",
"1Y    c #3DB715",
"1Z    c #34B210",
"1&    c #1D720D",
"2     c #22810E",
"20    c #268D0E",
"21    c #28950B",
"22    c #041D04",
"23    c #040A04",
"24    c #040F04",
"25    c #041204",
"26    c #041304",
"27    c #041504",
"28    c #041604",
"29    c #041804",
"2a    c #041A04",
"2b    c #47BD1D",
"2c    c #1E730D",
"2d    c #278E0E",
"2e    c #087507",
"2f    c #040B04",
"2g    c #041104",
"2h    c #051805",
"2i    c #051905",
"2j    c #062506",
"2k    c #18950C",
"2l    c #43BF15",
"2m    c #17940C",
"2n    c #1E740D",
"2o    c #23820E",
"2p    c #288F0E",
"2q    c #077007",
"2r    c #35AD10",
"2s    c #3AB512",
"2t    c #3CBA13",
"2u    c #3EBB13",
"2v    c #40BD13",
"2w    c #41BE13",
"2x    c #43C014",
"2y    c #44C114",
"2z    c #44C214",
"2A    c #45C214",
"2B    c #39B512",
"2C    c #1F750D",
"2D    c #24830E",
"2E    c #298F0F",
"2F    c #077207",
"2G    c #38AF11",
"2H    c #3BB713",
"2I    c #3EBC13",
"2J    c #42C014",
"2K    c #45C315",
"2L    c #46C415",
"2M    c #47C516",
"2N    c #48C516",
"2O    c #48C616",
"2P    c #20760D",
"2Q    c #25840F",
"2R    c #2A910F",
"2S    c #087408",
"2T    c #3BB112",
"2U    c #3EBA13",
"2V    c #41BF14",
"2W    c #49C616",
"2X    c #4CC817",
"2Y    c #4CC917",
"2Z    c #4DC917",
"2&    c #4DCA17",
"3     c #21760E",
"30    c #26850F",
"31    c #2B9210",
"32    c #097509",
"33    c #3DB412",
"34    c #41BC14",
"35    c #44C115",
"36    c #49C416",
"37    c #4AC716",
"38    c #4FCB18",
"39    c #4FCC18",
"3a    c #51CD18",
"3b    c #51CE18",
"3c    c #21770E",
"3d    c #288610",
"3e    c #2D9411",
"3f    c #117E0A",
"3g    c #051605",
"3h    c #061C06",
"3i    c #062206",
"3j    c #072707",
"3k    c #072A07",
"3l    c #072B07",
"3m    c #083808",
"3n    c #2BA712",
"3o    c #56D219",
"3p    c #22770E",
"3q    c #298610",
"3r    c #2E9511",
"3s    c #33A00F",
"3t    c #062906",
"3u    c #061E06",
"3v    c #072807",
"3w    c #082D08",
"3x    c #082F08",
"3y    c #083108",
"3z    c #5BD51A",
"3A    c #5CD61A",
"3B    c #23790F",
"3C    c #298710",
"3D    c #329712",
"3E    c #37A412",
"3F    c #3FAF13",
"3G    c #44BA14",
"3H    c #4AC115",
"3I    c #4FC918",
"3J    c #54CC18",
"3K    c #57D119",
"3L    c #5AD31A",
"3M    c #5CD51A",
"3N    c #0A440A",
"3O    c #083308",
"3P    c #60D91B",
"3Q    c #53CC18",
"3R    c #319712",
"3S    c #2A8810",
"3T    c #339712",
"3U    c #38A512",
"3V    c #40B113",
"3W    c #47BC15",
"3X    c #4CC316",
"3Y    c #51CC18",
"3Z    c #56CF19",
"3&    c #5DD61A",
"4     c #60D81B",
"40    c #093609",
"41    c #093809",
"42    c #64DC1C",
"43    c #65DC1C",
"44    c #298810",
"45    c #24790F",
"46    c #339812",
"47    c #3BA613",
"48    c #42B214",
"49    c #48BC15",
"4a    c #4FC517",
"4b    c #54CD18",
"4c    c #5AD119",
"4d    c #5DD51A",
"4e    c #62DA1B",
"4f    c #093909",
"4g    c #093A09",
"4h    c #67DE1D",
"4i    c #68DF1D",
"4j    c #59D119",
"4k    c #25790F",
"4l    c #2C8A11",
"4m    c #349912",
"4n    c #3CA613",
"4o    c #43B314",
"4p    c #4BBE16",
"4q    c #51C617",
"4r    c #57CE19",
"4s    c #5BD21A",
"4t    c #60D61A",
"4u    c #63D81B",
"4v    c #67DB1C",
"4w    c #093B09",
"4x    c #093C09",
"4y    c #6BE01E",
"4z    c #66DB1C",
"4A    c #267A10",
"4B    c #2D8911",
"4C    c #349812",
"4D    c #3DA613",
"4E    c #44B315",
"4F    c #53C617",
"4G    c #59CE18",
"4H    c #5DD21A",
"4I    c #61D61B",
"4J    c #65D91C",
"4K    c #68DB1D",
"4L    c #0A3D0A",
"4M    c #6DE01E",
"4N    c #267910",
"4O    c #349612",
"4P    c #3CA413",
"4Q    c #45B115",
"4R    c #4ABC16",
"4S    c #53C417",
"4T    c #59CB18",
"4U    c #5DD019",
"4V    c #63D31A",
"4W    c #66D61B",
"4X    c #69DA1C",
"4Y    c #0A3B0A",
"4Z    c #0A3C0A",
"4&    c #6DDE1D",
"5     c #62D31A",
"50    c #257610",
"51    c #2C8511",
"52    c #349411",
"53    c #3CA113",
"54    c #42AC15",
"55    c #4AB716",
"56    c #51C017",
"57    c #57C718",
"58    c #5CCB19",
"59    c #5FD01A",
"5a    c #64D21B",
"5b    c #67D41C",
"5c    c #093309",
"5d    c #0B430B",
"5e    c #6CD71D",
"5f    c #6DD81D",
"5g    c #63D21B",
"5h    c #56C718",
"5i    c #2B8511",
"5j    c #257310",
"5k    c #2B8111",
"5l    c #338F11",
"5m    c #3A9B12",
"5n    c #40A615",
"5o    c #48AF16",
"5p    c #4EB817",
"5q    c #55BF18",
"5r    c #59C319",
"5s    c #5DC71A",
"5t    c #60CA1B",
"5u    c #63CC1C",
"5v    c #0B490B",
"5w    c #54BF18",
"5x    c #47AF16",
"5y    c #399B12",
"5z    c #247310",
"5A    c #247210",
"5B    c #297B11",
"5C    c #2F8711",
"5D    c #359312",
"5E    c #3D9E14",
"5F    c #44A715",
"5G    c #4BAF17",
"5H    c #4EB418",
"5I    c #54B819",
"5J    c #58BC1A",
"5K    c #5ABF1B",
"5L    c #5DC01C",
"5M    c #5ABE19",
"5N    c #40A316",
"5O    c #389A16",
"5P    c #53B819",
"5Q    c #267711",
"5R    c #2C8011",
"5S    c #328A12",
"5T    c #399414",
"5U    c #3E9B15",
"5V    c #44A316",
"5W    c #49A817",
"5X    c #4CAA18",
"5Y    c #51AE19",
"5Z    c #54B01A",
"5&    c #57B21B",
"6     c #57B41B",
"60    c #59B51C",
"61    c #5AB61C",
"62    c #23720F",
"63    c #267411",
"64    c #287711",
"65    c #2E8012",
"66    c #338713",
"67    c #398F15",
"68    c #3D9516",
"69    c #419917",
"6a    c #459C18",
"6b    c #489D18",
"6c    c #4AA019",
"6d    c #4CA21A",
"6e    c #4EA41B",
"6f    c #4FA51B",
"6g    c #50A61C",
"6h    c #23710F",
"6i    c #277411",
"6j    c #287611",
"6k    c #2A7812",
"6l    c #2E7B13",
"6m    c #308014",
"6n    c #358616",
"6o    c #388916",
"6p    c #3B8C17",
"6q    c #3F8E17",
"6r    c #408F18",
"6s    c #429118",
"6t    c #449219",
"6u    c #45941A",
"6v    c #46941A",
"6w    c #3E8E17",
"6x    c #277611",
"         0 1 2 3 4 4 4 4 4 4 4 4 4 4 4 4 4 4 4 4 3 2 1 0        ",
"     5 6 7 8 9 a b b b b b b b b b b b b b b b a a 9 8 7 6 5   c",
"   5 d e f g h i j j j j j j j j j j j j j j j j i h g f e d 5  ",
" c k e l m n o p p q r s t u v v v v u w x y p p p o n m l e k c",
" 5 z A B C D E F G H I J K L L L L L L M N O P Q R E D C B A z 5",
" S T g U D R V W X Y Z &0 000101010100020304050607 V R D U g T S",
"08090a0b0c0d0e0f0g0h0i0j0k0l0m0m0m0m0k0n0o0p0q0r0s0e0d0c0b0a0908",
"0t0u0v0w0x0y0z0A0B0C0D0E0F0G0H0H0H0H0G0I0J0K0L0M0N0z0y0x0w0v0u0t",
"0O0P0Q0R0S0T0U0V0W0X0Y0Z0&1 10101010111213141516170U0T0S0R0Q0P0O",
" d18191a1b1c1d1e1f1g1h1i1j1j1k1k1k1k1j1l1m1n1o1p1e1d1c1b1q1918 d",
" d1r1s1t1u1v171w1x1y1z1A1B1C1D1D1D1D1C1B1E1F1G1x1w171v1u1t1s1r d",
"1H1I1J1K1L1M1N1O1P1Q1R1S1T1U1V1V1V1V1U1W1X1Y1Q1P1Z1N1M1L1K1J1I1H",
"1&2 20212223242526272829 L2a2b2b2b2b2a L282827262524232221202 1&",
"2c2 2d2e L2f2g27282h2h2i2j2k2l2l2l2l2m2j2i2h2h28272g2f L2e2d2 2c",
"2n2o2p2q L2r2s2t2u2v2w2x2x2y2z2A2A2z2y2x2x2w2v2u2t2B2r L2q2p2o2n",
"2C2D2E2F L2G2H2I2v2J2z2K2L2M2N2O2O2N2M2L2K2z2J2v2I2H2G L2F2E2D2C",
"2P2Q2R2S L2T2U2V2y2L2N2W2X2Y2Z2&2&2Z2Y2X2W2N2L2y2V2U2T L2S2R2Q2P",
"3 303132 L33343536372Z38393a3a3b3b3a3a39382Z3736353433 L3231303 ",
"3c3d3e3f L3g3h3i2j3j3k3l3m3n3o3o3o3o3n3m3l3k3j2j3i3h3g L3f3e3d3c",
"3p3q3r3s3t2h3u2j3v3k3w3x L3y3z3A3A3z3y L3x3w3k3v2j3u2h3t3s3r3q3p",
"3B3C3D3E3F3G3H3I3J3K3L3M3N3O3P3P3P3P3O3N3M3L3K3Q3I3H3G3F3E3R3C3B",
"3B3S3T3U3V3W3X3Y3Z3L3&4 40414243434241404 3&3L3Z3Y3X3W3V3U3T443B",
"453S464748494a4b4c4d4 4e4f4g4h4i4i4h4g4f4e4 4d4j4b4a494847463S45",
"4k4l4m4n4o4p4q4r4s4t4u4v4w4x4y4y4y4y4x4w4z4u4t4s4r4q4p4o474m4l45",
"4A4B4C4D4E4p4F4G4H4I4J4K4w4L4M4M4M4M4L4w4K4J4I4H4G4F4p4E4D4C4B4A",
"4N4B4O4P4Q4R4S4T4U4V4W4X4Y4Z4&4&4&4&4Z4Y4X4W5 4U4T4S4R4Q4P4O4B4N",
"505152535455565758595a5b5c5d5e5f5f5e5d5c5b5g59585h56555453525i50",
"5j5k5l5m5n5o5p5q5r5s5t5u5v L L L L L L5v5u5t5s5r5w5p5x5n5y5l5k5z",
"5A5B5C5D5E5F5G5H5I5J5K5L5M5N5O5O5O5O5N5M5L5K5J5P5H5G5F5E5D5C5B5A",
"5A5Q5R5S5T5U5V5W5X5Y5Z5&6 6061616161606 5&5Z5Y5X5W5V5U5T5S5R5Q5A",
"62636465666768696a6b6c6d6e6f6g6g6g6g6f6e6d6c6b6a6968676665646362",
"6h6i6j6k6l6m6n6o6p6q6r6s6t6u6u6v6v6u6u6t6s6r6w6p6o6n6m6l6k6x6i6h"};
