/* XPM */
static char *B24_xpm[]={
"32 32 618 2",
"      c #1A680B",
" 0    c #1A690B",
" 1    c #1A6B0B",
" 2    c #1C6D0C",
" 3    c #1C6F0C",
" 4    c #1C700C",
" 5    c #1A6A0B",
" 6    c #1C700B",
" 7    c #1D730C",
" 8    c #1E780C",
" 9    c #1F7A0C",
" a    c #207C0C",
" b    c #217C0C",
" c    c #19680B",
" d    c #1C710C",
" e    c #1E770C",
" f    c #217E0C",
" g    c #21820C",
" h    c #22850C",
" i    c #24870C",
" j    c #25880C",
" k    c #23860A",
" l    c #031503",
" m    c #046104",
" n    c #1B700B",
" o    c #217F0C",
" p    c #22860C",
" q    c #258C0C",
" r    c #278F0C",
" s    c #27910C",
" t    c #37991D",
" u    c #47A130",
" v    c #4DA538",
" w    c #51A63B",
" x    c #51A63C",
" y    c #000000",
" z    c #065B03",
" A    c #4FA63A",
" B    c #4BA334",
" C    c #3E9D25",
" D    c #1C740C",
" E    c #207F0C",
" F    c #22870C",
" G    c #258E0C",
" H    c #27930C",
" I    c #29970C",
" J    c #3CA120",
" K    c #6BB958",
" L    c #89C77B",
" M    c #99CE8C",
" N    c #A2D196",
" O    c #A6D29A",
" P    c #4A7840",
" Q    c #012301",
" R    c #A3D198",
" S    c #9ECF91",
" T    c #8FCA81",
" U    c #78BD65",
" V    c #4DAA36",
" W    c #29990C",
" X    c #1A6C0B",
" Y    c #1D780C",
" Z    c #248C0C",
" &    c #2B9F0D",
"0     c #67BA50",
"00    c #99D08A",
"01    c #B7DDAD",
"02    c #C8E4C0",
"03    c #D0E7C9",
"04    c #D3E8CC",
"05    c #BDD3B6",
"06    c #41573B",
"07    c #0B2004",
"08    c #A5BB9F",
"09    c #D4E9CD",
"0a    c #D1E8CA",
"0b    c #CBE5C4",
"0c    c #BEE0B5",
"0d    c #A4D599",
"0e    c #7BC266",
"0f    c #39A41B",
"0g    c #1A6E0C",
"0h    c #1F7B0C",
"0i    c #21860C",
"0j    c #27910D",
"0k    c #2A990D",
"0l    c #2BA00D",
"0m    c #2EA30D",
"0n    c #72C15B",
"0o    c #A3D796",
"0p    c #C1E3B9",
"0q    c #D3EBCB",
"0r    c #DAEED4",
"0s    c #DEEFD8",
"0t    c #9EAF99",
"0u    c #5D6D58",
"0v    c #031400",
"0w    c #687863",
"0x    c #566751",
"0y    c #DCEED6",
"0z    c #D6ECCF",
"0A    c #C9E7C0",
"0B    c #B1DDA4",
"0C    c #85CB72",
"0D    c #45AF26",
"0E    c #1B700C",
"0F    c #207C0D",
"0G    c #23880D",
"0H    c #28930D",
"0I    c #2A9C0D",
"0J    c #2DA20D",
"0K    c #2EA70E",
"0L    c #64BE4A",
"0M    c #96D484",
"0N    c #B4DFA7",
"0O    c #C3E6BB",
"0P    c #CBE8C2",
"0Q    c #CEEAC6",
"0R    c #5E7A56",
"0S    c #8BA783",
"0T    c #6F8B67",
"0U    c #55714D",
"0V    c #B3CFAB",
"0W    c #CDE9C4",
"0X    c #C7E8BF",
"0Y    c #BAE2AF",
"0Z    c #A1D992",
"0&    c #79C761",
"1     c #37AC15",
"10    c #1B710C",
"11    c #207E0D",
"12    c #24890D",
"13    c #28940D",
"14    c #2A9D0D",
"15    c #2EA40E",
"16    c #30A90F",
"17    c #46B325",
"18    c #76C85E",
"19    c #94D581",
"1a    c #A3DB94",
"1b    c #ACDE9D",
"1c    c #93C384",
"1d    c #245214",
"1e    c #B1DFA1",
"1f    c #709D60",
"1g    c #618E51",
"1h    c #538143",
"1i    c #AEDF9F",
"1j    c #A7DD98",
"1k    c #9BD788",
"1l    c #81CD6C",
"1m    c #58BD3D",
"1n    c #32AC0F",
"1o    c #217E0D",
"1p    c #258A0D",
"1q    c #29950D",
"1r    c #2C9F0E",
"1s    c #2FA50E",
"1t    c #31AB0F",
"1u    c #32AE0F",
"1v    c #52BA32",
"1w    c #6EC753",
"1x    c #80CE68",
"1y    c #88D271",
"1z    c #0B5203",
"1A    c #4E9537",
"1B    c #8DD475",
"1C    c #398021",
"1D    c #023302",
"1E    c #86CE6F",
"1F    c #83D06C",
"1G    c #76CA5C",
"1H    c #5DC13F",
"1I    c #34AF10",
"1J    c #28950D",
"1K    c #207F0D",
"1L    c #268B0E",
"1M    c #29960E",
"1N    c #2CA00E",
"1O    c #31A70E",
"1P    c #33B00F",
"1Q    c #36B110",
"1R    c #4DBB2A",
"1S    c #5DC23E",
"1T    c #59B93B",
"1U    c #044204",
"1V    c #409D21",
"1W    c #6BC74B",
"1X    c #197505",
"1Y    c #6CC84C",
"1Z    c #207E06",
"1&    c #045404",
"2     c #60C342",
"20    c #54BD32",
"21    c #3CB516",
"22    c #1C720C",
"23    c #22800E",
"24    c #268C0E",
"25    c #2A970E",
"26    c #2DA10E",
"27    c #31A80E",
"28    c #33AE10",
"29    c #35B210",
"2a    c #37B310",
"2b    c #39B511",
"2c    c #46BA1F",
"2d    c #118108",
"2e    c #054005",
"2f    c #53C12D",
"2g    c #50BD29",
"2h    c #076E07",
"2i    c #54C12D",
"2j    c #1B8909",
"2k    c #053F05",
"2l    c #44B71F",
"2m    c #3DB715",
"2n    c #34B210",
"2o    c #1D720D",
"2p    c #22810E",
"2q    c #268D0E",
"2r    c #2B980E",
"2s    c #2FA20E",
"2t    c #32A90F",
"2u    c #34B010",
"2v    c #37B411",
"2w    c #3BB812",
"2x    c #3CB912",
"2y    c #051E05",
"2z    c #35AC0B",
"2A    c #47BD1D",
"2B    c #43B919",
"2C    c #086A08",
"2D    c #46BD1C",
"2E    c #062C06",
"2F    c #14900A",
"2G    c #1E730D",
"2H    c #278E0E",
"2I    c #2C980E",
"2J    c #2FA40F",
"2K    c #33AA0F",
"2L    c #37B211",
"2M    c #3AB712",
"2N    c #3CB812",
"2O    c #3DBB13",
"2P    c #096A09",
"2Q    c #085508",
"2R    c #3FBB12",
"2S    c #42BF15",
"2T    c #3FBB11",
"2U    c #096C09",
"2V    c #43BF15",
"2W    c #41BE14",
"2X    c #19960C",
"2Y    c #063406",
"2Z    c #3EBB13",
"2&    c #1E740D",
"3     c #23820E",
"30    c #288F0E",
"31    c #2D9B0F",
"32    c #30A40F",
"33    c #35AD10",
"34    c #3AB512",
"35    c #3CBA13",
"36    c #40BD13",
"37    c #085608",
"38    c #0A6A0A",
"39    c #43C014",
"3a    c #44C114",
"3b    c #40BE10",
"3c    c #0A6F0A",
"3d    c #44C214",
"3e    c #38B50E",
"3f    c #062206",
"3g    c #40BD12",
"3h    c #39B512",
"3i    c #1F750D",
"3j    c #24830E",
"3k    c #298F0F",
"3l    c #2D9C0F",
"3m    c #33A710",
"3n    c #38AF11",
"3o    c #3BB713",
"3p    c #3EBC13",
"3q    c #36B40E",
"3r    c #062606",
"3s    c #3DBB0F",
"3t    c #46C415",
"3u    c #47C516",
"3v    c #44C112",
"3w    c #0B730B",
"3x    c #48C516",
"3y    c #45C314",
"3z    c #0A5D0A",
"3A    c #0A6C0A",
"3B    c #42C014",
"3C    c #20760D",
"3D    c #25840F",
"3E    c #2A910F",
"3F    c #309E10",
"3G    c #35A911",
"3H    c #3BB112",
"3I    c #3EBA13",
"3J    c #41BF14",
"3K    c #095809",
"3L    c #0C7C0C",
"3M    c #49C616",
"3N    c #4CC817",
"3O    c #4CC917",
"3P    c #49C513",
"3Q    c #0C770C",
"3R    c #4DC917",
"3S    c #2FAC0F",
"3T    c #083A08",
"3U    c #37B50F",
"3V    c #21760E",
"3W    c #26850F",
"3X    c #2B9210",
"3Y    c #33A011",
"3Z    c #38AB12",
"3&    c #3DB412",
"4     c #41BC14",
"40    c #44C115",
"41    c #49C416",
"42    c #072D07",
"43    c #2DA910",
"44    c #4FCB18",
"45    c #4FCC18",
"46    c #51CD18",
"47    c #4DC914",
"48    c #0D7B0D",
"49    c #072807",
"4a    c #38B510",
"4b    c #21770E",
"4c    c #288610",
"4d    c #2D9411",
"4e    c #34A212",
"4f    c #3AAD12",
"4g    c #3FB613",
"4h    c #44BD15",
"4i    c #48C416",
"4j    c #19930E",
"4k    c #094809",
"4l    c #49C612",
"4m    c #52CE18",
"4n    c #54D019",
"4o    c #55D119",
"4p    c #53CF16",
"4q    c #0E800E",
"4r    c #56D219",
"4s    c #118E0E",
"4t    c #0A4F0A",
"4u    c #4DC717",
"4v    c #39AD12",
"4w    c #22770E",
"4x    c #298610",
"4y    c #2E9511",
"4z    c #35A312",
"4A    c #3BAD12",
"4B    c #42B813",
"4C    c #48BF15",
"4D    c #4AC515",
"4E    c #0A500A",
"4F    c #1F9A10",
"4G    c #57D219",
"4H    c #59D31A",
"4I    c #5AD41A",
"4J    c #48C215",
"4K    c #010101",
"4L    c #0F780F",
"4M    c #58D217",
"4N    c #59D41A",
"4O    c #48C414",
"4P    c #094709",
"4Q    c #27A210",
"4R    c #4CC717",
"4S    c #23790F",
"4T    c #298710",
"4U    c #329712",
"4V    c #37A412",
"4W    c #3FAF13",
"4X    c #44BA14",
"4Y    c #4AC115",
"4Z    c #4FC918",
"4&    c #072307",
"5     c #57D119",
"50    c #5AD31A",
"51    c #5CD51A",
"52    c #39B314",
"53    c #0E6A0E",
"54    c #0A420A",
"55    c #0D660D",
"56    c #072007",
"57    c #0C5B0C",
"58    c #128B11",
"59    c #5DD71A",
"5a    c #0B570B",
"5b    c #0E840E",
"5c    c #319712",
"5d    c #2A8810",
"5e    c #339712",
"5f    c #38A512",
"5g    c #40B113",
"5h    c #47BC15",
"5i    c #4CC316",
"5j    c #0D760D",
"5k    c #0D6F0D",
"5l    c #5BD418",
"5m    c #0B530B",
"5n    c #0B4B0B",
"5o    c #118711",
"5p    c #64DC1C",
"5q    c #108110",
"5r    c #138A11",
"5s    c #42BA16",
"5t    c #0D5C0D",
"5u    c #48C016",
"5v    c #5DD61A",
"5w    c #34AD13",
"5x    c #0A470A",
"5y    c #51CC18",
"5z    c #298810",
"5A    c #24790F",
"5B    c #339812",
"5C    c #3BA613",
"5D    c #42B214",
"5E    c #48BC15",
"5F    c #3BB212",
"5G    c #40B713",
"5H    c #128A10",
"5I    c #0B490B",
"5J    c #1D9512",
"5K    c #5FD618",
"5L    c #66DD1D",
"5M    c #67DE1D",
"5N    c #108010",
"5O    c #107F10",
"5P    c #0A450A",
"5Q    c #5DD51A",
"5R    c #0B5E0B",
"5S    c #1F9710",
"5T    c #4FC517",
"5U    c #25790F",
"5V    c #2C8A11",
"5W    c #349912",
"5X    c #3CA613",
"5Y    c #43B314",
"5Z    c #4BBE16",
"5&    c #20960F",
"6     c #083608",
"60    c #0A4C0A",
"61    c #0C620C",
"62    c #33A813",
"63    c #67DB1C",
"64    c #68DD1D",
"65    c #6ADE1D",
"66    c #6BE01E",
"67    c #118111",
"68    c #5CD118",
"69    c #108310",
"6a    c #093C09",
"6b    c #0C5F0C",
"6c    c #0A4D0A",
"6d    c #51C617",
"6e    c #267A10",
"6f    c #2D8911",
"6g    c #349812",
"6h    c #3DA613",
"6i    c #44B315",
"6j    c #35A811",
"6k    c #299E12",
"6l    c #61D61B",
"6m    c #65D91C",
"6n    c #68DB1D",
"6o    c #6ADD1D",
"6p    c #6BDF1E",
"6q    c #6DE01E",
"6r    c #118211",
"6s    c #52C817",
"6t    c #020202",
"6u    c #53C617",
"6v    c #267910",
"6w    c #349612",
"6x    c #3CA413",
"6y    c #45B115",
"6z    c #4ABC16",
"6A    c #4FC013",
"6B    c #39AB11",
"6C    c #0C590C",
"6D    c #107E10",
"6E    c #66D61B",
"6F    c #69DA1C",
"6G    c #69DC1D",
"6H    c #6BDD1D",
"6I    c #6DDE1D",
"6J    c #128012",
"6K    c #2B9C13",
"6L    c #093209",
"6M    c #219411",
"6N    c #49BB13",
"6O    c #53C417",
"6P    c #257610",
"6Q    c #2C8511",
"6R    c #349411",
"6S    c #3CA113",
"6T    c #42AC15",
"6U    c #4AB716",
"6V    c #51C017",
"6W    c #57C718",
"6X    c #4CBC15",
"6Y    c #0D670D",
"6Z    c #0A370A",
"6&    c #208D12",
"7     c #5DCA19",
"70    c #6AD61D",
"71    c #6CD71D",
"72    c #117B11",
"73    c #107A10",
"74    c #47B416",
"75    c #0B410B",
"76    c #0D620D",
"77    c #5FD01A",
"78    c #5CCB19",
"79    c #56C718",
"7a    c #2B8511",
"7b    c #257310",
"7c    c #2B8111",
"7d    c #338F11",
"7e    c #3A9B12",
"7f    c #40A615",
"7g    c #48AF16",
"7h    c #4EB817",
"7i    c #55BF18",
"7j    c #59C319",
"7k    c #5DC71A",
"7l    c #49B216",
"7m    c #0C530C",
"7n    c #107110",
"7o    c #68CF1D",
"7p    c #117911",
"7q    c #167F12",
"7r    c #3FA716",
"7s    c #0D530D",
"7t    c #0A3E0A",
"7u    c #3BA415",
"7v    c #60CA1B",
"7w    c #54BF18",
"7x    c #47AF16",
"7y    c #399B12",
"7z    c #247310",
"7A    c #247210",
"7B    c #297B11",
"7C    c #2F8711",
"7D    c #359312",
"7E    c #3D9E14",
"7F    c #44A715",
"7G    c #4BAF17",
"7H    c #4EB418",
"7I    c #54B819",
"7J    c #58BC1A",
"7K    c #5ABF1B",
"7L    c #5DC01C",
"7M    c #43A717",
"7N    c #106410",
"7O    c #0A320A",
"7P    c #0C3E0C",
"7Q    c #060C06",
"7R    c #0E4F0E",
"7S    c #218413",
"7T    c #5FC21D",
"7U    c #53B819",
"7V    c #267711",
"7W    c #2C8011",
"7X    c #328A12",
"7Y    c #399414",
"7Z    c #3E9B15",
"7&    c #44A316",
"8     c #49A817",
"80    c #4CAA18",
"81    c #51AE19",
"82    c #54B01A",
"83    c #57B21B",
"84    c #57B41B",
"85    c #59B51C",
"86    c #53AF18",
"87    c #0D3F0D",
"88    c #308C15",
"89    c #5AB61C",
"8a    c #23720F",
"8b    c #267411",
"8c    c #287711",
"8d    c #2E8012",
"8e    c #338713",
"8f    c #398F15",
"8g    c #3D9516",
"8h    c #419917",
"8i    c #459C18",
"8j    c #489D18",
"8k    c #4AA019",
"8l    c #4CA21A",
"8m    c #4EA41B",
"8n    c #4FA51B",
"8o    c #50A61C",
"8p    c #24720F",
"8q    c #267410",
"8r    c #277611",
"8s    c #2A7812",
"8t    c #2E7B13",
"8u    c #308014",
"8v    c #358616",
"8w    c #388916",
"8x    c #3B8C17",
"8y    c #3F8E17",
"8z    c #408F18",
"8A    c #429118",
"8B    c #449219",
"8C    c #45931A",
"8D    c #46941A",
"8E    c #3E8E17",
"         0 1 2 3 4 4 4 4 4 4 4 4 4 4 4 4 4 4 4 4 3 2 1 0        ",
"     5 6 7 8 9 a b b b b b b b b b b b b b b b a a 9 8 7 6 5   c",
"   5 d e f g h i j j j j j j k l m j j j j j j j i h g f e d 5  ",
" c n e o p q r s s t u v w x x y z x x A B C s s s r q p o e n c",
" 5 D E F G H I J K L M N O O P y Q O O R S T U V W I H G F E D 5",
" X Y g Z H W &0 00010203040506 y0708090a0b0c0d0e0f & W H Z g Y X",
"0g0h0i0j0k0l0m0n0o0p0q0r0s0t0u0v0w0x0s0y0z0A0B0C0D0m0l0k0j0i0h0g",
"0E0F0G0H0I0J0K0L0M0N0O0P0Q0R0S y0T0U0V0W0X0Y0Z0&1 0K0J0I0H0G0F0E",
"101112131415161718191a1b1c1d1e y1f1g1h1i1j1k1l1m1n16151413121110",
" d1o1p1q1r1s1t1u1v1w1x1y1z1A1B y1C1B1D1E1F1G1H1I1u1t1s1r1J1p1o d",
" d1K1L1M1N1O1n1P1Q1R1S1T1U1V1W y1X1Y1Z1&2 20211Q1P1n1O1N1M1L1K d",
"22232425262728292a2b2c2d2e2f2g y2h2i2j2k2l2m2b2a2n28272625242322",
"2o2p2q2r2s2t2u2v2b2w2x2y2z2A2B y2C2A2D2E2F2x2w2b2v2u2t2s2r2q2p2o",
"2G2p2H2I2J2K2L2M2N2O2P2Q2R2S2T y2U2V2W2X2Y2Z2O2N2M2L2K2J2I2H2p2G",
"2&3 3031323334352Z363738393a3b y3c3d3a3e3f3g362Z353h333231303 2&",
"3i3j3k3l3m3n3o3p363q3r3s3t3u3v y3w3x3u3y3z3A3B363p3o3n3m3l3k3j3i",
"3C3D3E3F3G3H3I3J3a3K3L3M3N3O3P y3Q3R3O3N3S3T3U3a3J3I3H3G3F3E3D3C",
"3V3W3X3Y3Z3&4 4041424344454647 y4846464544494a41404 3&3Z3Y3X3W3V",
"4b4c4d4e4f4g4h4i4j4k4l4m4n4o4p y4q4r4o4n4m4s4t4u4i4h4g4v4e4d4c4b",
"4w4x4y4z4A4B4C4D4E4F4n4G4H4I4J4K4L4M4N4H4G4O4P4Q4R4C4B4A4z4y4x4w",
"4S4T4U4V4W4X4Y4Z4&5 5051525354555657585951505a5b4Z4Y4X4W4V5c4T4S",
"4S5d5e5f5g5h5i5j5k505l5m5n5o5p5q5r5s5t4L5u5v5w5x5y5i5h5g5f5e5z4S",
"5A5d5B5C5D5E5F4P5G5H5I5J5K5L5M5N5O5M5L4L5P555Q5R5S5T5E5D5C5B5d5A",
"5U5V5W5X5Y5Z5&6 60616263646566676766656468696a6b6c6d5Z5Y5C5W5V5A",
"6e6f6g6h6i5Z6j y6k6l6m6n6o6p6q6r6r6q6p6o6n6m6s6t606u5Z6i6h6g6f6e",
"6v6f6w6x6y6z6A6B6C6D6E6F6G6H6I6J6J6I6H6G6F6K6L6M6N6O6z6y6x6w6f6v",
"6P6Q6R6S6T6U6V6W6X6Y6Z6&7 7071727371707475767778796V6U6T6S6R7a6P",
"7b7c7d7e7f7g7h7i7j7k7l7m757n7o7p7q7r7s7t7u7v7k7j7w7h7x7f7y7d7c7z",
"7A7B7C7D7E7F7G7H7I7J7K7L7M7N7O7P7Q7R7S7T7L7K7J7U7H7G7F7E7D7C7B7A",
"7A7V7W7X7Y7Z7&8 808182838485868788898584838281808 7&7Z7Y7X7W7V7A",
"8a8b8c8d8e8f8g8h8i8j8k8l8m8n8o8o8o8o8n8m8l8k8j8i8h8g8f8e8d8c8b8a",
"8p8q8r8s8t8u8v8w8x8y8z8A8B8C8C8D8D8C8C8B8A8z8E8x8w8v8u8t8s8r8q8p"};
