/* XPM */
static char *B25_xpm[]={
"32 32 570 2",
"      c #1A680B",
" 0    c #1A690B",
" 1    c #1A6B0B",
" 2    c #1C6D0C",
" 3    c #1C6F0C",
" 4    c #1C700C",
" 5    c #1A6A0B",
" 6    c #1C700B",
" 7    c #1D730C",
" 8    c #1E780C",
" 9    c #1F7A0C",
" a    c #207C0C",
" b    c #217C0C",
" c    c #19680B",
" d    c #1C710C",
" e    c #1E770C",
" f    c #217E0C",
" g    c #21820C",
" h    c #22850C",
" i    c #24870C",
" j    c #25880C",
" k    c #1C7F05",
" l    c #045A04",
" m    c #218408",
" n    c #1B700B",
" o    c #217F0C",
" p    c #22860C",
" q    c #258C0C",
" r    c #278F0C",
" s    c #27910C",
" t    c #37991D",
" u    c #47A130",
" v    c #4DA538",
" w    c #51A63B",
" x    c #51A63C",
" y    c #267A11",
" z    c #000000",
" A    c #489C33",
" B    c #4FA63A",
" C    c #4BA334",
" D    c #3E9D25",
" E    c #1C740C",
" F    c #207F0C",
" G    c #22870C",
" H    c #258E0C",
" I    c #27930C",
" J    c #29970C",
" K    c #3CA120",
" L    c #6BB958",
" M    c #89C77B",
" N    c #99CE8C",
" O    c #A2D196",
" P    c #A6D29A",
" Q    c #2A5820",
" R    c #4F7D45",
" S    c #A3D198",
" T    c #9ECF91",
" U    c #8FCA81",
" V    c #78BD65",
" W    c #4DAA36",
" X    c #29990C",
" Y    c #1A6C0B",
" Z    c #1D780C",
" &    c #248C0C",
"0     c #2B9F0D",
"00    c #67BA50",
"01    c #99D08A",
"02    c #B7DDAD",
"03    c #C8E4C0",
"04    c #D0E7C9",
"05    c #D3E8CC",
"06    c #D4E9CD",
"07    c #0C2105",
"08    c #D1E8CA",
"09    c #CBE5C4",
"0a    c #BEE0B5",
"0b    c #A4D599",
"0c    c #7BC266",
"0d    c #39A41B",
"0e    c #1A6E0C",
"0f    c #1F7B0C",
"0g    c #21860C",
"0h    c #27910D",
"0i    c #2A990D",
"0j    c #2BA00D",
"0k    c #2EA30D",
"0l    c #72C15B",
"0m    c #A3D796",
"0n    c #C1E3B9",
"0o    c #D3EBCB",
"0p    c #DAEED4",
"0q    c #DEEFD8",
"0r    c #DEEFD9",
"0s    c #81927C",
"0t    c #9BAC96",
"0u    c #DCEED6",
"0v    c #D6ECCF",
"0w    c #C9E7C0",
"0x    c #B1DDA4",
"0y    c #85CB72",
"0z    c #45AF26",
"0A    c #1B700C",
"0B    c #207C0D",
"0C    c #23880D",
"0D    c #28930D",
"0E    c #2A9C0D",
"0F    c #2DA20D",
"0G    c #2EA70E",
"0H    c #64BE4A",
"0I    c #96D484",
"0J    c #B4DFA7",
"0K    c #C3E6BB",
"0L    c #CBE8C2",
"0M    c #CEEAC6",
"0N    c #CFEAC7",
"0O    c #2E4A27",
"0P    c #B0CCA8",
"0Q    c #CDE9C4",
"0R    c #C7E8BF",
"0S    c #BAE2AF",
"0T    c #A1D992",
"0U    c #79C761",
"0V    c #37AC15",
"0W    c #1B710C",
"0X    c #207E0D",
"0Y    c #24890D",
"0Z    c #28940D",
"0&    c #2A9D0D",
"1     c #2EA40E",
"10    c #30A90F",
"11    c #46B325",
"12    c #76C85E",
"13    c #94D581",
"14    c #A3DB94",
"15    c #ACDE9D",
"16    c #AFDFA0",
"17    c #B1DFA1",
"18    c #0D3B01",
"19    c #89B77A",
"1a    c #B0DFA0",
"1b    c #AEDF9F",
"1c    c #A7DD98",
"1d    c #9BD788",
"1e    c #81CD6C",
"1f    c #58BD3D",
"1g    c #32AC0F",
"1h    c #217E0D",
"1i    c #258A0D",
"1j    c #29950D",
"1k    c #2C9F0E",
"1l    c #2FA50E",
"1m    c #31AB0F",
"1n    c #32AE0F",
"1o    c #52BA32",
"1p    c #6EC753",
"1q    c #80CE68",
"1r    c #88D271",
"1s    c #8CD374",
"1t    c #8CD375",
"1u    c #8DD475",
"1v    c #022F02",
"1w    c #65AC4D",
"1x    c #8AD273",
"1y    c #83D06C",
"1z    c #76CA5C",
"1A    c #5DC13F",
"1B    c #34AF10",
"1C    c #28950D",
"1D    c #207F0D",
"1E    c #268B0E",
"1F    c #29960E",
"1G    c #2CA00E",
"1H    c #31A70E",
"1I    c #33B00F",
"1J    c #36B110",
"1K    c #4DBB2A",
"1L    c #5DC23E",
"1M    c #65C547",
"1N    c #69C64B",
"1O    c #6BC84C",
"1P    c #6CC84C",
"1Q    c #032303",
"1R    c #44A024",
"1S    c #6AC84C",
"1T    c #68C649",
"1U    c #60C342",
"1V    c #54BD32",
"1W    c #3CB516",
"1X    c #1C720C",
"1Y    c #22800E",
"1Z    c #268C0E",
"1&    c #2A970E",
"2     c #2DA10E",
"20    c #31A80E",
"21    c #33AE10",
"22    c #35B210",
"23    c #37B310",
"24    c #39B511",
"25    c #46BA1F",
"26    c #4DBD28",
"27    c #51C02C",
"28    c #53C12D",
"29    c #54C12D",
"2a    c #041C04",
"2b    c #2C9909",
"2c    c #50BF2A",
"2d    c #49BC24",
"2e    c #3DB715",
"2f    c #34B210",
"2g    c #1D720D",
"2h    c #22810E",
"2i    c #268D0E",
"2j    c #2B980E",
"2k    c #2FA20E",
"2l    c #32A90F",
"2m    c #34B010",
"2n    c #37B411",
"2o    c #3BB812",
"2p    c #3CB912",
"2q    c #41BB17",
"2r    c #46BD1C",
"2s    c #47BD1D",
"2t    c #041804",
"2u    c #1F950A",
"2v    c #44BD1A",
"2w    c #3DB912",
"2x    c #1E730D",
"2y    c #278E0E",
"2z    c #2C980E",
"2A    c #2FA40F",
"2B    c #33AA0F",
"2C    c #37B211",
"2D    c #3AB712",
"2E    c #3CB812",
"2F    c #3DBB13",
"2G    c #3EBB13",
"2H    c #3EBC13",
"2I    c #41BD14",
"2J    c #42BF15",
"2K    c #43BF15",
"2L    c #051A05",
"2M    c #1B970C",
"2N    c #41BE14",
"2O    c #40BD13",
"2P    c #1E740D",
"2Q    c #23820E",
"2R    c #288F0E",
"2S    c #2D9B0F",
"2T    c #30A40F",
"2U    c #35AD10",
"2V    c #3AB512",
"2W    c #3CBA13",
"2X    c #41BE13",
"2Y    c #43C014",
"2Z    c #44C114",
"2&    c #44C214",
"3     c #062606",
"30    c #219E0D",
"31    c #39B512",
"32    c #1F750D",
"33    c #24830E",
"34    c #298F0F",
"35    c #2D9C0F",
"36    c #33A710",
"37    c #38AF11",
"38    c #3BB713",
"39    c #42C014",
"3a    c #45C315",
"3b    c #46C415",
"3c    c #47C516",
"3d    c #1E9B0E",
"3e    c #010101",
"3f    c #0D860D",
"3g    c #48C516",
"3h    c #20760D",
"3i    c #25840F",
"3j    c #2A910F",
"3k    c #309E10",
"3l    c #35A911",
"3m    c #3BB112",
"3n    c #3EBA13",
"3o    c #41BF14",
"3p    c #49C616",
"3q    c #4CC817",
"3r    c #094D09",
"3s    c #050D05",
"3t    c #051805",
"3u    c #073307",
"3v    c #24A10F",
"3w    c #21760E",
"3x    c #26850F",
"3y    c #2B9210",
"3z    c #33A011",
"3A    c #38AB12",
"3B    c #3DB412",
"3C    c #41BC14",
"3D    c #44C115",
"3E    c #49C416",
"3F    c #4AC716",
"3G    c #4DC917",
"3H    c #4FCB18",
"3I    c #0A580A",
"3J    c #0A4E0A",
"3K    c #50CC17",
"3L    c #083708",
"3M    c #138F0F",
"3N    c #062006",
"3O    c #45C212",
"3P    c #21770E",
"3Q    c #288610",
"3R    c #2D9411",
"3S    c #34A212",
"3T    c #3AAD12",
"3U    c #3FB613",
"3V    c #44BD15",
"3W    c #48C416",
"3X    c #4DC717",
"3Y    c #4FCA18",
"3Z    c #50CD18",
"3&    c #52CE18",
"4     c #093F09",
"40    c #219D11",
"41    c #2CA812",
"42    c #040404",
"43    c #56D219",
"44    c #061C06",
"45    c #49C514",
"46    c #39AD12",
"47    c #22770E",
"48    c #298610",
"49    c #2E9511",
"4a    c #35A312",
"4b    c #3BAD12",
"4c    c #42B813",
"4d    c #48BF15",
"4e    c #4CC717",
"4f    c #52CD18",
"4g    c #54D019",
"4h    c #57D219",
"4i    c #0B500B",
"4j    c #0B520B",
"4k    c #0A4A0A",
"4l    c #0B4F0B",
"4m    c #093A09",
"4n    c #0C560C",
"4o    c #061706",
"4p    c #59D31A",
"4q    c #23790F",
"4r    c #298710",
"4s    c #329712",
"4t    c #37A412",
"4u    c #3FAF13",
"4v    c #44BA14",
"4w    c #4AC115",
"4x    c #4FC918",
"4y    c #54CC18",
"4z    c #57D119",
"4A    c #5AD31A",
"4B    c #41BA15",
"4C    c #093C09",
"4D    c #2DA613",
"4E    c #60D91B",
"4F    c #4CC516",
"4G    c #072807",
"4H    c #48C115",
"4I    c #53CC18",
"4J    c #319712",
"4K    c #2A8810",
"4L    c #339712",
"4M    c #38A512",
"4N    c #40B113",
"4O    c #47BC15",
"4P    c #4CC316",
"4Q    c #51CC18",
"4R    c #56CF19",
"4S    c #0F7D0F",
"4T    c #072007",
"4U    c #3CB415",
"4V    c #36AE15",
"4W    c #093B09",
"4X    c #0A450A",
"4Y    c #082F08",
"4Z    c #29A113",
"4&    c #63DB1C",
"5     c #108910",
"50    c #0C570C",
"51    c #3FB814",
"52    c #298810",
"53    c #24790F",
"54    c #339812",
"55    c #3BA613",
"56    c #42B214",
"57    c #48BC15",
"58    c #4FC517",
"59    c #54CD18",
"5a    c #46BD13",
"5b    c #072407",
"5c    c #0D650D",
"5d    c #62DA1B",
"5e    c #65DC1C",
"5f    c #66DD1D",
"5g    c #67DE1D",
"5h    c #35AC15",
"5i    c #62D919",
"5j    c #0F790F",
"5k    c #072507",
"5l    c #0A4F0A",
"5m    c #2CA511",
"5n    c #25790F",
"5o    c #2C8A11",
"5p    c #349912",
"5q    c #3CA613",
"5r    c #43B314",
"5s    c #4BBE16",
"5t    c #51C617",
"5u    c #0B540B",
"5v    c #082C08",
"5w    c #36AC13",
"5x    c #63D81B",
"5y    c #67DB1C",
"5z    c #68DD1D",
"5A    c #6ADE1D",
"5B    c #6BE01E",
"5C    c #66DB1C",
"5D    c #5CD217",
"5E    c #0E740E",
"5F    c #083108",
"5G    c #072307",
"5H    c #0F820D",
"5I    c #095709",
"5J    c #26910D",
"5K    c #267A10",
"5L    c #2D8911",
"5M    c #349812",
"5N    c #3DA613",
"5O    c #1B8A0D",
"5P    c #0C7F0C",
"5Q    c #082E08",
"5R    c #0D6D0D",
"5S    c #4DC215",
"5T    c #61D61B",
"5U    c #65D91C",
"5V    c #68DB1D",
"5W    c #6ADD1D",
"5X    c #6BDF1E",
"5Y    c #6DE01E",
"5Z    c #5DD21A",
"5&    c #55CA15",
"6     c #2C9F10",
"60    c #298D0C",
"61    c #267910",
"62    c #349612",
"63    c #0A670A",
"64    c #020202",
"65    c #0C6D0C",
"66    c #59CB18",
"67    c #5DD019",
"68    c #63D31A",
"69    c #66D61B",
"6a    c #69DA1C",
"6b    c #69DC1D",
"6c    c #6BDD1D",
"6d    c #6DDE1D",
"6e    c #62D31A",
"6f    c #53C417",
"6g    c #084208",
"6h    c #116D0A",
"6i    c #257610",
"6j    c #2C8511",
"6k    c #084708",
"6l    c #3EAC11",
"6m    c #57C718",
"6n    c #5CCB19",
"6o    c #5FD01A",
"6p    c #64D21B",
"6q    c #67D41C",
"6r    c #69D51D",
"6s    c #6AD61D",
"6t    c #6CD71D",
"6u    c #6DD81D",
"6v    c #63D21B",
"6w    c #56C718",
"6x    c #51C017",
"6y    c #4AB716",
"6z    c #42AC15",
"6A    c #24890C",
"6B    c #083808",
"6C    c #0F6A0A",
"6D    c #257310",
"6E    c #2B8111",
"6F    c #072F07",
"6G    c #061806",
"6H    c #3EA413",
"6I    c #48AF16",
"6J    c #4EB817",
"6K    c #55BF18",
"6L    c #59C319",
"6M    c #5DC71A",
"6N    c #60CA1B",
"6O    c #63CC1C",
"6P    c #65CE1D",
"6Q    c #67CE1D",
"6R    c #68CF1D",
"6S    c #68D01D",
"6T    c #54BF18",
"6U    c #47AF16",
"6V    c #40A615",
"6W    c #399B12",
"6X    c #338F11",
"6Y    c #247310",
"6Z    c #247210",
"6&    c #297B11",
"7     c #2F8711",
"70    c #359312",
"71    c #3D9E14",
"72    c #44A715",
"73    c #4BAF17",
"74    c #4EB418",
"75    c #54B819",
"76    c #58BC1A",
"77    c #5ABF1B",
"78    c #5DC01C",
"79    c #5FC21D",
"7a    c #61C31D",
"7b    c #63C41D",
"7c    c #53B819",
"7d    c #267711",
"7e    c #2C8011",
"7f    c #328A12",
"7g    c #399414",
"7h    c #3E9B15",
"7i    c #44A316",
"7j    c #49A817",
"7k    c #4CAA18",
"7l    c #51AE19",
"7m    c #54B01A",
"7n    c #57B21B",
"7o    c #57B41B",
"7p    c #59B51C",
"7q    c #5AB61C",
"7r    c #23720F",
"7s    c #267411",
"7t    c #287711",
"7u    c #2E8012",
"7v    c #338713",
"7w    c #398F15",
"7x    c #3D9516",
"7y    c #419917",
"7z    c #459C18",
"7A    c #489D18",
"7B    c #4AA019",
"7C    c #4CA21A",
"7D    c #4EA41B",
"7E    c #4FA51B",
"7F    c #50A61C",
"7G    c #267410",
"7H    c #277611",
"7I    c #2A7812",
"7J    c #2E7B13",
"7K    c #308014",
"7L    c #358616",
"7M    c #388916",
"7N    c #3B8C17",
"7O    c #3F8D17",
"7P    c #408F18",
"7Q    c #429018",
"7R    c #449119",
"7S    c #45941B",
"7T    c #46941B",
"7U    c #3E8D17",
"         0 1 2 3 4 4 4 4 4 4 4 4 4 4 4 4 4 4 4 4 3 2 1 0        ",
"     5 6 7 8 9 a b b b b b b b b b b b b b b b a a 9 8 7 6 5   c",
"   5 d e f g h i j j j j j j k l m j j j j j j j i h g f e d 5  ",
" c n e o p q r s s t u v w x y z A x x B C D s s s r q p o e n c",
" 5 E F G H I J K L M N O P P Q z R P P S T U V W X J I H G F E 5",
" Y Z g & I X0 00010203040506 z z07060608090a0b0c0d0  X I & g Z Y",
"0e0f0g0h0i0j0k0l0m0n0o0p0q0r0s z0t0r0q0u0v0w0x0y0z0k0j0i0h0g0f0e",
"0A0B0C0D0E0F0G0H0I0J0K0L0M0N0N0O0P0N0N0Q0R0S0T0U0V0G0F0E0D0C0B0A",
"0W0X0Y0Z0&1 1011121314151617171819171a1b1c1d1e1f1g101 0&0Z0Y0X0W",
" d1h1i1j1k1l1m1n1o1p1q1r1s1t1u1v1w1u1s1x1y1z1A1B1n1m1l1k1C1i1h d",
" d1D1E1F1G1H1g1I1J1K1L1M1N1O1P1Q1R1P1S1T1U1V1W1J1I1g1H1G1F1E1D d",
"1X1Y1Z1&2 202122232425262728292a2b29282c2d2e24232f21202 1&1Z1Y1X",
"2g2h2i2j2k2l2m2n242o2p2q2r2s2s2t2u2s2r2v2w2p2o242n2m2l2k2j2i2h2g",
"2x2h2y2z2A2B2C2D2E2F2G2H2I2J2K2L2M2K2N2O2H2G2F2E2D2C2B2A2z2y2h2x",
"2P2Q2R2S2T2U2V2W2G2O2X2Y2Y2Z2&3 302&2Z2Y2Y2X2O2G2W312U2T2S2R2Q2P",
"323334353637382H2O392&3a3b3c3d3e3f3g3c3b3a2&392O2H38373635343332",
"3h3i3j3k3l3m3n3o2Z3b3g3p3q3r3r3s3t3u3v3q3p3g3b2Z3o3n3m3l3k3j3i3h",
"3w3x3y3z3A3B3C3D3E3F3G3H3I3J3K3L2O3M3N3O3H3G3F3E3D3C3B3A3z3y3x3w",
"3P3Q3R3S3T3U3V3W3X3Y3Z3&4 4041423M4344453&3Z3Y3X3W3V3U463S3R3Q3P",
"4748494a4b4c4d4e3Y4f4g4h4i4j4k4l4m4n4o4p4h4g4f3Y4e4d4c4b4a494847",
"4q4r4s4t4u4v4w4x4y4z4A4B4C z4D4E4F4C4G4i4H4A4z4I4x4w4v4u4t4J4r4q",
"4q4K4L4M4N4O4P4Q4R4A4S4T4U4V4W4X4Y4Z4&5 4G50514R4Q4P4O4N4M4L524q",
"534K5455565758595a5b5c5d5e5f5g5h5i5g5f5e5d5j5k5l5m58575655544K53",
"5n5o5p5q5r5s5t5u5v5w5x5y5z5A5B5B5B5B5A5z5C5x5D5E5F5G5H5I5J5p5o53",
"5K5L5M5N5O5P5Q5R5S5T5U5V5W5X5Y5Y5Y5Y5X5W5V5U5T5Z5&6 5k z3e605L5K",
"615L6263646465666768696a6b6c6d6d6d6d6c6b6a696e67666f6g64 z z6h61",
"6i6j6k z z646l6m6n6o6p6q6r6s6t6u6u6t6s6r6q6v6o6n6w6x6y6z6A6B6C6i",
"6D6E6F6G6H6I6J6K6L6M6N6O6P6Q6R6S6S6R6Q6P6O6N6M6L6T6J6U6V6W6X6E6Y",
"6Z6&7 707172737475767778797a7b7b7b7b7a797877767c74737271707 6&6Z",
"6Z7d7e7f7g7h7i7j7k7l7m7n7o7p7q7q7q7q7p7o7n7m7l7k7j7i7h7g7f7e7d6Z",
"7r7s7t7u7v7w7x7y7z7A7B7C7D7E7F7F7F7F7E7D7C7B7A7z7y7x7w7v7u7t7s7r",
"7r7G7H7I7J7K7L7M7N7O7P7Q7R7S7S7T7T7S7S7R7Q7P7U7N7M7L7K7J7I7H7G7r"};
