/* XPM */
static char *B26_xpm[]={
"32 32 658 2",
"      c #1A680B",
" 0    c #1A690B",
" 1    c #1A6B0B",
" 2    c #1C6D0C",
" 3    c #1C6F0C",
" 4    c #1C700C",
" 5    c #1A6A0B",
" 6    c #1C700B",
" 7    c #1D730C",
" 8    c #1E780C",
" 9    c #1F7A0C",
" a    c #207C0C",
" b    c #217C0C",
" c    c #030503",
" d    c #032C03",
" e    c #19680B",
" f    c #1C710C",
" g    c #1E770C",
" h    c #217E0C",
" i    c #21820C",
" j    c #22850C",
" k    c #24870C",
" l    c #25880C",
" m    c #020202",
" n    c #032003",
" o    c #042A04",
" p    c #1B700B",
" q    c #217F0C",
" r    c #22860C",
" s    c #258C0C",
" t    c #278F0C",
" u    c #27910C",
" v    c #37991D",
" w    c #47A130",
" x    c #4DA538",
" y    c #51A63B",
" z    c #51A63C",
" A    c #020802",
" B    c #022902",
" C    c #010101",
" D    c #37961E",
" E    c #1C740C",
" F    c #207F0C",
" G    c #22870C",
" H    c #258E0C",
" I    c #27930C",
" J    c #29970C",
" K    c #3CA120",
" L    c #6BB958",
" M    c #4E8C41",
" N    c #144907",
" O    c #3D6C31",
" P    c #6B9860",
" Q    c #75A26A",
" R    c #86B37B",
" S    c #A6D39B",
" T    c #9AC78E",
" U    c #7EAB72",
" V    c #012E01",
" W    c #629355",
" X    c #8DC87F",
" Y    c #78BD65",
" Z    c #4DAA36",
" &    c #29990C",
"0     c #056205",
"00    c #077305",
"01    c #1A6C0B",
"02    c #1D780C",
"03    c #248C0C",
"04    c #2B9F0D",
"05    c #67BA50",
"06    c #99D08A",
"07    c #91B787",
"08    c #203D18",
"09    c #789071",
"0a    c #697E62",
"0b    c #001400",
"0c    c #6A7F63",
"0d    c #D4E9CD",
"0e    c #B4CCAD",
"0f    c #445F3E",
"0g    c #BEE0B5",
"0h    c #A4D599",
"0i    c #79C165",
"0j    c #020502",
"0k    c #030903",
"0l    c #1A6E0C",
"0m    c #1F7B0C",
"0n    c #21860C",
"0o    c #27910D",
"0p    c #2A990D",
"0q    c #2BA00D",
"0r    c #2EA30D",
"0s    c #72C15B",
"0t    c #A3D796",
"0u    c #C1E3B9",
"0v    c #BDD5B6",
"0w    c #586B52",
"0x    c #71826B",
"0y    c #4D5E48",
"0z    c #50614B",
"0A    c #778872",
"0B    c #B9C9B4",
"0C    c #DEEFD9",
"0D    c #DEEFD8",
"0E    c #DCEED6",
"0F    c #7B9174",
"0G    c #6F8D67",
"0H    c #B1DDA4",
"0I    c #85CB72",
"0J    c #056F04",
"0K    c #259408",
"0L    c #1B700C",
"0M    c #207C0D",
"0N    c #23880D",
"0O    c #28930D",
"0P    c #2A9C0D",
"0Q    c #2DA20D",
"0R    c #2EA70E",
"0S    c #64BE4A",
"0T    c #96D484",
"0U    c #B4DFA7",
"0V    c #C3E6BB",
"0W    c #C8E5BF",
"0X    c #96B38E",
"0Y    c #CFEAC7",
"0Z    c #BED9B6",
"0&    c #7D9975",
"1     c #3E5A36",
"10    c #435F3B",
"11    c #7B9773",
"12    c #BEDAB5",
"13    c #C7E8BF",
"14    c #2F5825",
"15    c #98D189",
"16    c #79C761",
"17    c #032603",
"18    c #067D06",
"19    c #032303",
"1a    c #188A06",
"1b    c #1B710C",
"1c    c #207E0D",
"1d    c #24890D",
"1e    c #28940D",
"1f    c #2A9D0D",
"1g    c #2EA40E",
"1h    c #30A90F",
"1i    c #46B325",
"1j    c #76C85E",
"1k    c #94D581",
"1l    c #A3DB94",
"1m    c #ACDE9D",
"1n    c #AFDFA0",
"1o    c #B1DFA1",
"1p    c #8DBB7E",
"1q    c #437233",
"1r    c #184909",
"1s    c #2D631E",
"1t    c #286415",
"1u    c #0C5803",
"1v    c #096D04",
"1w    c #066A06",
"1x    c #217E0D",
"1y    c #258A0D",
"1z    c #29950D",
"1A    c #2C9F0E",
"1B    c #2FA50E",
"1C    c #31AB0F",
"1D    c #32AE0F",
"1E    c #52BA32",
"1F    c #6EC753",
"1G    c #80CE68",
"1H    c #88D271",
"1I    c #8CD374",
"1J    c #8CD375",
"1K    c #8DD475",
"1L    c #87CF70",
"1M    c #1C6905",
"1N    c #010A01",
"1O    c #000000",
"1P    c #2FAB0C",
"1Q    c #28950D",
"1R    c #207F0D",
"1S    c #268B0E",
"1T    c #29960E",
"1U    c #2CA00E",
"1V    c #31A70E",
"1W    c #32AC0F",
"1X    c #33B00F",
"1Y    c #36B110",
"1Z    c #4DBB2A",
"1&    c #1F8406",
"2     c #055E05",
"20    c #69C64B",
"21    c #6BC84C",
"22    c #6CC84C",
"23    c #46A226",
"24    c #217D06",
"25    c #044E04",
"26    c #032E03",
"27    c #055C05",
"28    c #042C04",
"29    c #054605",
"2a    c #279E09",
"2b    c #158206",
"2c    c #1C720C",
"2d    c #22800E",
"2e    c #268C0E",
"2f    c #2A970E",
"2g    c #2DA10E",
"2h    c #31A80E",
"2i    c #33AE10",
"2j    c #35B210",
"2k    c #1D9909",
"2l    c #052E05",
"2m    c #054005",
"2n    c #064F06",
"2o    c #053C05",
"2p    c #042704",
"2q    c #053305",
"2r    c #064D06",
"2s    c #188508",
"2t    c #4AB824",
"2u    c #50BF2A",
"2v    c #042004",
"2w    c #040C04",
"2x    c #053105",
"2y    c #052F05",
"2z    c #118E09",
"2A    c #065306",
"2B    c #041A04",
"2C    c #076407",
"2D    c #066806",
"2E    c #1D720D",
"2F    c #22810E",
"2G    c #268D0E",
"2H    c #2B980E",
"2I    c #2FA20E",
"2J    c #32A90F",
"2K    c #2FAB0B",
"2L    c #063706",
"2M    c #040D04",
"2N    c #086608",
"2O    c #3CB912",
"2P    c #030403",
"2Q    c #075A07",
"2R    c #1C920A",
"2S    c #40B616",
"2T    c #47BD1D",
"2U    c #46BD1C",
"2V    c #041004",
"2W    c #030303",
"2X    c #32AF0C",
"2Y    c #063906",
"2Z    c #087008",
"2&    c #064A06",
"3     c #34B010",
"30    c #189009",
"31    c #053205",
"32    c #041504",
"33    c #0C6A06",
"34    c #1E730D",
"35    c #278E0E",
"36    c #2C980E",
"37    c #2FA40F",
"38    c #33AA0F",
"39    c #32AD0C",
"3a    c #052405",
"3b    c #063006",
"3c    c #052605",
"3d    c #040804",
"3e    c #41BD14",
"3f    c #42BF15",
"3g    c #43BF15",
"3h    c #051305",
"3i    c #040404",
"3j    c #3EBC13",
"3k    c #128F0B",
"3l    c #3CB812",
"3m    c #052105",
"3n    c #2BA60A",
"3o    c #042604",
"3p    c #106607",
"3q    c #1E740D",
"3r    c #23820E",
"3s    c #288F0E",
"3t    c #2D9B0F",
"3u    c #30A40F",
"3v    c #35AD10",
"3w    c #3AB512",
"3x    c #3CBA13",
"3y    c #3EBB13",
"3z    c #40BD13",
"3A    c #30AD0D",
"3B    c #35B20E",
"3C    c #43C014",
"3D    c #44C114",
"3E    c #44C214",
"3F    c #45C214",
"3G    c #051505",
"3H    c #040504",
"3I    c #085908",
"3J    c #096B09",
"3K    c #074407",
"3L    c #097609",
"3M    c #076507",
"3N    c #053505",
"3O    c #052D05",
"3P    c #197009",
"3Q    c #1F750D",
"3R    c #24830E",
"3S    c #298F0F",
"3T    c #2D9C0F",
"3U    c #33A710",
"3V    c #38AF11",
"3W    c #3BB713",
"3X    c #42C014",
"3Y    c #45C315",
"3Z    c #46C415",
"3&    c #47C516",
"4     c #48C516",
"40    c #48C616",
"41    c #051905",
"42    c #040704",
"43    c #084708",
"44    c #0C860C",
"45    c #24A10D",
"46    c #062506",
"47    c #20760D",
"48    c #25840F",
"49    c #2A910F",
"4a    c #309E10",
"4b    c #35A911",
"4c    c #3BB112",
"4d    c #3EBA13",
"4e    c #41BF14",
"4f    c #49C616",
"4g    c #4CC817",
"4h    c #39B611",
"4i    c #4DC917",
"4j    c #061D06",
"4k    c #050C05",
"4l    c #4CC917",
"4m    c #072B07",
"4n    c #3FBD10",
"4o    c #062F06",
"4p    c #1E950C",
"4q    c #21760E",
"4r    c #26850F",
"4s    c #2B9210",
"4t    c #33A011",
"4u    c #38AB12",
"4v    c #3DB412",
"4w    c #41BC14",
"4x    c #44C115",
"4y    c #49C416",
"4z    c #4AC716",
"4A    c #4FCB18",
"4B    c #37B411",
"4C    c #061F06",
"4D    c #51CE18",
"4E    c #51CD18",
"4F    c #4FCC18",
"4G    c #41BD12",
"4H    c #073407",
"4I    c #0B790B",
"4J    c #073307",
"4K    c #073D07",
"4L    c #319E0F",
"4M    c #21770E",
"4N    c #288610",
"4O    c #2D9411",
"4P    c #34A212",
"4Q    c #3AAD12",
"4R    c #3FB613",
"4S    c #44BD15",
"4T    c #48C416",
"4U    c #4DC717",
"4V    c #4FCA18",
"4W    c #50CD18",
"4X    c #52CE18",
"4Y    c #0B580B",
"4Z    c #093E09",
"4&    c #093D09",
"5     c #0F870F",
"50    c #56D219",
"51    c #55D119",
"52    c #54D019",
"53    c #16920F",
"54    c #0A520A",
"55    c #33AD0F",
"56    c #33A010",
"57    c #22770E",
"58    c #298610",
"59    c #2E9511",
"5a    c #35A312",
"5b    c #3BAD12",
"5c    c #42B813",
"5d    c #48BF15",
"5e    c #4CC717",
"5f    c #52CD18",
"5g    c #3AB513",
"5h    c #108A10",
"5i    c #0E730E",
"5j    c #4BC515",
"5k    c #5BD51A",
"5l    c #59D41A",
"5m    c #59D31A",
"5n    c #1B9610",
"5o    c #0D6E0D",
"5p    c #49C414",
"5q    c #083F08",
"5r    c #22980C",
"5s    c #072A07",
"5t    c #27940B",
"5u    c #23790F",
"5v    c #298710",
"5w    c #329712",
"5x    c #37A412",
"5y    c #3FAF13",
"5z    c #44BA14",
"5A    c #4AC115",
"5B    c #4FC918",
"5C    c #54CC18",
"5D    c #57D119",
"5E    c #49C215",
"5F    c #0B510B",
"5G    c #108310",
"5H    c #60D91B",
"5I    c #5DD619",
"5J    c #0D660D",
"5K    c #040604",
"5L    c #083208",
"5M    c #148E0F",
"5N    c #53CC18",
"5O    c #0D830D",
"5P    c #0A600A",
"5Q    c #084A08",
"5R    c #096109",
"5S    c #319712",
"5T    c #2A8810",
"5U    c #339712",
"5V    c #38A512",
"5W    c #40B113",
"5X    c #47BC15",
"5Y    c #4CC316",
"5Z    c #51CC18",
"5&    c #56CF19",
"6     c #40B914",
"60    c #0C5E0C",
"61    c #082F08",
"62    c #108510",
"63    c #5ED619",
"64    c #64DC1C",
"65    c #65DC1C",
"66    c #52CA17",
"67    c #072207",
"68    c #3AB214",
"69    c #0A480A",
"6a    c #0E710E",
"6b    c #11860C",
"6c    c #096009",
"6d    c #298810",
"6e    c #24790F",
"6f    c #339812",
"6g    c #3BA613",
"6h    c #22920D",
"6i    c #36A90F",
"6j    c #4FC517",
"6k    c #54CD18",
"6l    c #44BB13",
"6m    c #45BD15",
"6n    c #62DA1B",
"6o    c #66DD1D",
"6p    c #67DE1D",
"6q    c #68DF1D",
"6r    c #58CF19",
"6s    c #0B4E0B",
"6t    c #51C916",
"6u    c #0B4C0B",
"6v    c #5AD217",
"6w    c #59D119",
"6x    c #48BC15",
"6y    c #0B730B",
"6z    c #1D880C",
"6A    c #25790F",
"6B    c #2C8A11",
"6C    c #349912",
"6D    c #072507",
"6E    c #083308",
"6F    c #093F09",
"6G    c #45BB15",
"6H    c #63D81B",
"6I    c #67DB1C",
"6J    c #68DD1D",
"6K    c #6ADE1D",
"6L    c #6BE01E",
"6M    c #0D630D",
"6N    c #093409",
"6O    c #35AA14",
"6P    c #60D61A",
"6Q    c #5BD21A",
"6R    c #57CE19",
"6S    c #51C617",
"6T    c #4BBE16",
"6U    c #43B314",
"6V    c #267A10",
"6W    c #2D8911",
"6X    c #15790B",
"6Y    c #3BAA0F",
"6Z    c #0C5C0C",
"6&    c #61D61B",
"7     c #65D91C",
"70    c #68DB1D",
"71    c #6ADD1D",
"72    c #6BDF1E",
"73    c #6DE01E",
"74    c #072607",
"75    c #082908",
"76    c #5DD21A",
"77    c #59CE18",
"78    c #53C617",
"79    c #44B315",
"7a    c #3DA613",
"7b    c #349812",
"7c    c #267910",
"7d    c #45B115",
"7e    c #0A610A",
"7f    c #36A811",
"7g    c #0A460A",
"7h    c #63D31A",
"7i    c #66D61B",
"7j    c #69DA1C",
"7k    c #69DC1D",
"7l    c #6BDD1D",
"7m    c #6DDE1D",
"7n    c #30A315",
"7o    c #47B916",
"7p    c #62D31A",
"7q    c #5DD019",
"7r    c #59CB18",
"7s    c #53C417",
"7t    c #4ABC16",
"7u    c #3CA413",
"7v    c #349612",
"7w    c #257610",
"7x    c #2C8511",
"7y    c #061B06",
"7z    c #062806",
"7A    c #062306",
"7B    c #4CBB13",
"7C    c #57C718",
"7D    c #0A3D0A",
"7E    c #5FD01A",
"7F    c #64D21B",
"7G    c #67D41C",
"7H    c #69D51D",
"7I    c #6AD61D",
"7J    c #6CD71D",
"7K    c #6DD81D",
"7L    c #63D21B",
"7M    c #5CCB19",
"7N    c #56C718",
"7O    c #51C017",
"7P    c #4AB716",
"7Q    c #42AC15",
"7R    c #3CA113",
"7S    c #349411",
"7T    c #2B8511",
"7U    c #257310",
"7V    c #1D730B",
"7W    c #094309",
"7X    c #072707",
"7Y    c #060D06",
"7Z    c #5DC71A",
"7&    c #60CA1B",
"8     c #63CC1C",
"80    c #65CE1D",
"81    c #67CE1D",
"82    c #68CF1D",
"83    c #68D01D",
"84    c #59C319",
"85    c #54BF18",
"86    c #4EB817",
"87    c #47AF16",
"88    c #40A615",
"89    c #399B12",
"8a    c #338F11",
"8b    c #2B8111",
"8c    c #247310",
"8d    c #247210",
"8e    c #0A580A",
"8f    c #050505",
"8g    c #0C4E0C",
"8h    c #58BC1A",
"8i    c #5ABF1B",
"8j    c #5DC01C",
"8k    c #5FC21D",
"8l    c #61C31D",
"8m    c #63C41D",
"8n    c #53B819",
"8o    c #4EB418",
"8p    c #4BAF17",
"8q    c #44A715",
"8r    c #3D9E14",
"8s    c #359312",
"8t    c #2F8711",
"8u    c #297B11",
"8v    c #072407",
"8w    c #061306",
"8x    c #0B4D0B",
"8y    c #217E0F",
"8z    c #3F9F12",
"8A    c #49A817",
"8B    c #4CAA18",
"8C    c #51AE19",
"8D    c #54B01A",
"8E    c #57B21B",
"8F    c #57B41B",
"8G    c #59B51C",
"8H    c #5AB61C",
"8I    c #44A316",
"8J    c #3E9B15",
"8K    c #399414",
"8L    c #328A12",
"8M    c #2C8011",
"8N    c #267711",
"8O    c #23720F",
"8P    c #23710E",
"8Q    c #287711",
"8R    c #2E8012",
"8S    c #338713",
"8T    c #398F15",
"8U    c #3D9516",
"8V    c #419917",
"8W    c #459C18",
"8X    c #489D18",
"8Y    c #4AA019",
"8Z    c #4CA21A",
"8&    c #4EA41B",
"9     c #4FA51B",
"90    c #50A61C",
"91    c #267411",
"92    c #267410",
"93    c #277611",
"94    c #2A7812",
"95    c #2E7A13",
"96    c #308014",
"97    c #358516",
"98    c #388816",
"99    c #3B8B17",
"9a    c #408E18",
"9b    c #419019",
"9c    c #429119",
"9d    c #44921A",
"9e    c #45941A",
"9f    c #46941A",
"9g    c #3F8E18",
"         0 1 2 3 4 4 4 4 4 4 4 4 4 4 4 4 4 4 4 4 3 2 1 0        ",
"     5 6 7 8 9 a b b b b b b b b b c d b b b b a a 9 8 7 6 5   e",
"   5 f g h i j k l l l l l l l l l m n o l l l l k j i h g f 5  ",
" e p g q r s t u u v w x y z z z z A B C m D u u u t s r q g p e",
" 5 E F G H I J K L M N O P Q R S S T U V W X Y Z &0 00 H G F E 5",
"0102 i03 I &0405060708090a0b0c0d0d0d0d0e0f0g0h0i0j0k m I03 i0201",
"0l0m0n0o0p0q0r0s0t0u0v0w0x0y0z0A0B0C0D0E0F0G0H0I0J C C0K0o0n0m0l",
"0L0M0N0O0P0Q0R0S0T0U0V0W0X0Y0Z0&1 101112131415161718191a0O0N0M0L",
"1b1c1d1e1f1g1h1i1j1k1l1m1n1o1o1o1o1p1q1r1s1t1u1v1w1h1g1f1e1d1c1b",
" f1x1y1z1A1B1C1D1E1F1G1H1I1J1K1K1K1K1I1L1M1N1O m1P1C1B1A1Q1y1x f",
" f1R1S1T1U1V1W1X1Y1Z1&2 20212223242526 d27 m1O1O28292a1U2b1S1R f",
"2c2d2e2f2g2h2i2j2k2l2m m2n2o2p2q2r2s2t2u2v2w2x2y2z2A2B2C m2D2d2c",
"2E2F2G2H2I2J2K2L2M2N2O2P2Q2R2S2T2T2T2U2V2W2X2Y2Z2&3 3031 C32332E",
"342F35363738392W3a3b3c3d3e3f3g3g3g3g3h3i3j3k2L3l3m3n38372W3o m3p",
"3q3r3s3t3u3v3w3x3y3z3A3B3C3D3E3F3F3G3H3C3C3I3J3y3K3L3v3u3M3N3O3P",
"3Q3R3S3T3U3V3W3j3z3X3E3Y3Z3&4 4041423&3Z3Y43443z45463V3U3T3S3R3Q",
"4748494a4b4c4d4e3D3Z4 4f4g4h4i4j4k4i4l4g4f4m4n3D4e4o4p4b4a494847",
"4q4r4s4t4u4v4w4x4y4z4i4A4B4j3i4C4D4E4E4F4G4H4z4y4x4I4J4K4L4s4r4q",
"4M4N4O4P4Q4R4S4T4U4V4W4X4Y4Z4&5 5050515253544V4U4T553i2W564O4N4M",
"5758595a5b5c5d5e4V5f525g m5h5i4j5j5k5l5m5n5o5f4V5p5q5r5s5t595857",
"5u5v5w5x5y5z5A5B5C5D5E C3i5F5G5H5H5H5I5J5K5L5M5N5B5O5P5Q5R5S5v5u",
"5u5T5U5V5W5X5Y5Z5&6 6061626364656564666768696a5&5Z5Y6b m6c5U6d5u",
"6e5T6f6g6h6i6j6k6l5F6m6n656o6p6q6q6p6r6s6t6u6v6w6k6j6x6y6z6f5T6e",
"6A6B6C m6D6E6F3i5L6G6H6I6J6K6L6L6L6L6K6M6N6O6P6Q6R6S6T6U6g6C6B6e",
"6V6W6X1O6Y6T6Z1O5o6&7 707172737373737274757 6&7677786T797a7b6W6V",
"7c6W5Q m7d7e C7f7g7h7i7j7k7l7m7m7m7m7l7n7o7i7p7q7r7s7t7d7u7v6W7c",
"7w7x7y7z7A2W7B7C7D7E7F7G7H7I7J7K7K7J7I7H7G7L7E7M7N7O7P7Q7R7S7T7w",
"7U7V7y4J1O7W607X7Y7Z7&8 80818283838281808 7&7Z8485868788898a8b8c",
"8d8e m3i8f3i m2W8g8h8i8j8k8l8m8m8m8m8l8k8j8i8h8n8o8p8q8r8s8t8u8d",
"8d8v1O8w8x8y8z8A8B8C8D8E8F8G8H8H8H8H8G8F8E8D8C8B8A8I8J8K8L8M8N8d",
"8O8P8Q8R8S8T8U8V8W8X8Y8Z8&9 909090909 8&8Z8Y8X8W8V8U8T8S8R8Q918O",
"8O92939495969798999a9b9c9d9e9e9f9f9e9e9d9c9b9g99989796959493928O"};
