/* XPM */
static char *B27_xpm[]={
"32 32 604 2",
"      c #1A680B",
" 0    c #1A690B",
" 1    c #1A6B0B",
" 2    c #1C6D0C",
" 3    c #1C6F0C",
" 4    c #1C700C",
" 5    c #1A6A0B",
" 6    c #1C700B",
" 7    c #1D730C",
" 8    c #1E780C",
" 9    c #1F7A0C",
" a    c #207C0C",
" b    c #217C0C",
" c    c #19680B",
" d    c #1C710C",
" e    c #1E770C",
" f    c #217E0C",
" g    c #21820C",
" h    c #22850C",
" i    c #24870C",
" j    c #25880C",
" k    c #044904",
" l    c #043D04",
" m    c #044504",
" n    c #1B700B",
" o    c #217F0C",
" p    c #22860C",
" q    c #258C0C",
" r    c #278F0C",
" s    c #27910C",
" t    c #045704",
" u    c #032903",
" v    c #010101",
" w    c #020D02",
" x    c #021202",
" y    c #020F02",
" z    c #022602",
" A    c #2F8718",
" B    c #3E9D25",
" C    c #1C740C",
" D    c #207F0C",
" E    c #22870C",
" F    c #258E0C",
" G    c #27930C",
" H    c #29970C",
" I    c #298F0D",
" J    c #023B02",
" K    c #011D01",
" L    c #2A5F1D",
" M    c #88B77C",
" N    c #A6D29A",
" O    c #A6D39B",
" P    c #8EBB83",
" Q    c #8CB880",
" R    c #39682E",
" S    c #012901",
" T    c #3D772E",
" U    c #78BD65",
" V    c #4DAA36",
" W    c #29990C",
" X    c #1A6C0B",
" Y    c #1D780C",
" Z    c #248C0C",
" &    c #055705",
"0     c #021602",
"00    c #296019",
"01    c #B7DDAD",
"02    c #C8E4C0",
"03    c #D0E7C9",
"04    c #D3E8CC",
"05    c #D4E9CD",
"06    c #D1E8CA",
"07    c #ADC8A6",
"08    c #1F4116",
"09    c #012201",
"0a    c #64AB4F",
"0b    c #39A41B",
"0c    c #2B9F0D",
"0d    c #1A6E0C",
"0e    c #1F7B0C",
"0f    c #21860C",
"0g    c #27910D",
"0h    c #2A990D",
"0i    c #044404",
"0j    c #020202",
"0k    c #45952F",
"0l    c #A3D796",
"0m    c #C1E3B9",
"0n    c #B4CBAC",
"0o    c #6C8067",
"0p    c #293A23",
"0q    c #1E2F19",
"0r    c #485943",
"0s    c #778871",
"0t    c #DCEED6",
"0u    c #D6ECCF",
"0v    c #C9E7C0",
"0w    c #81AE74",
"0x    c #012801",
"0y    c #2A940C",
"0z    c #2EA30D",
"0A    c #2BA00D",
"0B    c #1B700C",
"0C    c #207C0D",
"0D    c #23880D",
"0E    c #28930D",
"0F    c #055B05",
"0G    c #2EA70E",
"0H    c #64BE4A",
"0I    c #96D484",
"0J    c #4D7940",
"0K    c #204318",
"0L    c #4E6C45",
"0M    c #B4D1AC",
"0N    c #C5E0BD",
"0O    c #829E7A",
"0P    c #3A5632",
"0Q    c #0F2B06",
"0R    c #9DBF95",
"0S    c #BAE2AF",
"0T    c #A1D992",
"0U    c #54A23C",
"0V    c #020702",
"0W    c #168F06",
"0X    c #2DA20D",
"0Y    c #2A9C0D",
"0Z    c #1B710C",
"0&    c #207E0D",
"1     c #24890D",
"10    c #148005",
"11    c #077B07",
"12    c #30A90F",
"13    c #46B325",
"14    c #034E03",
"15    c #024202",
"16    c #8BC37D",
"17    c #ACDE9D",
"18    c #AFDFA0",
"19    c #B1DFA1",
"1a    c #B0DFA0",
"1b    c #93C484",
"1c    c #083E01",
"1d    c #2A6617",
"1e    c #81CD6C",
"1f    c #58BD3D",
"1g    c #054E05",
"1h    c #041E04",
"1i    c #2EA40E",
"1j    c #2A9D0D",
"1k    c #1B8806",
"1l    c #217E0D",
"1m    c #258A0D",
"1n    c #066906",
"1o    c #2FA50E",
"1p    c #31AB0F",
"1q    c #053105",
"1r    c #6EC753",
"1s    c #80CE68",
"1t    c #88D271",
"1u    c #8CD374",
"1v    c #8CD375",
"1w    c #8DD475",
"1x    c #8AD273",
"1y    c #73C05C",
"1z    c #034003",
"1A    c #044204",
"1B    c #34AF10",
"1C    c #32AE0F",
"1D    c #031503",
"1E    c #054C05",
"1F    c #053805",
"1G    c #207F0D",
"1H    c #054F05",
"1I    c #030303",
"1J    c #2CA00E",
"1K    c #31A70E",
"1L    c #053505",
"1M    c #054105",
"1N    c #36B110",
"1O    c #4DBB2A",
"1P    c #5DC23E",
"1Q    c #65C547",
"1R    c #69C64B",
"1S    c #6BC84C",
"1T    c #6CC84C",
"1U    c #6AC84C",
"1V    c #68C649",
"1W    c #60C342",
"1X    c #54BD32",
"1Y    c #030803",
"1Z    c #108B09",
"1&    c #33B00F",
"2     c #1C9608",
"20    c #042C04",
"21    c #066E06",
"22    c #1C720C",
"23    c #22800E",
"24    c #066406",
"25    c #2DA10E",
"26    c #118908",
"27    c #35B210",
"28    c #37B310",
"29    c #39B511",
"2a    c #46BA1F",
"2b    c #4DBD28",
"2c    c #51C02C",
"2d    c #53C12D",
"2e    c #54C12D",
"2f    c #50BF2A",
"2g    c #49BC24",
"2h    c #3DB715",
"2i    c #063606",
"2j    c #34B210",
"2k    c #33AE10",
"2l    c #31A80E",
"2m    c #0D7A06",
"2n    c #1D720D",
"2o    c #0F7C07",
"2p    c #2FA20E",
"2q    c #041A04",
"2r    c #075E07",
"2s    c #37B411",
"2t    c #3BB812",
"2u    c #3CB912",
"2v    c #41BB17",
"2w    c #46BD1C",
"2x    c #47BD1D",
"2y    c #44BD1A",
"2z    c #128E0A",
"2A    c #041704",
"2B    c #041104",
"2C    c #087B08",
"2D    c #34B010",
"2E    c #32A90F",
"2F    c #0A7807",
"2G    c #22810E",
"2H    c #1E730D",
"2I    c #054605",
"2J    c #279309",
"2K    c #2FA40F",
"2L    c #2FAA0B",
"2M    c #3AB712",
"2N    c #3CB812",
"2O    c #3DBB13",
"2P    c #3EBB13",
"2Q    c #3EBC13",
"2R    c #41BD14",
"2S    c #42BF15",
"2T    c #43BF15",
"2U    c #41BE14",
"2V    c #40BD13",
"2W    c #063006",
"2X    c #062F06",
"2Y    c #37B211",
"2Z    c #33AA0F",
"2&    c #0B7807",
"3     c #1E740D",
"30    c #053F05",
"31    c #2D9B0F",
"32    c #087A08",
"33    c #040704",
"34    c #32AD0C",
"35    c #3CBA13",
"36    c #41BE13",
"37    c #43C014",
"38    c #44C114",
"39    c #44C214",
"3a    c #45C214",
"3b    c #3DBA0F",
"3c    c #063106",
"3d    c #095D09",
"3e    c #3BB810",
"3f    c #39B512",
"3g    c #35AD10",
"3h    c #30A40F",
"3i    c #0C7A08",
"3j    c #23820E",
"3k    c #1F750D",
"3l    c #040404",
"3m    c #2D9C0F",
"3n    c #074507",
"3o    c #062A06",
"3p    c #3BB713",
"3q    c #42C014",
"3r    c #45C315",
"3s    c #46C415",
"3t    c #47C516",
"3u    c #48C516",
"3v    c #48C616",
"3w    c #41BF11",
"3x    c #062806",
"3y    c #052205",
"3z    c #3BB910",
"3A    c #38AF11",
"3B    c #33A710",
"3C    c #0C7B08",
"3D    c #24830E",
"3E    c #20760D",
"3F    c #064306",
"3G    c #309E10",
"3H    c #074707",
"3I    c #062C06",
"3J    c #3EBA13",
"3K    c #41BF14",
"3L    c #49C616",
"3M    c #4CC817",
"3N    c #4CC917",
"3O    c #4DC917",
"3P    c #4DCA17",
"3Q    c #0B7D0B",
"3R    c #0A730A",
"3S    c #3BB112",
"3T    c #35A911",
"3U    c #0F7D09",
"3V    c #25840F",
"3W    c #21760E",
"3X    c #33A011",
"3Y    c #0E810A",
"3Z    c #050D05",
"3&    c #39B40F",
"4     c #44C115",
"40    c #49C416",
"41    c #4AC716",
"42    c #4FCB18",
"43    c #4FCC18",
"44    c #51CD18",
"45    c #51CE18",
"46    c #229E0E",
"47    c #062306",
"48    c #0A6E0A",
"49    c #38AB12",
"4a    c #148109",
"4b    c #26850F",
"4c    c #21770E",
"4d    c #074C07",
"4e    c #309D0D",
"4f    c #3AAD12",
"4g    c #3CB60F",
"4h    c #48C416",
"4i    c #4DC717",
"4j    c #4FCA18",
"4k    c #50CD18",
"4l    c #52CE18",
"4m    c #54D019",
"4n    c #55D119",
"4o    c #56D219",
"4p    c #3EB810",
"4q    c #061A06",
"4r    c #061706",
"4s    c #1C890B",
"4t    c #288610",
"4u    c #22770E",
"4v    c #27840E",
"4w    c #1A870B",
"4x    c #3BAD12",
"4y    c #062906",
"4z    c #0B6D0B",
"4A    c #4CC717",
"4B    c #52CD18",
"4C    c #57D219",
"4D    c #59D31A",
"4E    c #5AD41A",
"4F    c #5BD51A",
"4G    c #5CD61A",
"4H    c #59D41A",
"4I    c #48BF15",
"4J    c #40B611",
"4K    c #085908",
"4L    c #298610",
"4M    c #23790F",
"4N    c #298710",
"4O    c #0A710A",
"4P    c #3FAF13",
"4Q    c #259B0D",
"4R    c #4FC918",
"4S    c #54CC18",
"4T    c #57D119",
"4U    c #5AD31A",
"4V    c #5CD51A",
"4W    c #5DD71A",
"4X    c #5FD81B",
"4Y    c #60D91B",
"4Z    c #53CC18",
"4&    c #4AC115",
"5     c #44BA14",
"50    c #095C09",
"51    c #073D07",
"52    c #2A8810",
"53    c #095B09",
"54    c #050505",
"55    c #40B113",
"56    c #47BC15",
"57    c #0A4D0A",
"58    c #0B5D0B",
"59    c #56CF19",
"5a    c #5DD61A",
"5b    c #60D81B",
"5c    c #61D91B",
"5d    c #63DB1C",
"5e    c #64DC1C",
"5f    c #65DC1C",
"5g    c #51CC18",
"5h    c #4CC316",
"5i    c #38A512",
"5j    c #339712",
"5k    c #298810",
"5l    c #24790F",
"5m    c #339812",
"5n    c #0E7F0C",
"5o    c #48BC15",
"5p    c #4FC517",
"5q    c #0A500A",
"5r    c #0C650C",
"5s    c #5DD51A",
"5t    c #62DA1B",
"5u    c #66DD1D",
"5v    c #67DE1D",
"5w    c #68DF1D",
"5x    c #59D119",
"5y    c #54CD18",
"5z    c #42B214",
"5A    c #3BA613",
"5B    c #25790F",
"5C    c #2C8A11",
"5D    c #349912",
"5E    c #28920D",
"5F    c #43B610",
"5G    c #51C617",
"5H    c #57CE19",
"5I    c #0B550B",
"5J    c #0D680D",
"5K    c #63D81B",
"5L    c #67DB1C",
"5M    c #68DD1D",
"5N    c #6ADE1D",
"5O    c #6BE01E",
"5P    c #66DB1C",
"5Q    c #60D61A",
"5R    c #5BD21A",
"5S    c #4BBE16",
"5T    c #43B314",
"5U    c #267A10",
"5V    c #2D8911",
"5W    c #349812",
"5X    c #3DA613",
"5Y    c #0A580A",
"5Z    c #083A08",
"5&    c #53C617",
"6     c #59CE18",
"60    c #5DD21A",
"61    c #0C580C",
"62    c #072307",
"63    c #0D5F0D",
"64    c #50C417",
"65    c #61D51A",
"66    c #63D61A",
"67    c #269913",
"68    c #0E610E",
"69    c #40B416",
"6a    c #68DB1D",
"6b    c #65D91C",
"6c    c #61D61B",
"6d    c #44B315",
"6e    c #267910",
"6f    c #349612",
"6g    c #3CA413",
"6h    c #45B115",
"6i    c #0A5C0A",
"6j    c #072107",
"6k    c #2D9F10",
"6l    c #5DD019",
"6m    c #63D31A",
"6n    c #41B215",
"6o    c #0F6C0F",
"6p    c #082708",
"6q    c #061D06",
"6r    c #071E07",
"6s    c #0C510C",
"6t    c #0D580D",
"6u    c #082A08",
"6v    c #67D81A",
"6w    c #66D61B",
"6x    c #62D31A",
"6y    c #59CB18",
"6z    c #53C417",
"6A    c #4ABC16",
"6B    c #257610",
"6C    c #2C8511",
"6D    c #349411",
"6E    c #3CA113",
"6F    c #42AC15",
"6G    c #4AB716",
"6H    c #0D780D",
"6I    c #0C5B0C",
"6J    c #57C816",
"6K    c #64D21B",
"6L    c #67D41C",
"6M    c #69D51D",
"6N    c #6AD61D",
"6O    c #6CD71D",
"6P    c #6DD81D",
"6Q    c #0C4B0C",
"6R    c #239012",
"6S    c #63D21B",
"6T    c #5FD01A",
"6U    c #5CCB19",
"6V    c #56C718",
"6W    c #51C017",
"6X    c #2B8511",
"6Y    c #257310",
"6Z    c #2B8111",
"6&    c #338F11",
"7     c #3A9B12",
"70    c #40A615",
"71    c #48AF16",
"72    c #4EB817",
"73    c #42AC12",
"74    c #0A410A",
"75    c #060806",
"76    c #0D5A0D",
"77    c #49B116",
"78    c #5DC619",
"79    c #67CE1D",
"7a    c #68CF1D",
"7b    c #68D01D",
"7c    c #62CA1A",
"7d    c #3DA515",
"7e    c #060F06",
"7f    c #093409",
"7g    c #60CA1B",
"7h    c #5DC71A",
"7i    c #59C319",
"7j    c #54BF18",
"7k    c #47AF16",
"7l    c #399B12",
"7m    c #247310",
"7n    c #247210",
"7o    c #297B11",
"7p    c #2F8711",
"7q    c #359312",
"7r    c #3D9E14",
"7s    c #44A715",
"7t    c #4BAF17",
"7u    c #4EB418",
"7v    c #54B819",
"7w    c #43A715",
"7x    c #0C470C",
"7y    c #060B06",
"7z    c #071B07",
"7A    c #0A300A",
"7B    c #0A310A",
"7C    c #071A07",
"7D    c #060E06",
"7E    c #117311",
"7F    c #48AB17",
"7G    c #5ABF1B",
"7H    c #58BC1A",
"7I    c #53B819",
"7J    c #267711",
"7K    c #2C8011",
"7L    c #328A12",
"7M    c #399414",
"7N    c #3E9B15",
"7O    c #44A316",
"7P    c #49A817",
"7Q    c #4CAA18",
"7R    c #51AE19",
"7S    c #54B01A",
"7T    c #57B21B",
"7U    c #429F16",
"7V    c #126B12",
"7W    c #419D16",
"7X    c #59B51C",
"7Y    c #57B41B",
"7Z    c #23720F",
"7&    c #267411",
"8     c #287711",
"80    c #2E8012",
"81    c #338713",
"82    c #398F15",
"83    c #3D9516",
"84    c #419917",
"85    c #459C18",
"86    c #489D18",
"87    c #4AA019",
"88    c #4CA21A",
"89    c #4EA41B",
"8a    c #4FA51B",
"8b    c #50A61C",
"8c    c #267410",
"8d    c #277611",
"8e    c #2A7812",
"8f    c #2E7B13",
"8g    c #308014",
"8h    c #358516",
"8i    c #388816",
"8j    c #3B8B17",
"8k    c #3F8D17",
"8l    c #419019",
"8m    c #429119",
"8n    c #44921A",
"8o    c #45941B",
"8p    c #46941B",
"8q    c #3E8D17",
"         0 1 2 3 4 4 4 4 4 4 4 4 4 4 4 4 4 4 4 4 3 2 1 0        ",
"     5 6 7 8 9 a b b b b b b b b b b b b b b b a a 9 8 7 6 5   c",
"   5 d e f g h i j j j j k l l l m j j j j j j j i h g f e d 5  ",
" c n e o p q r s s t u v w x x x y v v z A B s s s r q p o e n c",
" 5 C D E F G H I J K L M N N O O O P Q R S T U V W H G F E D C 5",
" X Y g Z G W &0 0001020304050505050505060708090a0b0c W G Z g Y X",
"0d0e0f0g0h0i0j0k0l0m0n0o0p0q0q0q0q0r0s0t0u0v0w0x0y0z0A0h0g0f0e0d",
"0B0C0D0E0F0j0G0H0I0J0K0L0M0N0N0N0N0O0P0Q0R0S0T0U0V0W0X0Y0E0D0C0B",
"0Z0&1 100j111213141516171819191919191a1b1c1d1e1f1g1h1i1j1k &0&0Z",
" d1l1m0j1n1o1p1q1g1r1s1t1u1v1w1w1w1w1u1x1y1z1A1B1C1D1E1F v v1l d",
" d1G1H1I1J1K1L1M1N1O1P1Q1R1S1T1T1T1T1U1V1W1X1Y1Z1&2 1I20210j1G d",
"22231I2425261I2728292a2b2c2d2e2e2e2e2d2f2g2h2i0j2j2k2l252m0j2322",
"2n D0j2o2p2q2r2s292t2u2v2w2x2x2x2x2x2w2y2z2A2B2C2s2D2E2p2F0j2G2n",
"2H2I1I2J2K0j2L2M2N2O2P2Q2R2S2T2T2T2T2U2V2W2X2O2N2M2Y2Z2K2&0j2G2H",
"3 301I31323334352P2V36373738393a3a3938373b3c3d3e353f3g3h3i0j3j3 ",
"3k1M3l3m3n3o3p2Q2V3q393r3s3t3u3v3v3u3t3s3r3w3x3y3z3p3A3B3C1I3D3k",
"3E3F3l3G3H3I3J3K383s3u3L3M3N3O3P3P3O3N3M3L3u3s3Q3l3R3S3T3U1I3V3E",
"3W3F3l3X3Y3Z3&4 40413O424344444545444443423O4140464748494a1I4b3W",
"4c4d3l4e4f1I4g4h4i4j4k4l4m4n4o4o4o4o4n4m4l4k4j4i4h4p4q4r4s1I4t4c",
"4u4v1I4w4x4y4z4A4j4B4m4C4D4E4F4G4G4F4H4D4C4m4B4j4A4I4J4K3l0j4L4u",
"4M4N3l4O4P4Q334R4S4T4U4V4W4X4Y4Y4Y4Y4X4W4V4U4T4Z4R4&5 4P50514N4M",
"4M52535455565758594U5a5b5c5d5e5f5f5e5d4Y5b5a4U595g5h56555i5j5k4M",
"5l525m545n5o5p5q5r5s5b5t5f5u5v5w5w5v5u5f5t5b5s5x5y5p5o5z5A5m525l",
"5B5C5D5E3l5F5G5H5I5J5K5L5M5N5O5O5O5O5N5M5P5K5Q5R5H5G5S5T5A5D5C5l",
"5U5V5W5X5Y5Z5&6 6061626364656666666768696a6b6c606 5&5S6d5X5W5V5U",
"6e5V6f6g6h6i6j6k6l6m6n6o6p6q6r6r6r6s6t6u6v6w6x6l6y6z6A6h6g6f5V6e",
"6B6C6D6E6F6G6H626I6J6K6L6M6N6O6P6P6O6N6Q6R6S6T6U6V6W6G6F6E6D6X6B",
"6Y6Z6&7 707172737475767778797a7b7b7c7d7e7f7g7h7i7j727k707l6&6Z7m",
"7n7o7p7q7r7s7t7u7v7w7x7y7z7A7B7B7B7C7D7E7F7G7H7I7u7t7s7r7q7p7o7n",
"7n7J7K7L7M7N7O7P7Q7R7S7T7U7V7V7V7V7W7X7Y7T7S7R7Q7P7O7N7M7L7K7J7n",
"7Z7&8 808182838485868788898a8b8b8b8b8a898887868584838281808 7&7Z",
"7Z8c8d8e8f8g8h8i8j8k8l8m8n8o8o8p8p8o8o8n8m8l8q8j8i8h8g8f8e8d8c7Z"};
