/* XPM */
static char *B28_xpm[]={
"32 32 543 2",
"      c #1A680B",
" 0    c #1A690B",
" 1    c #1A6B0B",
" 2    c #1C6D0C",
" 3    c #1C6F0C",
" 4    c #1C700C",
" 5    c #1A6A0B",
" 6    c #1C700B",
" 7    c #1D730C",
" 8    c #1E780C",
" 9    c #1F7A0C",
" a    c #207C0C",
" b    c #217C0C",
" c    c #19680B",
" d    c #1C710C",
" e    c #1E770C",
" f    c #217E0C",
" g    c #21820C",
" h    c #22850C",
" i    c #24870C",
" j    c #25880C",
" k    c #1B700B",
" l    c #217F0C",
" m    c #22860C",
" n    c #258C0C",
" o    c #278F0C",
" p    c #27910C",
" q    c #37991D",
" r    c #1D7706",
" s    c #237A0E",
" t    c #287C12",
" u    c #32861D",
" v    c #277B12",
" w    c #257B10",
" x    c #207909",
" y    c #2E8D15",
" z    c #1C740C",
" A    c #207F0C",
" B    c #22870C",
" C    c #258E0C",
" D    c #27930C",
" E    c #056305",
" F    c #032B03",
" G    c #024302",
" H    c #0D4B02",
" I    c #0A3F01",
" J    c #134308",
" K    c #103D05",
" L    c #000200",
" M    c #17450C",
" N    c #17440B",
" O    c #144309",
" P    c #0F4103",
" Q    c #0B4601",
" R    c #024702",
" S    c #033403",
" T    c #043B04",
" U    c #29970C",
" V    c #1A6C0B",
" W    c #1D780C",
" X    c #046904",
" Y    c #043004",
" Z    c #020202",
" &    c #042804",
"0     c #1E7107",
"00    c #508740",
"01    c #80A676",
"02    c #C8E4C0",
"03    c #D0E7C9",
"04    c #D2E7CB",
"05    c #3C5135",
"06    c #D4E9CD",
"07    c #D1E8CA",
"08    c #CBE5C4",
"09    c #A6C99E",
"0a    c #5B8C4F",
"0b    c #32791D",
"0c    c #044B04",
"0d    c #031303",
"0e    c #056005",
"0f    c #046D04",
"0g    c #1A6E0C",
"0h    c #1F7B0C",
"0i    c #045704",
"0j    c #030303",
"0k    c #044004",
"0l    c #259907",
"0m    c #2EA30D",
"0n    c #72C15B",
"0o    c #A3D796",
"0p    c #C1E3B9",
"0q    c #D3EBCB",
"0r    c #DAEED4",
"0s    c #CDDEC7",
"0t    c #3F503A",
"0u    c #DEEFD9",
"0v    c #DEEFD8",
"0w    c #DCEED6",
"0x    c #D6ECCF",
"0y    c #C9E7C0",
"0z    c #B1DDA4",
"0A    c #85CB72",
"0B    c #45AF26",
"0C    c #279C07",
"0D    c #077C06",
"0E    c #031103",
"0F    c #030403",
"0G    c #1B700C",
"0H    c #056205",
"0I    c #218C06",
"0J    c #2A9C0D",
"0K    c #2DA20D",
"0L    c #2EA70E",
"0M    c #64BE4A",
"0N    c #96D484",
"0O    c #B4DFA7",
"0P    c #C3E6BB",
"0Q    c #CBE8C2",
"0R    c #BDD9B5",
"0S    c #2E4A27",
"0T    c #CFEAC7",
"0U    c #CDE9C4",
"0V    c #C7E8BF",
"0W    c #BAE2AF",
"0X    c #A1D992",
"0Y    c #79C761",
"0Z    c #37AC15",
"0&    c #1F8A06",
"1     c #1B710C",
"10    c #055B05",
"11    c #28940D",
"12    c #2A9D0D",
"13    c #2EA40E",
"14    c #30A90F",
"15    c #46B325",
"16    c #76C85E",
"17    c #94D581",
"18    c #A3DB94",
"19    c #ACDE9D",
"1a    c #9ECE8F",
"1b    c #113F01",
"1c    c #B1DFA1",
"1d    c #B0DFA0",
"1e    c #AEDF9F",
"1f    c #A7DD98",
"1g    c #9BD788",
"1h    c #81CD6C",
"1i    c #58BD3D",
"1j    c #32AC0F",
"1k    c #056105",
"1l    c #055905",
"1m    c #2C9F0E",
"1n    c #2FA50E",
"1o    c #31AB0F",
"1p    c #32AE0F",
"1q    c #52BA32",
"1r    c #6EC753",
"1s    c #80CE68",
"1t    c #88D271",
"1u    c #7BC263",
"1v    c #023202",
"1w    c #8DD475",
"1x    c #8CD374",
"1y    c #8AD273",
"1z    c #83D06C",
"1A    c #76CA5C",
"1B    c #5DC13F",
"1C    c #34AF10",
"1D    c #066505",
"1E    c #042404",
"1F    c #031403",
"1G    c #097F08",
"1H    c #28A209",
"1I    c #2DAA09",
"1J    c #36B110",
"1K    c #4DBB2A",
"1L    c #5DC23E",
"1M    c #65C547",
"1N    c #5DBA3F",
"1O    c #032603",
"1P    c #6CC84C",
"1Q    c #6AC84C",
"1R    c #68C649",
"1S    c #60C342",
"1T    c #54BD32",
"1U    c #3CB516",
"1V    c #1C720C",
"1W    c #065D06",
"1X    c #2A970E",
"1Y    c #077207",
"1Z    c #042104",
"1&    c #040D04",
"2     c #041E04",
"20    c #076407",
"21    c #086508",
"22    c #076A07",
"23    c #076D07",
"24    c #299808",
"25    c #052C05",
"26    c #54C12D",
"27    c #53C12D",
"28    c #3AA914",
"29    c #076C07",
"2a    c #086708",
"2b    c #1D720D",
"2c    c #065F06",
"2d    c #2B980E",
"2e    c #2FA20E",
"2f    c #32A90F",
"2g    c #34B010",
"2h    c #2AA70A",
"2i    c #064106",
"2j    c #064306",
"2k    c #064406",
"2l    c #064606",
"2m    c #052D05",
"2n    c #052705",
"2o    c #052505",
"2p    c #063506",
"2q    c #1E730D",
"2r    c #040404",
"2s    c #2C980E",
"2t    c #2FA40F",
"2u    c #33AA0F",
"2v    c #37B211",
"2w    c #3AB712",
"2x    c #3CB812",
"2y    c #3DBB13",
"2z    c #3EBB13",
"2A    c #3EBC13",
"2B    c #229E0C",
"2C    c #040E04",
"2D    c #1B970C",
"2E    c #209D0C",
"2F    c #1E740D",
"2G    c #076007",
"2H    c #2D9B0F",
"2I    c #30A40F",
"2J    c #35AD10",
"2K    c #3AB512",
"2L    c #3CBA13",
"2M    c #40BD13",
"2N    c #41BE13",
"2O    c #43C014",
"2P    c #35B20E",
"2Q    c #062206",
"2R    c #44C214",
"2S    c #45C214",
"2T    c #39B512",
"2U    c #1F750D",
"2V    c #076107",
"2W    c #2D9C0F",
"2X    c #33A710",
"2Y    c #38AF11",
"2Z    c #3BB713",
"2&    c #42C014",
"3     c #45C315",
"30    c #39B70F",
"31    c #062506",
"32    c #48C516",
"33    c #48C616",
"34    c #20760D",
"35    c #086308",
"36    c #309E10",
"37    c #35A911",
"38    c #3BB112",
"39    c #3EBA13",
"3a    c #41BF14",
"3b    c #44C114",
"3c    c #46C415",
"3d    c #28A50F",
"3e    c #29A60F",
"3f    c #1C980F",
"3g    c #051205",
"3h    c #2DA910",
"3i    c #2DAA10",
"3j    c #061C06",
"3k    c #1D990F",
"3l    c #21760E",
"3m    c #086408",
"3n    c #33A011",
"3o    c #38AB12",
"3p    c #3DB412",
"3q    c #158F0C",
"3r    c #095509",
"3s    c #0A590A",
"3t    c #095109",
"3u    c #072E07",
"3v    c #073007",
"3w    c #073107",
"3x    c #072D07",
"3y    c #083208",
"3z    c #083308",
"3A    c #072B07",
"3B    c #0B6B0B",
"3C    c #41BC14",
"3D    c #21770E",
"3E    c #040C04",
"3F    c #34A212",
"3G    c #085408",
"3H    c #061806",
"3I    c #083F08",
"3J    c #0C6F0C",
"3K    c #0E860E",
"3L    c #50CD18",
"3M    c #52CE18",
"3N    c #54D019",
"3O    c #55D119",
"3P    c #56D219",
"3Q    c #083608",
"3R    c #52CE17",
"3S    c #0A5D0A",
"3T    c #061E06",
"3U    c #073307",
"3V    c #13870B",
"3W    c #22770E",
"3X    c #0F6C09",
"3Y    c #062E06",
"3Z    c #085208",
"3&    c #32A70D",
"4     c #46BD14",
"40    c #4CC717",
"41    c #4FCA18",
"42    c #52CD18",
"43    c #57D219",
"44    c #59D31A",
"45    c #5AD41A",
"46    c #5BD51A",
"47    c #5CD61A",
"48    c #48C215",
"49    c #37AF10",
"4a    c #148A0C",
"4b    c #051605",
"4c    c #085F08",
"4d    c #041004",
"4e    c #23790F",
"4f    c #0D6A0A",
"4g    c #096109",
"4h    c #3FAF13",
"4i    c #44BA14",
"4j    c #4AC115",
"4k    c #4FC918",
"4l    c #54CC18",
"4m    c #57D119",
"4n    c #5AD31A",
"4o    c #5CD51A",
"4p    c #5DD71A",
"4q    c #5FD81B",
"4r    c #60D91B",
"4s    c #093709",
"4t    c #4CC615",
"4u    c #53CC18",
"4v    c #084E08",
"4w    c #12700A",
"4x    c #096509",
"4y    c #040B04",
"4z    c #38A512",
"4A    c #40B113",
"4B    c #47BC15",
"4C    c #4CC316",
"4D    c #51CC18",
"4E    c #56CF19",
"4F    c #5DD61A",
"4G    c #60D81B",
"4H    c #61D91B",
"4I    c #63DB1C",
"4J    c #64DC1C",
"4K    c #65DC1C",
"4L    c #093A09",
"4M    c #4FC816",
"4N    c #096609",
"4O    c #24790F",
"4P    c #0F6C0A",
"4Q    c #040604",
"4R    c #37A20F",
"4S    c #42B214",
"4T    c #48BC15",
"4U    c #4FC517",
"4V    c #54CD18",
"4W    c #5AD119",
"4X    c #5DD51A",
"4Y    c #62DA1B",
"4Z    c #66DD1D",
"4&    c #67DE1D",
"5     c #68DF1D",
"50    c #0A3C0A",
"51    c #54CB17",
"52    c #59D119",
"53    c #0E6B0A",
"54    c #25790F",
"55    c #2C8A11",
"56    c #0A630A",
"57    c #051305",
"58    c #0A610A",
"59    c #4ABD15",
"5a    c #51C617",
"5b    c #57CE19",
"5c    c #5BD21A",
"5d    c #60D61A",
"5e    c #63D81B",
"5f    c #67DB1C",
"5g    c #68DD1D",
"5h    c #6ADE1D",
"5i    c #6BE01E",
"5j    c #0A3E0A",
"5k    c #57CC18",
"5l    c #66DB1C",
"5m    c #267A10",
"5n    c #2D8911",
"5o    c #349812",
"5p    c #137C0B",
"5q    c #094B09",
"5r    c #0B520B",
"5s    c #178D10",
"5t    c #1C9110",
"5u    c #61D61B",
"5v    c #65D91C",
"5w    c #68DB1D",
"5x    c #6ADD1D",
"5y    c #6BDF1E",
"5z    c #6DE01E",
"5A    c #0B450B",
"5B    c #267910",
"5C    c #349612",
"5D    c #3CA413",
"5E    c #45B115",
"5F    c #4ABC16",
"5G    c #18890E",
"5H    c #0A4B0A",
"5I    c #0B500B",
"5J    c #0B4A0B",
"5K    c #0B4B0B",
"5L    c #0C4F0C",
"5M    c #0C510C",
"5N    c #0C520C",
"5O    c #3FB016",
"5P    c #45B616",
"5Q    c #0D530D",
"5R    c #040804",
"5S    c #0B490B",
"5T    c #257610",
"5U    c #2C8511",
"5V    c #349411",
"5W    c #3CA113",
"5X    c #42AC15",
"5Y    c #4AB716",
"5Z    c #51C017",
"5&    c #57C718",
"6     c #5CCB19",
"60    c #36A613",
"61    c #309E13",
"62    c #33A014",
"63    c #35A214",
"64    c #36A214",
"65    c #0D570D",
"66    c #0C540C",
"67    c #39A415",
"68    c #38A315",
"69    c #41AE16",
"6a    c #2F9E13",
"6b    c #56C718",
"6c    c #2B8511",
"6d    c #257310",
"6e    c #2B8111",
"6f    c #338F11",
"6g    c #3A9B12",
"6h    c #40A615",
"6i    c #48AF16",
"6j    c #4EB817",
"6k    c #55BF18",
"6l    c #59C319",
"6m    c #5DC71A",
"6n    c #60CA1B",
"6o    c #63CC1C",
"6p    c #65CE1D",
"6q    c #67CE1D",
"6r    c #68CF1D",
"6s    c #68D01D",
"6t    c #54BF18",
"6u    c #47AF16",
"6v    c #399B12",
"6w    c #247310",
"6x    c #247210",
"6y    c #297B11",
"6z    c #2F8711",
"6A    c #359312",
"6B    c #3D9E14",
"6C    c #44A715",
"6D    c #4BAF17",
"6E    c #4EB418",
"6F    c #54B819",
"6G    c #58BC1A",
"6H    c #5ABF1B",
"6I    c #5DC01C",
"6J    c #5FC21D",
"6K    c #61C31D",
"6L    c #63C41D",
"6M    c #53B819",
"6N    c #267711",
"6O    c #2C8011",
"6P    c #328A12",
"6Q    c #399414",
"6R    c #3E9B15",
"6S    c #44A316",
"6T    c #49A817",
"6U    c #4CAA18",
"6V    c #51AE19",
"6W    c #54B01A",
"6X    c #57B21B",
"6Y    c #57B41B",
"6Z    c #59B51C",
"6&    c #5AB61C",
"7     c #23720F",
"70    c #267411",
"71    c #287711",
"72    c #2E8012",
"73    c #338713",
"74    c #398F15",
"75    c #3D9516",
"76    c #419917",
"77    c #459C18",
"78    c #489D18",
"79    c #4AA019",
"7a    c #4CA21A",
"7b    c #4EA41B",
"7c    c #4FA51B",
"7d    c #50A61C",
"7e    c #277410",
"7f    c #287611",
"7g    c #2A7812",
"7h    c #2E7B13",
"7i    c #308014",
"7j    c #358616",
"7k    c #388916",
"7l    c #3B8C17",
"7m    c #3F8E17",
"7n    c #408F18",
"7o    c #429118",
"7p    c #449219",
"7q    c #45941A",
"7r    c #46941A",
"7s    c #3E8E17",
"7t    c #277611",
"         0 1 2 3 4 4 4 4 4 4 4 4 4 4 4 4 4 4 4 4 3 2 1 0        ",
"     5 6 7 8 9 a b b b b b b b b b b b b b b b a a 9 8 7 6 5   c",
"   5 d e f g h i j j j j j j j j j j j j j j j j i h g f e d 5  ",
" c k e l m n o p p q r s t u v v v v v w x y p p p o n m l e k c",
" 5 z A B C D E F G H I J K L M M M N N O P Q R S T U D C B A z 5",
" V W g X Y Z &0 00010203040506060606060708090a0b0c Z0d0e0f g W V",
"0g0h0i0j0k0l0m0n0o0p0q0r0s0t0u0u0u0u0v0w0x0y0z0A0B0C0D0E0F0i0h0g",
"0G0H0j0I0J0K0L0M0N0O0P0Q0R0S0T0T0T0T0T0U0V0W0X0Y0Z0L0K0J0&0j0H0G",
"1 100j1112131415161718191a1b1c1c1c1c1d1e1f1g1h1i1j141312110j101 ",
" d1k Z1l1m1n1o1p1q1r1s1t1u1v1w1w1w1w1x1y1z1A1B1C1p1o1n1m1l Z1k d",
" d1D Z1E1F1G1H1I1J1K1L1M1N1O1P1P1P1P1Q1R1S1T1U1J1I1H1G1F1E Z1D d",
"1V1W0F1X1Y1Z1&2 202122232425262626262728292a21202 1&1Z1Y1X0F1W1V",
"2b2c0j2d2e2f2g2h2i2j2k2l2m Z2n2n2n2n2o2p2k2k2j2i2h2g2f2e2d0j2c2b",
"2q2c2r2s2t2u2v2w2x2y2z2A2B2C2D2D2D2D2r2E2A2z2y2x2w2v2u2t2s2r2c2q",
"2F2G2r2H2I2J2K2L2z2M2N2O2P2Q2R2S2S2R2Q2P2O2N2M2z2L2T2J2I2H2r2G2F",
"2U2V2r2W2X2Y2Z2A2M2&2R3 30313233333231303 2R2&2M2A2Z2Y2X2W2r2V2U",
"34352r363738393a3b3c3d3e3f3g3h3i3i3h3j3k3e3d3c3b3a393837362r3534",
"3l3m2r3n3o3p3q3r3s3t3u3v3w3x3y3z3z3y0j3A3v3u3t3s3B3C3p3o3n2r3m3l",
"3D3m3E3F3G3H3I3B3J3K3L3M3N3O3P3P3P3P3Q3R3M3L3K3J3S3T3U3V3F2r213D",
"3W3X0j3Y3Z3&4 4041423N434445464747463z48433N424140494a4b4c4d3m3W",
"4e4f2r4g4h4i4j4k4l4m4n4o4p4q4r4r4r4r4s4t4o4n4m4u4k4j4i4h4v Z4w4e",
"4e4x4y4z4A4B4C4D4E4n4F4G4H4I4J4K4K4J4L4M4G4F4n4E4D4C4B4A4z2r4N4e",
"4O4P4Q4R4S4T4U4V4W4X4G4Y4K4Z4&5 5 4&50514Y4G4X524V4U4T4S4R4Q534O",
"5455565758595a5b5c5d5e5f5g5h5i5i5i5i5j5k5l5e5d5c5b5a59585756554O",
"5m5n5o5p5q3T5r5s5t5u5v5w5x5y5z5z5z5z5A5x5w5v5u5t5s5r3T5q5p5o5n5m",
"5B5n5C5D5E5F5G5H5I5J5K5L5M5N5O5P5Q5Q5R5S5L5K5J5I5H5G5F5E5D5C5n5B",
"5T5U5V5W5X5Y5Z5&6 6061626364656667686964626a606 6b5Z5Y5X5W5V6c5T",
"6d6e6f6g6h6i6j6k6l6m6n6o6p6q6r6s6s6r6q6p6o6n6m6l6t6j6u6h6v6f6e6w",
"6x6y6z6A6B6C6D6E6F6G6H6I6J6K6L6L6L6L6K6J6I6H6G6M6E6D6C6B6A6z6y6x",
"6x6N6O6P6Q6R6S6T6U6V6W6X6Y6Z6&6&6&6&6Z6Y6X6W6V6U6T6S6R6Q6P6O6N6x",
"7 707172737475767778797a7b7c7d7d7d7d7c7b7a797877767574737271707 ",
"6x7e7f7g7h7i7j7k7l7m7n7o7p7q7q7r7r7q7q7p7o7n7s7l7k7j7i7h7g7t7e6x"};
